<svg xmlns="http://www.w3.org/2000/svg" style="transition:transform .15s ease-out;transform-origin:center center;transform:translate(0,0) scale(1)" viewBox="0 0 900 900"><path fill="none" stroke="#000" stroke-miterlimit="10" stroke-width="2" d="M14.84 799.19h67.48v66.32" class="noEdit"/><path fill="#fff" stroke="#000" stroke-miterlimit="10" d="M62.77 820.37c-1.05.58-4.65 5.47-6.52 7.1-1.86 1.75-4.19 4.89-5.58 3.03-1.28-1.86-3.61-4.89-4.89-3.61s-2.09 2.68 1.51 5.12c3.61 2.56 1.05 3.49-1.98 4.07-3.03.7-7.68 2.21-7.91 4.19-.23 1.98-.35 5.47-.93 6.52s-4.07 3.84-3.72 4.89c.35 1.05.81 5.12 1.86 5 1.05-.12 5.12-1.98 4.77-4.19s-.35-4.19 2.68-5.82c3.03-1.63.12-5.58 1.86-6.4s1.63-.23 3.14-1.16c1.63-.93 5.24-3.14 7.45-4.42 2.09-1.16 4.19-3.49 5.82-3.61 1.63-.12 5.12-2.56 5.12-4.65 0-1.86-.81-7.21-2.68-6.05Z" class="JP47"/><path fill="#fff" stroke="#000" stroke-miterlimit="10" d="M135.84 711.46c.81-2.33 1.16-5.58-1.98-4.07s-2.33 2.91-6.17.81c-2.68-1.51-8.26-2.68-11.4-3.26-.93.93-1.75 2.44-3.26 2.09-2.21-.58-.23-3.84-1.51-4.31-1.28-.47-3.96.7-4.54 1.63s-1.4 2.09-.58 3.26 2.91 7.68.7 6.17c-.81-.58-1.4-1.16-1.86-1.63-.35.81-.81 1.86-.93 2.33-.23.81 1.98 5 4.65 6.75s3.84 5.47 6.75 7.91c1.63 1.4 4.42 2.33 6.75 2.79.35-.47.58-.81.47-1.16-.7-1.51-4.54-6.05-3.37-6.98s2.79-4.19 3.72-4.31c.93-.12 2.21 2.44 3.14 2.56.23 0 .47 0 .7.12 0-.93.12-1.86.47-2.44.93-1.63 7.56-5.93 8.26-8.26Z" class="JP41"/><path fill="#fff" stroke="#000" stroke-miterlimit="10" d="M108.97 721.23c-2.68-1.75-4.89-6.05-4.65-6.75.12-.47.58-1.51.93-2.33-.81-.93-1.28-1.51-1.86-1.16-.93.58-3.14.58-5.82 0s0 1.28-1.05 3.72-1.63 3.72-.93 4.07 3.37 1.4 4.07 2.56c.7 1.05 4.31 1.4 4.07 2.09-.23.58-1.75 1.86-.12 2.33 1.63.35 3.72-.47 5.7 1.28s1.4 1.16 1.75 4.19c.35 3.03 3.14 6.28 2.44 6.17-.7-.12-3.49-1.75-4.54-1.51s-2.09.35-2.44-.93-.35-3.61-1.4-4.42c-1.05-.81-2.09-1.05-2.09-2.09s0-2.33-1.28-2.79-2.09-.47-2.09.93-1.75 4.07-.58 6.05c1.16 1.86 1.16 5.35 3.03 5.7 1.75.23 5 3.37 5 4.19s-.58.93-1.05 1.75.58 1.16-.35 2.33c-.93 1.05-2.91 4.31-1.4 3.61 1.4-.7 5.35-4.07 5.7-4.65.23-.58 3.61-4.54 5.24-5.12s5.7-.93 6.05-.35c.35.58 1.4 2.91-.47 4.07-1.98 1.16-1.63 2.79-.7 3.96.93 1.16 2.91 1.4 3.61.12s4.07-1.75 4.65-3.26c.58-1.4 1.63-4.19.7-6.05-.93-1.75-1.51-4.42-3.72-3.61s-4.54 2.44-6.63 1.4c-1.63-.7 2.44-2.91 3.96-4.65-2.21-.58-5.12-1.51-6.75-2.79-3.14-2.68-4.31-6.29-6.98-8.03Z" class="JP42"/><path fill="#fff" stroke="#000" stroke-miterlimit="10" d="M149.46 721.35c-.93-2.68-1.98-10.82 2.56-14.08 4.42-3.26 8.49-1.98 9.08-3.26.23-.58.7-2.44 1.05-4.31-2.21-.7-3.96-1.75-4.65-3.03-1.98-3.72-4.54-6.86-3.72-8.49.81-1.63 2.33-4.89 1.4-5.24-.81-.35-3.37 2.68-4.31 2.33-.93-.35-3.61-2.21-5.24-2.09-1.63.12-3.72-.12-4.77.93s-3.61.35-5.47 2.09c-1.98 1.63-1.98 6.4-4.19 8.03-2.33 1.63-6.63 2.56-4.65 3.03s4.42.12 3.72.81c-.7.7-4.07 3.49-4.89 2.33s-1.16-3.49-2.33-3.26c-1.05.23-5.12 2.91-4.89 3.96s.81 2.91-.58 3.26c-.35.12-.7.35-1.05.7 3.14.58 8.73 1.75 11.4 3.26 3.84 2.09 3.14.81 6.17-.81 3.14-1.51 2.68 1.75 1.98 4.07-.81 2.33-7.33 6.63-8.38 8.14-.35.58-.47 1.51-.47 2.44 1.05.12 2.44.47 2.79 1.28.35.93 1.75 3.84 1.05 4.42-.58.47-.23 1.28-.12 2.44 1.75.12 3.14 0 3.49-.47.58-.93 1.51-4.89 3.72-5.58 2.09-.81 2.68-2.91 5-1.98 1.51.7 4.07 1.75 6.28 2.91.24-1.63.35-2.79 0-3.84Z" class="JP40"/><path fill="#fff" stroke="#000" stroke-miterlimit="10" d="M197.4 733.33c-.93-1.16-5.35-1.51-5-2.79.35-1.16 4.42-4.07 3.96-4.89s-4.77-.35-4.65-1.16c.12-.81.7-1.98-.12-1.75-.81.12-2.33 1.16-2.56.12s5.82-6.17 1.98-5.82-6.98-.81-8.73-.93-4.07 1.98-5.93.12c-1.75-1.75-.47-4.07.35-4.19s4.89.93 4.77-1.4c-.12-2.44 4.07-1.4 3.96-5.47s-.81-8.26-5.24-8.96c-3.14-.47-6.75 4.65-7.45 5.24-.47.35-6.17-.12-10.47-1.63-.35 1.98-.81 3.72-1.05 4.31-.58 1.4-4.65 0-9.08 3.26-4.42 3.26-3.49 11.4-2.56 14.08.35 1.05.23 2.21-.12 3.61 1.05.58 1.98 1.05 2.68 1.63 2.09 1.51 3.84 1.4 3.72-.35-.12-1.75-3.49-5 1.16-5.24 4.65-.23 5.58 2.56 6.63 5 1.05 2.44 1.16 8.38 3.49 9.66 2.33 1.28 4.42 2.33 6.98 2.56 2.56.23 1.51 3.14 5.24 3.14s5-2.09 5.82-3.26c.81-1.16 4.07 0 4.31 1.4.12.47.35 1.63.81 2.79.81-1.05.93-2.21 2.21-2.56 1.63-.35 3.72-2.33 2.91-3.14-1.28-1.05 2.91-2.21 1.98-3.37Z" class="JP44"/><path fill="#fff" stroke="#000" stroke-miterlimit="10" d="M156.79 770.33c3.14.35-.58-4.89.58-6.17 1.16-1.4-.23-5.24-1.75-7.33-1.51-2.09-1.4-5.82 1.16-6.98 2.56-1.16 7.21-8.38 7.56-10.24.23-1.16 1.63-2.21 3.49-3.26-.35-.23-.7-.35-1.05-.58-2.33-1.4-2.56-7.21-3.49-9.66-.93-2.56-1.98-5.24-6.63-5-4.65.23-1.4 3.49-1.16 5.24.23 1.75-1.51 1.98-3.72.35-2.09-1.51-6.63-3.49-8.96-4.42-2.33-.93-2.91 1.16-5 1.98-2.09.81-3.14 4.65-3.72 5.58-.35.47-1.75.58-3.49.47 0 .35.12.58.12.93 0 1.63 1.51 3.26 3.49 4.19 1.98.93 3.96 1.75 3.72 3.96-.23 2.21.47 3.96-2.09 5.12-2.56 1.16-5.93 3.49-5.93 4.65s1.05 2.33 1.75 1.63c.7-.58 2.21-1.4 3.49-2.44 1.28-.93 5.12-1.98 4.54-1.05-.58.81-2.21 3.37-3.61 4.19-1.4.81-.47 6.28-2.44 7.8-1.98 1.51-4.19 8.14-5.12 8.49-.47.12-.7 1.05-.93 1.98.47.58.93.93 1.75 1.51 2.33 1.4 6.75-2.09 9.31-.81 2.44 1.28 3.26 2.44 3.49 3.72 3.03-.81 5.82-1.51 6.75-1.98 2.68-1.05 4.77-2.21 7.91-1.86Z" class="JP43"/><path fill="#fff" stroke="#000" stroke-miterlimit="10" d="M189.13 739.38c-.23-1.4-3.49-2.56-4.31-1.4s-2.09 3.26-5.82 3.26-2.68-2.91-5.24-3.14c-2.09-.12-3.96-.93-5.93-1.98-1.86 1.16-3.26 2.09-3.49 3.26-.35 1.98-5 9.08-7.56 10.24-2.56 1.16-2.68 4.89-1.16 6.98s2.91 6.05 1.75 7.33c-1.16 1.4 2.56 6.63-.58 6.17-3.14-.35-5.24.81-7.56 1.98-.93.47-3.72 1.28-6.75 1.98v.12c.23 1.4 2.56 4.42 4.07 5.82 1.51 1.4 3.26 2.33 3.14 3.84-.23 1.51-1.4 3.49.58 4.31 1.98.81 2.56 1.4 5.47 5.24s7.91 1.51 7.21 4.89c-.35 1.75-1.05 3.96-1.51 5.82 1.16.58 1.98 1.4 1.98 1.98 0 1.28 3.72 2.44 4.89 1.4 1.16-.93-.7-6.17 1.98-8.84 2.68-2.79 3.14-7.8 3.03-10.82-.12-3.03.35-7.21 1.75-11.87s4.89-14.31 6.17-16.29c1.16-2.09 0-3.49.93-4.65.93-1.16 1.05-4.31 2.79-5.7 1.63-1.28 1.51-5.24 3.84-6.28.58-.23 1.05-.58 1.28-.93-.58-1.05-.93-2.21-.93-2.68Z" class="JP45"/><path fill="#fff" stroke="#000" stroke-miterlimit="10" d="M155.62 793.61c-2.91-3.84-3.49-4.42-5.47-5.24s-.81-2.68-.58-4.31c.23-1.51-1.51-2.56-3.14-3.84-1.51-1.4-3.84-4.42-4.07-5.82-.23-1.4-.93-2.56-3.49-3.84-2.56-1.4-6.98 2.09-9.31.81-.81-.47-1.4-.93-1.75-1.51-.35 1.16-.81 2.33-1.86 2.33-1.75 0-4.65-.81-5-1.63-.35-.81 0-4.54-1.4-3.96-1.4.58-3.26 1.05-2.79 2.44.47 1.28.58 3.37 2.33 4.19 1.63.81 3.49.93 2.09 2.79-1.4 1.75-.35 2.09.12 3.26.47 1.16.7 4.19-.7 6.28s-.93 4.07 1.63 6.17c2.68 2.09 5.7 6.28 3.96 10.01-1.63 3.72-3.49 5.7-4.42 5-.93-.58-2.56-1.98-3.14-1.28-.58.58-.35 2.09.12 2.56.47.47 3.14 3.72 3.03 4.89-.12 1.16 1.75 2.44 2.21 1.63.35-.7 1.4-.7 3.37-.23 1.98.47 3.72-1.16 5.24.47 1.51 1.63.35 3.37 1.4 3.49s4.65.47 5.24-.93 1.28-3.03.58-3.49-3.96-1.28-4.54-3.49-.93-6.4-.47-8.38c.47-2.09 2.44-5.24 2.91-6.75.47-1.4.35-3.72 2.09-3.84 1.63-.12 5.82 1.05 6.28 2.21.47 1.05-.58 5.82-2.44 5.7-1.75-.12-1.51-3.37-3.37-3.03-1.75.35-2.44 1.51-2.44 2.09 0 .47-.81 1.51 1.05 1.63 1.98.12 2.44.47 2.44.81s.12 3.03 1.16 3.96c1.05.93 2.91 5 2.68 7.68-.23 2.68-1.16 6.75-2.79 7.8-1.51 1.05-1.51 6.4-.7 5.7s3.72-3.03 6.28-3.84 6.63-4.65 7.8-5.7c1.16-.93 3.96-3.03 2.91-4.54s-5.12-4.42-2.33-6.86c1.63-1.28 3.49-1.16 4.89-.47.47-1.86 1.05-4.19 1.51-5.82.82-3.61-4.19-1.28-7.1-5.12Z" class="JP46"/><path fill="#fff" stroke="#000" stroke-miterlimit="10" d="M284.54 695.64c-1.98 0-3.14 0-3.49-.93s-.81-5.47-2.91-5.24-4.31.93-5.47.58c-.81-.23-6.4-3.03-9.77-4.65-.35.23-.7.35-1.05.58-2.09 1.16-8.73 1.51-14.89 4.31-6.17 2.68-6.98 9.66-8.73 12.92s-6.75 2.91-7.8 3.26c-.93.35 1.4 2.33 1.51 4.89.23 2.56-3.49 5.47-5.58 6.98-2.09 1.51-3.49 7.56-3.26 10.47.12.93-.81 2.68-2.09 4.65.35 0 .58 0 .93-.12 2.09-.12 3.37.81 2.21 1.75s-2.91 5.7-1.98 5.47c.93-.12 6.05 1.4 6.98 1.4s3.03-3.14 4.42-2.79 3.14 5.12 3.61 3.26c.47-1.98-2.21-4.19-1.16-5.93.93-1.63.7-7.1 1.63-8.03.93-.93 3.84-1.4 4.54-2.68.7-1.16 3.03-4.19 3.84-5.82.81-1.51.58-6.98 2.44-8.61 1.75-1.63 6.86-2.79 7.56-3.84s6.17-4.65 11.52-3.84c5.35.81 4.42.12 9.42 3.96 4.89 3.84 8.26 10.24 8.49 9.08.23-1.05 1.98-10.47 3.72-12.57.58-.7 1.05-1.4 1.63-2.21-2.33-.23-3.84-.7-4.77-1.63-1.28-1.52.47-4.66-1.51-4.66Z" class="JP39"/><path fill="#fff" stroke="#000" stroke-miterlimit="10" d="M295.48 696.91c2.44-1.63 14.43-8.26 12.57-8.61-1.75-.35-5-.7-3.96-1.63 1.05-.93 3.03-1.98 2.21-3.49s-3.84-4.42-3.72-6.28c.12-1.75 1.63-6.05-.12-7.56-1.16-1.05-3.49-.58-5.47-.47-1.63 5-6.63 2.09-10.47 3.49-4.42 1.51-8.14 2.68-14.54 2.91-6.4.23-5.58 3.84-6.4 6.63-.58 2.21-1.28 2.91-2.56 3.61 3.37 1.63 8.96 4.42 9.77 4.65 1.16.35 3.26-.35 5.47-.58 2.09-.23 2.56 4.31 2.91 5.24.35.93 1.51.93 3.49.93s.23 3.14 1.75 4.89c.81.93 2.44 1.4 4.77 1.63 1.16-2.1 2.68-4.19 4.31-5.35Z" class="JP36"/><path fill="#fff" stroke="#000" stroke-miterlimit="10" d="M259.18 679.23c-2.56.23-5.12-.35-8.49.93s-7.45 3.14-9.08 1.51c-1.63-1.51-6.63-10.24-6.98-8.61-.23 1.05-.23 2.91-2.21 3.61-1.98.7-4.42 3.96-5 5.93-.58 1.98-2.44 2.56-2.79 5.93-.35 3.37-1.63 6.86-3.26 7.8-1.51.93-6.86 4.42-7.8 5.58-.93 1.05-10.71 6.75-12.92 7.33-2.33.58-6.28 2.79-3.96 2.68s4.42-.35 5.47-.93c1.05-.58 6.52-4.42 8.14-4.77s3.61.23 2.21 2.68c-1.4 2.44-1.63 5.82 0 5.93s4.42-1.16 3.61 0 2.21 1.75.93 3.37c-1.16 1.51-2.91 1.16-2.56 3.14.35 1.86 1.75 6.28 1.4 7.33-.35 1.05-2.21 4.89.47 5.12 2.21.23 3.26 0 4.65-.12 1.16-1.98 2.09-3.72 2.09-4.65-.23-2.91 1.16-8.96 3.26-10.47 2.09-1.51 5.82-4.42 5.58-6.98-.23-2.56-2.56-4.42-1.51-4.89.93-.35 6.05 0 7.8-3.26s2.56-10.24 8.73-12.92c6.17-2.68 12.8-3.14 14.89-4.31 2.09-1.16 2.91-1.51 3.72-4.31.12-.23.12-.58.23-.81l-4.31-3.03c-.58.59-1.28 1.05-2.33 1.17Z" class="JP38"/><path fill="#fff" stroke="#000" stroke-miterlimit="10" d="M294.55 668.18c-1.16-1.4-5.93-1.16-6.52-3.96-.58-2.79-1.4-3.26-3.49-3.37s-4.42.93-5.47 1.05c-1.05.12-3.72-2.44-5-1.4-1.28.93-6.63 7.8-8.84 7.68-2.33-.12-4.42-2.21-4.42-1.05 0 1.05 3.26 3.84 2.56 6.4-.47 1.51-.81 3.26-1.75 4.42l4.31 3.03c.47-2.56.47-5.58 6.17-5.82 6.4-.23 10.01-1.4 14.54-2.91 3.84-1.28 8.84 1.51 10.47-3.49-1.16.12-2.09 0-2.56-.58Z" class="JP37"/><path fill="#fff" stroke="#000" stroke-miterlimit="10" d="M295.71 603.37c-.12-.81-.81-2.44-1.63-4.19-3.96 1.86-8.61 4.31-12.45 4.77-6.4.7-15.94.35-19.55-.35-3.61-.7-5.24 3.84-8.84 3.03-.58-.12-1.16-.35-1.63-.58-.7 3.14-1.4 6.63-1.63 7.68-.35 1.98-5.24 5-6.05 6.17-.35.47-.58 3.14-.7 5.82 2.33.23 4.42.47 5.7.35 3.49-.35 12.8-12.22 14.08-13.38 1.4-1.16 6.17 2.91 7.56 3.14s4.07-2.09 6.17-2.91 6.17 3.72 6.63 5.47c.35 1.75 7.21.23 9.66 0 2.56-.23 5.82-1.51 6.4-4.07.58-2.68-3.26-8.03-3.72-10.94Z" class="JP31"/><path fill="#fff" stroke="#000" stroke-miterlimit="10" d="M248.71 625.94c-3.61.23-13.03-1.98-16.17-.47-3.26 1.51-3.49 7.91-9.08 10.24-5.58 2.33-17.45 3.49-19.9 6.75-2.09 2.79-3.03 8.96-5.12 13.38 1.16 3.26 2.33 6.63 2.56 7.68.35 1.16 3.49 3.49 6.4 5.47.47-1.86 1.05-3.72 1.98-4.54 1.4-1.28 6.52-4.54 7.68-2.21 1.16 2.44.35 7.1 2.33 7.33 1.98.23 5.82.35 8.03-1.98 2.21-2.33 2.21-3.26 5.47-3.84 3.37-.58 5.12-.35 6.86-1.05 1.63-.7 3.14-3.03 4.54-2.91 1.4.12 4.19 1.05 6.4.93s1.63-2.91 4.19-3.96c.47-.23 1.05-.35 1.63-.47-2.33-7.45-5.82-18.38-6.05-20.01-.35-1.05-1.16-6.05-1.75-10.36Z" class="JP34"/><path fill="#fff" stroke="#000" stroke-miterlimit="10" d="M200.89 663.75c-.23-1.05-1.4-4.42-2.56-7.68-.35.81-.81 1.63-1.28 2.21-3.14 4.31-5 9.08-8.14 5.24-3.14-3.84-7.56-3.14-6.4-7.56.47-1.75.7-5.58.81-9.42-2.09.47-4.07 1.16-5.12 2.44-1.98 2.33-4.89 6.98-6.63 8.26-1.63 1.28-3.84 3.37-7.68 3.26-3.84-.12-3.84-1.98-6.28-1.28-2.44.58-5 2.68-7.21 3.96-2.21 1.28 1.4 4.31 1.4 7.1s-2.56 4.07-2.09 6.4c.47 2.33 1.05 6.52 2.33 5.93 1.16-.58 1.51-4.65 4.31-4.54 2.79.12 5 2.91 5.82 4.07.7 1.16 5.24 1.63 6.98 0 1.63-1.63 3.37-3.14 6.17-2.56s7.8-2.56 10.12-2.33 6.05 4.07 8.26 5.93c2.33 1.75 7.68 5.47 8.14 4.42.47-1.05-.23-3.61 1.63-4.42 1.98-.81 2.21-8.49 2.91-10.82.23-.93.58-1.98.81-3.14-2.79-1.98-5.94-4.42-6.28-5.47Z" class="JP35"/><path fill="#fff" stroke="#000" stroke-miterlimit="10" d="M290.13 631.99c1.51-4.54 4.07-9.77 5.12-14.2-.7.23-1.51.35-2.21.47-2.56.23-9.31 1.75-9.66 0s-4.42-6.17-6.63-5.47c-2.09.81-4.89 3.14-6.17 2.91-1.4-.23-6.17-4.31-7.56-3.14-1.4 1.16-10.59 12.92-14.08 13.38h-.23c.58 4.19 1.4 9.19 1.63 10.59.23 1.63 3.72 12.57 6.05 20.01 2.09-.23 4.19.23 5.82-.93 2.09-1.4 4.07.12 7.1 1.63s5 .35 6.75-2.09c1.63-2.44 3.37-4.31 6.63-5.12 3.26-.81 3.26-6.63 5.93-6.52.7 0 1.63-.12 2.68-.23-1.28-3.37-2.33-7.8-1.16-11.29Z" class="JP33"/><path fill="#fff" stroke="#000" stroke-miterlimit="10" d="M335.04 632.34c-1.75-.93 2.09-4.31 0-7.56-2.09-3.26-11.64-7.56-13.5-8.49-1.98-.93-6.4-3.84-5.47-6.05.93-2.09 6.05-.81 5.58-4.07-.35-3.26-8.14-3.26-8.14-5.58v-3.61h-12.92c-1.63 0-3.96.93-6.52 2.09.81 1.75 1.51 3.37 1.63 4.19.35 2.91 4.31 8.38 3.72 10.82-.47 1.86-2.21 3.03-4.19 3.61-1.05 4.42-3.49 9.66-5.12 14.2-1.16 3.49-.23 7.91 1.05 11.52 3.14-.47 7.45-1.63 9.89-1.98 3.37-.47 8.96.81 12.68 3.14s5.47 4.07 8.84 3.84c3.37-.23 6.17-4.65 9.42-3.37 1.05.47 2.09.7 3.03 1.05 1.28-1.75 2.21-3.49 2.21-5 .12-4.07-.46-7.8-2.21-8.73Z" class="JP28"/><path fill="#fff" stroke="#000" stroke-miterlimit="10" d="M360.64 638.16c-2.09-1.4-6.98-6.63-6.98-9.54s.58-11.05-1.4-13.73-9.89-1.51-11.98-6.4c-.7-1.63-1.28-4.31-1.75-7.21-2.09-.12-5.12 3.37-6.98 2.33-2.09-1.05 1.63-5.58.81-7.91-.81-2.44-.81-6.28-3.37-4.77-2.56 1.4-9.42 5.93-12.8 6.05h-2.56v3.61c0 2.33 7.8 2.33 8.14 5.58s-4.65 1.98-5.58 4.07 3.49 5 5.47 6.05c1.98.93 11.4 5.24 13.5 8.49 1.16 1.75.58 3.49 0 4.89 2.91 1.51 5.47 2.91 5.93 3.37.93 1.16 2.56-1.75 4.42.58 1.51 1.75 3.26 4.65 3.37 8.03l13.85 1.75c-.47-2.33-1.05-4.54-2.1-5.24Z" class="JP26"/><path fill="#fff" stroke="#000" stroke-miterlimit="10" d="M369.37 656.19c.23-1.98-6.4-4.31-6.17-6.17.12-1.05 0-3.84-.47-6.4l-13.85-1.75c0 1.05-.12 2.21-.47 3.37-1.51 4.89-2.09 13.5-1.4 17.22.81 3.72 2.56 6.17-1.16 8.73-3.72 2.56-4.42 4.89-2.91 7.8s.93 7.91 2.68 7.33c.93-.35 5-.23 8.96-.12 1.28-3.14 5.58-6.17 7.1-6.86 1.51-.81 3.49-2.09 3.26-5.24s.23-11.98-.35-13.5c-.47-1.74 4.54-2.56 4.77-4.42Z" class="JP29"/><path fill="#fff" stroke="#000" stroke-miterlimit="10" d="M348.42 645.14c1.51-4.89-.93-9.08-2.91-11.4s-3.49.58-4.42-.58c-.47-.58-3.03-1.98-5.93-3.37-.47 1.28-.81 2.21 0 2.68 1.75.93 2.33 4.65 2.33 8.73 0 1.51-1.05 3.26-2.21 5 1.75.58 2.68 1.16 1.98 3.49-1.16 3.37-3.03 7.1-6.28 10.24-3.26 3.14-3.61 3.37-5.82 3.84-1.16.23-1.98 1.28-2.33 2.21 5-.93 17.1-3.14 24.2-4.31-.7-4.19 0-11.98 1.4-16.52Z" class="JP27"/><path fill="#fff" stroke="#000" stroke-miterlimit="10" d="M354.53 686.73c-.04-.35.54-.36.29-.75-3.96-.12-8.14-.12-8.96.12-1.75.58-1.16-4.42-2.68-7.33s-.81-5.24 2.91-7.8 1.98-5 1.16-8.73c0-.23-.12-.58-.12-.81-7.1 1.16-19.2 3.37-24.2 4.31-.35.93-.35 1.98.12 2.44.93.93 5.35 1.51 3.26 3.26-2.21 1.63-3.49 4.65-2.56 5.7.93.93 2.09 1.4.93 2.56-1.05 1.05-2.79 3.14-1.51 4.77 1.16 1.63 4.31 4.65 7.91 6.28 3.61 1.63 3.96 1.98 3.61 5.12-.35 3.26 1.28 6.4 3.14 7.1 1.75.7 11.17 3.61 12.8 4.07s6.05-3.26 7.56-5.35c1.05-1.4 2.21-4.07 3.03-6.98-3.84-2.68-7.21-5.82-6.75-7.8l.06-.18Z" class="JP30"/><path fill="#fff" stroke="#000" stroke-miterlimit="10" d="M371.11 563.92c-7.21 7.21-10.71 13.85-11.17 16.64-.47 3.26 2.21 5.24 3.84 8.84s.93 4.89-.47 5.7c-1.4.7-.23-3.49-2.09-2.09-1.75 1.4.7 3.72-2.33 5.12-3.03 1.4-4.65-1.4-5.7.93-.93 2.44-3.72 6.63-7.45 5.82s-5-2.91-7.1-3.49h-.35c.47 2.79 1.05 5.47 1.75 7.21 1.51 3.49 6.05 3.84 9.31 4.77 1.63-1.05 3.14-1.98 3.96-2.68 2.09-1.75 2.56-5.47 5.58-6.17 3.14-.81 5.82.23 6.98-3.14 1.16-3.26.23-6.4 2.09-6.17.81.12 3.14.58 5.58 1.28.7-2.79 2.33-5.47 2.68-5.35.58.23 17.22 1.4 17.22-3.14s-4.31-6.75-3.26-9.42c.35-.81.81-2.09 1.51-3.61-2.79-1.4-6.4-3.03-8.26-3.14-2.32-.23-7.79-1.98-12.33-7.91Z" class="JP18"/><path fill="#fff" stroke="#000" stroke-miterlimit="10" d="M416.37 504.7c-.12-2.33-.23-4.89-4.77-3.49-4.54 1.4-18.27 6.98-19.9 8.49s-3.49 8.26-2.68 10.24c.81 1.86 3.96 9.08 2.91 14.08-1.05 5-6.17 17.45-16.29 25.95-1.63 1.28-3.03 2.68-4.31 3.96 4.54 5.93 10.01 7.68 12.45 7.8 1.86.12 5.47 1.75 8.26 3.14 1.28-3.26 2.79-7.8 2.21-11.87-.81-6.05-.81-18.62 1.16-23.62 1.63-4.07 2.56-8.96 9.08-10.36-.23-1.63-1.63-6.28-.93-9.08.81-3.14 2.09-6.75 4.19-6.98 2.09-.23 6.28-.23 4.89-3.84-1.4-3.49 3.84-2.1 3.72-4.42Z" class="JP17"/><path fill="#fff" stroke="#000" stroke-miterlimit="10" d="M400.9 564.85c.93 1.98 3.84-5 6.05-6.63 2.09-1.51 9.08-.93 11.64-.81 1.28.12 5.47 1.51 9.42 2.91 0-3.03 1.16-6.52 2.91-8.61 2.33-2.68 4.07-5.58 1.51-14.31-.81-3.03-1.75-6.05-2.68-8.84-2.79.81-5.58 1.75-7.68 2.56-5.12 2.21-3.26 4.54-4.31 6.63-1.05 2.09-2.68 3.61-5.82 3.03-3.14-.58-10.01-3.37-9.77-4.89.23-1.51 2.21-5.35 2.21-6.52v-.47c-6.63 1.51-7.56 6.28-9.08 10.36-1.86 4.89-1.98 16.64-1.28 22.92 1.51-.23 2.68-.35 3.14-.47 1.4-.23 2.68 1.16 3.72 3.14Z" class="JP16"/><path fill="#fff" stroke="#000" stroke-miterlimit="10" d="M382.28 618.03c-.47-.12-2.91 0-5.47.23.12 5.12 1.75 12.1.47 14.89-1.51 3.14-10.24 2.33-11.98 4.42-.7.93-2.33 1.28-3.84 1.51 1.51 2.68 1.86 9.19 1.75 10.94-.23 1.98 6.4 4.31 6.17 6.17-.23 1.98-5.24 2.68-4.65 4.31.58 1.51.23 10.47.35 13.5.23 3.14-1.75 4.42-3.26 5.24s-6.63 4.31-7.33 7.8c-.47 1.98 2.91 5.12 6.63 7.68.47-1.4.81-2.91 1.05-4.31.7-4.31 9.08-7.21 9.66-10.01.58-2.79.12-7.68 1.75-9.54s9.54-3.14 12.45-4.42c3.03-1.28 4.07-.58 7.33.35s4.54-.93 4.07-3.37c-.47-2.44 1.75-4.65.58-5.7-1.16-.93-12.1-6.86-13.96-8.49-1.75-1.63-2.44-4.31-1.28-6.52 1.05-2.21 4.65-6.63 4.89-9.08.23-2.56 1.63-4.54 4.42-4.54h.23c-.35-1.51-.93-3.14-2.09-4.19-2.68-2.79-6.75-6.51-7.91-6.86Z" class="JP24"/><path fill="#fff" stroke="#000" stroke-miterlimit="10" d="M396.36 611.05c3.72-1.4 6.17.81 8.96 3.14 2.68 2.33 11.05 4.42 12.92 4.42.93 0 3.72-.81 6.4-1.75.7-3.26 2.21-10.01 1.51-12.1-.81-2.56-5.82-12.92-7.8-13.73-1.98-.81-3.72-5.24.58-5.47s6.63-3.84 6.05-8.96c-.58-5 4.42-10.24 3.26-13.38-.35-.81-.47-1.75-.47-2.91-3.96-1.4-8.14-2.79-9.42-2.91-2.56-.23-9.42-.81-11.64.81-2.09 1.51-5 8.49-6.05 6.63-.93-1.98-2.33-3.26-3.72-2.91-.47.12-1.75.23-3.14.47 0 .23 0 .47.12.7.81 6.05-2.68 12.8-3.72 15.47-1.05 2.68 3.26 5 3.26 9.42s-16.64 3.26-17.22 3.14c-.58-.23-3.84 5.82-2.91 9.54.93 3.72 3.72 10.82 3.26 15.82v1.75c2.56-.23 5-.35 5.47-.23.81.23 3.26 2.33 5.58 4.54.93-1.51 1.63-3.03 1.63-4.31.24-3.49 3.49-5.82 7.1-7.21Z" class="JP21"/><path fill="#fff" stroke="#000" stroke-miterlimit="10" d="M435.34 621.87c-.58-1.98-11.17-1.51-10.82-3.84 0-.35.12-.7.23-1.16-2.79.93-5.58 1.75-6.4 1.75-1.98 0-10.24-2.09-12.92-4.42-2.68-2.33-5.24-4.42-8.96-3.14-3.72 1.4-6.98 3.72-6.98 7.21 0 1.28-.7 2.79-1.63 4.31.81.81 1.63 1.51 2.33 2.33 1.05 1.05 1.63 2.68 2.09 4.19 2.68-.12 4.54-2.44 3.96-.58-.58 1.98-1.4 5.35-.58 7.33.81 1.98-1.4 3.84.35 5.93s4.65 4.54 5 3.61-3.26-5.35-1.16-6.4c2.09-.93 1.4 1.75 4.77 2.21 3.37.35 3.96-.58 6.86-.58s4.07 2.21 2.68 3.26c-1.4 1.05-4.77 2.68-6.75 3.37-1.98.7-5.93 3.49-4.07 3.61 1.75.12 6.05 0 9.19-1.51 2.56-1.16 6.63-2.09 9.54-2.33-.23-2.91-.35-5.58.12-6.86 1.4-3.72 6.4-4.89 7.8-8.14 1.4-3.26 5.93-8.15 5.35-10.12Z" class="JP23"/><path fill="#fff" stroke="#000" stroke-miterlimit="10" d="M448.72 606.39c.23 2.56-.58 6.63-2.09 7.56-.81.47-6.86 3.84-12.68 6.98.81.23 1.28.58 1.4.93.58 1.98-3.84 6.63-5.24 9.89-1.4 3.26-6.4 4.42-7.8 8.14-.47 1.28-.47 3.96-.12 6.86.81-.12 1.63-.12 2.21-.12 2.68.12 9.66 1.28 11.17 1.05 1.51-.23 8.84.23 11.87 1.4 3.03 1.16 5.47 2.79 4.54 1.16-.93-1.51-2.09-5.12.81-6.75 2.91-1.51 3.96-4.54 3.96-6.05 0-1.4 1.63-3.26 3.49-4.31 1.75-1.05 4.19-4.19 6.28-7.21s6.28-3.03 9.42-1.4c3.14 1.51 4.31 4.19 3.03 4.54s-4.54.12-4.42 1.63.47 4.89-.12 8.96c-.58 4.07-.81 5.35-.12 6.4.7.93 2.21 3.72 3.72 3.49 1.51-.23 3.72-2.33 5-4.31 1.28-2.09 3.96-8.26 5.35-8.73s2.33-2.79 1.51-4.19c-.7-1.4-3.84-4.31-2.21-6.86.47-.7.81-1.63 1.05-2.44-2.33-.23-4.31-.93-4.77-2.68-.93-4.42 2.91-10.12-.93-9.54-3.84.58-10.59 2.56-13.38.35-2.68-2.09-5.24-2.56-5.24-.93 0 1.51.93 11.4-2.91 10.82-3.84-.58-4.42-6.17-6.63-6.63-1.51-.23-2.91-9.77-3.49-16.41-1.28 3.5-2.79 7.1-2.68 8.38Z" class="JP22"/><path fill="#fff" stroke="#000" stroke-miterlimit="10" d="M524.7 584.17c1.51 1.4 9.31 3.84 12.8 2.68 3.49-1.16 9.31-3.84 10.82-2.56.58.58 4.77 3.03 9.42 5.7-1.86-2.68-4.31-6.52-6.28-11.29-3.96-9.42-3.37-12.45-1.98-14.78 1.4-2.33 1.51-3.84 1.28-5.82-.23-1.98 2.79-9.19 4.19-12.45 1.05-2.33 1.51-7.45 2.44-10.36-3.03-.81-6.05-1.63-7.91-2.09-4.65-1.16-.81 4.31-2.56 5.24-1.75.93-5.24-2.09-7.21-3.49-1.28-.81-2.56-2.44-3.26-4.07 0 5.93-.12 11.64-.58 12.57-.93 2.09.35 7.8-.35 11.75-.81 4.07-11.64 4.42-14.31 7.8-2.68 3.26-4.42 5-6.63 5.82-.81.35-1.98.7-3.26 1.16.58 1.16 1.28 2.21 1.86 3.26.47.7.93 1.51 1.63 2.44 1.4.35 2.68.81 3.03 1.28 1.28 1.4 5.35 5.82 6.86 7.22Z" class="JP08"/><path fill="#fff" stroke="#000" stroke-miterlimit="10" d="M521.21 563.11c2.68-3.26 13.5-3.72 14.31-7.8.81-4.07-.58-9.66.35-11.75.47-.93.58-6.75.58-12.57-.47-.93-.7-1.86-.7-2.68 0-2.09-5.58-5.82-11.98-6.98-6.4-1.16-7.8 1.16-11.4 4.42-2.91 2.68-9.54 5.47-12.45 6.4-.93 5.93-2.09 13.38-2.21 14.89-.23 2.68 5-.23 4.65 3.14-.35 3.26-1.4 6.63-2.09 9.42-.81 2.91 3.26 5.47 6.17 5.47 2.09 0 3.61 2.44 5.12 5 1.16-.47 2.44-.81 3.26-1.16 1.98-.81 3.73-2.56 6.4-5.82Z" class="JP09"/><path fill="#fff" stroke="#000" stroke-miterlimit="10" d="M548.32 584.4c-1.51-1.4-7.33 1.4-10.82 2.56s-11.17-1.4-12.8-2.68c-1.51-1.4-5.58-5.82-6.75-7.21-.35-.47-1.63-.93-3.03-1.28 2.33 3.49 5.35 7.8 5.82 10.94.35 2.44-.12 8.38-.58 12.45.7 0 1.4-.12 1.98-.58 1.05-.81.58-1.51 1.75-1.4 1.16.12 4.54 2.21 5.24 3.49s-.58 4.07-3.37 5.82c-2.79 1.63-4.19.93-4.31 3.03-.12 2.09-.7 2.09-1.98 2.79-1.16.7-3.14 1.75-2.33 2.91.81 1.05 3.03 1.98 2.44 3.26-.58 1.28-1.98 1.98-1.75 4.42.23 2.44.58 3.84.58 5.35s1.86 2.09 1.05 2.68-3.49.81-3.26 1.63c.23.81 1.51 2.91 3.72 2.91s2.79-3.26 4.42-4.89 3.61-4.89 6.17-5.7c2.56-.7 8.38-1.63 9.66-3.61 1.16-1.86 2.79-5.24 1.75-7.45-.93-2.21.12-8.84 4.42-12.68 4.31-3.84 9.42-5.82 11.05-5.93s3.14.81 3.26-.23c.12-.58-1.28-2.21-3.03-4.77-4.54-2.91-8.61-5.35-9.31-5.82Z" class="JP12"/><path fill="#fff" stroke="#000" stroke-miterlimit="10" d="M482.58 607.21c-.58.58-1.16 2.33-1.75 4.31.81-.12 1.63-.35 2.33-.47 3.84-.58 0 5 .93 9.54.35 1.75 2.44 2.44 4.77 2.68.7-2.33.93-4.89 2.21-5.47 1.75-.81 7.8-3.14 12.22-2.56s6.05 3.14 5.93 4.77c-.12 1.63.35 4.07 1.4 3.84 1.05-.23 1.28-3.14 2.21-3.61.81-.47 2.56-2.91 1.16-3.61-1.28-.7-4.07-2.68-3.49-4.77.58-2.21 2.56-3.37 3.61-4.65.93-1.05 2.33-2.68 2.44-4.07-3.14-1.4-7.91-3.49-10.59-3.96-4.07-.81-1.16 2.33-1.16 3.26s-2.56.81-4.89-1.16c-2.21-1.75-6.98-4.07-10.12-5.35-.23 2.09-.47 4.54-.7 5.58-.35 1.63-5.24 4.31-6.51 5.7Z" class="JP14"/><path fill="#fff" stroke="#000" stroke-miterlimit="10" d="M458.15 583.35c-3.84.35-6.63 5.24-6.75 9.31-.23 4.07 1.51 21.64 3.72 22.11 2.09.35 2.68 6.05 6.63 6.63 3.84.58 2.91-9.31 2.91-10.82s2.56-1.16 5.24.93c2.21 1.75 7.21.81 11.05 0 .58-1.86 1.16-3.72 1.75-4.31 1.4-1.4 6.17-4.07 6.63-5.82.23-.93.47-3.49.7-5.58-.23-.12-.47-.23-.7-.23-3.14-1.16-4.31-2.91-5.47-5.24-.47-.81-.81-1.75-.93-2.44l-10.12-3.37c-2.1 1.86-11.17-1.51-14.66-1.16Z" class="JP19"/><path fill="#fff" stroke="#000" stroke-miterlimit="10" d="M484.91 585.91c2.91.23 9.42.35 12.57 3.14 3.14 2.68 8.49 2.09 10.59 2.09h12.68c.12-1.86.12-3.37-.12-4.42-.58-3.84-5.24-9.89-7.33-13.38-.58-1.05-1.16-2.09-1.86-3.26-3.14-.12-6.75-.12-7.68-.23-1.75-.23-10.59-3.72-12.33-3.72s-3.14 1.98-4.31 4.89c-1.16 2.91-3.72 2.91-8.14 5-1.98.93-5.12 1.98-7.91 2.91 1.05 1.51 1.98 3.03 1.98 4.65 0 .35-.12.7-.35.93l10.12 3.37c-.23-1.28.23-2.09 2.09-1.98Z" class="JP11"/><path fill="#fff" stroke="#000" stroke-miterlimit="10" d="M487.23 571.02c1.16-2.91 2.56-4.89 4.31-4.89s10.59 3.49 12.33 3.72c.93.12 4.54.23 7.68.23-1.51-2.68-3.03-5.12-5.12-5.12-2.91 0-6.98-2.56-6.17-5.47s1.75-6.17 2.09-9.54c.35-3.26-4.89-.35-4.65-3.14.12-1.51 1.28-8.96 2.21-14.89-.7.23-1.28.35-1.4.35-.93 0-7.21-2.68-10.82-4.65-3.72-1.98-3.72.58-5 4.89-1.4 4.31-5.47 6.17-7.33 7.91-1.98 1.75-6.05 1.98-10.47 3.84-4.42 1.98-5.47 8.14-6.17 11.17-.81 3.14 10.82 1.4 11.17 5.24.35 3.84-2.56 10.01-1.98 12.8.35 1.51 1.98 3.26 3.26 5.24 2.91-.93 6.05-1.98 7.91-2.91 4.42-1.86 6.98-1.86 8.14-4.77Z" class="JP10"/><path fill="#fff" stroke="#000" stroke-miterlimit="10" d="M463.38 527.62c-2.56.81-7.56 4.42-8.38 5.58s-5.47 4.07-9.08 4.07-.81-4.31-5.82-4.07c-3.26.12-3.96 4.54-6.86 7.68 1.16 6.17-.35 8.61-2.33 10.94-2.33 2.68-3.72 8.26-2.56 11.4 1.16 3.14-3.84 8.38-3.26 13.38.58 5-1.75 8.73-6.05 8.96-4.31.23-2.56 4.65-.58 5.47s6.98 11.17 7.8 13.73-1.4 11.05-1.75 13.38c-.35 1.86 6.4 1.98 9.42 2.91 5.7-3.14 11.87-6.52 12.68-6.98 1.51-.93 2.33-5 2.09-7.56-.12-1.28 1.4-4.89 2.91-8.03-.23-2.44-.35-4.54-.23-5.7.23-4.07 2.91-8.96 6.75-9.31s14.89 3.84 14.89.23-4.65-7.21-5.24-9.89c-.58-2.68 2.33-8.96 1.98-12.8s-11.98-2.09-11.17-5.24c.81-3.14 1.75-9.31 6.17-11.17 3.03-1.28 5.93-1.86 8.03-2.56-1.75-3.72-3.96-8.26-4.31-9.42-.81-2.09-2.56-5.7-5.12-5Z" class="JP20"/><path fill="#fff" stroke="#000" stroke-miterlimit="10" d="M549.13 443.5c.23-1.98 3.14-4.65 2.68-6.4-.35-1.75-5-9.89-7.56-11.64-1.4-.93-13.5-4.07-24.09-6.63-1.05 5.7-2.44 12.33-4.65 15.47-2.91 4.07-5.93 8.73-8.38 13.85 2.33 1.05 4.31 1.98 5.12 2.56 2.56 1.75 1.98 4.31 2.33 5 .35.81 5.82 2.09 5 6.17s-6.17 4.07-6.98 6.75-3.26 11.05-2.09 13.5c.47 1.05 2.44 3.03 4.54 4.89 1.28-.81 2.56-1.28 3.61-1.16 3.26.23 10.24 3.14 11.98 2.91 1.75-.23 6.05.81 6.05-3.49s1.51-9.66 1.4-10.82c-.23-1.16 5.47-1.98 6.05-6.05.58-4.07 5.58-10.59 5.82-14.66.12-3.95-1.05-8.38-.81-10.24Z" class="JP06"/><path fill="#fff" stroke="#000" stroke-miterlimit="10" d="M557.51 487.36c-4.65.23-2.91-4.89-8.49-5.58-5.58-.81-4.07-3.14-6.17-3.26-.93-.12-3.03-.47-5-.81-.35 2.21-.93 5.24-.93 7.8 0 4.31-4.31 3.26-6.05 3.49-1.75.23-8.73-2.68-11.98-2.91-3.26-.23-8.96 5.24-10.47 7.8s-.23 6.63-.23 7.8-12.92 3.84-13.96 4.42-1.4 5.24-1.98 7.8 1.75 5.82 1.98 8.14c.12 1.05-.12 4.89-.47 8.96 2.21.93 4.19 1.75 4.77 1.75.93 0 10.24-3.49 13.96-6.75 3.72-3.26 5-5.58 11.4-4.42s11.98 4.89 11.98 6.98 2.09 5.47 4.07 6.75c1.98 1.4 5.47 4.42 7.21 3.49 1.75-.93-2.09-6.4 2.56-5.24 1.86.47 5 1.28 7.91 2.09.35-1.05.81-1.86 1.4-2.09 2.21-.7 6.86-2.91 6.86-5.93s3.14-16.17 3.03-23.97c-.12-6.28-2.44-15.71-3.96-21.29-5.59.23-3.73 4.88-7.45 5Z" class="JP07"/><path fill="#fff" stroke="#000" stroke-miterlimit="10" d="M584.51 434.19c-.93.81-3.49 2.68-8.14 2.56-4.65-.23-1.4-6.05-4.31-6.17-2.91-.23-7.91-3.84-11.75-5.24-3.84-1.4-4.89 1.51-6.17 2.91-.47.47-2.91 1.28-5.93 2.09 1.75 2.79 3.37 5.82 3.61 6.75.35 1.75-2.56 4.42-2.68 6.4-.23 1.98.93 6.4.81 10.47-.23 4.07-5.24 10.59-5.82 14.66-.58 4.07-6.17 4.89-6.05 6.05.12.47-.12 1.63-.35 3.03 1.98.35 4.07.7 5 .81 2.09.23.58 2.56 6.17 3.26 5.58.81 3.84 5.82 8.49 5.58 3.72-.12 1.98-4.77 7.33-5.24-.35-1.4-.7-2.56-.81-3.37-.93-4.07.58-14.89 7.21-19.32 6.63-4.42 10.71-3.84 12.57-2.44 1.98 1.4 2.56 2.79 3.14 3.37.58.58 1.98 1.16 2.21.58.23-.58-.7-4.42-2.21-6.05-1.4-1.51.7-2.68 1.28-3.84s1.75 0 1.05-1.98-3.03-1.16-2.68-2.21c.35-.93 2.21-1.63 2.21-2.79 0-1.05-3.49-1.63-3.14-2.44.35-.7 3.26-1.75 3.72-2.91.47-1.05-1.05-3.03.12-4.42s1.98-3.49 2.56-4.07c.58-.58 1.51 1.05 1.98-1.05.12-.81.12-1.75 0-2.56-2.44-1.05-4.89-1.86-5.93-2.09-2.44-.23-2.44 8.84-3.49 9.66Z" class="JP04"/><path fill="#fff" stroke="#000" stroke-miterlimit="10" d="M552.97 402.42c.58-1.98 6.4-10.24 5.58-13.73s-.23-9.31.35-10.47c.58-1.16 1.98-1.4 1.98-2.56s-.35-12.57.81-15.24c1.16-2.68 4.65-6.63 4.89-11.05s-4.89-7.21-6.4-5.58c-1.51 1.51-6.98 6.05-9.54 5-2.56-.93-5-4.42-9.54-3.72-2.09.35-9.08.81-16.06 1.16.81 3.26 1.4 7.33-.81 13.96-3.37 10.36-4.07 10.36-6.17 11.17-2.09.81-5.35-.58-4.54 3.72s5.47 2.09 7.8 1.05c2.33-.93 5.7 1.05 6.28 10.01.58 8.84-3.26 21.64-5 22.81-.81.58-1.51 4.89-2.44 9.77 10.59 2.56 22.69 5.7 24.09 6.63 1.05.81 2.56 2.68 3.96 4.89 3.03-.81 5.47-1.63 5.93-2.09 1.05-1.05 1.86-3.03 3.96-3.26 0-4.65-.12-8.96-.12-9.77.12-1.86-5.59-10.71-5-12.68Z" class="JP05"/><path fill="#fff" stroke="#000" stroke-miterlimit="10" d="M608.36 398.35c.81-.93 3.84-2.91 2.79-4.07s-1.63-3.14-1.98-4.77c-.23-1.63-2.91 3.26-2.91 2.33s1.05-14.31.35-18.27c-.7-3.96-4.54-5.93-4.54-7.68s1.4-1.98.7-3.37-2.68-1.98-2.68-2.68 2.33-2.44 1.63-3.37c-.35-.58-3.72-5.58-6.52-9.54-2.91 1.75-5.47 3.14-6.52 3.03-2.91-.23-14.66 3.84-15.71 4.65-.35.35-4.19.7-8.61.93-1.05 1.86-2.21 3.49-2.79 4.89-1.16 2.68-.81 14.08-.81 15.24s-1.4 1.4-1.98 2.56-1.16 6.98-.35 10.47-5 11.75-5.58 13.73c-.58 1.98 5 10.82 5 12.8 0 .81 0 5.12.12 9.77.58-.12 1.4 0 2.21.35 3.84 1.4 8.96 5 11.75 5.24 2.79.23-.35 6.05 4.31 6.17 4.65.23 7.21-1.75 8.14-2.56.93-.81.93-9.89 3.49-9.42 1.05.12 3.49 1.05 5.93 2.09-.12-1.4-.12-2.56.47-2.56.93-.12 1.4 1.63 2.33.58.81-1.05.47-2.33 1.4-2.56.93-.23 2.56.58 3.14-.81.58-1.4-.35-2.68.58-2.91.93-.23 1.98.23 2.09-.47.12-.7-1.16-1.4-.23-2.33.93-.81 2.91-1.75 2.56-3.26-.35-1.4-1.75-2.56-1.05-3.49s2.21-2.09 2.09-2.79c-.12-.7-1.16-2.79.58-4.07s2.91-1.4 2.91-2.56c0-1.04-3.14-.34-2.33-1.28Z" class="JP03"/><path fill="#fff" stroke="#000" stroke-miterlimit="10" d="M588.81 349.95c1.05.12 3.61-1.28 6.52-3.03-1.51-2.21-2.91-4.07-3.49-4.65-1.63-1.75-4.19-1.51-5-3.26-.81-1.75-3.49-16.29-3.37-25.36.12-8.96 4.31-21.76 2.91-20.83-1.4.93-4.54 5-7.56 3.72-3.03-1.28-6.86-5.12-8.26-6.52-1.4-1.28-6.52-4.19-6.86-3.26-.35.93-3.84 7.21-3.96 10.59s-2.44 6.63-1.98 8.49c.47 1.98-.23 2.79.93 2.79s4.77-2.33 7.8-2.91 5-.12 6.17-1.4c1.05-1.28.7-4.07 2.21-3.26 1.4.81 3.61 3.49 3.61 5.82s-2.21 8.96-3.26 12.22c-1.05 3.26-2.79 3.84-4.19 2.56s-5.82-5.7-7.56-5.82-1.4 6.75-3.49 8.26c-2.09 1.51-4.89.58-5.35-2.33s-2.09-11.52-1.98-14.43c.12-2.91-1.63-3.96-3.14-3.84-1.4.12-2.44 2.91-4.19 2.33-1.75-.58-3.14-5.12-4.89-3.84-.93.7-.7 5.12-1.05 10.24-.35 5-.58 15.94-6.86 16.64-6.28.7-4.77-.23-7.56 3.14s-1.16 4.07-.7 8.96c.12 1.75.7 3.37 1.16 5.12 6.98-.35 13.96-.81 16.06-1.16 4.42-.81 6.98 2.68 9.42 3.72 2.56.93 7.91-3.49 9.54-5 1.51-1.51 6.63 1.16 6.4 5.58-.12 2.21-1.05 4.31-2.09 6.17 4.54-.35 8.26-.7 8.61-.93.81-.7 12.57-4.77 15.48-4.54Z" class="JP02"/><g fill="#fff" stroke="#000" stroke-miterlimit="10" class="JP32"><path d="M241.54 574.68c.05 1.01-3.14.41-3.06-.25.08-.66 2.98-1.49 3.06.25ZM249.87 613.61c.23-.93.93-4.42 1.63-7.68-2.56-1.05-3.96-2.79-3.37-3.49.7-.81 2.91-1.63 1.51-1.75-1.28-.12-4.07 1.28-6.17.23-2.09-1.05-4.65.81-7.33 2.33-2.68 1.4-9.66 3.61-12.68 4.42-3.03.81 1.51 4.31-2.68 7.68s-14.2 11.98-18.03 15.82c-3.84 3.84-11.87 13.26-15.01 14.31-1.28.47-2.91.81-4.54 1.16-.12 3.84-.35 7.68-.81 9.42-1.16 4.42 3.26 3.72 6.4 7.56 3.14 3.84 5-.93 8.14-5.24 3.14-4.31 3.84-12.33 6.4-15.71 2.56-3.37 14.31-4.42 19.9-6.75 5.58-2.33 5.82-8.73 9.08-10.24 2.09-.93 6.75-.47 10.71 0 .12-2.68.35-5.35.7-5.82.93-1.28 5.82-4.42 6.17-6.28ZM254.03 563.77c-.97 2.27-3.34 2.83-4.79 1.98s-3.86-3.42-2.81-5.29c1.05-1.87 3.47-4.13 5.12-3.47 1.65.66 3.14 2.65 3.14 3.64 0 .99-.16 1.98-.66 3.14ZM242.7 572.53c-1.01.37-1.65.08-2.15-.41-.5-.5-1.24-1.82-1.98-1.49s.1 1.77-.5 1.9-1.94-.7-1.98-1.07c-.04-.38.99-2.07 1.74-2.31s.99-1.49 2.07-1.57 2.73.33 3.31.99c.58.66.41 3.64-.5 3.97ZM192.36 510.54c-1.47 1.47-3.14-.5-1.65-1.65 1.49-1.16 2.64.66 1.65 1.65Z" class="JP32"/></g><g fill="#fff" stroke="#000" stroke-miterlimit="10" class="JP01"><path d="M757.72 155.55c-.51 1-1.56 2.22-1.56 4.83s-.5 7.07-1.49 7.19-.37-3.6-1.61-3.72-2.34 2.29-3.1-1.86c-.76-4.15-.37-5.33 2.23-7.07 2.6-1.74 8.3-6.36 9.55-8.31 1.25-1.95 1.61-4.09 2.85-5.58s3.84-4.34 5.33-6.82c1.49-2.48 3.47-4.34 3.84-6.08.37-1.74 2.48-7.44 4.59-7.69s4.4 3.97 6.45 4.59c2.04.62 3.35.62 5.08.37s4.34-2.48 4.71-1.24c.37 1.24-.5 3.1-2.11 3.35s-3.6-.37-4.22.74-2.73 5.21-6.82 5.46-5.03.8-5.46 2.36-4.9 3.12-5.95 5.08-1.98 5.7-3.22 6.2-1.86 4.46-2.98 5.08c-1.12.62-5.43 1.75-6.13 3.11ZM807.49 155.05c-3.01-.75-4.59 1.86-5.83 2.36-1.24.5-4.09.25-4.84 1.49s-.74 2.98.5 4.09c1.24 1.12 2.11 3.84 3.97 1.86 1.86-1.98 3.22-1.49 3.97-3.1.74-1.61 1.12-2.23 2.36-2.6 1.24-.37 2.23-1.24 2.23-1.98s-.37-1.61-2.35-2.11ZM781.45 175.26c-.08-.46-2.23-1.12-2.85-1.24s-1.98.25-2.85.99 1.24 4.84 2.48 4.84 1.98-2.11 2.11-2.85 1.24-.99 1.12-1.74ZM812.45 123.93c-1.75 1.03-5.7 1.61-5.33-.87.37-2.48 1.74-2.85 2.11-4.34s-.87-5.08.62-5.21 2.11 2.48 3.1 1.74c.99-.74-.99-3.1.25-3.22 1.24-.12 2.85.37 3.72 0s3.35-2.6 3.35-4.59-5.33-2.48-3.84-4.34 4.71 1.49 5.46-.12c.74-1.61 1.86-2.98 2.48-3.22.62-.25 3.22-3.22 4.84-5.08 1.61-1.86 4.44-3.77 3.6-5.95s-.12-3.72 1.24-2.73 3.72 3.35 4.34 1.49c.62-1.86.12-4.59 1.86-5.08s4.96-1.24 5.46-3.22-.37-4.96-.25-7.32 2.1-4.35 2.98-3.1.87 5.58 3.1 7.07c2.23 1.49 4.84 2.85 7.69 1.61s9.05-4.22 9.92-5.95 1.49-4.22 2.6-4.59c1.12-.37 2.85-2.36 3.47-3.6s6.57-2.98 8.18-2.6c1.61.37 2.11 1.98 1.61 2.85-.5.87-1.98 2.36-1.61 2.98s1.86 1.98 1.24 3.35-1.61 2.85-3.1 2.73-7.95.22-9.18 1.74c-1.22 1.51-3.22 3.47-4.71 3.84-1.49.37-3.22.12-5.83 2.36-2.6 2.23-8.93 8.8-10.66 10.66s-2.98 2.48-4.59 2.73c-1.61.25-3.96 1.48-4.84.62s-.5-2.36-1.74-2.23c-1.24.12-4.22 1.36-3.6 2.48s1.36 3.35-.25 5.08-1.24 3.6-4.22 4.34-5.83 2.48-6.32 3.47-2.48 4.71-3.1 5.7-.37 2.98-2.98 2.85c-2.6-.12-4.96 2.36-5.58 3.6-.62 1.24-.41 3.46-1.48 4.09ZM771.25 181.05c-.66.25-2.48.59-2.57.15-.09-.43-.25-.84-.81-1.3-.56-.47-.06-1.4.43-1.21s.62.62 1.58.56 1.52-.37 1.52.31.25 1.33-.15 1.49ZM776.37 180.56c.48.1 1.18.03 1.18.5s-.5 1.05-.71 1.18c-.21.13-.53-.12-.77.06-.25.19-1.33 1.02-1.49.5s-.12-1.05.34-1.15c.46-.09.98-1.19 1.46-1.08Z" class="JP01"/><path d="M606.38 60.22c-3.14-2.21-1.98 4.31-3.84 5.82-1.98 1.4-4.07 2.44-5.47 1.63-1.4-.7-2.21-4.07-2.91-2.68-.7 1.4.23 7.21-2.21 10.12s-.23 9.42 3.37 14.66c3.61 5.24 7.21 23.04 3.84 31.18s-5 12.68-4.54 18.5.7 15.36-5.24 17.1c-6.05 1.63-8.38 5.24-7.68 11.75s5.47 14.43 2.44 18.73c-3.14 4.31-6.52 8.84-9.08 9.08-2.68.23-5.24.7-6.75-2.44-1.4-3.14-6.52 1.63-9.66-.7-3.14-2.44-10.82-8.84-11.98-9.08-1.16-.23-5 2.44-5.47 4.31-.47 1.98-.93 5.47.93 6.98 1.98 1.4 6.28 7.91 5.47 9.42-.7 1.4-7.21 10.12-9.66 10.82-2.44.7-8.84 5-10.82 6.52-1.98 1.4-7.68 2.44-7.68 4.77 0 2.44.93 11.29-.93 13.73-1.98 2.44-1.16 6.75.93 8.61 2.21 1.98 7.21 5.24 9.08 8.38 1.98 3.14 2.68 10.59.23 14.89-2.44 4.31-3.14 12.92-1.63 16.52 1.51 3.61 4.07 5.82 6.05 5.24 1.98-.47 3.61-5 7.21-6.28 3.61-1.16.47-11.75 5.82-11.05 5.24.7 7.45-6.05 9.08-5 1.63.93 6.52 2.68 8.84 4.54 2.44 1.98 8.38-1.98 9.89-3.84 1.4-1.98-6.52-4.77-9.08-8.14-2.68-3.37-5.82-9.66-8.38-10.36-2.68-.7-6.98.47-9.42-1.4-2.44-1.98-8.61-4.54-9.42-6.52-.7-1.98 3.84-16.52 7.91-17.1 4.07-.47 8.61-2.91 10.82-.47s8.14 12.45 9.89 13.73c1.63 1.16 19.66-19.66 29.32-16.52 9.66 3.14 12.92 7.91 16.87 8.61 3.84.7 12.45 8.61 16.06 11.05s16.06 9.66 21.18 11.29c5.12 1.63 10.59 8.14 10.59 8.14s1.16-5.24 2.68-8.84c1.4-3.61.47-13.5 2.44-16.87s19.9-28.16 29.79-30.95c9.89-2.79 13.96-.23 16.06.47 2.21.7 8.61-.23 10.12-.23 1.4 0 2.21-5.24 4.54-4.77 2.44.47 5.47 2.44 7.45 1.98 1.98-.47 2.91-6.52 5.24-7.45 2.44-.93 11.29-2.91 13.73-3.14 2.44-.23 3.61-5.47 6.28-6.52 2.68-.93 8.14-4.77 6.05-5.24-2.21-.47-7.68 2.21-9.08 3.61-1.4 1.4-5.24 5.24-8.14 1.16s-4.54-14.89-7.21-17.8c-2.68-2.91-5.24-9.42-4.54-10.59.7-1.16 6.28-11.75 6.52-15.13s6.28-11.05 4.77-12.92c-1.4-1.98-8.38 6.75-10.82 8.84-2.44 2.21-9.66 11.75-14.2 12.68-4.54.93-17.8-3.84-19.43-6.52-1.63-2.68-6.52-4.77-9.08-5.24-2.68-.47-28.86-8.61-44.91-28.16-16.06-19.43-24.32-32-27.81-36.3-4.19-4.19-11.87-14.78-14.43-16.64Z" class="JP01"/></g><g fill="#fff" stroke="#000" stroke-miterlimit="10" class="JP15"><path d="M510.62 482.36c-1.16-2.56 1.4-10.82 2.09-13.5.81-2.68 6.17-2.68 6.98-6.75s-4.65-5.47-5-6.17c-.35-.81.23-3.26-2.33-5-.81-.58-2.68-1.51-5.12-2.56-1.05 2.21-2.09 4.54-2.91 6.86-2.79 7.91-5 17.8-10.94 21.64-5.93 3.84-14.66 6.05-17.45 12.45-2.79 6.52-6.75 16.17-11.87 20.71-5.12 4.42-10.71 9.66-14.08 9.89-3.37.23-7.21 3.26-10.24 5.24-1.75 1.16-5.93 2.44-10.12 3.72.81 2.79 1.75 5.82 2.68 8.84.35 1.28.58 2.44.81 3.37 2.91-3.14 3.72-7.56 6.86-7.68 5-.23 2.09 4.07 5.82 4.07s8.38-2.91 9.08-4.07c.7-1.16 5.82-4.89 8.38-5.58 2.56-.81 4.31 2.91 5 4.89.47 1.16 2.56 5.7 4.31 9.42.93-.35 1.86-.7 2.44-1.28 1.98-1.75 6.05-3.72 7.33-7.91 1.28-4.19 1.4-6.75 5-4.89 1.75.93 4.07 1.98 6.17 2.91.35-4.07.58-7.91.47-8.96-.23-2.33-2.56-5.58-1.98-8.14.58-2.56.93-7.21 1.98-7.8.93-.58 13.96-3.26 13.96-4.42s-1.4-5.24.23-7.8c1.05-1.75 4.07-4.77 6.86-6.52-1.98-1.98-3.95-3.96-4.42-5ZM465.75 477.33c-3.11 3.34-9.2 8.2-9.92 7.77s2.31-8.45 1.82-9.59-4.53.1-4.96-.33 2.31-10.08 5.13-11.41 5.99-4.57 6.45-4.3-4.46 8.6-1.82 9.42 4.96 1.82 4.63 3.47-.05 3.59-1.32 4.96Z" class="JP15"/></g><g fill="#fff" stroke="#000" stroke-miterlimit="10" class="JP13"><path d="M508.06 591.15c-2.09 0-7.56.58-10.59-2.09-3.14-2.68-9.66-2.91-12.57-3.14s-2.33 2.09-1.16 4.42 2.33 4.07 5.47 5.24 8.49 3.72 10.82 5.58c2.33 1.86 4.89 2.09 4.89 1.16s-2.91-4.07 1.16-3.26c2.56.47 7.45 2.56 10.59 3.96 0-.35 0-.58-.12-.93-.7-1.51.12-2.79 1.51-3.03.7-.12 1.51-.12 2.21-.12.23-2.33.47-5.35.58-7.91-4.54.12-11.29.12-12.8.12ZM502.29 645.86c-.53.47-2.79.43-2.91-.06s-.56-4.22 0-4.46 2.54.68 2.6 1.36.93 2.6.31 3.16ZM495.28 660.12c-.45.28-.99 1.49-.99 2.11s.5 2.23.99 1.74.5-4.15 0-3.84ZM490.2 668.18c-1.26-.04-1.18 2.29-.25 2.29s2.23-2.23.25-2.29ZM505.57 674.25c-2.48 0-2.42 4.09-.12 3.41s2.73-3.41.12-3.41ZM518.49 726.97c-1.16 1.62-5.21-2.98-4.05-4.13s6.53.66 4.05 4.13ZM509.64 686.3c0 1.16-1.65 1.07-1.9.17s1.9-2.23 1.9-.17Z" class="JP13"/></g><path fill="#fff" stroke="#000" stroke-miterlimit="10" d="M376.93 616.63c.35-5-2.33-12.22-3.26-15.82-.35-1.28-.12-2.68.23-4.19-2.56-.58-4.89-1.16-5.58-1.28-2.1-.35-1.17 2.79-2.33 6.05-1.16 3.26-3.84 2.33-6.98 3.14s-3.49 4.42-5.58 6.17c-.82.7-2.33 1.63-3.96 2.68 1.16.35 2.21.82 2.79 1.63 1.98 2.68 1.4 10.82 1.4 13.73s4.89 8.14 6.98 9.54c.23.23.58.47.82.93 1.63-.23 3.14-.58 3.84-1.51 1.75-2.09 10.47-1.4 11.98-4.42 1.51-3.14-.82-11.64-.35-16.64Zm-5.71-4.61c-.26 2.22-6.46 8.08-7.24 9.03-1.1 1.35-6.33 7.99-6.91 6.49-.59-1.5 1.04-6.07 1.63-7.63.59-1.57 4.76-4.73 4.37-6.54s-.72-6.44 2.54-6.57 5.87 3 5.61 5.22Z" class="JP25"/></svg>