<svg xmlns="http://www.w3.org/2000/svg" style="transition:transform .15s ease-out;transform-origin:center center;transform:translate(0,0) scale(1)" viewBox="0 0 900 900"><g fill="#fff" stroke="#000" stroke-miterlimit="10" class="JP02205"><path d="M364.1 454.6c-.9-3.1-4.1-14.8-6.8-16-2.9-1.4-1.5-1.6-.1-4.5 1.4-2.7 5.3-14.9 5.3-17.1s-3.3-5.2-5.2-6.3-4.7-2.2-4.7-3.5-4.7-3.8-4.6-5.7c0-1.9 0-2.2-.7-3s-.6-3-.6-5.8c-.9.2-1.7.4-2.4-.4-1.1-1.5 1.4-3.3-.9-5.7-1.9-2.1-9.4-6.7-12.1-10.4-1.9 3-3.1 6.1-2.6 7.2.7 2-.2 3-1 3.8-.7.9-1.7 7.6-1.7 9.9s-1.9 5.1-2.5 6.6c-.6 1.5-6.8 3.8-8.7 5.1s-2.9 1.5-5.1 1.1c-2.2-.4-7.2 4-9.4 5.3-2.2 1.2-2.5-.4-4.5-.4s-6.2 1.6-7.1 2.1c-1 .5 1.2 2.2.5 2.7s-.7.7-1.9 2.2c-1.1 1.5-3.2 2.2-4.3 3-.5.2-1.4-1-2.4-2.6-1 2.2-.9 4.6-.9 6 0 2 4 .4 5.1 1.7 1.1 1.2.4 5 0 6.2s-2.2.7-3 1.5c-.7.7 1.7 1.1 2.5 2.2s-2.6 1.9-2.6 3.1-7.6 5.7-7.7 6.6c-.2.9-.2 3.1-.2 5.2s-2.1 1.1-2.2 2c-.2.9.7 9.2.9 11.3.1 2 1.9 1.1 3 2s.1 2.6.1 5.3 7.4 9.2 7.8 11.8-1.9 3.1-2.1 4.2.4 1.9 1.6 3.5 2.5-1.1 3-1.5c.6-.4 2.1.2 3.6 1.1 1.5.9.4 5.7-.4 9.5s3.3 9.2 4.6 12.1 3.7-1.1 4.5.6c.7 1.6 6.7 7.4 8.4 8.7s4.3-3.8 5.2-3.8.7-3 2.5-2c1.6.9 2.2 6.3 3 6.8.2.2 1 .4 1.7.6 0-.6.1-1.2.5-1.5 1.2-.7 1.7 1.2 2.7.2 1-1 .5-1.2 1.7-.7s3 1.7 3 3-.4 10 .1 11.8c.2.6.9 2.2 1.5 3.8 2-.4 3.3-.7 3.6-1 .6-.5-1.1-3.7.2-3.8s5.1.6 5.8-.7c.7-1.2 2.2-4.7 3-4.7s.5 2.6 2.1 1.5c1.5-1.1 4.1-5.1 4.3-7.3s8.1-2 8.4-4.7c.4-2.7.2-5.3-.5-9.2s.5-10.9 1.2-12.9-2.1-1.9-1.1-4.6c1-2.7 2.7-19.7 3.1-21.4.4-1.9 1.5-1.9 2.2-3.8.7-2.2 4.1-13.3 3.1-16.4ZM241.2 368.9c1.7 1 9.5 8.3 10.3 7.9.7-.4 3.6-.5 3.2-2.4-.4-1.9-2.4-4.1-2.2-4.6.2-.5 3.6-6.6 5-7.3s10.7-5.3 10.7-4 0 2.7.7 3c.7.2 1.5-3.8 3.6-2.6 2 1.2 4.1 3.1 5.5 1.9 1.4-1.2 3-1.6 2.1-3.7-.9-2-2.6-6.3-5.2-7.4-2.6-1.1-8.1-.7-8.8-2.2-.7-1.5 3.3-2.2 6.3-2.1 3 0 4.8.7 6.2-.5s12.6-17.6 14-18.3c1.4-.7 2.1.4 3.2-1.6s2.1-2.4 1.9-3.8c-.1-1.5-1.5-9.2-1.1-10.9.2-1.4.9-3.3 4.5-2.9 2.4-2 2.9-4.7 2.1-6.1-.7-1.5-6.7-.2-10.3-1.4-3.6-1.1-5.8-2.7-7.3-2.6s-6.3 2.1-9.5.4c-3.2-1.9-5.6-3.8-7.4-4.1-1.9-.2-8.1-.6-9.3-.2-1.4.4-6.9 3.8-8.8 6.2s-1.4 5-3 4.7c-1.7-.2-3-.4-4.1-.2-1.1.1-4.3 2.6-5.5 2-1.1-.5-2.1-2.6-3.7-1.9-1.7.7-2.2 2.7-4.5 2.4-.7-.1-2-.5-3.3-1 .1.2.1.4.2.6.5 1.9 3.5 5.7 4.6 6.7 1.1.9 1.7.2 3.3 7.4 1.4 5.8.6 25.3-2.1 51.9 1.7-1 3.2-2 4-2.5 1.5-1.5 3.2-1.7 4.8-.7Z" class="JP02205"/></g><path fill="#fff" stroke="#000" stroke-miterlimit="10" d="M541.7 554c-4.7-3-13.6-4.1-15.4-6.1s-4.7-2.1-6.4-3c-1.7-.9-5-1.4-5-5.6s1.1-8.6 3.7-10.2c2.6-1.7 5-3.1 6.7-4.2s8.4-.4 9.9-1 6.3-4.6 6.3-6.6.5-3.8 2-5.6 6.1-5.5 6.8-8.7c.4-1.7 1.2-3.7 2.5-5.3-4.3-3.3-8.7-6.1-10.5-7.3-2.6-1.7-3.5-2.6-2.7-5.3.6-2.7 2.4-4.2.7-6.2s-10.4-4.1-11-6.7.9-7.1-1.9-8.7c-2.9-1.7-9.3-6.4-12.3-10.9s-6.4-9.8-6.2-11.9-3.2-2.4-4.1-3.6c-.9-1.2-4 .2-5-.9-.2-.2-1.4-.9-2.7-1.7-1.6.5-3.7-.1-4.7.5-1.5.9 2.4 5.2 2.4 7.9s-1.7 2.7-3.3 3.8c-1.7 1.1-1.1 2.7-1.7 5.3-.6 2.6-7.2 3.1-7.2 4.3s-2.6 2.4-2.6 3.3-3.6.7-3.6 3-2.5 4.3-3.6 5.7c-1.1 1.2-7.7 7.1-9.1 7.7-1.4.5-3.7 3.5-7.7 4.2s-5.2-1-7.8-1.7c-2.6-.7-2.6.4-3.3 1.2s-4.3 1.1-6.6.9c-2.2-.2-2.9-.7-2.9-1.5s-2.2 1.5-3-.4-1.7-1.5-3.7-2c-2.1-.6-1.7-1.1-1.5-2.6.2-1.5-2.2-1.9-2.6-2.4-.4-.5-.4-2.4-2.6-2-2.2.4-3.2-.4-3.6-1.5-.4-1.1-3.2-3.3-5.5-6.1-2.2-2.7-7.2-18.5-7.3-21.2s-3.1-13-3.2-16-1.5-7.7-3.1-10.5c-.5-.9-1.1-4.5-1.6-9.1-9.4-.4-18.7-.7-19.8-1-2.1-.6-2.9 1.9-4.1.5-1.4-1.2-1.9-5-4.2-6.4-2.5-1.5-5.6-2.9-7.4-2.9s-.7 2-3.2 1.2-8.1-3.8-9.7-4.5c-.7-.2-1.6 0-2.4.1 0 2.9.1 5.5.6 5.8.7.7.7 1.1.7 3s4.7 4.5 4.6 5.7c0 1.2 2.7 2.4 4.7 3.5 1.9 1.1 5.2 4.1 5.2 6.3s-4 14.4-5.3 17.1c-1.4 2.7-2.6 3.1.1 4.5 2.9 1.4 6 12.9 6.8 16s-2.4 14.1-3.1 16.1-1.9 2-2.2 3.8-2.1 18.7-3.1 21.4c-1 2.7 1.9 2.6 1.1 4.6s-2 9.1-1.2 12.9.9 6.4.5 9.2c-.4 2.7-8.3 2.5-8.4 4.7-.2 2.2-2.9 6.2-4.3 7.3s-1.2-1.5-2.1-1.5-2.2 3.5-3 4.7-4.5.5-5.8.7c-1.4.1.4 3.3-.2 3.8-.2.1-1.6.5-3.6 1 1.1 2.6 2.5 5.6 2.9 6.7.7 2 10.2 12.5 10.2 14s-2 6.1-2.1 8.1c0 2 3.7 10.3 4.2 8.6s3.8-10.5 5.1-10.8 8.7 1 10.8 0c2-1 5.5-2.5 7.2-2s6.9 3 9.7 2.2c2.7-.7 7.2-1.6 8.2 0 1 1.7 13.1 19.7 15.4 19.7s12.5-2.1 15.2-1.4c2.7.7 13-4.6 14.5-4.1s12.3 2 14.3 1.7 3.2-1.7 4.2-1.5c1 .2 10.2 11.3 11.9 11.3s5.5-.2 7.4 2.2 16.4 22.9 19.6 23.2c3.2.2 12.3-3.1 13.8-4.1s3.6-14.8 3.6-16.9-2.7-2.5-2.7-5-.2-5.5 1-5.3c1.2 0 6.4 1.7 10.9 2.2 4.5.5 8.7 4.7 12.4 5.2 3.7.5 11 .2 12.8-1.1 1.7-1.5 1.1-12.5 3.6-14s3-3.2 4.1-6.8c1-3.7 1.2-6.3 2-7.3.5-.6 1.4-2.5 2.2-3.3-2.7-4.8-6.1-9.2-9.3-11.2Z" class="JP02201"/><path fill="#fff" stroke="#000" stroke-miterlimit="10" d="M693.4 530.2c-.7-.2-7.4-1-7.9-1.7s2.6-7.3.7-9.1c-1.7-1.7-2.2-3-4.7-2.7-2.5.2-3.7-.2-4.7.7-1 1-4.3 9.8-6.3 9.8s-8.7-5-9.7-5-.5 4.7-2.2 3.7c-1.7-1-7.4-2.5-6.4-5s.7-9.1-.7-9.8c-1.5-.7-8.7.5-9.9-2s-1.5-3.2-3-4.5-6.9-2.7-9.4-5-7.4 1-10 0c-2.5-1-6-2.5-8.9-3-3-.5-1.2 3.2-5.2 3.1-4 0-20.7 1.1-20.7 1.1s-.5-1-2.5-1-2.5 1-5.2.7c-2.7-.2-5.5-1.2-6.7-3.2-1-1.6-2.7-4.6-2.9-6.4-2 0-3.6 0-4.3.1-3 .2-4.1 2.4-6.3 3.6-2.2 1.2-4.8 5.3-5.5 8.4-.6 3.2-5.2 6.9-6.8 8.7-1.5 1.7-2 3.6-2 5.6s-4.8 6-6.3 6.6-8.2 0-9.9 1c-1.7 1.1-4.1 2.5-6.7 4.2s-3.7 6-3.7 10.2 3.2 4.7 5 5.6 4.7 1.1 6.4 3c1.7 2 10.5 3.1 15.4 6.1 3.3 2.1 6.7 6.4 9.3 11.5.5-.5 1-.7 1.5-.5 1.5.7 4.5 2.5 5 4s5.2 13.5 8.7 14.8 16.5 2.1 17.7 3.2c1.2 1.2 6.2 9.8 8.7 11.8s6.4 6.7 9.2 6.7 13.8-.1 15-.9 3.7-4.1 5.8-4.1 6.7 2.7 8.2 1.2c1.5-1.5 4.2-4.8 4.6-6.1.2-1.2-5-3-4.2-3.5s5.2-1.7 7.1-5.8c1.7-4.2.2-3.2 1.7-4.2s3.5.5 4.2-1c.7-1.5.9-13.3 2.6-15.6 1.7-2.5 2.7-7.6 5.6-9.1 2.7-1.5 10-5.3 11.8-6.8s12-4.3 13.3-6.1 4.2-5.1 4.3-7.3c0-2.2-.2-3.2 0-4s1.2-1.7 3.7-1 7.4 2.5 7.7 1.2c-.2-1.2.6-2.2-.1-2.5Z" class="JP02402"/><path fill="#fff" stroke="#000" stroke-miterlimit="10" d="M746.8 636.2c-1.5.6-4.8 14.9-6.6 14-1.7-.9-6-13.3-7.6-13.3s-8.1 3.1-8.7 3.3.1 7.2-.9 7.7c-1.1.4-3.5 2.7-5.7 2.5-1-.1-5.1-1.2-9.3-2.4-.1 1.6-1.1 2.9-1.5 4-.6 1.9-2.4.9-4.7 2.1-2.4 1.2-6.6 11.9-7.2 12.8s-1.5.2-2.1-1.2-5 .9-9.5 1c-4.6.2-10.7 5.1-13.3 5.8-2.6.9-6.8 9.8-9.4 12.3s-11.8 11-12.6 12.3.9 5.3 3.8 7.7c3 2.4 2.7 10.4 2.4 11.7-.5 1.2 10.2-.4 15 .5 4.7.9 4.7 5.6 5.2 8.8.4 3.2-2.6 6.8-4.2 8.9-1.5 2.1 3.5 3.2 3.5 4.5s.1 1.4.2 2.5c3.2-1 5.6-1.7 5.7-2 .5-.7 4.5-2.7 6.6-3.1 2-.5 5.2-3.8 6.8-4.8 1.5-1 5.7 5 7.7 4.7 2-.2 3.5-.2 3.2-2.5s-3.7-8.6-3.7-8.6 17.4-13.6 17.9-14.6-1.5-5 .2-5.8c1.7-1 10.5-5.3 13.3-7.3 1.2-.9 4.3-3 7.3-5.1-4.5-4.8-5.8-6.7-5.8-7.8s-.9-3.6 1.4-4.7c2.1-1 7.4-4 10.7-4.5 3.2-.4 5.2-4.5 8.1-5.5 2.9-1 13.3-2.2 11-5.1-2.1-2.7-2.9-2.7-2.4-4.1.5-1.2-.2-2.6 1.4-1.9 1.5.6 2.9 3.6 3.5 2 .6-1.7-.1-13-1.6-15.5-1.5-2.6-3.5 1-4.7-1.5-1-2.1.1-3.1 2.4-4.8-7.3-1.6-14.8-3.3-15.6-3Z" class="JP02442"/><path fill="#fff" stroke="#000" stroke-miterlimit="10" d="M773.7 584c-10.9 1.1-24.1 3.1-26.3 3.3-3.7.4-7.6-5.1-9.1-5.2-1.5 0-.9 3.6-2.2 4.8-.5.4-1.4.7-2.6 1.1 1.2 3 3 9.5 2.7 11-.2 1.9-5.5 7.2-6.3 11.7-.9 4.5-.7 13.6-.5 14.9.2 1.2 4.1.5 5.2.5s2-3 3.2-3.2c1.4-.2.4 3 .4 4.2s-2.2 4.2-3.5 6c-1.4 1.7 6.1 1.5 9.9 2.9.6.2 1.1.5 1.6.7.2-.4.4-.6.6-.7.9-.4 8.2 1.4 15.1 3.1.5-.4 1.1-.9 1.7-1.4 3.2-2.5 5-5.3 10.2-6.9 2-.6 6.7-2.6 11.8-5-.2-.6-.5-1.1-.6-1.7-2-5.7-9.3-30.9-11.4-40Z" class="JP02412"/><path fill="#fff" stroke="#000" stroke-miterlimit="10" d="M738.2 582.3c1.5 0 5.3 5.6 9.1 5.2 2.4-.2 15.5-2.2 26.3-3.3-.4-1.6-.6-2.9-.6-3.2 0-2.4-.1-3.8-1.6-5.8s-9.8-49.5-13.3-74.8c-2.5-17.9-4.7-40.4-5.8-53.2-3.2 1-6 2.1-6.3 2.7-.9 1.5-2.1 16.6-1.9 18.7s.9 5-.2 7.1c-.5 1-2 1.4-3.7 1.6.1.2.2.5.2.7.2 1.9-4.5 13.1-6.2 15.5s-2.4 3-2.9 4.8c-.5 1.9 1 11.9.7 16s3 6.4 3.2 11.3c.2 4.8-1.4 18.5-1.6 21.1s-3.5 3.3-4.6 3.3-9.1-.5-12.1-.5-3.5 3.8-4.6 5.5c-1.1 1.7-.5 2.6.2 3.6.6 1.1 6.1-2.1 8.7-2.2 2.6-.2 2.6-3.6 3.2-4 .6-.4 2.9-.2 2.6 1.2s-8.6 10.5-8.6 12.8 3 2.6 4.1 3.2c1.1.6 2.1 3 2.9 4.1.6 1.1-2.9 4.7-2.5 7.7.4 3 3.6 5.7 5.3 6.6s2.9-.9 4-1c.2 0 .6.6 1.1 1.5 1.2-.2 2.2-.6 2.6-1.1 1.4-1.5.7-5.1 2.2-5.1Z" class="JP02207"/><path fill="#fff" stroke="#000" stroke-miterlimit="10" d="M716.5 280.7c.5-.1 1.7-.4 3.5-.7-1.2-4-2.2-7.6-2.1-9.1.2-3.3 9.9-26.8 9.9-30.4s-4.7-14.8-7.1-18.1c-2.4-3.5-4.6-2.4-5.6-1.1-1.1 1.2-3.5-1.5-5.2-1.5s-10.2-.7-13-.1-4.3 3.2-6.7 3c-2.4-.2-6.4-2.6-6.7-4.5s1.1-12.5 1.1-16-.9-6-.4-7.9c.5-1.9 4-4.8 3.7-6-.2-1.1-4.5-7.9-6.2-8.3-1.7-.5-3.2 1.2-4.8.9-1.5-.4-4.1-.2-3.8-1.7s.9-5.7 3.1-7.2 5.5-3.2 5.2-5.3-3.8-1.4-2.6-2.6c1.4-1.2 5.2-4.7 4.8-8.7-.2-1.7-.5-4.8-.9-7.6-1.5-.6-3-1.2-4.6-1.9-18.1-7.1-29-24.1-30.5-26.4-1.5-2.4-2-3.8-6.9-6.3-4.8-2.4-6.1-10.2-8.3-10.5s-4.7-3.3-7.1-6.4-2.6-6.9-3.7-7.2c-.1 0-.4-.1-.6-.2-14.8 3-32.1 6.1-33.1 6.7-1.7 1.1-.2 3.7 0 6.9.1 3.3-6.2 5-9.1 6.1s-5.5 1.2-8.1 1.5c-2.6.1-5.6-10.9-6.7-10.9s-8.1.1-12.1.6-7.2 6.2-8.1 7.7c-1 1.5-6-2.1-6.9-.2-1 1.9-6.8 14.6-7.4 15.6-.6.9 1.4 1.5 1.9 5s-6.6 7.2-8.3 8.1c-1.7.9-1 1.6-1.7 3.5s1.5 3 1.1 4.5c-.4 1.5-3 0-4.3.9s-6.1 6.4-8.7 9.2-6.4 11.5-8.6 15.6c-2.1 4.1-3.2 3.1-4.8 3.5-1.7.4-1.5 1.9-1.9 3.1s-1.9 1.2-4 1.9c-2.1.5-1.9 3.1-4 4s-2.1 2.7-2.1 4.6 2.9 1.9 6 5c3.2 3.1 2 9.8 2.6 11.4.5 1.6 5.2 6.4 6.7 7.9s-6.7-1.5-8.2-1.5-3.3-2.4-5.2-4.1c-1.9-1.6-4.5-.6-5.6.1s-4.3 5.7-5.3 7.9 2.2 6.6 2.4 8.7c.1 2-2.9 5.3-3.6 6.8s-6.8 3.8-8.8 5c-2.1 1.1-.6 2.6-1.1 4.1-.2.7-4.1 2.2-8.2 3.8-.1.2-.2.5-.2.7-.7 2.2-4 5.1-5.5 7.2-1.5 2-1.1 7.3.1 10.2 1.2 2.7 1.2 6.9.4 8.4-1 1.5.2.5.4 3 .1 2.4-1.6 9.5-2.1 10.4-.6.9.1 1.6 1.9 3.5 1.6 1.9.7 0 2.2 0s1.1 2 2.5 1.9.1 1.6.1 2.4 2.2 2.4 3.6 2.4 1.5-.5 2.9-.7c1.4-.1 1.1 1.1 2.2 2s2.9.4 4.3.4 1.4.5 2.5.9 2.6-4 3.6-5.1c1-1.1 2.9-4.1 3.6-5.5.7-1.5 6.1-4.3 8.4-5.3 2.5-.9 3.2-3 4.1-3.1 1-.1 4.5-2.7 6.3-2.9s4.3-2.6 6.6-3.1 4 2.4 6.6 2.9c2.6.4 6.7-1.9 7.3-3.2.6-1.5.7-3 4.3-4 3.6-1.1 5.6.4 6.6.6.9.2 3.7-.4 4.8-.5 1.1-.1 1.5.4 2.5.7s2.2 0 4.1-3.1 12.4-11.9 13.9-12.6c1.5-.7 5.8 1.7 7.8 2.1 2.1.4 3.2-.9 5.2-1.5 2.1-.5 10.8 8.6 13.4 8.6s9.3 1.7 10.3 1.9c1 .2 3.7-5 5-6.9 1.1-2 6.6-5.8 8.3-7.1 1.7-1.2 5.5-4.3 6.9-5.1s5.2.2 6.9.2 9.9-9.2 11.3-11.2 7.2-5.3 8.4-6.9c1.4-1.6 2.5-6.6 2.5-7.9s-2.5 3.3-3.6 3.7-2.1 3-2.5 4.2-3.6.9-5.1.9 0-3.3 1.7-4.1 7.3-12.6 8.3-13.8c1-1.1.6-4.5 1.4-5.5.7-1.1 2.1-1.1 4.5-1.6 2.5-.5 3.7 1.1 6.2 2.1s1.7-.7 4.1 0c2.5.7 11.9 8.2 24.4 26.4 12.4 18.2 17.6 39.1 18.2 45.7.2 2.2.1 4.3-.1 6.2 3.1-1.9 5.7-3.2 6.7-3 2.2-.1 10.4 4 12.5 3.3Z" class="JP02208"/><path fill="#fff" stroke="#000" stroke-miterlimit="10" d="M729.4 307.7c-2.4-1.1-7.6-2.4-7.6-3.7s-1.2-3 .5-4.5 3.1-2.4 2-6.3c-.6-2.4-2.6-8.1-4.2-13.3-1.7.4-3 .5-3.5.7-2.1.6-10.4-3.5-12.5-3.8-1-.2-3.6 1.1-6.7 3-.5 3.7-1.5 6.6-2.1 8.1-.7 2.2-2.9 4.7-3.2 6.2s-1.9 1.2-2.5 2.2c-.6.9-3 3.1-3.3 5s-1.9 4.1-3 5.8c-1.1 1.9-.4 10.7-.5 12.5 0 1.9-2.2 4.2-2.2 6.4s.5 32.1-10.8 67.9c6 .4 13 .9 14.3.9s.9 0 1.2.1c3.1-1.2 5.3-2.6 6-4.1 1.1-3 1.4-8.7 4-10.7 2.6-1.9 7.2-6.3 8.4-6.9 1.4-.6 3.7.5 4.1-1 .5-1.5 2.2-7.8 4.3-9.5 2.2-1.7 6.3-3.1 6.6-4.8s-2.1-7.2-1-9.2c1.1-1.9 4.8-6.2 5.1-8.4.2-2.4 6.4.5 6.6-2.7 0-3.2.2-4.5-.4-6.3s.9-.9 1.5-3.2.5-9.8 2-11c1.5-1.2 1.7-.4 1.7-1.9-.2-1.9-2.4-6.3-4.7-7.4Z" class="JP02406"/><path fill="#fff" stroke="#000" stroke-miterlimit="10" d="M737.2 307.6c-1.7-.2-4 .1-6.8.9 2 1.6 3.5 5.1 3.5 6.3s-.2.6-1.7 1.9-1.4 8.7-2 11-2.1 1.2-1.5 3.2.4 3.2.4 6.3-6.3.4-6.6 2.7c-.2 2.4-4 6.6-5.1 8.4-1.1 1.9 1.2 7.4 1 9.2s-4.3 3.2-6.6 4.8c-2.2 1.7-4 8.1-4.3 9.5-.5 1.5-2.9.4-4.1 1-1.4.6-5.8 5.1-8.4 6.9s-2.9 7.7-4 10.7c-.5 1.5-2.9 2.9-6 4.1 1.2.2 1.7 1.1 2.5 2.6.9 1.9-4.6 2.1-5.7 3.6-1.1 1.5-6.6 14.9-7.2 16.7s4.3 3.2 6.9 4.5 4.7-.9 6.3.9c1.5 1.7-2.5 8.3-2.5 9.5s6.2 11.8 7.1 16-1 22.6.1 24.3c1.1 1.7 16.6 7.6 18 7.9 1.2.5 2.4-5.7 3.5-6.9 1.1-1.2 5.7-4.8 6.7-5.1 1.1-.2.6.9.6 2s.9 1.7 1.5 2.6 11.7.1 12.8.1 3.7 1.9 4.5 3.6c1.7-.2 3.2-.6 3.7-1.6 1.1-2.1.5-4.8.2-7.1-.2-2.1 1-17.2 1.9-18.7.4-.6 3.1-1.6 6.3-2.7-.5-5.2-.7-8.8-.7-9.7 0-3-.7-10.7-.5-12.3.2-1.6-2.5-3.1-2.4-4.5 0-1.2.7-.5 2.2-.4 1.5.2-1.5-4.6-1.6-6.1-.1-1.5 1.2-13 1.2-14.4s-1.9-12.6-1-32.6c.9-19.8 3.1-42.4 4.3-46.9 1.4-4.5 2.5-5.7 2.5-7.2s-2.6.4-2.9-1.1c-.1-1.5-.1-13.6.9-16.5.2-.9.1-1.9-.1-3-8.9 3.7-13.9 15.6-17 15.2Z" class="JP02411"/><path fill="#fff" stroke="#000" stroke-miterlimit="10" d="M788.9 108.8c.6-1.1.4-3-.7-3.1-1.1-.2-2.5 3.1-4 3.8s-2.6 3.5-5.2 4.7c-2.6 1.2-5.1 6.9-7.3 7.8-2.2.9-7.2 7.3-9.7 10.3-2.5 3-27.6 15.6-41.9 20.7-13 4.6-22.1.7-37.3-5.5.4 2.9.6 5.8.9 7.6.4 4.1-3.5 7.4-4.8 8.7-1.4 1.2 2.4.4 2.6 2.6.2 2.1-3.1 3.8-5.2 5.3-2.2 1.5-2.9 5.7-3.1 7.2s2.4 1.2 3.8 1.7c1.5.4 3.1-1.2 4.8-.9s6.1 7.3 6.2 8.3c.2 1.1-3.2 4-3.7 6-.5 1.9.4 4.5.4 7.9s-1.4 14-1.1 16c.2 1.9 4.3 4.3 6.7 4.5 2.4.2 4-2.4 6.7-3 2.9-.6 11.3.1 13 .1s4.1 2.7 5.2 1.5 3.2-2.4 5.6 1.1c2.4 3.5 7.1 14.5 7.1 18.1s-9.7 27-9.9 30.4 5.3 18.3 6.3 22.4c1.1 4.1-.2 4.8-2 6.3-1.7 1.5-.5 3.2-.5 4.5s5.2 2.6 7.6 3.7c.4.1.7.4 1 .7 2.7-.7 5.1-1.1 6.8-.9 3.1.4 8.1-11.5 17-14.9-.7-2.7-2.7-6.2-2.7-9.9s2-28.6 3.7-34c1.7-5.3 5.3-23.3 6.9-31.7 1.5-8.4 14.5-60.3 15.7-64.1 1.1-3.8 3.6-9.7 4.3-11.4.7-1.6 1.7-3.3 3.2-3.8 1.5-.5.6-4.8 1.7-5.8 1.1-1.1-3-2-3.5-3.1-.6-1.1.6-3.7.7-4.8.2-1.1 2.5-.7 3.3-.5 1 .2-1.1-7.2-.5-8.8.6-1.6 1.5-1.5 2.6-2 1.2-.7-1.4-2.7-.9-3.8Z" class="JP02424"/><path fill="#fff" stroke="#000" stroke-miterlimit="10" d="M583.5 478.7c2 .6 16.6 3.1 18.6 2.9s17.4-5.2 19.5-5.2 3.8 3.6 4.6 2.6c.6-1.1 1.1-6 1.4-8.3.2-2.4 6.3 2.1 8.7-.1 2.4-2.4 13.5-11.4 17.6-12s6.8-11.3 9.2-13.4c2.4-2.1 8.9-7.8 9.2-9.9s1.7-8.3 2.6-10c.5-1 .7-3.2 1-5.3-.9-.6-1.4-1.1-1.1-1.9.6-1.9 6.2-15.2 7.2-16.7 1.1-1.5 6.4-1.6 5.7-3.6-.9-2-1.5-2.7-3.7-2.7s-8.2-.5-14.3-.9c-.1.2-.1.5-.2.7-11.7 36.2-30.4 52.2-32.1 54.3-1.7 2-6.9 2.4-8.1 4.2s-5.6 1.6-7.7 2.7c-2.1 1.1-3.2-1.4-6.6-.6s-5.5-1.5-7.1-3.3c-1-1.1-2.7-3.2-4.2-5.3-9.1 2.4-17.4 5.6-18.2 6.6-1.2 1.5-2.4 9.1-1.9 11s0 5.5-1.5 8.6c-.4.7-.9 1.4-1.6 1.9 1.1 2.1 2.2 3.7 3.1 4Z" class="JP02401"/><path fill="#fff" stroke="#000" stroke-miterlimit="10" d="M744.7 636.1c-3.8-1.2-11.3-1.1-9.9-2.9 1.4-1.7 3.5-4.7 3.5-6s.9-4.5-.4-4.2c-1.2.2-2.2 3.2-3.2 3.2s-5 .9-5.2-.5c-.2-1.2-.4-10.4.5-14.9s6.1-9.8 6.3-11.7c.2-1.9-2.7-12.8-3.8-12.5-1.1.2-2.2 1.9-4 1s-5-3.6-5.3-6.6 3.1-6.6 2.5-7.7c-.6-1.1-1.7-3.5-2.9-4.1-1.1-.6-4.1-1.1-4.1-3.2s.1-.6.2-1c-1.4-.2-2.4-.4-2.7-.4-1.5.4-2 4.2-2.5 5.6-.4 1.2-7.2 3.8-10.9 6.1-2.2 1.5-7.4 6.3-11.8 10.7-.5 1.5-.9 2.7-1.2 3.1-.9.9 0 3.6 1 6 1.1 2.4 5 1.5 6.1 2.6s.2 2.1-.5 3c-.6.9-7.2 1.2-7.8 2.1s1.1 2.1 1.1 3-2.4.2-3.1.9c-.6.6-.2 6.3-.2 7.4s6.3 2.4 7.2 3 1.5 4.5 2.1 6.8 4.7 2.1 6.3 3c1.5.9-1.5 3.2-1.5 4.7s5 7.7 6.8 11.8c.7 1.5.9 2.7.7 3.7 4.2 1.1 8.3 2.2 9.3 2.4 2.1.2 4.6-2.1 5.7-2.5 1.1-.4.2-7.4.9-7.7s7.2-3.3 8.7-3.3 5.8 12.4 7.6 13.3c1.5.7 4.3-10.3 6-13.3-.2-.4-.7-.6-1.4-.9Z" class="JP02405"/><path fill="#fff" stroke="#000" stroke-miterlimit="10" d="M703 576.6c3.7-2.4 10.4-4.8 10.9-6.1.5-1.2.9-5.1 2.5-5.6.4-.1 1.4 0 2.7.4 1.5-3.1 8.1-10.4 8.2-11.8.2-1.5-2-1.7-2.6-1.2-.6.4-.6 3.8-3.2 4-2.6.2-8.1 3.3-8.7 2.2-.6-1.1-1.2-2-.2-3.6 1.1-1.7 1.5-5.6 4.6-5.5 3 0 11 .5 12.1.5s4.3-.9 4.6-3.3c.2-2.6 1.9-16.1 1.6-21.1s-3.5-7.3-3.2-11.3c.2-4.1-1.2-14-.7-16 .5-1.9 1.1-2.6 2.9-4.8 1.7-2.4 6.3-13.6 6.2-15.5-.2-1.9-3.7-4.3-4.7-4.3s-12.1.7-12.8-.1-1.5-1.5-1.5-2.6.5-2.1-.6-2c-1.1.2-5.7 3.8-6.7 5.1-1.1 1.2-2.2 7.4-3.5 6.9-1.2-.4-16.9-6.3-18-7.9-1.1-1.7.7-20-.1-24.3-.9-4.2-7.1-14.8-7.1-16s4-7.8 2.5-9.5c-1.5-1.7-3.7.4-6.3-.9-1.6-.9-4.3-1.6-5.8-2.6-.2 2.1-.4 4.3-1 5.3-.9 1.7-2.5 7.8-2.6 10-.2 2.1-6.8 7.8-9.2 9.9s-5.1 12.8-9.2 13.4c-4.1.6-15.2 9.7-17.6 12-2.4 2.4-8.4-2.2-8.7.1s-.7 7.2-1.4 8.3c-.6 1.1-2.4-2.6-4.6-2.6s-17.6 5-19.5 5.2c-2 .2-16.6-2.2-18.6-2.9-.9-.2-1.9-1.9-3.1-4.1-2.6 2-7.2 3.2-8.3 4-1.5 1-1.7 3.2-1.7 6.3s-2.7 3.5-3.5 5.1c-.7 1.7 1.5 5.5 2.7 7.3 1.2 2 4 3 6.7 3.2 2.7.2 3.2-.7 5.2-.7s2.5 1 2.5 1 16.7-1.1 20.7-1.1 2.2-3.7 5.2-3.1c3 .5 6.4 2 8.9 3s7.6-2.1 10 0c2.5 2.2 7.9 3.7 9.4 5 1.5 1.2 1.7 2 3 4.5s8.4 1.2 9.9 2 1.7 7.3.7 9.8c-1 2.5 4.7 4 6.4 5s1.2-3.7 2.2-3.7 7.7 5 9.7 5 5.3-8.8 6.3-9.8 2.2-.5 4.7-.7 3 1 4.7 2.7c1.7 1.7-1.2 8.3-.7 9.1.5.7 7.2 1.5 7.9 1.7.7.2 0 1.2-.2 2.5s-5.2-.5-7.7-1.2-3.5.2-3.7 1c-.2.7 0 1.7 0 4s-3 5.6-4.3 7.3c-1.2 1.7-11.5 4.6-13.3 6.1-1.7 1.5-9.1 5.3-11.8 6.8s-3.8 6.6-5.6 9.1c-1 1.5-1.5 6.1-1.9 9.9 8.2-2.9 16.5-5.5 18.6-5.5s16.2-3.5 17.4-4.3 2.9-2.1 4.3-1.5 4.3-1.2 4.3.6 3 13.3 3 16-.5 4.3-1.1 6.4c4.1-4 9.2-8.9 11.5-10.3Z" class="JP02408"/><path fill="#fff" stroke="#000" stroke-miterlimit="10" d="M603.6 446.5c-1.1-1.6-2.1-3.1-2.6-4.1-1.1-2.4-2-3.7-4.2-6s-2-5.7-4.5-7.3-4.1-1.9-6-.7-3.7.4-6.6-.6-4-3.8-6-5.3c-2.1-1.5 1-2.6-3.7-3.3s-5.2-3.3-6.2-3.5c-.9-.2-4.5 0-6.3.7s-7.1 1.5-8.8.5c-1.7-1-.1-3.5.2-4.8.4-1.2 2.5-1.1 3.3-1.9 1-.7-.1-1.6-.9-3-.7-1.2 2.1-5.1 2.2-6.4.2-1.2-1.6-1.6-2.6-3.1s-2.6-2.6-5.2-4.1c-2.6-1.5-4.6-6.3-6.2-7.4-1.5-1.1-.7-5.7-1.6-6.1-1-.4-4.1-3-5.5-2.2s-7.1 1.1-8.7 1c-1.5 0-6.2-6.7-7.8-8.8-1.6-2.2-5.1-1.9-6.6-2.2-1.5-.4-4.5.9-4.7 2.4-.2 1.5-2.6 8.1-4 9.9s-2.9 2.4-3.7 3.3c-1 .9 1.7 1.5 3.2 1.9s-.4 3.1-1.1 3.1-1.7 1.9-2.6 2.4c-1 .5-1.4 1.9-1.5 3-.2 1.1-.6 3.3.7 4.1 1.4.7.7.5-.6 3-1.4 2.4-3.3.5-4 2s-5.5 1.9-7.1 2c-1.7.1 1.1.7 3 1.9s2.6 1.2 4.3 2.4 3-.1 4.3-.9 3.2 0 3.7.6c.6.5-.2 1.6-1 3.1-.7 1.5-1.5 4.2-1.1 6.2.4 2-.6 4.2.1 6.8s1.5 3.7 1.1 7.6c-.1 1.4-.9 2-1.7 2.2 1.4.7 2.5 1.5 2.7 1.7 1.1 1.1 4.1-.4 5 .9s4.3 1.5 4.1 3.6c-.2 2.1 3.2 7.4 6.2 11.9s9.4 9.2 12.3 10.9 1.2 6.2 1.9 8.7c.6 2.6 9.3 4.7 11 6.7s0 3.3-.7 6.2c-.6 2.7.2 3.6 2.7 5.3 1.9 1.2 6.3 4 10.5 7.3 1-1.4 2-2.6 3-3.1 2.2-1.2 3.2-3.3 6.3-3.6.9 0 2.5-.1 4.3-.1 0-.4 0-.7.1-1 .7-1.7 3.5-2 3.5-5.1s.2-5.3 1.7-6.3 8.6-2.6 10-5.8 2-6.6 1.5-8.6.5-9.5 1.9-11c1.1-1.1 9.4-4.3 18.5-6.7Z" class="JP02301"/><path fill="#fff" stroke="#000" stroke-miterlimit="10" d="M467.7 598.8c-2-2.5-5.7-2.2-7.4-2.2s-10.9-11-11.9-11.3c-1-.2-2.2 1.2-4.2 1.5s-12.8-1.2-14.3-1.7-11.8 4.8-14.5 4.1-13 1.4-15.2 1.4-14.4-18-15.4-19.7-5.5-.7-8.2 0-7.9-1.7-9.7-2.2-5.2 1-7.2 2c-.5.2-1.4.4-2.4.4-1.4 5.2-3 10-3.3 10.9-.7 1.5 1.1 5.3.4 6.4-.7 1.1-1.1-.2-2.5-.6s0 2 .1 4.2 2.2 1.1 3.2 3.1.5 5 .5 6.6 4 1 3.8 2.7c0 .6-.4 1.6-.9 2.9 1.4-.1 2.4 0 3 .2 1.5.7.7 3.7 3 3.7s3.5 4.5 5.5 4.5 1.2 2.7 2.7 2.7 5 .7 6.7 3c1.7 2.2 1.5 3 5 4.2s6.7 2.5 8.4 5.5 2.2 7.6 1 10.5-1 6.1 0 7.8c1 1.7 4 2.7 5.5 1.7 1.5-1 6.8-5.3 7.8-5.3s1.2 3 3 5.7c1.7 2.7 3.7 4.5 2.5 5.2-1.2.7 3 5.5 5 6.4s19.7 5 21.2 2.1c1.5-3 3.8-11.3 3.6-13s5.5-3.8 7.1-5.8c1.5-2 9.4 2 14.3.4 4.7-1.7 8.8-5.3 9.8-9.3s2.6-8.6 3.8-9.8 5.5-3 10.2-5.3c-3.6-.7-17.9-21-19.8-23.4Z" class="JP02204"/><path fill="#fff" stroke="#000" stroke-miterlimit="10" d="M309.3 581.7c0-1.2-2-6.4 0-7.9 2.1-1.5 2.9.7 4.3-.1s2.1-1.1 2.2-2.4c.2-1.2.4-6.8 1.9-9.4s3-5.8 4-5c.9.9 1.9 6.1 3.5 6.1s.1 4.5 2.7 5.2 7.3 2.9 5.2 1.4c-2.1-1.5-3-1.5-3-2.7s0-3 .6-3 1.4.9 1.4-.9-1.7-10.3-1.2-11.4c.1-.2.4-.6.6-1 0 0 0-.1-.1-.1-.7-2-4-8.8-4.5-10.5s-.2-10.5-.1-11.8c0-1.2-1.7-2.5-3-3s-.7-.2-1.7.7c-1 1-1.5-1-2.7-.2-1.2.7 0 4 .5 5.7s-1.2 4-2.5 4-2.2-2.7-2.2-2.7-2-.2-3.2-.5c-1.2-.2-2.7-2.2-3.5-2.7-.7-.5-1.7-.2-2.5.5s1 4.5-.2 6.3c-1.2 2-1.7 7.3-2.2 8.8s-2.5-1-2.7-1.7-1.2.2-3 1c-1.7.7-2.7-.2-4-.2s-.5 1.5-1.2 2.5-2.2-4.7-2.2-4.7-.7 3.2-1.5 4.2c-.7 1-2 .2-3.2 1.2s-1.4.6-2.2.5c.1.7.2 1.4.4 1.9.9 3.8 14.1 17.9 15.6 20.5 1.5 2.6 2.6 2.2 4.3 3.8 1.6 1.6-.6 2.7-.4 5 0 .7-.2 1.7-.6 2.7 1.6 1.1 3 1.9 3.6 1.7.9-.5 3-.4 3-1.6Z" class="JP02381"/><path fill="#fff" stroke="#000" stroke-miterlimit="10" d="M355.6 601.4c0-1.6.4-4.6-.5-6.6s-3-1-3.2-3.1c-.1-2.2-1.5-4.6-.1-4.2 1.4.4 1.7 1.6 2.5.6.7-1.1-1.1-5-.4-6.4s.2-.7.5-1.4c-1.1-.4-1.9-.6-2.2-.6-1 0-3.6 5.3-4.3 6.8s-4.1.4-5.2.1c-1.1-.2.9 2.2-.2 1.9-1.1-.4-5.5-2.2-6.7-2.2s-1.1.7-1.5 1.6c-.4.9-2.2.1-3 .1s-3.8 6.6-5 8.1-1.9 1.5-3.3 2.4c-.9.5-2.9.7-5.5.6.5 1.6.7 3.3.7 4.3 0 2.2 3 2.6 3.2 4.2.1 1.6 1.1 3.8 2.7 5.7.6.6 1.2 1.2 1.7 1.6.4-.4.7-.6 1-1.1 1-1.7 2.2-4.7 4-5.3 1.7-.7 5.2-2 6.4-1 1.2 1-1 3 3 3s9.1-1.6 12.3-2.4c1.9-.4 4.1-.9 6-1 .6-1.2.9-2.2.9-2.9.1-1.9-3.7-1.2-3.7-2.9Z" class="JP02367"/><path fill="#fff" stroke="#000" stroke-miterlimit="10" d="M322.9 598.3c1.5-.9 2.2-.9 3.3-2.4 1.1-1.5 4.2-8.1 5-8.1s2.6.7 3-.1.2-1.6 1.5-1.6 5.6 1.9 6.7 2.2-.9-2 .2-1.9c1.1.2 4.5 1.4 5.2-.1s3.5-6.8 4.3-6.8 1.1.2 2.2.6c.7-2 1.9-5.6 2.9-9.5-3 0-7.4-.6-8.4-.4-1.2.2-4.6 9.1-5.1 10.8-.5 1.7-4.2-6.7-4.2-8.6s2-6.6 2.1-8.1c0-1.5-9.1-11.7-10-13.9-.2.4-.5.7-.6 1-.5 1.1 1.2 9.5 1.2 11.4s-.7.9-1.4.9-.6 1.6-.6 3 .9 1.2 3 2.7c2.1 1.5-2.6-.6-5.2-1.4s-1.1-5.2-2.7-5.2-2.6-5.2-3.5-6.1-2.5 2.4-4 5-1.7 8.1-1.9 9.4c-.2 1.2-.7 1.5-2.2 2.4-1.5.9-2.2-1.2-4.3.1-2.1 1.5 0 6.6 0 7.9s-2.1 1.1-3.3 1.2c-.6.1-1.9-.6-3.6-1.7-.7 2-1.6 4-.7 4.8 1.4 1.2 2.4 6.1 3.7 6.7s1.5 1.9 2.2 3.1c.7 1.2 1.7-.5 2.9-1.6s4.5-.7 5.2 0 1.2 2.6 1.7 4.7c2.5.1 4.5-.1 5.5-.6Z" class="JP02361"/><g fill="#fff" stroke="#000" stroke-miterlimit="10" class="JP02307"><path d="M288.8 286.9c.6-1.2.7-2.7 1.4-3.5s3-3.5 2.9-5.3c-.1-1.9-2.7-9.9-1.9-11.3.7-1 3.3-2.6 5.2-12.4-.6-.1-1.1-.2-1.7-.4-2.6-1-5.1-2.7-6.3-3.7-1.2-.9-1.2-3-1.9-4.5-.5-1.5-1.1-2.4-3.1-5s-3.2-3.1-5.1-3.7-4.5-3.1-4.5-6-2.6-4.5-3.3-6c-.7-1.5-3.6-3.3-4.1-3-.6.4-1.4-1.2-2.9-1.6s-2.2-3.3-5.2-4.2c-3-1-4.5-.6-4.5-1.9s-3-.6-4.1-1.9c-1.1-1.2-1.5-1.9-2.9-2.2s-.5-1.1 0-2c.6-.9-3.3.4-3.7 1.1-.4.7.5 2.6 1.1 4.5.1.6.4 1.2.4 2 2.1.4 3.7.9 4.1 1.2.9 1.2 2.7 6.4 4.6 9.2s1.6 5.6 1.9 8.1c.1 2.6 4.1 5.3 3.5 7.9-.6 2.6 1.2 5.2 1.6 6.1s-.4 1.5-1.4 3.1.1.9.4 2.4c.1 1.5-1.5 1.5-1.7 3.5s-3.5 18.6-.6 20.5c2.1 1.4 6.8 9.8 10.3 15.4.4 0 .7.1 1 .1 1.7.1 3.8 1.9 6.6 3.5 3.1-2.2 5.6-5 7.7-5.3 2.7-.2 5.8-3.5 6.3-4.7ZM346.7 356.4c2.1-.4 12.9-.1 15-.5s1.4-2.6 4.3-2.6 7.4 1 10.2 0c2.6-.9.2-3 4.8-2.2 2.2.4 6.4 2.9 10.4 5.5-.1-5.1-1.1-17-2.4-19.5-1.5-3-3.1-16.7-4-24.8s1.2-22.8 1.9-25.9 1-10 2.1-12.6c1.1-2.6 1.4-9.5.6-11.5s-3.3-8.4-5.3-8.8c-2.1-.4-3.2-2.7-5.6-3.1-2.5-.4-4.2-7.1-5.2-8.8-.9-1.9-2.9-2.4-6.3-3-.4-.1-.7-.1-1.2-.2.1 1 .2 1.9.4 2.5 1.1 4.1 3 7.6 3.7 10.3s-.6 5.8-1.1 6.9c-.6 1.1-2.2-.4-3.2.5s-4.7 6.2-6.1 8.9.4 8.1-.2 9.8c-.6 1.6-2.5 1.5-3.2 2.7s-4 7.3-5 10.4-4.3 7.3-5.1 8.4-.6 4.6-1.1 6.1c-.6 1.5-3 2.4-5.1 3.5s-5.5-3.7-6.2-3-8.3 2-12.4 2.7-5.8-2.6-7.3-2.9c-1.5-.2-3.2.9-5.2.9s-3.2-.7-6.1-1.6c-.4 1-1.1 2.1-2.2 3.1-2.5 2 1.1 7.3 3 11.4 1.9 4.1 14.1 9.4 14.8 10.9.5 1.5.7 7.3.4 9.4-.4 2 6.7 9.5 8.6 11 1.9 1.5-.4 2.4-1 3.5s4 1.7 3.6 2.7c-.1.4-.4 2-.5 3.8 6.8-.6 13.9-1.4 14.8-1.7 1.5-.7.5-1.9 2.6-2.2Z" class="JP02307"/></g><path fill="#fff" stroke="#000" stroke-miterlimit="10" d="M391.5 358.8v-2c-4-2.6-8.2-5.1-10.4-5.5-4.7-.7-2.2 1.2-4.8 2.2-2.6.9-7.1 0-10.2 0s-2.2 2.2-4.3 2.6c-2.1.4-12.9.1-15 .5s-1.1 1.5-2.6 2.2c-.9.4-7.9 1.1-14.8 1.7-.2 3-.6 6.7-.6 7.7-.2 1.6 1.4.7 2.1 1.9s-1.4.5-.4 4.5c.9 3.8 10.8 9.8 13 12.1s-.2 4.2.9 5.7 3-.4 4.7.2 7.3 3.7 9.7 4.5c2.5.7 1.4-1.2 3.2-1.2s5.1 1.4 7.4 2.9c2.5 1.5 3 5.2 4.2 6.4s2.1-1.1 4.1-.5c1.1.4 10.4.6 19.8 1-1.2-9.9-2.2-24.3-2.2-25.9-.1-2.7-4.1-19.1-3.8-21.1Z" class="JP02304"/><path fill="#fff" stroke="#000" stroke-miterlimit="10" d="M314.2 305.1c1.5.2 3.2 3.5 7.3 2.9 4.1-.7 11.7-2 12.4-2.7s4.1 4.1 6.2 3 4.5-2 5.1-3.5c.6-1.5.4-5 1.1-6.1s4.1-5.3 5.1-8.4c1-3.1 4.2-9.2 5-10.4s2.6-1.1 3.2-2.7-1.1-6.9.2-9.8c1.4-2.7 5.1-8.1 6.1-8.9s2.6.6 3.2-.5 1.9-4.2 1.1-6.9c-.7-2.7-2.6-6.3-3.7-10.3-.1-.6-.2-1.5-.4-2.5-2.9-.9-4.5-3.1-6.7-3.8-2.5-.7-4.5-1.1-6-2.2s-1.7.1-4.1.5c-2.5.4-3.2-1.6-4.1-2.2-1-.5-1.7 0-2.1 1.5-.4 1.5-1.5 4.1-2.6 4.7-1.1.7-1.9-1.6-1.9-2.2s-1.9-.4-3.7-.4-2.5 2.6-3 3.7c-.6 1.1-.6 3.5-.6 5s-2.9 2.4-3.2 4c-.4 1.6-10.5 8.6-12.6 10.2s-7.3 2.4-11.3 2.4-1.2-2.7-3-3.8c-1.2-.9-2.9-.6-4.7-.9-1.9 9.8-4.5 11.4-5.2 12.4-1 1.2 1.6 9.4 1.9 11.3.1 1.9-2.2 4.6-2.9 5.3s-.7 2.2-1.4 3.5-3.6 4.6-6.2 5c-2.1.2-4.7 3-7.7 5.3.2.2.6.4.9.6 3.2 1.9 8.1-.1 9.5-.4 1.5-.1 3.7 1.5 7.3 2.6s9.5-.1 10.3 1.4.4 2 0 3.2c2.9.9 5 1.6 6.1 1.6 1.7-.1 3.5-1.2 5-1.1Z" class="JP02303"/><g fill="#fff" stroke="#000" stroke-miterlimit="10" class="JP02387"><path d="M257.1 277.9c-2.9-1.9.5-18.3.6-20.5.2-2 1.9-2 1.7-3.5s-1.4-.7-.4-2.4c1-1.6 1.7-2.2 1.4-3.1-.4-.9-2.2-3.5-1.6-6.1.6-2.6-3.3-5.3-3.5-7.9-.1-2.6 0-5.3-1.9-8.1s-3.7-7.9-4.6-9.2c-.2-.4-2-.9-4.1-1.2.2 1.6.1 3.3-.6 4.3-1.1 1.5-2.2 2.2-3.3 2.6s.1 3.5-.7 4.8c-1 1.2-1 6.8-1 8.4s1.2 2.7 1.6 6.1-1.4 3.1-1.4 4.7.5 2 1.6 5-1.4 8.1-1.4 10.7-1.7 7.6-1.7 8.4-3.2 8.7-4.3 10.3-3.3-.4-4.1.1c-.7.5.5 4.5-.6 6.6-1.1 2.2-4.8 1.6-6.7 1.9-1.9.1-1.4-.4-3-2.6s-1.7-.7-3-.7-1.5-1.5-2.2-1.5-2.1.9-3.3 1.2c-1.4.4-.7-.9-1.9-1.1s-1 .7-2.2 1.5c-1.4.7-1.6-1.9-3.6-1.7-1.9.1-3 3.7-3.3 4.7-.4 1.1.4 3.7.4 5s3 2 4.7 1.7c1.7-.4 4 .4 6.3.6 2.5.2 2.5-1.2 4.8-1.2s2.6 2.6 3.8 4.2 1.9-1.1 3.2.7c1.1 1.6 2.6 3.1 3.3 4.7 1.4.5 2.7.9 3.3 1 2.2.4 2.9-1.6 4.5-2.4 1.7-.7 2.6 1.4 3.7 1.9 1.1.6 4.3-1.9 5.5-2s2.5 0 4.1.2c1.7.2 1.1-2.4 3-4.7s7.6-5.8 8.8-6.2c1.1-.4 5.8 0 8.3.1-3.5-5.6-8.2-14.1-10.3-15.5ZM262 370.7c1.6 3.8 6 11 5.3 13.4s-6.4 18-6.1 19.2.5 3 0 3.8c-.6.9 1.1 3.7 2.7 3.7s2.5-1.5 4.5-.5c2.1.9 4.5 2.7 6.2 2.6s3.2-2.2 3.2-.7-1 2-.6 3c.4.9 4.6 10.3 5.7 9.5 1.1-.7 3.2-1.5 4.3-3 1.1-1.5 1.1-1.6 1.9-2.2.7-.5-1.5-2.2-.5-2.7s5.1-2.2 7.1-2.1c2.1 0 2.2 1.6 4.5.4 2.2-1.2 7.2-5.7 9.4-5.3 2.2.4 3.2.2 5.1-1.1 1.9-1.2 8.1-3.6 8.7-5.1s2.5-4.2 2.5-6.6 1-9.1 1.7-9.9 1.7-1.9 1-3.8c-.4-1.1.7-4.3 2.6-7.2-.5-.6-.7-1.2-.9-1.7-.9-3.8 1.1-3.3.4-4.5s-2.2-.2-2.1-1.9c.2-1.6.9-10.5 1.2-11.5.4-1.1-4.1-1.7-3.6-2.7.6-1.1 2.9-2 1-3.5s-8.9-9.1-8.6-11c.4-2 .2-7.9-.4-9.4-.5-1.5-12.9-6.8-14.8-10.9s-5.3-9.4-3-11.4h.1c-3.6-.6-4.1 1.4-4.5 2.7-.4 1.6.9 9.4 1.1 10.9.1 1.5-.7 1.9-1.9 3.8s-1.9.9-3.2 1.6c-1.4.7-12.6 17-14 18.3-1.4 1.2-3.2.5-6.2.5s-7.1.7-6.3 2.1c.7 1.5 6.2 1.1 8.8 2.2s4.3 5.3 5.2 7.4c.9 2-.7 2.4-2.1 3.7-1.4 1.2-3.3-.6-5.5-1.9s-2.9 2.7-3.6 2.6c-.7-.2-.7-1.6-.7-3s-9.4 3.2-10.7 4c-.6.4-1.6 1.7-2.6 3.3 3.6 1.4 6.4 2.5 7.4 4.7Z" class="JP02387"/></g><path fill="#fff" stroke="#000" stroke-miterlimit="10" d="M256.8 516.6c1-2 2.5-3.5 1.1-4.2s-1.4 1.1-2.6-1.1-3.3-3.1-2.6-3.7c.7-.5 4.3 3.1 4.8 2.1.6-1.1-.5-1.9 2.1-1.5 2.6.4 3.7 2.7 5.5 1.7 1.7-1.1 4.5 1.5 4.7 3.1.1 1.6 1.2 5.3 2.4 5s2.9-1.6 3.3-.4 1.9 5.2 2.6 5c.7-.1 2.6-.5 2.9-2s-2.6-6.4-2.4-7.3c.2-.9 3.3-5.1 5.5-6.1.7-.4 2.7-.5 5-.7-.2-.9-.2-1.7-.1-2.6.7-3.8 1.9-8.7.4-9.5s-3-1.5-3.6-1.1c-.6.4-1.7 3.1-3 1.5-1.4-1.6-1.9-2.4-1.6-3.5s2.5-1.6 2.1-4.2-7.8-9.1-7.8-11.8 1-4.5-.1-5.3c-1.1-.9-2.9 0-3-2-.1-2-1.1-10.3-.9-11.3.2-.9 2.2 0 2.2-2s0-4.2.2-5.2c.2-.9 7.7-5.3 7.7-6.6s3.3-2 2.6-3.1c-.7-1.1-3.2-1.5-2.5-2.2.7-.7 2.6-.1 3-1.5.4-1.2 1.1-5 0-6.2s-5.1.4-5.1-1.7 0-3.7.9-6c-1.5-2.6-3.2-6.4-3.5-6.9-.4-.9.6-1.5.6-3s-1.5.5-3.2.7c-1.7.1-4.1-1.7-6.2-2.6-2.1-1-2.9.5-4.5.5s-3.3-2.7-2.7-3.7c.6-.9.4-2.6 0-3.8s5.6-16.9 6.1-19.2c.6-2.4-3.7-9.5-5.3-13.4-1-2.4-3.8-3.3-7.2-4.8-1.1 1.9-2.2 3.7-2.4 4.1-.2.5 1.9 2.7 2.2 4.6s-2.5 2-3.2 2.4-8.6-7.1-10.3-7.9c-1.7-.9-3.3-.7-5.2.7-.7.5-2.2 1.5-4 2.5-.6 6.4-1.5 13.1-2.4 20.3-4.7 36.7-12.9 65-22.4 88.6-3 7.3-6 12.9-8.8 17.2 4.2 0 8.3.2 9.1.6 1.7.9 4.3 3.8 5.3 6.4 1.1 2.6 3.5 8.3 6.7 10.2 3.2 1.9 10 3.6 12.1 6.2 1 1.2 3.2 2.7 5.6 4 .7-.7 1.4-1.2 2.7-1.1.7.1 2 .2 3.2.4 4.5-2.2 13.1-6.8 13.9-8.4Z" class="JP02209"/><path fill="#fff" stroke="#000" stroke-miterlimit="10" d="M319.8 531.1c-.4-1.1-1-2.9-1-4.2-.9-.1-1.5-.4-1.7-.6-.7-.5-1.2-6-3-6.8s-1.5 2-2.5 2-3.6 5.1-5.2 3.8c-1.6-1.2-7.7-7.1-8.4-8.7-.7-1.6-3.2 2.4-4.5-.6-1-2.4-3.8-6.2-4.5-9.5-2.2.1-4.2.4-5 .7-2.1.9-5.2 5.1-5.5 6.1-.2.9 2.6 6 2.4 7.3-.2 1.5-2.1 1.9-2.9 2s-2-3.7-2.6-5c-.5-1.2-2.2 0-3.3.4s-2.2-3.3-2.4-5c-.1-1.6-3-4.2-4.7-3.1-1.7 1.1-2.9-1.4-5.5-1.7-2.6-.4-1.5.4-2.1 1.5-.6 1.1-4.1-2.6-4.8-2.1-.7.5 1.4 1.5 2.6 3.7s1.4.4 2.6 1.1c1.4.7-.2 2.2-1.1 4.2-.7 1.5-9.4 6.1-13.6 8.3 2.5.4 5.3 1 5.3 1.9 0 1.2-.2 3 1.5 3s6.7 1.7 8.4 3.2c1.7 1.5 3.2-1 4.2 0s1.2 2.5 2.7 2.2 4.2-2.2 5.5-2c1.2.2 1.5 5.8 3 6 1.5 0 5.5-.7 6 .7.5 1.5-.2 5.8 1 6.6 1.2.7 3.2 1.2 4.5.2s2.5-.2 3.2-1.2 1.5-4.2 1.5-4.2 1.5 5.7 2.2 4.7c.7-1 0-2.5 1.2-2.5s2.2 1 4 .2c1.7-.7 2.7-1.7 3-1 .2.7 2.2 3.2 2.7 1.7.5-1.5 1-6.8 2.2-8.8s-.5-5.7.2-6.3c.7-.7 1.7-1 2.5-.5s2.2 2.5 3.5 2.7 3.2.5 3.2.5 1 2.7 2.2 2.7c1.6.2 3.3-2 2.9-3.7Z" class="JP02384"/><path fill="#fff" stroke="#000" stroke-miterlimit="10" d="M541 90.9c.7-1.9 5-13.4 4.7-14-.1-.5-2.6-3-2.6-5.3s.4-9.8 0-11-3-4.1-4.2-5.2c-1.4-1.1-3.8-5.3-5.2-8.3-.6-1.2-.4-3.3.5-5.5-1.9-.4-4.7-2.6-6.8-4.6-2.5-2.2-2-5.2-4.5-6.1s-2.6 1.9-2.9 3.8c-.2 2 .1 3.8.4 5 .1 1.1-2.2.4-2.9 3-.6 2.6-2.5 2.6-1.7 4.2.7 1.6 3.5 5 3.5 7.6s.5 3.3 0 5c-.6 1.6 1.1 1.2 1.1 2.7s-1.1 1.1-2.5 3.8-1.5 3.5-2.6 6.1-1.7.4-2.5 3.1c-.7 2.6-4.1 2.5-5 4.3 4 2.4 6.7 6.2 7.1 6.9.7 1.2.4 5.8 1.2 9.4.9 3.5 5.2 6.1 6.7 7.6s2.2 3 3.3 4.1c1.1 1.1 2.5-2.7 3.3-1.9.5.5 3.1 1.9 6.1 3.5.5-1 .9-1.9 1-2.2 1-1.9 6 1.7 6.9.2.7-1.1 2.9-5 5.7-6.8-3-1.5-5.2-2.6-5.8-3.3-1-1.2-3.2-4.2-2.5-6.1Z" class="JP02423"/><path fill="#fff" stroke="#000" stroke-miterlimit="10" d="M526.5 107.6c-1.1-1.1-1.9-2.6-3.3-4.1-1.5-1.5-5.8-4.1-6.7-7.6-.9-3.5-.5-8.1-1.2-9.4-.5-.7-3.2-4.6-7.1-6.9 0 .1-.1.2-.1.5-.4 2.4-2.5 6.9-3.2 8.3-.7 1.2-2.1 2.7-4.3 4s.7 3.3-.7 6.4-3 2.7-5.5 3.1-2.9 6.9-3.5 7.9c-.6.9-3.3.4-4.5 1.1s0 1.9 0 3.3-3.3 6.2-4.7 9.9c-1.4 3.7-.9 9.2-.9 11.8s-4 14.3-4.1 18c0 3.7-2.4 9.5-4.6 10.4-2.2.9-3.6 1.1-4.5 2.7-1 1.6 1.4-.5 2.2 1.2.9 1.9-2.9 2-3.2 3.3-.4 1.2 2.2 1.4 2.7 5 .5 3.7-2.5 6.8-3.2 9.1s0 2.4.7 4.2-.7-.6-1.5 2.2c-.7 2.7-1.4 3.1-1.4 5.7s-3 1.9-2.2 4c.7 2.2-1.6 8.8-2 10.2-.4 1.2-2.1 2.6-2.5 3.8s1.6 9.1 2 11.9c.4 3-1.1 5.5-1.5 7.6-.4 1.9-1.2 4-2 6.1 4.1-1.5 7.9-3.1 8.2-3.8.6-1.5-.9-3 1.1-4.1 2.1-1.1 8.1-3.5 8.8-5s3.7-4.7 3.6-6.8c-.1-2-3.3-6.4-2.4-8.7 1-2.2 4.2-7.2 5.3-7.9 1.1-.7 3.7-1.9 5.6-.1 1.9 1.6 3.7 4.1 5.2 4.1s9.7 3 8.2 1.5-6.2-6.3-6.7-7.9c-.5-1.6.6-8.3-2.6-11.4s-6-3.2-6-5 0-3.7 2.1-4.6 1.9-3.5 4-4 3.6-.5 4-1.9c.4-1.2.2-2.7 1.9-3.1 1.7-.4 2.9.6 4.8-3.5 2.1-4.1 5.8-12.9 8.6-15.6 2.6-2.7 7.3-8.2 8.7-9.2 1.4-.9 4 .6 4.3-.9s-1.9-2.6-1.1-4.5 0-2.6 1.7-3.5 8.8-4.6 8.3-8.1-2.4-4.1-1.9-5c.5-.7 4.3-9.2 6.3-13.4-3-1.6-5.6-3.1-6.1-3.5-.9-1-2.2 2.9-3.3 1.9Z" class="JP02426"/><path fill="#fff" stroke="#000" stroke-miterlimit="10" d="M588 95.3c1-.7 18.3-3.7 33.1-6.7-1.1-.7-2.4-2.9-2-4 .4-1.2.7-1.2-3.3-1.9s-3.6-2.2-7.1-2.9c-3.6-.6-2.6-2.2-4.3-2.6-1.7-.4-5.5-3.7-6-4.5s-4.7-1.7-9.3-1.7-18.5-1.4-22.3-2.1c-3.7-.7-4.1-2.4-5.1-3-1-.6-2.5-1.5-6.9-3.5-4.5-2-2.9-2.7-6.7-6.7-4-3.8-1.1-5.8-3.5-5.7-2.5.1-3.3-5-5.2-5s-2.6-3.5-4.5-3.5-.4 0-.6-.1c-1 2.1-1.1 4.1-.5 5.5 1.2 3 3.8 7.2 5.2 8.3s4 3.8 4.2 5.2c.4 1.2 0 8.7 0 11s2.4 4.8 2.6 5.3-4 12.1-4.7 14c-.7 1.9 1.5 4.8 2.7 6.3.6.6 3 1.9 5.8 3.3.7-.5 1.5-.7 2.4-.9 4.1-.5 11-.6 12.1-.6s4.1 11 6.7 10.9 5.2-.4 8.1-1.5c2.9-1.1 9.2-2.7 9.1-6.1-.2-3.5-1.7-6.1 0-7.2Z" class="JP02425"/><path fill="#fff" stroke="#000" stroke-miterlimit="10" d="M154.3 536.1c0 2.7 3 5.7 3.7 7.3.7 1.7-5.7 3.6-6.1 6.3-.2 2.7-2 2.5-2.5 4.8-.5 2.5-5.3 5.1-7.6 6.6-2.2 1.5-1.5 4.6-3.1 8.6-1.5 4-9.8 10.3-9.8 13.1s-4.1 16.1-5.1 19.6 1.1 17.1 1.4 21.8.4 26.3.9 28.9c.5 2.7-1.5 4-3 5.8-1.5 2-.7 8.3-3.1 10.3-2.2 2-8.1 21.8-8.2 27.5 0 2.4-1.1 6.2-2.4 9.5 1.5.6 3.3 1.5 4.3.2 1.2-1.6 6.1 4.8 7.3 5.6 1.2.6 2.4 4.8 2.7 7.7.2 2.9 1.7 5.5 4 5.5s11 .1 14.4-.5c2-.4 3.8.7 5.3 1.5.9-2.5 1.7-5.1 1.9-6 .2-3.7-.9-14-1.4-15.5-.5-1.5-7.9-8.9-8.2-12.3-.2-3.5-5-8.1-4.7-11.3s7.3-4.3 7.6-9.8c.2-5.3-.2-8.6.2-9.5s10.8-2.9 11.3-4.1c0-.1.1-.2.1-.4s.1-.5.1-.6c0-.2.1-.5.1-.7 0-.2.1-.5.1-.9.2-1.2.4-2.7.4-4.1v-1.4c0-.2 0-.5-.1-.6 0-.4-.1-.5-.1-.6-1-2.5-2.7-6.2-2.7-7.3s0-7.1 1.2-8.3 8.3-4.6 10.5-4.8 3.2 1.5 4.5-.2.5-6.1 1.5-7.6 5-1.2 7.1-4.6c2-3.5 5.6-4.8 5.6-7.3s-.5-5-.2-6.1c.2-1.2 11-7.6 15.7-8.3s13.8-3.3 15.7-5.3c2-2 5.3-5.3 4.1-7.1-1.2-1.7 10-8.1 12-9.9 2-2 10.8-7.6 10-8.8-.7-1.2-11.2-3.2-12.3-3.2s-7.8 7.3-8.6 4.8c-.7-2.5-2.1-15.2-1.9-17.2s6.3-7.8 7.3-10.5 5-1.5 6-3.1c1-1.7 2.2-4.3 4.5-6.1.2-.2.5-.4.7-.6h.1c.1-.2.4-.5.5-.6l.6-.6c-2.2-1.2-4.5-2.7-5.6-4-2-2.6-8.9-4.3-12.1-6.2s-5.6-7.6-6.7-10.2-3.7-5.6-5.3-6.4c-.7-.4-4.8-.6-9.1-.6-6.3 9.7-11.9 12.8-13.6 13.6-2.6 1.2-4.7-1-6.2-.6s-1.1-2.2-2.6-3.5c-1.5-1.2-.7 1.5-2.5 1.5s-4.7 1.5-6 3.5c-1.4 2-6.9 2.4-8.3 4.3-.9 1.4-6.9 6.8-11.5 10.8 3.2 1.7 6.1 3.1 6.6 3.6 1.4 1.1.2 2 .2 4.7Z" class="JP02321"/><path fill="#fff" stroke="#000" stroke-miterlimit="10" d="M514.6 739.5c1.9-1.2 4.7-5.1 6.4-4.5 1.9.6 2.7 3.2 6.4 2s5.6-1.9 8.7-1.9 3.2.4 3.8 1c3-2.4 6.2-5.1 6.6-5.8 1.1-1.9 2.6-7.8 3.3-10.4.6-2.6 4.6-8.3 9.2-11 4.6-2.7 15.9-6.3 20.8-6.7 5-.4 10.9-8.1 11.8-8.1s14.1-.2 16.7-.4c2.6-.2 6.1-2.4 7.4-2.4s3.2 1.1 6.1 1.1 9.8-1 11.5-.7c1.7.2 5.8 1.5 11.7 1.7 1.9.1 4-.1 6.4-.2 3.1-3 7.3-6.9 9.1-8.6 2.6-2.5 6.8-11.4 9.4-12.3s8.7-5.7 13.3-5.8c4.6-.2 8.9-2.5 9.5-1s1.5 2.1 2.1 1.2 4.8-11.4 7.2-12.8c2.4-1.2 4.1-.2 4.7-2.1s2.6-3.6.7-7.7c-2-4.1-6.8-10.3-6.8-11.8s3.1-3.8 1.5-4.7c-1.5-.9-5.6-.6-6.3-3-.6-2.4-1.2-6.2-2.1-6.8s-7.2-2-7.2-3-.4-6.8.2-7.4 3.1 0 3.1-.9-1.7-2.1-1.1-3c.6-.9 7.2-1.2 7.8-2.1s1.5-1.9.5-3c-1.1-1.1-5-.2-6.1-2.6s-1.9-5.1-1-6c.9-.9 2.5-6.8 2.5-9.5s-3-14-3-16-2.9 0-4.3-.6-3.2.6-4.3 1.5-14.4 4.3-17.4 4.3-10.4 2.6-18.6 5.5c-.2 2.7-.5 5.2-.7 5.7-.7 1.5-2.7 0-4.2 1s0 0-1.7 4.2-6.3 5.3-7.1 5.8c-.7.5 4.5 2.2 4.2 3.5-.2 1.2-3 4.6-4.6 6.1-1.5 1.5-6.2-1.2-8.2-1.2s-4.5 3.5-5.8 4.1c-1.2.7-12.3.9-15 .9s-6.7-4.7-9.2-6.7-7.4-10.5-8.7-11.8-14.3-2-17.7-3.2-8.2-13.3-8.7-14.8-3.5-3.2-5-4-3 3-3.7 4c-.7 1-1 3.7-2 7.3-1 3.7-1.5 5.3-4.1 6.8-2.5 1.5-1.9 12.5-3.6 14-1.7 1.5-9.1 1.6-12.8 1.1s-7.9-4.7-12.4-5.2-9.7-2.2-10.9-2.2-1 3-1 5.3 2.7 2.7 2.7 5-2.1 15.9-3.6 16.9c-.7.5-3.7 1.7-6.8 2.7-1 1.5-1.7 2.6-1.7 2.9 0 1 1.2 1.5 1.2 2.7s-1 5.1-1.2 6.8 3 .5 3 2.7.6 13.3-.4 16.1c-1 3-5.6 5.3-5.6 7.3s1.4 17 1.7 22.8c.1 0 .1.1.1.2.2 2 1.1 6.8.2 7.7l-.2.2c2.9-.6 8.1-2.4 9.1-2.7 1.4-.5 7.7-.9 8.8-.1 1.1.7 2.2 3.8 3.1 6.1.9 2.2 2.6 1.6 4.1 3.7 1.5 2 5.6 10.3 6.1 14.9s-3.5 10-4.3 11.4c-1 1.2-5.8-2.2-7.4-4.2-1.6-2 .6-5.3 1.1-6.4.6-1.1-5.8-1-7.1-.7-1.4.1-1.5 3-1 4.5s4.1 6.7 4.8 8.7-1.1 3.5-2.1 5.3c-1 1.9-2.9 2.2-5.1 2-2.2-.2-9.3-10.9-10-11.3s.5 9.5 1.9 9.9 2.9 1.5 4.1 3c1.4 1.5-1 3.3-1 4.7 1-1.2 12-.5 13.5-1.5 1.5-.9 2.6 3.6 4.5 2.4Z" class="JP02206"/><path fill="#fff" stroke="#000" stroke-miterlimit="10" d="M644.9 693.8c-5.8-.2-9.9-1.5-11.7-1.7s-8.7.9-11.5.7c-2.9 0-4.7-1.1-6.1-1.1s-4.7 2.1-7.4 2.4c-2.6.2-15.9.4-16.7.4s-6.8 7.7-11.8 8.1-16.2 4-20.8 6.7c-4.6 2.7-8.6 8.4-9.2 11-.6 2.6-2.2 8.6-3.3 10.4-.4.6-3.6 3.3-6.6 5.8.5.5.6 1.1.4 1.9-.6 2-2.2 5.8-2 8.1.1.6.4 1.7.6 3 4.7-1.1 9.7-2.5 11.2-2.2 2.7.5 9.2-.2 10.8-.1 1.5 0 5.2 4.2 7.2 4.7s4-3.2 5-3.1c1 0 11.3-2.4 14.8-2.4s14.8 2.2 19.2 2.2 9.3-5.6 12.3-5.6 7.2-2.1 9.3-2.1 15-.1 16.7 1.1 11-.6 13.8-.1c.1 0 .4.1.5.1h.1l.4.4c.1 0 .1.1.2.1.1.1.2.1.2.2l.2.2.2.2.2.2c.1.1.1.2.2.2.1.1.2.2.2.4.2.4.5.7.9 1.1h.1c3.6-.9 7.3-2 10.3-3h.2c-.1-1.1-.2-2.1-.2-2.5 0-1.2-5-2.4-3.5-4.5s4.6-5.7 4.2-8.9c-.4-3.2-.4-7.9-5.2-8.8-4.7-.9-15.4.7-15-.5.5-1.2.7-9.3-2.4-11.7-3-2.4-4.7-6.4-3.8-7.7.4-.5 1.7-2 3.6-3.7-2-.2-4.1-.1-6-.1Z" class="JP02450"/><path fill="#fff" stroke="#000" stroke-miterlimit="10" d="M235 698.6c0-2.2 2.2-3.7 1.5-5.3-.7-1.7-6.7-5-5.7-7.7s2.7-4.1 1.2-5.8-8.2-5.2-8.2-7.2-2.2-9.5-1.2-12.5c1-3 3.5-2.7 3.5-4.3s-.2-9.1-.4-11.3c-.2-2.2-2.5-2.2-2.2-3 .2-.7 2-2 1.5-3.2-.5-1.2-4-3.2-2.7-4.2 1.2-1 2.5.7 3.2-.7.7-1.5 2.7-2.2 1.5-3.2s-6.2-2-6.9-4.5.7-3.2 0-4c-.7-.7-4.5-.7-4.7-2s-12.4-7.4-13.1-7.4-5.8 10.5-7.1 10.3-4-1-4.2.2-1 7.8-2.5 7.8-8.1 4.1-8.8 5.1-1.5 8.6-2.4 8.6-3 4-4.5 5.6c-1.5 1.7-4.7 2.5-6.4.7s-2-4.7-3.5-4.7-4 2.9-7.6 5.5c0 1.4-.1 2.9-.4 4.1 0 .2-.1.6-.1.9 0 .2-.1.5-.1.7 0 .2-.1.4-.1.5 0 .2-.1.4-.1.5-.5 1.2-10.8 3.1-11.3 4.1-.5 1 0 4.2-.2 9.5-.2 5.5-7.3 6.6-7.6 9.8-.2 3.2 4.5 7.9 4.7 11.3.2 3.5 7.7 10.8 8.2 12.3.5 1.5 1.7 11.8 1.4 15.5-.1.9-1 3.6-1.9 6 1.1.5 2.1 1 2.9.5 1.9-1 3.7-2.9 5.2-3.2 1.5-.2 3.1 2.6 5 .7s4.6 0 6.7 1.4 3.3 3.6 4.8 2c1.6-1.6 3.7-2.2 5.2-1.2s2.7 3.2 5.2 2.4c2.5-1 9.5-5.7 14.1-5.7s11.4-.9 14.1-2.1 6.7.1 7.9 1c1.2 1 3.6 4.8 5.5 4.8s11.7-1.5 12.3-2.7 3.7-16 5.3-18.5c-2-2.7-3.5-4.7-3.7-5.3-.5-1.2-3.2.5-3.2-1.7Z" class="JP02343"/><path fill="#fff" stroke="#000" stroke-miterlimit="10" d="M325.9 614.9c-.1.1-.4.2-.5.4-.4.2-.7.5-1 .7-.1.1-.2.1-.2.2h-.1c-.1.1-.2.1-.2.2h-.1l-.2.4c0 .1-.1.1-.1.2v.4c.5 1.2 5 0 6.9.2s.7 2.5 1.2 3.7 1.1 18.6 1.1 20.6 1.5-1 2.7-1.5.2 2.2.7 4.7 2.7 6.8 4.7 7.8 2.5-1.5 3.5-2.7 1.2.2 3.2.2 2-2.7 5.5-2.6c3.5 0 11.2 7.4 11.7 8.2 0 0 .1.1.1.2 0 .2.1.4.1.5 0 0 0 .1.1.2q0 .1.1.2c.5 1.2 1.2 3.2 2.1 5s.6 1.1 1 1.5h.1c.1.2.2.4.4.5h.1c.1.2.4.4.5.5 2.2 1.2 7.9-.2 10.5-.4 2.5-.2 2.2 1.7 3.5 2 1.2.2 2.2-1.7 4.7-2.7s.2 2.7 2.5 3.7 6 2.2 8.2 3.2c2.2 1 6 9.8 6 11s-11.3 8.8-12.3 9.8-8.8.2-11.5.2-3-2.7-3.2-.7c-.2 2-5.3 10.3-6.3 10.5-1 .2-1.5-3.7-1.5-5.2s-2.2-3-4.2-3.2c-2-.2-3.7 2.2-5.5 4.1-1.7 2 3.2 3.2 5 5.7s-3.7 18.3-3.7 20.1-6.3 5.2-6.8 6.4c0 0 0 .2.1.6h.2c1.2 0 6.7 3.6 7.6 5 .9 1.2 5.2 2.6 7.7 2.6s5.7 6.4 5.5 9.4c-.4 2.9-2.5 2.2-.4 2.9s11.4.7 13.3-1.1 1.6-3.8 3.7-4.1 7.1-4.1 8.9-6.3-.6-3.8 3.7-3.8 6.8-1.5 8.6.1c1.9 1.6 3.6 8.4 5.5 8.4s4.3 0 4.3-2.2-.9-7.1-.5-9.1 0-3.8 3.1-3.8 6.4-.6 8.1-3.1c1.6-2.6 4.3-5.7 6.4-5.5 2.1.4 5.2-1.2 7.4-2.2 2.1-1 2.1 4.2 5.8 4.2s4-24.1 6.4-26.3 14.9-10.8 18.8-9.4c3.7 1.2 11.2-4.2 12.4-3.3-.4-5.8-1.7-21.1-1.7-22.8s4.5-4.3 5.6-7.3c1-3 .4-14 .4-16.1s-3.2-1-3-2.7 1.2-5.6 1.2-6.8-1.2-1.7-1.2-2.7.7-1.5 1.7-2.9c-2.7.9-5.5 1.5-6.9 1.4-4.8 2.4-9.5 4.7-10.2 5.3-1.2 1.2-2.7 5.8-3.8 9.8-1 4-5.1 7.6-9.8 9.3s-12.8-2.2-14.3-.4c-1.5 2-7.3 4.1-7.1 5.8.2 1.7-2.1 10-3.6 13s-19.2-1.1-21.2-2.1-6.2-5.7-5-6.4c1.2-.7-.7-2.5-2.5-5.2s-2-5.7-3-5.7-6.3 4.3-7.8 5.3-4.5 0-5.5-1.7-1.2-5 0-7.8c1.2-3 .7-7.6-1-10.5s-5-4.2-8.4-5.5-3.2-2-5-4.2c-1.7-2.2-5.2-3-6.7-3s-.7-2.7-2.7-2.7-3.2-4.5-5.5-4.5-1.5-3-3-3.7c-1.5-.7-5.7 0-8.9.7s-8.3 2.4-12.3 2.4-1.7-2-3-3c-1.2-1-4.7.2-6.4 1-1.7.7-3 3.7-4 5.3l-1 1Z" class="JP02210"/><path fill="#fff" stroke="#000" stroke-miterlimit="10" d="M706.2 766.2c-1-1.7-1.2-3.2-2.7-3.2s-3.5 4.1-5.7 1.2c-2.2-3-2.2-4.2-5-5s-7.8 1.6-8.9 0c-1.2-1.7-3.7-5.7-6.9-6s-6.6.2-9.1-1.7c-.1-.1-.4-.2-.5-.5l-.2-.2-.4-.4c-.1-.1-.1-.2-.2-.2-.1-.1-.2-.2-.2-.4-.1-.1-.2-.2-.2-.4-.1-.1-.1-.2-.2-.4-.1-.1-.2-.4-.4-.5 0-.1-.1-.1-.1-.2-.7-1.1-1.5-2.2-2.2-3.2 0-.1-.1-.1-.1-.2-.2-.4-.5-.7-.9-1.1-.1-.1-.2-.2-.2-.4-.1-.1-.1-.2-.2-.2-.1-.1-.1-.2-.2-.2-.1-.1-.1-.2-.2-.2l-.2-.2c-.1-.1-.2-.1-.2-.2-.1 0-.1-.1-.2-.1-.1-.1-.2-.1-.4-.2h-.1c-.1-.2-.4-.2-.5-.2-2.7-.5-12 1.4-13.8.1-1.7-1.2-14.8-1.1-16.7-1.1s-6.2 2.2-9.3 2.1c-3 0-7.8 5.6-12.3 5.6s-15.7-2.2-19.2-2.2-13.8 2.4-14.8 2.4-3 3.7-5 3.1c-2-.5-5.7-4.7-7.2-4.7s-7.9.7-10.8.1c-1.4-.2-6.3 1-11.2 2.2.7 2.9 1.7 6.4 1.7 8.1s.2 5.2 1 8.6c3.8-.1 7.4-.7 8.4-.7 1.7 0 32.6.5 35.3 1.7s4.7 2.1 7.9 2.6 5.2-1.5 8.1-1.5 14.8 5.7 18 6.9 8.9-.2 11.3.1c2.2.2.2 2 1.2 3.7s3.5.5 4.5 2.7.5 4.2.2 6.6c-.2 2.5.2 3 .5 5.5s-5.1 6.8-5.1 6.8-.2 4.5-.2 5.3 0 2.7.1 6.8c1.7-.6 3.3-1.1 4.7-1 4.3.2 7.9 2 13.4-.9 5.6-2.9 14-13.1 17.2-15.7 3.2-2.6 8.8-3.7 10.5-5.7s2.1-3.1 3.5-3.1 4.7 4.3 7.3 2.9c2.6-1.5 5.6-2.9 6.4-6.3s-1.7-3.7 1.5-5.5c3.2-1.7 6.9-4.3 10.2-5.2h.1c-.2-1-.5-1.9-.7-2.4-1.6-3.5.9-1.6-.1-3.2Z" class="JP02441"/><path fill="#fff" stroke="#000" stroke-miterlimit="10" d="M886.6 719.9c-2.1-.6-3.5-3.5-4.5-4.6-.9-1.1-3.2-2.2-4.3-4.1-.5-.7-1.5-2.1-2.7-3.5-3.6.1-6.4.2-7.4.4-2.7.2-5.7 4.1-7.8 5.6-2 1.5-6.4.2-8.9-.7s-1.7-4.5-2-5.7c-.2-1.2-5.2-2.2-8.7-2.2s-6 1.5-7.2 2.2-6.1 12.8-6.8 14.1c-.7 1.5-1.7-1-3.5-.7-1.7.2-2.2-3-4.2-3.5s-4-1.2-4.5 1.2c-.5 2.5-.6 24.5-1.1 28.4-.5 4 4.2 12.8 7.4 17 2 2.6 4.8 8.6 7.3 14.4 3.2-1.7 9.8-3.8 11.2-6.8 1.7-3.7 3.2-6.8 3.2-10s-2.1-6.3 0-9.2c2-2.9 13.1-10 16.6-11.4 3.5-1.5 18.7-4.8 22.2-8.6 3.5-3.7 5.5-10.5 9.4-10.4.2 0 .5 0 .7.1 1-1.1-2.5-1.4-4.5-2Z" class="JP02446"/><path fill="#fff" stroke="#000" stroke-miterlimit="10" d="M47.8 730.2c1.5-.5 8.6-3.2 9.8-3 4.6 1 4.8 4.8 7.9 4 3.1-1 5.8-3.8 8.7-3.7 2.7 0 12.1 8.8 12.3 6.8 0-2 2-8.1 2-10.3s-2.1-5.8-.9-7.4 5.6-6.1 8.1-6.3c2.5-.2 4.3-.2 5.8-2.2 1.6-1.9 5.6-2.2 7.1-1.9.4.1.7.2 1.2.4 1.2-3.3 2.4-7.2 2.4-9.5 0-5.7 5.8-25.5 8.2-27.5 2.2-2 1.5-8.3 3.1-10.3 1.5-2 3.5-3.2 3-5.8-.5-2.7-.6-24.3-.9-28.9-.2-4.7-2.4-18.3-1.4-21.8s5.1-16.6 5.1-19.6 8.3-9.3 9.8-13.1c1.5-4 .7-7.1 3.1-8.6 2.2-1.5 7.1-4.1 7.6-6.6s2.2-2.2 2.5-4.8c.2-2.7 6.8-4.6 6.1-6.3s-3.7-4.7-3.7-7.3 1-3.7 0-4.7c-.5-.5-3.3-1.9-6.6-3.6-2.5 2.1-4.6 3.8-5.2 4.1-1.7.7-3.6 2.7-7.6 3.2-4 .5-9.2-2.9-11.4-3.6-2.2-.7-2.6-4.6-2.7-5.3-.1-.7-3.7-2.1-6.2-2.6-2.5-.6-2.6-2.4-4-3.3-1.4-.9-7.1-3.6-7.8-2.9-.7.7-4.3 2.4-6.3 3.1-2.1.7-5.2 4-5.8 6.4-.6 2.4-1 2.6-3.2 2.6s-1.5.9-2.6 1.9c-1.1.9-2.6 1.2-4.8 2s-1.1-1-2.9-.6-1 .4-.6 3.3c.4 3-3.2 1.9-2.1 4.1s-1.9 5-1.9 5.8-2.5.9-3.3 2.2c-1 1.2 2.1 1.6 2 2.7 0 1.1-2.5 5.1-3.3 6.9-1 1.9-3.7 2-4.8 2.6-1.1.5-1.9.7-1.5 2.4s-.2 2.2-.6 4.1-2.9 6.6-3.5 8.1-3.2 1.5-3.3 3c-.2 1.5-3 2.4-4.3 2.7-1.4.4-1.5-1.5-3-1.6-1.5-.2-.2 1.1.5 2 .7.9-2.2 1.6-1.5 3.1s.5 4.6.5 5.3-1 1.2-3.2.9-.7 1.6-1.9 2.7c-1.1 1.1 1.6 2.6.1 3.8s0-1.1-2.2-1.2c-2.2-.2-3 .9-4.7 1.1-1.7.1-3.3-1.4-4.3-2.1s-2.5 1.1-2.5 2.4-3.7 3.5-3.2 5-6.6 4.7-8.4 6.7c-1.9 2-5.7 4.6-6.9 5.3-1.4.7.4 3 0 4.2s2 7.3 2 10.2 2.2 6 3.5 6.7c1.4.7 2.5-.9 3.6-1.1 1.1-.1 6.3 1.5 8.1.7 1.7-.7 7.3-3.2 10.2-2.9s6.8 10.5 7.4 12.9c.5 2.4-.4 2.7-1 3.8-.6 1.1-.7 1.6.4 2.4 1.1.7 1.5-.5 2.5-.4 1 .2 6.1 20.2 5.1 23.8-1 3.5 1.1 10.9 1 13 0 2.2-1.5 5-1.9 7.7s-.2 10.7-.2 13.3-2.4 9.9-3.1 11 .2 10.4.6 11.2c0-.4.1-.5.5-.6Z" class="JP02323"/><path fill="#fff" stroke="#000" stroke-miterlimit="10" d="M632 800.1s5.2-4.3 5.1-6.8c-.2-2.5-.7-3-.5-5.5.2-2.5.7-4.5-.2-6.6-1-2.2-3.5-1-4.5-2.7s1-3.5-1.2-3.7-8.1 1.2-11.3-.1c-3.2-1.2-15.2-6.9-18-6.9s-4.7 2-8.1 1.5c-3.2-.5-5.2-1.4-7.9-2.6-2.7-1.2-33.6-1.7-35.3-1.7s-4.6.6-8.4.7c.4 1.7.9 3.3 1.6 4.6 2.1 3.6.5 8.1.5 9.7s.2 6.1-4.3 7.7-5.8.9-7.3-.7-2.5-1.6-2.1 1.6c.2 3.2 1.7 6.8.9 8.4-1 1.6-4.7 5.7-4.7 8.3s2 11.9-1.6 13.1c-3.7 1.2-2.2 6.4-1 8.1s2.1 1.4 2.1 3.8-2.9 13.5-3.8 14.4c-.9 1 4.8 5.8 3 6.8h.1c.1.1.1.2.2.2.2 1.1 3.2 3.5 4.3 4.3s2.6 8.9 4.7 9.4c2 .6 4.3 4.6 6.4 3.7s17.5-.2 19.2-2.2 6.1-7.7 9.3-9.2 6.4 2.2 9.7-2.4c3.2-4.6 5.6-8.1 8.8-8.1s14-1.5 14.6-4.3-5.6-11.2-3.2-12.9 19.8-13.1 22.8-13.8c2-.4 6.3-3 10.2-4.5-.1-4.1-.1-6.6-.1-6.8-.1-.6.1-5 .1-5Z" class="JP02443"/><path fill="#fff" stroke="#000" stroke-miterlimit="10" d="M673.3 741.7c-3 .9-6.7 2-10.3 3.1.7 1 1.5 2.2 2.2 3.2 0 .1.1.1.1.2.1.1.2.4.4.5.1.1.1.2.2.4.1.1.2.2.2.4.1.1.2.2.2.4.1.1.1.2.2.2l.4.4.2.2.5.5c2.5 2 5.8 1.5 9.1 1.7s5.7 4.2 6.9 6c1.2 1.7 6.2-.7 8.9 0s2.7 2 5 5 4.2-1.2 5.7-1.2 1.7 1.5 2.7 3.2c1 1.7-1.5-.2-.2 3.2.2.6.5 1.4.7 2.4 3.1-.7 4 3.2 6 5.2s4.3 6.1 4.3 7.2-.6 4 0 5.5 4.7 2.9 4.7 4.3.6 4 2.6 2.9 9.3-5.7 11-6.6 1.5 2.9 2.6 1.7 4.7-8.1 5-10.3c.2-2.4 1.5-2 3.8-4.6 0-.1.1-.1.1-.1-.1-.5-.1-.7-.1-.7-.7-.2-2.6.9-4.6.4-2-.5 1.2-2.2 2.5-2.2s.5-3.2.5-4.7-5.7-2-8.2-2.7c-2.5-.7 1.5-1.5 3.7-1.5s4.7 1.5 6 1.5 1.2-8.6.9-11c-.5-2.5.2-1.7 1.5-2.7s-1.7-2.7-1-3.5c.7-.7 4.2-3.2 6.1-4.1 1.7-1-2.5-4.5-1-5s16.7-5.3 19-5.8 3.5-2.2 3.5-3.2 3.8-6.6 4.6-7.6c.7-1-10.4-7.9-12.4-9.2s-2.5-7.1-4-8.3-2.7 2.5-4 3-.7-1-1.2-2.7-1.5 0-2.7 1-3.5-4.5-4.2-6c-.7-1.5-3-3.7-4.5-5.2s-1.5-7.6-1.7-8.3h-.1c-.1 0-.2.1-.4.1h-.1c-.1.1-.4.1-.5.2 0 0-.1 0-.1.1-.1.1-.4.2-.6.4-.1 0-.1.1-.2.1-.2.1-.4.2-.6.4-.1.1-.2.1-.4.2-.1.1-.4.2-.5.4-.2.1-.4.2-.6.4-.1.1-.4.2-.5.4-.2.1-.5.2-.7.5-.1.1-.4.2-.5.4-.2.1-.5.4-.7.5-3.1 2.1-6.4 4.5-7.8 5.3-2.7 2-11.5 6.3-13.3 7.3-1.7 1 .2 5-.2 5.8-.5 1-17.9 14.6-17.9 14.6s3.5 6.4 3.7 8.6c.2 2.2-1.2 2.2-3.2 2.5s-6.2-5.7-7.7-4.7-4.7 4.3-6.8 4.8c-2 .5-6 2.5-6.6 3.1-.1.2-2.5 1-5.7 2 .2.2.1.2.1.2Z" class="JP02445"/><path fill="#fff" stroke="#000" stroke-miterlimit="10" d="M740.1 691.5c.2-.1.5-.4.7-.5.1-.1.4-.2.5-.4.2-.1.4-.2.6-.4s.4-.2.5-.4c.1-.1.2-.1.4-.2s.5-.2.6-.4c.1 0 .1-.1.2-.1.2-.1.4-.2.6-.4h.1c.1-.2.4-.2.5-.4h.1c.1 0 .2-.1.4-.1h.1c.2.7.2 6.8 1.7 8.3s3.7 3.7 4.5 5.2 3 6.8 4.2 6c1.2-1 2.2-2.7 2.7-1s0 3.2 1.2 2.7 2.5-4.2 4-3 2 7.1 4 8.3c2 1.2 13.1 8.2 12.4 9.2-.7 1-4.6 6.6-4.6 7.6s-1.2 2.7-3.5 3.2c-2.2.5-17.5 5.3-19 5.8s2.7 4 1 5-5.2 3.3-6.1 4.1c-.7.7 2.2 2.5 1 3.5s-2 .2-1.5 2.7.5 11-.9 11-3.7-1.5-6-1.5-6.2.7-3.7 1.5c2.5.7 8.2 1.2 8.2 2.7s.7 4.7-.5 4.7-4.5 1.7-2.5 2.2c2 .5 3.8-.6 4.6-.4 0 0 .1.2.1.7 2.1-2.4 1.4-2.1 2.5.1s1.5 4.6 3.5 3.5c2.1-1.1 3.8-2 5.8-2.6 2-.6 5.2-4.8 6.4-6.6 1.1-1.7 9.3.2 11.9-1.5s8.4 0 13.4 1.7 7.3 8.1 9.9 6.6 3.5 3.5 5.6 4.8c2 1.5 7.6 2.9 10.8 3.5 3.2.6 7.9-4.8 9.1-6.8.2-.4.9-.9 1.6-1.2-2.5-5.8-5.3-11.8-7.3-14.4-3.2-4.2-7.9-13-7.4-17s.6-26 1.1-28.4c.5-2.5 2.5-1.7 4.5-1.2s2.5 3.7 4.2 3.5 2.7 2.2 3.5.7 5.6-13.5 6.8-14.1c1.2-.7 3.7-2.2 7.2-2.2s8.4 1 8.7 2.2-.5 4.7 2 5.7 6.9 2.2 8.9.7c2-1.5 5.1-5.3 7.8-5.6.9-.1 3.8-.2 7.4-.4-1.7-1.9-3.7-3.8-5.1-4.5-2.5-1.1-3.1-5.3-3-6.9.2-1.6-1.5-1.6-3.7-3.5s-1.1-2.4-1.5-3.1-2.1-1.1-3.3-1c-1.4.1-.7-2.4-1.1-3.8-.4-1.5-5.8-4.6-6-5.2-.1-.5-1.9.5-4.7-.4-2.9-1-4.5-9.8-4.2-11.3.2-1.5.6-1.6-.7-1.9s-.4-1.2-1.5-2.4-1.5.7-2.1.7-2.9-1.5-3.3.4c-.6 1.9-3.2 1.6-3.3 2.7-.2 1.1-1.5 3.3-2.6 4.7-1.1 1.5-.1-3.3-1.5-2.7-1.4.5-2.6 3.5-3.7 3.8s-1-.4-2.5-1.6-1 .5-2.1 1.6-2.9-1.1-5.1-2.4-5.8-6.3-5.8-6.3l-2.9.5-.4-1.9 2.5-.7-1.1-2.7-2.5.9-1.6-3.1 1-1.2-.7-1.2-5.8.5-.7-3.1 3.2-2.7-.9-3-3.2.9s-4.8-8.4-4.1-9.5c.7-1-2.9-6-5.3-12.1-5.1 2.4-9.8 4.3-11.8 5-5.2 1.6-6.9 4.5-10.2 6.9-3.2 2.5-5.5 3.6-4.1 6.2 1.2 2.6 3.2-1 4.7 1.5 1.5 2.6 2.4 13.9 1.6 15.5-.6 1.7-2-1.2-3.5-2-1.5-.6-.9.6-1.4 1.9-.5 1.2.2 1.2 2.4 4.1 2.1 2.7-8.3 4-11 5.1-2.9 1-4.8 5.1-8.1 5.5-3.2.4-8.4 3.3-10.7 4.5-2.1 1-1.4 3.3-1.4 4.7s1.4 3 5.8 7.8c.1-.1.4-.2.5-.4.2-.1.5-.4.7-.5.6-.5.7-.6 1-.6Z" class="JP02203"/><path fill="#fff" stroke="#000" stroke-miterlimit="10" d="M361.6 722.8c0-1.7 5.5-17.6 3.7-20.1s-6.7-3.7-5-5.7 3.5-4.3 5.5-4.1 4.2 1.7 4.2 3.2.5 5.5 1.5 5.2c1-.2 6.1-8.6 6.3-10.5s.5.7 3.2.7 10.5.7 11.5-.2 12.3-8.6 12.3-9.8-3.7-10-6-11c-2.2-1-6-2.2-8.2-3.2-2.2-1 0-4.7-2.5-3.7s-3.5 3-4.7 2.7-1-2.2-3.5-2-8.2 1.6-10.5.4c-.1-.1-.4-.2-.5-.4h-.1c-.1-.2-.2-.4-.4-.5h-.1c-.4-.5-.6-1.1-1-1.6-4.5 1.1-8.7 2.2-9.2 2.9-1.1 1.2-4.3-2.2-5.6-3.5s-6.3-3.8-7.1-3.7-.6 3.8-1.9 6.4c-1.4 2.6-2-6.4-3.3-5.3s-5.1 10.4-6.2 11.2-4.3 2-6.9 3.5-12.9 2.1-15 3.1c-2.1.9-1 3.5-1 6.8s-8.1 1.7-9.9 3.1c-1.9 1.2-2.5 4.6-1.9 6.2.5 1.6 1.9 4.5 1.9 5.3s-3.7 3.5-7.6 3.6c-1.5.1-7.6-.9-10.8-.9 0 .1.1.2.1.4 0 1.6-1.4 7.4-.7 10.3s1.5 9.1 3 7.8 5.8-3.8 7.1-3.8 11 2 11.9 4c.9 2 1.5 4.8 4.2 7.1 2.7 2.2 9.4 5.8 11 6 1.5 0 4.6-1.2 5.8-.6s1.5 7.4-.4 7.4-2.2 7.1.9 7.1 4.8 4.2 6.7 4 1.2-2.6 4-.6 5.2 5.2 6.7 3.6c1.6-1.6-5.1-13.3-4.7-14.9.4-1.6 1.6-3.2 4-3.2s11.7-1.5 12-2.5c.2-.9-.5-2.6.4-2.9 0-.4-.1-.6-.1-.6.5-1.2 6.7-4.7 6.8-6.4Z" class="JP02362"/><path fill="#fff" stroke="#000" stroke-miterlimit="10" d="m236.6 526.3-.5.5h-.1c-.2.4-.5.5-.7.7-2.2 1.7-3.5 4.3-4.5 6.1s-5 .5-6 3.1c-1 2.7-7.1 8.6-7.3 10.5s1.1 14.8 1.9 17.2 7.6-4.8 8.6-4.8 11.5 2 12.3 3.2c.7 1.2-8.1 6.8-10 8.8s-13.3 8.3-12 9.9c1.2 1.7-2 5.1-4.1 7.1-2 2-11 4.6-15.7 5.3-4.7.7-15.5 7.1-15.7 8.3s.2 3.7.2 6.1-3.5 4-5.6 7.3c-2 3.5-6 3.1-7.1 4.6-1 1.5-.2 5.8-1.5 7.6-1.2 1.7-2.2 0-4.5.2s-9.3 3.6-10.5 4.8-1.2 7.1-1.2 8.3 1.7 5 2.7 7.3c.1.1.1.4.1.5 0 .2.1.5.1.6v1.6c3.6-2.6 6.7-5.5 7.6-5.5 1.5 0 1.7 3 3.5 4.7 1.7 1.7 5 1 6.4-.7 1.5-1.7 3.7-5.6 4.5-5.6s1.5-7.6 2.4-8.6c.7-1 7.3-5.1 8.8-5.1s2.2-6.6 2.5-7.8 3-.5 4.2-.2 6.3-10.3 7.1-10.3 12.9 6.2 13.1 7.4c.2 1.2 4 1.2 4.7 2s-.7 1.5 0 4 5.7 3.5 6.9 4.5-.7 1.7-1.5 3.2c-.7 1.5-2-.2-3.2.7s2.2 3 2.7 4.2-1.2 2.5-1.5 3.2 2 .7 2.2 3c.2 2.2.5 9.5.4 11.3 0 1.7-2.5 1.5-3.5 4.3-1 3 1.2 10.5 1.2 12.5s6.7 5.5 8.2 7.2c1.5 1.7-.2 3.2-1.2 5.8-1 2.7 5 6 5.7 7.7s-1.5 3.2-1.5 5.3 2.7.5 3.5 2.2c.2.5 1.6 2.6 3.7 5.3 0-.1.1-.1.1-.1 1.6-1.9 5-5.7 6.8-5.7s6.1 1.6 7.3.1c1.2-1.6 2.9-4.2 4.3-4.1 1.5 0 5.7 7.8 8.6 6.8 2.7-1 3.7-4.5 6.8-4.5s6.1.9 6.7 2.2c3.2 0 9.4 1 10.8.9 3.7-.1 7.6-2.7 7.6-3.6s-1.2-3.7-1.9-5.3c-.5-1.6 0-5 1.9-6.2s9.9.2 9.9-3.1-1.1-6 1-6.8c2.1-.9 12.4-1.6 15-3.1s5.8-2.7 6.9-3.5 5-10 6.2-11.2c1.4-1.1 2 7.9 3.3 5.3 1.4-2.6 1.1-6.2 1.9-6.4.7-.1 5.8 2.5 7.1 3.7 1.4 1.2 4.5 4.8 5.6 3.5.5-.6 4.8-1.7 9.2-2.9-.9-1.6-1.6-3.7-2.1-5q0-.1-.1-.2t-.1-.2c0-.1-.1-.2-.1-.4s-.1-.4-.1-.4c-.5-.7-8.2-8.2-11.7-8.2s-3.5 2.7-5.5 2.6c-2 0-2.2-1.5-3.2-.2-1 1.2-1.5 3.7-3.5 2.7s-4.2-5.5-4.7-7.8c-.5-2.5.5-5.2-.7-4.7s-2.7 3.5-2.7 1.5-.6-19.3-1.1-20.6.7-3.5-1.2-3.7-6.4 1-6.9-.2v-.2c0-.2 0-.4.1-.4 0-.1.1-.1.2-.2h.1c.1-.2.2-.2.2-.4h.1c.1-.1.2-.1.2-.2.2-.2.6-.5 1-.7.1-.1.4-.2.5-.4-.6-.4-1.1-1-1.7-1.6-1.6-1.9-2.6-4.1-2.7-5.7-.1-1.6-3.2-2-3.2-4.2s-1.9-8.3-2.6-9.1c-.7-.7-4.1-1.1-5.2 0-1.1 1.1-2.1 3-2.9 1.6-.7-1.2-.9-2.6-2.2-3.1-1.4-.5-2.4-5.3-3.7-6.7-1.4-1.2 1.5-5.3 1.4-7.6-.1-2.2 2.1-3.3.4-5-1.7-1.6-2.9-1.4-4.3-3.8-1.5-2.6-14.8-16.6-15.6-20.5-.1-.5-.2-1.1-.4-1.9-.9-.1-1.6-.4-2.2-.7-1.2-.7-.5-5.2-1-6.6-.5-1.5-4.5-.7-6-.7s-1.7-5.7-3-6c-1.2-.2-4 1.7-5.5 2s-1.7-1.2-2.7-2.2-2.5 1.5-4.2 0-6.7-3.2-8.4-3.2-1.5-1.7-1.5-3-6.2-2-8.4-2.2c-1.4-.1-2 .4-2.7 1.1-.5 0-.7.2-1 .5Z" class="JP02202"/></svg>