<svg xmlns="http://www.w3.org/2000/svg" style="transition:transform .15s ease-out;transform-origin:center center;transform:translate(0,0) scale(1)" viewBox="0 0 900 900"><path fill="#fff" stroke="#000" stroke-miterlimit="10" d="M597.3 396.6c5.9.8 21.7 4.7 23.8 3 2.2-1.7 7.3-9.3 11-11.5 1.3-.7 4.6-1.7 8.5-2.7-2.4-.4-3-1.5-4.7-4.1-2.2-3.4-2.2-9.3.5-10.7 2.5-1.2 5.6-8.5 7.3-11s-1.3-10.2.8-13.6c1.5-2.3.7-3.8-2.2-4.7-4.2-1.3-1.2-5.9-9.3-4.7-8.1 1.3-11 10.2-11.5 12.4-.5 2.2-11-2.1-13.2-2.1s-6.4 2.5-8.1 3.4c-1.7.8 0 6.8-1.7 9.3s-6.8 0-8.5.8-10.2 10.7-10.7 14.9-1.3 5.6-4.2 11c-2.2 4.1-3.5 11.5-4.6 15.9 10.3-2.8 23.4-6.2 26.9-5.7Z" class="JP36321"/><path fill="#fff" stroke="#000" stroke-miterlimit="10" d="M665.4 532.8c-4.7 0-7.3 3.4-9.3.5-2.2-3-2.9-8.1-.4-11.9 2.5-3.9 11-11 11.9-16.1.8-5.1 10.7-11.9 16.1-13.6 5.6-1.7 7.6-2.5 7.6-5.9s-1.2-7.6-2.9-8.1-15.3-5.1-21.7-4.7c-6.4.5-17 10.2-19.2 8.1s0-6.4-4.2-5.9c-4.2.4-16.1 2.5-17.8 2.5s-9.3 2.9-11.5 2.9-13.2 7.6-16.6 7.6-5.6-2.2-9-1.3c-3.4.8-22.9 7.6-27.7 6.4-4.7-1.3-3.4-5.1-7.6-3.4-4.2 1.7-10.7 5.6-15.3 5.1-4.7-.4-1.3-4.2-3.4-5.9-2.2-1.7-16.6-5.6-18.7-9.3-2.2-3.9-.5-8.5-1.7-14.9-1-4.9-10.7-18.4-19.9-27.1-.8 2.5-2.8 3-3.9 4.1-1.2 1.3-4.2-5.1-6.8-5.9-2.5-.8-19.2-1.7-22.9-.8-3.9.8-14.4 3.4-17.5 5.6-2.9 2.2 4.7 12.7 4.7 15.3s-22.6 9-25.1 10.2-8.1-5.9-11.5-4.7-14.1 14.1-18.3 17.8c-4.2 3.9-13.2-2.2-18.3-1.3-5.1.8-16.6 11-22.6 12.7s-8.1-.5-11.9-.5-5.1 6.4-8.5 9.3-2.5-1.3-8.5 0c-5.9 1.2-16.6 7.3-22.6 9.3-5.9 2.2-1.7-2.2-6.8 0-2.8 1.1-3.6 3.2-4.5 5.8 1.3 1.5 3.2 8.7 4.4 9.6 1.2 1-3.2 5.1-2.5 7.9.6 2.9 8.9 10.2 10.4 16.5s4.5 4.1 7.3 7.6c2.9 3.5-1.2 12.7-1.2 21.2s6.3 21.6 7.3 27.3 0 5.3-.4 7.6c-.4 2.2-1 2.9 2.5 7.3 3.5 4.5 1 2.2-1 3.8-1.9 1.6-4.7 14.3-6.1 15.5-1.2 1.2 4.5 2.8 9.5 3.5 5.1.6 31.7-4.7 36.2-5.7s22.6 7.9 26.3 7.6c1.8 0 4.9 0 7.8.8 1.2-4.4 2.5-8.4 3.4-9.7 2.2-3.4 28.5-22.1 30.6-22.1s16.1 1.3 17.5 1.3 9-2.5 11.9-3c3-.5 3.4 2.5 5.1 2.5s17.5-9.3 20.4-9.8c3-.5 3.9 2.5 7.3 2.5s9-3.4 15.3-4.2c6.4-.8 14.4 3.9 18.7 3.9s16.6-1.7 20-1.7 17.5 3.8 27.4 6.3c2.1-4.9 4.4-10.4 5.3-13.5 1.7-5.6 6.8-3 10.7-7.3 3.9-4.2 4.2-12.4 8.1-14.1s6.8.5 10.2-1.7 6.4-2.5 6.4-6.4 3.4-4.7 7.3-5.6 14.4-1.7 17-5.9 3.4-6.8 9-9 3.4.8 10.7-2.5c5.2-2.4 12.5-5.8 18.2-7.5-1.1-2.8-2.3-5-4.6-5Z" class="JP36368"/><path fill="#fff" stroke="#000" stroke-miterlimit="10" d="M519.8 606.8c-4.2 0-12.4-4.7-18.7-3.9-6.4.8-11.9 4.2-15.3 4.2s-4.2-3-7.3-2.5c-3 .4-18.7 9.8-20.4 9.8s-2.2-3-5.1-2.5c-3 .4-10.7 3-11.9 3s-15.3-1.3-17.5-1.3-28.5 18.7-30.6 22.1c-.8 1.3-2.1 5.3-3.4 9.7 3 .7 6.1 1.8 8 3.3 3.8 2.9.6 6.7-2.9 9.2s3.5 8.6 2.5 12.4c-1 3.8 5.7 8.3 6.7 10.4s-22.8 16.9-25 18.1c-2.2 1.3.4 1.9 3.2 5.1 2.9 3.2.4 1.9.6 6.3.4 4.5 14.3 7.9 15.5 9.2 1.2 1.2-1.6 4.5-1.2 6.9.4 2.5 6.1 6.7 8.3 8.9s8.9 20.3 8.9 23.8 15.5-5.3 17.7-4.5c2.2 1 12 9.8 14 11.8 1.9 1.9 3.2-.6 6.1-1.2s2.9 2.2 4.1 2.2 9.8-1.9 14.3-1.9 4.5-3.5 6.7-3.8c2.2-.4 15.9 4.5 19.7 7 1.2.7 2.1 2.1 2.5 3.5.8-.5 1.7-.5 1.6.4-.2 2.1 1.8 1.6 3 1.8s5.6 1 4-1.6c-1.6-2.5-3.8-3.5-1.2-5.3s3.8-4.4 1.6-4.4-2.5-2.5-5.8-3.3c-3.3-.7-.2-2.3-.5-5.8-.2-3.5-.2-5.6 4.4-6.8s.2-3.5 2.5-5.1 3-2.3 3.8-.7c.7 1.6 3.8.2 5.8 1.6 2.1 1.2 5.3 3 9.1 2.5s14.7-1 14.4-3.3-8.4-1.8-11.7-1.8-10.4-1-8.1-2.5 11.9 0 16.5-1.2c4.6-1.3 9.1 0 6.8-2.3s-4.6-6.8-3-10.2c1.5-3.3 8.6-10.4 10.9-11.4 2.3-1 5.8-.7 5.8-3.8s4.4-2.1 3.3-3.8c-1-1.8-6.1-3-9.6-3s-11.4-.2-10.4-2.1 5.3-2.8 5.3-4 1.2-3 2.5-2.3c1.2.7 3.5 1.8 3.5.2s-.7-4 1.2-5.6c2.1-1.6 6.1-3.5 6.8-6.1.6-2.1 1.1-2.4 2.2-2.9-7.2-7-15.4-15.5-16.7-17.1-2.2-2.5 4.2-4.2 1.7-5.9s-6.8-1.7-6.8-3 2.5-10.2 0-17 5.9-11.9 11-12.4 9.3-1.3 10.2-3.9c.4-1.1 1.9-4.6 3.6-8.6-10-2.5-25.1-6.3-27.4-6.3-3.3 0-15.7 1.7-19.9 1.7Z" class="JP36388"/><path fill="#fff" stroke="#000" stroke-miterlimit="10" d="M593.9 239.6c3.9 2.5 7.3 5.1 7.3 6.4s-1.2 4.2 4.2 3.9c5.6-.4 14.9-1.2 17.8-4.2 3-3 3-7.3 5.1-10.2 2.1-3 10.2-16.1 9.8-20-.5-3.9-6.8-7.3-6.8-14.1s2.2-10.7-2.2-10.2c-4.2.5-2.9 3.9-9 .8-5.9-3-5.1-10.7-7.6-10.7s-7.3-.4-13-.8c-1.5 4.2-3.4 6.3-4.6 7.6-1.6 1.9 3.5 10.4.4 13.4-3.2 2.8-8.6 8.6-13.4 9.2h-.2c1.5 2.3 5.2 8.4 6.2 13.1 1.3 5.9 2.2 13.2 5.9 15.8Z" class="JP36404"/><path fill="#fff" stroke="#000" stroke-miterlimit="10" d="M606.6 464.7c0-3-2.2-3.4.5-7.6 2.5-4.2 2.5-5.1 3-11.9.4-6.8-.8-14.9 2.2-17.5 3-2.5-10.2-3.9-13.2-5.6-2.1-1.2-2.4-15.9-2.5-25.6-4.5 0-16.4 3.2-25.9 5.7-.4 1.5-.6 2.5-1 3.3-1.2 2.5-10.7 3.4-18.3 6.8s-19.5 10.2-25.5 11.5c-5.9 1.2-5.6-5.9-7.3-5.9s-6.4 1.7-9.3 4.2c-3 2.5-5.6.8-9.8 1.7-4.2.8-4.7 7.6-5.1 11.9-.1.7-.2 1.3-.4 1.8 9.2 8.6 18.9 22.2 19.9 27.1 1.3 6.4-.4 11 1.7 14.9 2.2 3.9 16.6 7.6 18.7 9.3 2.2 1.7-1.2 5.6 3.4 5.9 4.7.5 11-3.4 15.3-5.1 4.2-1.7 2.9 2.2 7.6 3.4 4.7 1.3 24.3-5.6 27.7-6.4 1.6-.4 2.9-.1 4.1.2 3-7 6.7-13.2 8.6-15.2 3-2.8 5.6-4 5.6-7Z" class="JP36302"/><path fill="#fff" stroke="#000" stroke-miterlimit="10" d="M699.5 392c-3.4 1-7.6 1.2-10.3 1.2-4.7 0-3.9.8-8.5 3-4.7 2.1-9 1.3-17.8-2.5-9-3.9-15.8-8.1-20-8.1s-1.6 0-2.1-.1c-4 1-7.3 1.9-8.5 2.7-3.9 2.1-9 9.8-11 11.5-2.2 1.7-17.8-2.2-23.8-3h-.8c0 9.7.5 24.4 2.5 25.6 3 1.7 16.1 2.9 13.2 5.6-3 2.5-1.7 10.7-2.2 17.5s-.5 7.6-3 11.9-.5 4.7-.5 7.6-2.5 4.2-5.6 7.3-5.5 8-8.6 15.2c1.5.5 2.9 1.1 4.7 1.1 3.4 0 14.4-7.6 16.6-7.6s6.4-1.7 9.3-2.5c1.5-4.9 2.9-9.3 2.9-11.5 0-4.2-3.4-7.3-3.4-9s6.4-9.3 10.7-12.4c4.2-2.9 4.7-4.2 8.5-6.4 3.9-2.2 5.6 2.5 9.3.8 3.9-1.7 6.8-6.8 11.5-7.6 4.7-.8 3.9 1.7 7.3-.8s5.6-7.3 9.8-9.3c4.2-2.2 9.8-3.9 11.9-6.4 2.1-2.4 3.6-3.3 7-3.8.4-5.7.8-13.4.7-19.7l.2-.3Z" class="JP36301"/><path fill="#fff" stroke="#000" stroke-miterlimit="10" d="M756 350.6c-5.2-6.4-10.9-4.1-11.4-2.7-.6 1.5 5.2 8.1 5.1 11.9-.2 3.8-2.7 6.1-5.1 4.9-2.4-1.1-3.4-.7-5.5-.4-2.1.4-5.6.7-7.8-.6-2.1-1.3-5.8-8.5-8.6-11-2.8-2.7-6.1-4.1-5.6-7.3.4-3.2 1.5-3.4 4.7-3.8 2.2-.2 2.7-1.7 2.1-3.5-9.6-1.1-21.7-.1-23.2-.1-2.2 0-3.9-5.9-5.9-2.5-2.2 3.4.8 4.7-3.4 9s-6.4 19.2-6.4 22.9 6.4-3 9.3-3 8.1 11.5 7.3 13.2 2.2 6.4 2.5 10.7c.2 1.9-1.9 3.2-4.6 3.9 0 6.2-.4 13.8-.7 19.5.2 0 .4 0 .6-.1 3.9-.5 2.2-2.5 10.2-5.6 8.1-3 22.6-4.2 22.9-6.8.4-2.5 7.3-12.7 9.8-14.1s7.6 5.9 9.3 3.9c1.3-1.7 2.7-12 14.3-18.4-3.5-8.3-7.4-16.7-10.1-19.9h.2Z" class="JP36203"/><path fill="#fff" stroke="#000" stroke-miterlimit="10" d="M459.9 380.4c-.8-2.5-3.4-6.8-9-6.4-5.6.5-15.8 3-20.4 0-4.7-2.9-15.3-5.6-15.3-9.3s3.9-5.6-.8-9.3c-4.7-3.9-11-10.7-8.5-14.4 2.5-3.9 13.2-17 10.2-21.7-2.9-4.7-4.6-5.6-5.9-11-1.3-5.6-9.3-26.8-7.6-30.6 1.7-3.9 9.3-8.1 14.4-15.8 5.1-7.6 13.6-28.5 13.6-33.6s-.8-10.7.8-12.7c1.7-2.1 3.4-5.5 2.2-8.1-1.2-2.5-7.2-10.2-8.5-12.3-4.7 1.1-7.6.4-10.1 1.8-2.9 1.6-9.2-1.9-14.6-2.5s-4.5 1.9-8.6 4.7c-4.1 2.9-11.4 4.7-14.6 6.3s-3.8 5.1-6.9 8.9-1 14.3-1 18.7-7.9 11.8-12 13.4-15.5 3.5-19.3 3.5-10.4-3.8-11.8-3.8-11.8 6.3-14.9 6.7c-3.2.4-6.1-4.7-8.6-3.8-2.5 1-8.6 15.2-13.6 18.4-5.1 3.2-2.9 7.3-4.5 11s-5.3-1.2-9.5-1.2-8.9 6.7-11.2 9.5c.8 10.2 1.6 23.4 1.9 34.8.5-.2 1.1-.4 1.8-.4 4.2-.4 13.2-4.2 15.3-5.1 2.2-.8 19.5-.8 31.4-3s13.2-7.6 16.1-10.2c3-2.5 0 3.4 3.4 3.4s7.3 19.5 11.5 20.4 5.6 8.1 6.8 10.2c1.3 2.2 2.2 14.1.8 17.5-1.3 3.4-3.9 15.8-3.9 26.3s-5.6 9-8.1 12.4.5 7.3 1.3 11.5-1.7 17-1.7 20.4 16.1 5.1 17.8 5.1.5 21.2-.4 25.5c-.8 4.2-2.5 4.2-6.4 4.7-3.9.4-3.9 3.9-6.4 5.9-2.5 2.2-7.6.4-9.3 1.7-.7.5-2.7 2.5-4.7 5.1h.1c1.3 1.1 3.4 9.7 5.7 18.8.8-.8 1.7-1.5 2.8-1.5 3.9 0 5.9 2.2 11.9.5 5.9-1.7 17.5-11.9 22.6-12.7 5.1-.8 14.1 5.1 18.3 1.3 4.2-3.9 14.9-16.6 18.3-17.8 3.4-1.2 9 5.9 11.5 4.7 2.5-1.3 25.1-7.6 25.1-10.2s-6.6-11.7-5.1-14.7c-4-.5-7.6-1.3-8-3.5-.8-4.7 5.6-12.7 5.6-19.5s-3.4-13.6.4-16.1c3.9-2.5 7.3-3 9.8-8.1s2.2-9 5.1-9.8c2.7-1.2 5.2-1.2 4.4-3.8l.3-.2Z" class="JP36207"/><g fill="#fff" stroke="#000" stroke-miterlimit="10" class="JP36208"><path d="M302.8 473.2c-3-4.2-4.7-8.1-3.9-11 .8-3 2.5-9.3 0-11s-8.1-3.9-10.7-3.4c-2.5.5-22.6-4.2-22.6-6.4s.5-10.2-.8-11.5-14.9-1.3-17.8-5.6c-3-4.2-9.8-9.3-6.8-12.4s6.4-3 5.9-6.4-4.7-13.2-6.8-14.1c-2.2-.8-6.8.4-8.5-3s-4.7-9.3-8.5-9c-3.8.5-20.4 2.2-20.9-5.1-.4-7.3-2.2-11.5-5.6-18.3s-13.2-22.1-13.2-25.5 2.2-6.8-3-5.1c-5.1 1.7-23.8.8-27.2-2.2s1.3-6.8-.4-8.5c-1.1-1.1-15.2-16.7-25.1-27.9-3 3.2-13.8 2.7-16.4 2.9-2.9.4-4.5-1-5.7-3.8-1.2-2.9-7.6-3.8-9.8-2.9-2.2 1-1.6 4.5-6.7 6.1s-8.3 6.7-11 11.8c-2.9 5.1-17.1 12-19.3 13.6s-8.3 19.7-9.5 21.8c-1.2 2.2-9.8 4.5-13 4.5s-5.3 2.5-9.5 2.9c-1.5.1-4.4.1-7.6 0 1.9 3.5 3.9 7 4.9 9.2 1.9 4.7-6.1 11.8-6.1 15.2s3.5 1.9 4.7 4.5-1.6 7.3-1.9 12.4c-.4 5.1 6.1 4.7 7.6 7 1.6 2.2-.4 2.8-.6 6.1-.4 3.2 0 0 1.2 6.7s-1.9 4.7-3.2 7.3-8.3 6.7-8.3 9.2 7.9 5.7 7.9 7.9-5.7 9.5-7.6 13c-1.9 3.5.6 7.3.4 10.2-.4 2.8-9 8.9-12.1 12.4 1.5 6.4 3.3 13.5 4.1 14.3 1.6 1.6 6.1 6.1 11.4 7.6s10.4 4.7 12.7 6.1c2.2 1.2 25 1.9 28.9 2.9 3.8 1 5.1 8.9 8.6 10.8s21.8-4.5 26.6-4.5 3.5 2.2 5.3 3.8c1.9 1.6 7.3 1.6 15.2 1.6s14.6-8.6 22.6-6.7c7.9 1.9 1.9 5.3 9.5 8.6 7.6 3.2 15.9 21.8 15.9 24.4s13.6 3.8 16.5 3.2 4.5 2.5 6.3 5.3c1.9 2.9 4.5 4.1 7.9 4.7 3.5.6 7.9-4.1 11.8-6.3 3.8-2.2 3.8 0 10.8-.4s9.2-25.7 10.8-27.9 21.6-8.6 22.8-8.9c1.2-.4 7 15.2 9.2 16.9 2.2 1.6 25-5.7 26.3-5.7s.2 0 .4.2c.7-2.7 1.7-4.7 4.5-5.8 5.1-2.2.8 2.2 6.8 0 5.9-2.2 16.6-8.1 22.6-9.3 5.9-1.3 5.1 2.9 8.5 0 2.4-2.1 3.8-5.9 5.7-8-2.3-9.1-4.4-17.7-5.7-18.8-2.1-1.6-25.5 4.7-28.5.5v-.2ZM190.9 278.7c3.4 5.9 9.3 3.9 12.7 9.8s-.5 18.3 1.7 21.2c2.1 3 31.4 12.4 35.3 12.7 3.9.4 7.3-2.5 10.7-4.2s3.9 2.5 8.5 4.2c3.9 1.5 3.6-.4 5.8-1.3-.4-11.4-1.1-24.6-1.9-34.8-.4.5-.6.7-.8 1-1.6 1.6-7.9-.6-10.4-1.2s-7.6 1.2-11.4-.6c-3.8-1.9-6.3-5.7-7.6-7.3-1.2-1.6-5.1-6.1-10.2-7.3s-4.7-14.3-6.3-17.5c-1.6-3.2-7.3-4.1-12-2.5s-7.6 6.9-12 10.8c-1.1 1-1.9 1.3-2.7 1.3-1 2.2-2.1 4-3.2 5-2.4 2.5.5 4.7 3.9 10.7h-.1Z" class="JP36208"/></g><path fill="#fff" stroke="#000" stroke-miterlimit="10" d="M251.8 382.1c3.9-3.4 4.2-2.5 9-8.5s4.7-11.5 4.7-14.1-4.2-8.5-.8-12.7c1.3-1.7 1.6-12.5 1.2-25.5-2.2.8-2.1 2.7-5.8 1.3-4.7-1.7-5.1-5.9-8.5-4.2s-6.8 4.7-10.7 4.2-33.1-9.8-35.3-12.7c-2.2-3 1.7-15.3-1.7-21.2-3.4-5.9-9.3-3.9-12.7-9.8s-6.4-8.1-3.9-10.7 2.2-2.9 3.2-5c-2.3.1-3.4-3-6.3-3.5-3.8-.6-10.8.4-16.5 2.5-5.7 2.2-7-1.9-9.5-2.2-2.5-.4-5.3 3.5-9.8 6.7s-7 0-10.4 0-3.5.6-7.3 3.5c-3.8 2.8-1.9 10.8-2.5 15.5-.1.6-.4 1.1-.7 1.5 10 11 24 26.8 25.1 27.9 1.7 1.7-3 5.6.4 8.5 3.4 3 22.1 3.9 27.2 2.2s3 1.7 3 5.1 9.8 18.7 13.2 25.5 5.1 11 5.6 18.3 17 5.6 20.9 5.1 6.8 5.6 8.5 9 6.4 2.2 8.5 3c.5.1 1 .7 1.6 1.6 4.1-5 8.6-9.6 10.6-11.3h-.3Z" class="JP36489"/><path fill="#fff" stroke="#000" stroke-miterlimit="10" d="M336.1 467.7c1.7-1.2 6.8.5 9.3-1.7s2.5-5.6 6.4-5.9c3.9-.5 5.6-.5 6.4-4.7s2.2-25.5.4-25.5-17.8-1.7-17.8-5.1 2.5-16.1 1.7-20.4-3.9-8.1-1.3-11.5 8.1-1.7 8.1-12.4 2.5-22.9 3.9-26.3c1.2-3.4.5-15.3-.8-17.5-1.2-2.1-2.5-9.3-6.8-10.2s-8.1-20.4-11.5-20.4-.5-5.9-3.4-3.4c-3 2.5-4.2 8.1-16.1 10.2-11.9 2.2-29.4 2.2-31.4 3-2.2.8-11 4.7-15.3 5.1-.7.1-1.3.2-1.8.4.4 13 .1 23.8-1.2 25.5-3.4 4.2.8 10.2.8 12.7s0 8.1-4.7 14.1-5.1 5.1-9 8.5c-1.9 1.7-6.3 6.3-10.8 10.9 2.2 3.2 4.9 9.7 5.2 12.4.4 3.4-3 3.4-5.9 6.4-3 3 3.9 8.1 6.8 12.4 2.9 4.2 16.6 4.2 17.8 5.6s.8 9.3.8 11.5 20 6.8 22.6 6.4c2.5-.5 8.1 1.7 10.7 3.4s.8 8.1 0 11c-.8 3 .8 6.8 3.9 11 2.9 4.2 25.9-1.9 28.4-.5 2.1-2.5 4-4.6 4.7-5.1h-.1Z" class="JP36468"/><path fill="#fff" stroke="#000" stroke-miterlimit="10" d="M608.8 337.8c-2.9 0-4.7 2.5-6.8 1.7-2.2-.8-8.1-1.7-8.1-6.4s0-4.7-2.5-11c-2.5-6.4 1.7-10.7-.8-13.2s-6.4-6.4-8.1-5.6c-1.7.8-8.1 5.6-10.7 5.6s-9.3.8-11 2.2-9 7.3-9.8 9.3c-.8 2.2-5.1 9.3-6.4 9-1.3-.5-7.6-11-9.8-9.3s-11 8.1-13.2 8.5c-2.2.5-6.8 23.8-9.3 23.8s-5.9-1.3-11.9-1.3-14.9 4.2-16.1 6.4c-1.3 2.2-3 8.1-5.1 8.1s-3.4-4.2-6.8-2.5c-2.1 1-10.2 7.2-16.5 12 2.4 1.3 3.6 3.8 4.2 5.5.8 2.5-1.7 2.5-4.7 3.4-3 .8-2.5 4.7-5.1 9.8s-5.9 5.6-9.8 8.1-.4 9.3-.4 16.1-6.4 14.9-5.6 19.5c.4 2.3 4 3.2 8 3.5.1-.2.2-.5.5-.6 3-2.1 13.6-4.7 17.5-5.6 3.9-.8 20.4 0 22.9.8s5.6 7.3 6.8 5.9c1.3-1.3 3.9-1.7 4.2-5.9.5-4.2.8-11 5.1-11.9 4.2-.8 6.8.8 9.8-1.7s7.6-4.2 9.3-4.2 1.3 7.3 7.3 5.9c5.9-1.2 17.8-8.1 25.5-11.5 7.6-3.4 17-4.2 18.3-6.8s2.5-13.6 5.6-19.2c3-5.6 3.9-6.8 4.2-11 .5-4.2 9-14.1 10.7-14.9s6.8 1.7 8.5-.8 0-8.5 1.7-9.3 5.9-3.4 8.1-3.4 1.6.2 2.8.6c-.2-4.6-.5-9.5-2.3-9.5h-.2Z" class="JP36342"/><path fill="#fff" stroke="#000" stroke-miterlimit="10" d="M571.3 257.9c0-2.5.5-9-1.7-9s-5.6 5.6-8.5 2.5c-3-3-6.4-6.4-5.9-11.9.5-5.6 2.9-7.3 1.3-11.9-1.7-4.7-9.8-9-9-14.4.8-5.6.6-8.6 3-11.9.6-.8 2.2-2.3 4-3.8-.6.2-1.2.5-1.7.5-1.6 0-14.9-12.4-18.4-12s-4.5 8.3-7.3 11.8c-2.9 3.5-16.1-2.5-20-2.2-3.8.4-7.3 4.5-12.7 5.1-5.3.6-3.8-7.6-7.3-8.9s-4.5.4-9.2 1.6-2.2-5.7-8.9-5.7-9.5 3.8-16.5 4.5c-6.9.6-7.9-2.5-12-2.5s-6.7 2.5-13 4.7c-.8.4-1.8.6-2.5.7 1.3 2.2 7.2 9.7 8.5 12.3 1.2 2.5-.5 5.9-2.2 8.1s-.8 7.6-.8 12.7-8.5 26-13.6 33.6-12.7 11.9-14.4 15.8c-1.1 2.4 1.8 12 4.4 20 12.6-1.3 29.7-2.9 39.4-3.4 16.6-.8 55.7-.5 65.5-1.7 9.8-1.2 7.6-13.2 9-13.2s43.8-8.5 46.8-8.5h.4c-.7-5.1-1.2-8.6-1.2-9.3 0-3.2 4.6-1.1 4.6-3.6Z" class="JP36206"/><path fill="#fff" stroke="#000" stroke-miterlimit="10" d="M520.7 279.2c-1.2 0 .8 11.9-9 13.2-9.8 1.3-48.9.8-65.5 1.7-9.6.5-26.8 2.2-39.4 3.4 1.5 4.5 2.8 8.6 3.3 10.6 1.3 5.6 3 6.4 5.9 11 3 4.7-7.6 17.8-10.2 21.7s3.9 10.7 8.5 14.4c4.7 3.9.8 5.6.8 9.3s10.7 6.4 15.3 9.3c4.7 3 14.9.5 20.4 0 1.9-.1 3.4.2 4.7 1 6.4-4.9 14.6-11 16.5-12 3.4-1.7 4.7 2.5 6.8 2.5s3.9-5.9 5.1-8.1c1.3-2.2 10.2-6.4 16.1-6.4s9.3 1.3 11.9 1.3 7.3-23.4 9.3-23.8c2.2-.4 11-6.8 13.2-8.5s8.5 9 9.8 9.3c1.2.4 5.6-6.8 6.4-9 .8-2.1 8.1-8.1 9.8-9.3 1.7-1.3 8.5-2.2 11-2.2s1.2-.2 1.9-.5c-1.7-11.2-4.4-27.6-5.8-37.9h-.4c-2.9.1-45.4 8.7-46.7 8.7l.3.3Z" class="JP36205"/><path fill="#fff" stroke="#000" stroke-miterlimit="10" d="M608.4 258.7c1.8-1 4.1-2.3 6.4-3.5.4-2.2.7-4.5 1-6.8-3.5.7-7.5 1.1-10.4 1.2-5.6.5-4.2-2.5-4.2-3.9s-3.4-3.9-7.3-6.4c-3.8-2.5-4.7-9.8-5.9-15.8-1-4.7-4.7-10.9-6.2-13.1-4.4.4-4.1-5.8-5.5-7.9-1.2-2.2-7.3.4-11.4 1.6s-5.3-4.5-6.7-6.7c-.8-1.6-2.3-.8-3.6-.2-1.8 1.6-3.4 2.9-4 3.8-2.3 3.3-2.2 6.4-3 11.9-.8 5.6 7.3 9.8 9 14.4 1.7 4.7-.8 6.4-1.3 11.9-.4 5.6 3 9 5.9 11.9 3 3 6.4-2.5 8.5-2.5s1.7 6.4 1.7 9-4.7.5-4.7 3.4.8 7 2.1 14.9c7.6-4.5 18.9-11.3 20.9-13.2 3.2-2.5 14.2-1.3 18.9-3.9h-.2Z" class="JP36405"/><path fill="#fff" stroke="#000" stroke-miterlimit="10" d="M623.2 251.5c2.5-.5 4.7 3.4 10.2 4.2 5.6.8 12.4 1.7 16.1-1.3 3.9-3 5-11.2 19.9-14.6 1.3-.4 3-3.8 4.6-7.5-5-.8-12.9-2.8-16-5.1-3.4-2.3-13-5.2-21.4-6.9-2.3 5.5-6.9 12.9-8.5 15.1-2.2 3-2.2 7.3-5.1 10.2s-4.2 2.3-7.5 3c-.2 2.2-.6 4.5-1 6.8 3.6-1.9 7-3.6 8.6-3.9h.1Z" class="JP36403"/><path fill="#fff" stroke="#000" stroke-miterlimit="10" d="M621.5 297.9c.8-5.1-9.8-16.6-9.3-25.1.2-4 1.5-10.6 2.5-17.5-2.3 1.2-4.6 2.4-6.4 3.5-4.7 2.5-15.8 1.3-18.7 4.2s-13.2 8.7-20.9 13.2c1.5 10 3.5 22.9 5 32.2 3-1.2 7.3-4.4 8.7-5 1.5-.7 4.4 1.9 6.8 4.2 11.3-1.7 31.7-5.9 32.3-9.8Z" class="JP36341"/><path fill="#fff" stroke="#000" stroke-miterlimit="10" d="M689.9 254.6c4.7.1 12.9-5.3 14.2-8.3 1.3-2.9-2.8-11-3.2-15.8-.2-3-3.2-5.1-7.4-6.7-1.5 1.7-2.7 3.2-3.5 4-3.4 3.4-9 5-12 5s-1.9-.2-3.5-.5c-1.1 2.4-2.2 4.7-3.2 6.1 0 1.8.2 3.6.6 5.2 1.5 6.7 13.2 10.8 18 10.9Z" class="JP36402"/><path fill="#fff" stroke="#000" stroke-miterlimit="10" d="M733 237.5c1.6-1.3 3.2-7.3 4.9-12-14.9-6.2-32.4-11.9-34.1-12.1-1.9-.4-6.8 5.8-10.6 10.4 4.2 1.6 7.3 3.5 7.5 6.6.4 3.9 3.3 10.1 3.6 13.7 6.3 4.7 14.7 9.5 20.5 12.6 0-.5.4-1.1.7-1.7 2.9-5.8 5.1-15.7 7.4-17.5Z" class="JP36401"/><path fill="#fff" stroke="#000" stroke-miterlimit="10" d="M704.1 246c-1.3 3-9.3 8.5-14.1 8.5s-16.5-3.9-18.2-10.7c-.4-1.6-.6-3.5-.7-5.2-.5.7-1.1 1.2-1.6 1.3-15.1 3.5-16.1 11.7-19.9 14.6-3.9 3-10.7 2.2-16.1 1.3-5.6-.8-7.6-4.7-10.2-4.2-1.6.2-5 1.9-8.5 3.8-1.1 6.9-2.4 13.5-2.5 17.5-.5 8.5 10.2 20 9.3 25.1-.6 3.9-21 8.1-32.3 9.8.5.4.8.8 1.2 1.2 2.5 2.5-1.7 6.8.8 13.2 1.7 4.3 2.5 7.9 2.5 11 0 4.7 5.9 5.6 8.1 6.4 2.2.8 3.9-1.7 6.8-1.7s2.1 4.7 2.3 9.6c3.9 1.1 10.1 3.2 10.4 1.6.5-2.1 3.4-11 11.5-12.4 8.1-1.2 5.1 3.4 9.3 4.7s4.2 1.3 2.2 4.7c-2.2 3.4.8 11-.8 13.6s-4.7 9.8-7.3 11c-2.5 1.3-2.5 7.3-.5 10.7 2.2 3.4 2.5 4.2 6.8 4.2s11 4.2 20 8.1 13.2 4.7 17.8 2.5c4.7-2.2 3.9-3 8.5-3s15.3-.8 14.9-5.1-3.4-9-2.5-10.7-4.2-13.2-7.3-13.2-9.3 6.8-9.3 3 2.2-18.7 6.4-22.9 1.3-5.6 3.4-9c2.1-3.4 3.9 2.5 5.9 2.5s13.6-1 23.2.1c-.2-.8-.8-1.7-1.5-2.5-2.3-2.7-7.3-4.4-5.6-6.9 1.7-2.7 8.1-1.7 5.2-3.8-2.8-2.1-11.9.4-8.3-2.3 3.5-2.7 9.3-3 6.6-10.2-2.7-7.2-9.7-2.8-6.8-5.8 3-3 8.1-15.8 10.9-19.8s5.6-16.4 3.5-22.3c-1.8-5.3-4.5-4.1-3.2-7.9-5.9-3.2-14.2-7.9-20.5-12.6 0 .7 0 1.5-.2 1.9l.4.3Z" class="JP36201"/><g fill="#fff" stroke="#000" stroke-miterlimit="10" class="JP36383"><path d="M628.3 639.6c-.5-3-12.4-2.5-12.7-7.3s-3.4-19.5-5.9-19.5-10.7 4.7-17 4.7-15.3-.2-27.8-.4c-.6 1.3-1 2.4-1.2 2.9-.8 2.5-5.1 3.4-10.2 3.9s-13.6 5.6-11 12.4 0 15.8 0 17 4.2 1.3 6.8 3-3.8 3.4-1.7 5.9c1.3 1.6 9.5 10.1 16.7 17.1.2 0 .5-.2.8-.4 1.8-.7 3 .5 3-3s-.5-3 2.1-4.4c2.5-1.2 2.1-2.8 3.5-1.6 1.6 1.2 5.1 5.3 7.9 3.8 2.8-1.6 2.5-5.8 4.6-8.1s2.1-1 3.8 1.3c1.8 2.3 2.3 1.5 6.1-.2 3.8-1.8 6.3-2.5 9.6-5.3s12.4-6.6 17-10c1.1-.7 2.2-1.5 3.4-2.2 1.5-4.5 2.5-8.5 2.3-9.7ZM591.7 697.5c-2.3 1.2-3.8-.8-4.5-3.4-.6-2.5.2-5.5 2.9-4 2.8 1.5 3.3 6.6 1.6 7.4ZM645.3 697c-2.9-.7-13.1-4.5-11.2-5.3s5.1 1.9 4.2-.8-3.4-6.8-1.7-7.2 4.2 2.3 6.3 2.9 2.5 3.8 4.2 2.9c1.7-.8 3.8-2.5 3.2-.6s-.6 2.9-1.1 4.6c-.4 1.8-1.7 4.2-4 3.5Z" class="JP36383"/></g><path fill="#fff" stroke="#000" stroke-miterlimit="10" d="M783.7 527.7c-3-1.7-6.8.8-10.2 3.4-3.4 2.5-23.4 6.4-29.7 9.3-6.4 3-8.1 7.3-12.7 10.7-4.7 3.4-14.9 1.7-21.2 2.2-6.4.4-8.5-5.1-12.7-7.3s-6.8-4.2-9.3-7.6c-2.5-3.4-6.4-1.2-11.9-1.2s-16.6 5.1-23.8 8.5c-7.3 3.4-5.1.4-10.7 2.5-5.6 2.2-6.4 4.7-9 9-2.5 4.2-13.2 5.1-17 5.9-3.9.8-7.3 1.7-7.3 5.6s-3 4.2-6.4 6.4-6.4 0-10.2 1.7c-3.9 1.7-4.2 9.8-8.1 14.1s-9 1.7-10.7 7.3c-1.3 4.4-5.6 14.1-7.8 19.2 12.4.2 24.8.4 27.8.4 6.4 0 14.4-4.7 17-4.7s5.6 14.9 5.9 19.5c.5 4.7 12.4 4.2 12.7 7.3 0 1.1-.8 5.2-2.3 9.7 4-2.2 8.5-3.9 10.8-5.2 3-1.8 5.1-4.4 8.6-5.3 3.5-1 3.5-2.8 6.1-4.4 2.5-1.6 8.4-3.3 9.6-5.1 1.3-1.8 20.3-14.4 20-18s-3-10.9-.2-12.4c2.8-1.6 6.3 1 7.2-.7.7-1.8 4.9-7.4 4-4.6-.7 2.8-.5 4.6-.7 5.8s-1.6 3 2.5 2.8c4-.2 6.1.5 6.1-3.3s.7-6.6 3-9.3c2.3-2.8 1.8-7.9.2-10s-1.6-6.3-.5-6.3 4.9 3.5 6.3 1.6c1.6-2.1-.5-7.2 1.8-7.6s4.4 2.5 5.8 1.8c1.6-.7 1.6-5.6 3.3-4 1.8 1.6.5 5.6 1.8 6.8s4.6 4 4.9.7c.2-3.3-3-2.8-.5-4.9s5.8-3 6.1-5.6-1-3.3 1.8-4.9 4 .2 5.6-2.3.7-2.5 3.8-2.5 5.6 1.6 8.1 1.8 4.9 5.8 5.1 3.3c.2-2.5-1.8-4.6 1-5.8s3.5.5 6.1-1.2c2.3-1.6 14.2-10.2 21.6-13.5-1.3-6.1 1-8.1-1.6-9.6Z" class="JP36387"/><g fill="#fff" stroke="#000" stroke-miterlimit="10" class="JP36204"><path d="M839.4 507.4c-3.4-2.1-4.7-.4-5.5-3.2-.7-2.8-5.8.2-8.5 2.3-2.7 2.1-4.4-.7-6.2 1.1-1.8 1.9-3.2 6.6-5.1 4.7-1.8-1.9 1-5.6-2.7-4.5-3.5 1.1-9.2-2.1-10.7-.2s-2.3 5.6-4.7 4.7c-2.4-1-4.1-2.4-6.2-1.1-2.1 1.3-7.2 1.1-4.9-.7s6.1-3.5 8.6-5.5c2.7-1.9 11.3-1.7 16.1-2.8s7.5-2.7 5.6-5.1c-1.8-2.4-7.9-3.4-9.6-2.4s-5.2-.4-6.9.2-2.3.7-4-1.7c-1.7-2.4-11 1.1-12.7 1.8s-2.7 4.4-4.4 3.4-2.4-1.7-3.5-1.5-2.3 3.9-3.5 2.4c-1.3-1.5-2.1-2.7-4-2.1s-11 6.1-11.9 1.5c-.7-4.5 4.4-3 4-6.8s1.3-11.9-.2-11.9-1.7 5.1-4.4 6.4-8.9 4-7.6.4c1.1-3.5 2.1-5.6 3.9-8.1 1.8-2.4 8.1-5.8 9.6-5.6 1.5.2 4.4 2.4 6.2 1.1 1.9-1.3 5.6-2.7 4.4-4.5-1.3-1.8-4.4-4.1-2.8-4.1s5.1 4.7 8.5 4.4 6.9-6.6 9-10 1.7-5.8 4.4-9.6 4.7-4 7.6-5.5c3-1.5 3.8-10.7 3.9-15.1.2-4.4 4-4.1 4.1-7.2.2-3 0-3.2-3.9-9.6-4-6.4-1.1-9.6-2.4-11.3s-3.8-1-6.4-4.1-4.1-3.8-7.3-4.4-8.5-1.5-11.3-5.5c-1.3-1.9-4.6-9.7-8.1-17.7-11.7 6.6-13 16.9-14.3 18.4-1.7 2.2-6.8-5.1-9.3-3.9-2.5 1.3-9.3 11.5-9.8 14.1-.5 2.5-14.9 3.9-22.9 6.8-8.1 3-6.4 5.1-10.2 5.6-3.9.4-5.6 1.2-7.6 3.9-2.2 2.5-7.6 4.2-11.9 6.4s-6.4 6.8-9.8 9.3-2.5 0-7.3.8-7.6 5.9-11.5 7.6-5.6-3-9.3-.8c-3.9 2.2-4.2 3.4-8.5 6.4s-10.7 10.7-10.7 12.4 3.4 4.7 3.4 9-1.5 6.6-2.9 11.5c1-.2 1.7-.5 2.1-.5 1.7 0 13.6-2.2 17.8-2.5 4.2-.5 2.1 3.9 4.2 5.9 2.2 2.2 12.7-7.6 19.2-8.1 6.4-.4 20 4.2 21.7 4.7 1.7.4 2.9 4.7 2.9 8.1s-2.2 4.2-7.6 5.9c-5.6 1.7-15.3 8.5-16.1 13.6s-9.3 12.4-11.9 16.1c-2.5 3.9-1.7 9 .4 11.9 2.2 3 4.7-.5 9.3-.5s3.5 2.2 4.6 5.2c2.2-.6 4.1-1 5.6-1 5.6 0 9.3-2.2 11.9 1.2s5.1 5.6 9.3 7.6c4.2 2.2 6.4 7.6 12.7 7.3 6.4-.5 16.6 1.3 21.2-2.2 4.7-3.4 6.4-7.6 12.7-10.7 6.4-3 26.3-6.8 29.7-9.3s7.3-5.1 10.2-3.4c2.5 1.5.2 3.5 1.7 9.3.8-.4 1.7-.7 2.4-.8 6.8-1.8 9.3-4.1 11.7-6.9 2.3-2.8 15.4-7.6 18.2-9.3s8.5-1.7 11-3.8c2.7-2.1 3.2-2.7 6.1-3.5 3.4-1 8.6-3 5.2-5.1v.7ZM894 488.7c-2.4-.2-4.2 3.6-5.5 4.9s-1.2-1.1-2.5.4c-1.2 1.5-1.1 6.2-3.4 7-2.3.8-5.3 2.8-2.8 2.9 2.5.2 3.4-.6 7-1.2s4.9-.8 4.9-3.8 4.6-10 2.3-10.2Z" class="JP36204"/><path d="M765.7 490c-2.2.4-1.5-3.8.8-5.3s2.1-.4 2.5-3.6.8-2.5 2.5-.8.8 3.8-1.1 5.3c-1.9 1.5-3.6 4.2-4.9 4.5h.2ZM784.9 477.2c-2.7.7-1.9 2.3-3.2 3.2s-2.3 1.7-1.5 3.4 1.7 3.2 2.8 1.1c1-2.2 2.7-7.9 1.8-7.6h.1ZM833.3 492.7c-.5-3.5-9.7 3.8-6.9 4.2 2.7.5 7.2-2.7 6.9-4.2Z" class="JP36204"/></g><g fill="#fff" stroke="#000" stroke-miterlimit="10" class="JP36202"><path d="M677.7 232.7c3 0 8.5-1.7 11.9-5.1s11.5-14.9 14.1-14.4c1.7.2 19.2 5.9 34.1 12.1.7-2.1 1.5-3.9 2.2-5 2.4-4 16-25.6 16.5-28.5.6-3-.7-2.1-6.6-2.3-5.8-.2-7.5.4-11.4-3-4-3.4-6.6-6.1-13.1-7.9-6.6-1.8-12.4-5.6-13-9.7s-1.7-9.2 1.5-11.3 4.9-3.4 3-7.6c-1.8-4.4-3.5-4.9-2.3-7.3 1.3-2.4 3.5-7.3 0-7.2-3.5.2-11.7 1.8-14 3.5s-3 3.5-.7 5.2 4.7 5.6 2.4 6.6-3.2-2.8-4.9-1.3-3.4 2.1-5.6 1.3c-2.3-.7-11.7-3.4-14.8-3.4s-29.7-.2-34.3 3.4c-4.7 3.5-12 12-16.9 13.4-3.6 1-15.8 1.6-23.1.8-.6 3.5-1.3 7.5-1.8 10.7-.2 1.8-.7 3.4-1.1 4.6 5.8.4 11.8.8 13 .8 2.5 0 1.7 7.6 7.6 10.7s4.7-.5 9-.8c4.2-.5 2.2 3.4 2.2 10.2s6.4 10.2 6.8 14.1c0 1.1-.5 2.9-1.3 5 8.4 1.7 18 4.6 21.4 6.9 3.9 3 16.1 5.6 19.2 5.6Z" class="JP36202"/><path d="M743.6 184.4c-3.5-1.5-5.7-5.7-7.4-6.8s-7.2-2.5-10.2-3.4c-2.9-.8-8.9-2.9-10.6-6.2-1.7-3.2-.8-5.9 1.1-5.7s4.5 3.6 7.4 1.7c2.9-1.9 3.4-4.2 7.2-5.1 3.8-.8 6.8-.4 5.5 1.7-1.2 2.1-2.3 4.2-3.6 3.2s-.8-2.5-2.1-2.1c-1.2.4-4 2.1-2.9 3.6s4.6 3.2 7.2.8c2.5-2.3 1.9-3.8 3.6-3.8s3.8-3.4 3.6-5.3c-.2-1.9-2.5-.8-4.2-2.1s-2.3-8.3-.6-9.7 13.1-2.9 14.8-4.6c1.1-1.1-.2-3.8 2.5-3.8s2.9 2.5 1.2 4.9-2.8 4.5-3.2 7.2c-.4 2.8-4.9 7.4-5.5 9.5s-2.9 8.6-2.9 12.3c0 3.6 0 14.2-1 13.7h.1ZM737.1 142.4c-1.5.2-4-1.9-5.1-1.2-1.1.6-8 6.2-8 7.8s1.2 2.8-.2 4.5c-1.5 1.7-5.5 4-6.2 3.4-.6-.6 2.9-4 1.9-6.9-1.1-2.9-4.2-4.9-3.6-6.9s3.2-4.5 3.2-6.6 2.3-4 6.2-6.9c3.8-2.9 1.7-5.5 5.7-5.1s6.6 3.4 5.7 6.3c-.7 2.7 2.2 11.4.5 11.7h-.1Z" class="JP36202"/></g></svg>