<svg xmlns="http://www.w3.org/2000/svg" style="transition:transform .15s ease-out;transform-origin:center center;transform:translate(0,0) scale(1)" viewBox="0 0 900 900"><path fill="#fff" stroke="#000" stroke-miterlimit="10" d="M616.1 477.7c1.1-7.7 9.3-9.3 2.7-14.9-6.6-5.6-13.2-7.2-12.7-12.7.6-5.6 3.9-16 3.9-18.8s-.4-3.5-.5-5.8c-10.1-3.1-25.3-7.5-27.8-7.5s-6.6 30.4-8.9 36c-2.2 5.6-12.7 34.3-11.6 40.9 1.1 6.6 4.4 24.8 1.1 31.5-3.3 6.6-7.2 21.1-6 28.2 1.1 7.2 1.7 21.5 3.3 24.3s11 16.6 13.2 22.1c1.7 4 7.3 13.1 13.4 20.9-.1-4.4.2-8.5 2.2-10.8 4.1-5 5-9.5 9.1-11.6 2.2-1.1 6-2.4 9.9-3.8 1.7-8.3 3.4-16.6 4.7-19 2.7-5.6 6-55.8 5.6-62.9-.7-7.3-2.8-28.4-1.8-36.1Z" class="JP37341"/><path fill="#fff" stroke="#000" stroke-miterlimit="10" d="M888 561.2c.7-4.1 1.7-9.3 2.5-14-3.1-.2-5.4-.7-6.6-1.4-5.1-2.7-30-19.8-29.8-24.1.2-4.4 9.2-3.9 6.4-7.6-3-3.7-14.4-.9-13.6-4.9.7-3.9 1.2-5.6-.9-10.5-2.2-4.9-8-8.5-11.9-10.8-3.9-2.1-5.8-5.1-7.1-3.7-1.2 1.4.2 4.6-1.4 7.1s-6.6 7.6-10.5 6.2c-3.9-1.4-5.3-5.6-8.3-5.6s-6.4 2.7-9 1.7c-2.7-.9-4.1-3.4-8.8-5.3s-22.9-20.5-28.3-22c-5.3-1.4-9.2.7-14.4.7s-5.1 0-7.8-.6c-3.8 5.7-7.2 11-9.8 14.1-3.9 4.4-1.1 18.8 0 23.2s0 2.7-3.3 7.7 1.1 23.8 0 25.9c-1.1 2.2-13.2-5-16.6-4.4s-20.5 7.7-28.2 11c-7.7 3.3-3.9 1.1-7.7 1.1s-4.4 2.2-5 6.6-3.9-.6-9.3 2.2c-5.6 2.7 3.9 11 7.2 15.5 3.3 4.4-7.2 13.8-5.6 16.6 1.1-.2 2.1-.6 3.3-.9 8.3-2.8 11.6-6.2 16.9-6.2s6.6 4.1 15.6 3.3c9.1-.8 12.8-5.8 21.4-5.8s5.3 9.1 11.5 7.5c6.2-1.7 7.5-3.7 11.9-2s2.5 12.3 9.5 11.5c7-.8 11.5-6.2 16.4-6.6 5-.4 22.2 7.5 25.9 2.8 3.7-4.5 5-14.8 9.5-15.3 4.5-.4 21.9 15.6 23.9 15.6s5.3-3.3 7-.5 3.3 10.3 8.6 8.6c5.3-1.7 13.1-5 14.8-2 1.7 2.8 1.2 11.1 7.5 10.3 6.2-.8 13.1-8.3 17.3-11.9 4.1-3.7-2.5-14.8-.5-17.3 2-2.2 5.8-6 7.3-15.9Z" class="JP37207"/><path fill="#fff" stroke="#000" stroke-miterlimit="10" d="M294 445.1c0-6 7.2-8.3 1.7-19.9-5.6-11.6-9.9-12.7-12.2-16-2.2-3.3-2.2-11-5.6-15.5-1.1-1.4-3-2.5-5.1-3.2-.6 5.2-1.2 11.4.5 12.9 2.7 2.5 6.2 3.4 5.1 5.8-.9 2.5-2.7 5.1-7.3 6.4-4.6 1.2-12.4 2.5-12.9 6.2 0 .2-.1.6-.2.8.2 3.9.7 7.3 1.7 8.8 2.7 3.9 5.6-1.1 8.3-1.7s12.2 15.5 16 19.9c.7.7 1.4 1.7 2.2 2.7 4.3-2 7.9-4.4 7.9-7.2Z" class="JP37386"/><path fill="#fff" stroke="#000" stroke-miterlimit="10" d="M479.1 590.4c-1.7-5.6-3.9-13.8-4.4-20.5-.6-6.6-7.2-3.3-6.6-7.7s-2.2-19.9-7.2-23.8c-5-3.9-22.1-25.4-22.1-31.5s-2.2-13.8 0-16c2.2-2.2 6-4.4 4.4-9.9-1.7-5.6-3.3.6-7.2.6s-2.2-5-5-4.4c-2.7.6-7.7 6-13.8 2.7-6-3.3-20.5-6-20.9-9.3-.1-.7-.6-3.1-1.2-6.2-2.8 4-6.4 8.8-8.8 11.1-4.4 4.4 0-4.4-4.4-2.2-2.8 1.4-15.5 5.9-27.7 9.6-1.3 6.6-4 14.9-6 18.1-2.7 4.4.6 3.3 1.7 7.7s-.6 21.5-1.1 29.8c-.6 8.3 6 8.9 9.3 13.2s10.5 5 16.6 8.9 5 4.4 7.2 9.3c2.2 5 7.7 12.7 11 15.5 3.3 2.7 6.6 17.6 8.9 20.5 2.2 2.7 23.2 1.7 28.7 2.7 5.6 1.1 6.6 7.2 9.3 10.5s10.5 0 15.5 2.2 10.5 7.7 16 7.7 4.3.6 6.6 1.5c-.9-10.6-2.5-22.9-5-24.7-4.4-3.4 7.8-10.1 6.2-15.6Z" class="JP37387"/><path fill="#fff" stroke="#000" stroke-miterlimit="10" d="M728.3 503.7c-1.1-4.4-3.9-18.8 0-23.2 2.6-3.1 6-8.3 9.8-14.1-3.2-.7-6.3-2.1-8.5-5.2-4.1-5.6-5.8-5.6-4.8-7.8.9-2.2-.7-4.6-4.1-4.6s.2 5.3-.7 6.6c-.9 1.2-2 1.7-5.3.9-3.4-.7-13.1-7.8-15.1-15.4-1.9-7.6-3-16.6 3.2-18.8s7.1-3.9 9.2-6.6c2.2-2.7 4.1-1.2 3.2-4.6s-1.9-5.3-2.5-9c-.5-3.7 3.9-4.6 3.9-6.6s-7.6-.9-8.8-3.4.2-9.2-1.7-11.9c-2-2.7-4.6-5.8-6.9-3.7-2.2 2.2-10.3 16.1-13.4 15.6-3.2-.5-7.8-9.8-11-11.9-3.2-2.1-7.8-3-6.6-6.6s-4.4-17.3-6.4-18.8c-1.9-1.4-7.8 1.2-6.6 4.9s8.5 12.9 6.4 16.6-3.7 8.8-7.3 8c-3.7-.7-2.7-2.7-5.3-2.2-2.7.5-5.3 2.7-7.1.7-1.7-2-.2-7.3-4.4-7.6-4.1-.2-4.4 2.5-1.9 5.6 2.5 3.2 3 6.4 1.4 8.8-1.4 2.5 3.9 7.1 2.7 7.3s-9.7 0-10.8 2.5c-.9 2.5-.2 7.6-3.4 7.6s-7.5-1.5-10.6-3.3c-1.8 5.7-4 12.8-4.7 15.6-1.1 5 0 9.3 0 12.2s-3.3 13.2-3.9 18.8c-.6 5.6 6 7.2 12.7 12.7 6.6 5.6-1.7 7.2-2.7 14.9-1.1 7.7 1.1 28.7 1.7 36s-2.7 57.5-5.6 62.9c-1.3 2.5-3.1 10.8-4.7 19 3.3-1.3 6.6-2.7 9-4.4 5.3-3.7 4.1-7 11.1-6.2 7 .8 15.3 5.3 18.9 3.3 3.2-1.8 7-.8 13.1-2.4-1.7-2.7 8.9-12.2 5.6-16.6s-12.8-12.7-7.2-15.5c5.6-2.7 8.9 2.2 9.3-2.2.6-4.4 1.1-6.6 5-6.6s0 2.2 7.7-1.1 24.8-10.5 28.2-11c3.3-.6 15.5 6.6 16.6 4.4s-3.3-20.9 0-25.9c3.5-4.9 4.7-3.2 3.5-7.6Z" class="JP37206"/><g fill="#fff" stroke="#000" stroke-miterlimit="10" class="JP37202"><path d="M247.5 485.9c5 0 7 8.6 8.8 14.3.7 2.4 3.8 11.7 6.3 11.5s7-5.6 7.9-3.9.9 6.2.7 8.5 3.9 4.9 4.9 6.9c.9 2 .2 3.3 1.2 5.6s4.4 1.2 5.9 3.7c1.5 2.6 1.7-1.4 4 0s4 1.3 5.3 2.1c.7.5 3.8 2.8 5.1 3.4.7.4 1.3.7 1.9 1.2 3.2 3 4.1 9.7 6.5 12.9 2.8 3.7 35.8-3.9 48.1-4-2.8-2-5.7-4.1-5.3-9.6.6-8.3 2.2-25.4 1.1-29.8-1.1-4.4-4.4-3.3-1.7-7.7s7.2-19.3 6.6-24.8-8.3-5-8.9-9.3c-.6-4.4-1.1-14.3-5-14.3s-40.3 16-43.1 13.8c-2.7-2.2-9.9-12.2-13.8-16.6s-13.2-20.5-16-19.9-5.6 5.6-8.3 1.7c-.9-1.4-1.4-4.9-1.7-8.8-1.5 3.3-8.8 5.8-8.8 5.8l-3-3.9-4.6 3 5.6 7.3-5.8 3.9-7.3-14.2-8.5 4.9 3.2 5.6 4.9-2 2.2 4.4-9.2 4.9-6.9-10.1-5.6 4.9 8.3 12.7-7 5.2c4.5 11.2 10.6 26 12.4 29.2 2.6 5.4 14.4 1.8 19.4 1.8ZM232 370.1c-3.3.6-8.5-1.7-6.9-3.3s1.4-7.9 3.8-8.3c2.5-.2 3.5 3.9 5.4 3.1 1.9-.8.8-3.3 3-.2 2.2 3 1.4 6.3-.8 6.3s-2.8 2.2-4.5 2.5ZM216.2 353.6c-5.6 0-11.5 1.4-7.9-3.3s5.2-6.3 3.8-9.3-6.6-7.1-6.3-12.1c.2-5-.6-9.6 1.9-9.9 2.5-.2 2.5 11.5 5.8 11.2 3.3-.2 4.4-5 7.1-6.9 2.7-1.9 7.5-7.5 9.9-6.9 2.5.6 3.5 5.2 7.5 6.3 3.8 1.1 3.3 5.2 6.6 5.8s4.4 1.9.2 3.1c-4.1 1.1-4.4 2.5-6 4.1-1.7 1.7-.2 4.1-5.2 4.6-5 .6-7.7-.6-8.8 3.1-1.3 3.5-7 10.2-8.6 10.2ZM231.2 313.5c-.8-.1 6-4.6 8.5-4.1 2.5.6 6.6 7.2-8.5 4.1ZM171.7 361.5c-2.4-.8-4.1-2.7-6.9-.2-2.7 2.5-6 5.2-4.4 6.9 1.7 1.7 2.7 3.9.2 4.4-2.5.6-6.3 4.6-9.3 1.7-3-3.1-4.4-6-6.6-5.8s-7.7-1.4-6.6-5.4c1.1-4.1 5-7.7 5-9.9s-2.5-8.3 1.1-9.1 4.6-.6 5.8-2.7c1.1-2.2.8-8.3 3.5-8.3s6.9-2.5 6.9-4.7 0-11.8 3.1-11.5c3.1.2 7.5 1.1 6.9 5.2-.6 4.1.2 3.1 1.1 6 .8 3.1 11.8 21.2 11.2 22.8s-3.5 4.6-4.1 6.6c-.5 2-3.4 5.2-6.7 4.1ZM119.5 336.3c-3.3 0-1.4-6.6-2.7-7.7-1.4-1.1-3.1-1.7-2.2-3.9s1.1-2.7.6-3.8c-.6-1.1-5.8-6.6-6.9-8.5-1.1-1.9-5.2-4.6-4.4-5.8.8-1.1 5.8 2.5 8.5 1.9 2.7-.6 9.9-3.1 12.7-3.5 2.7-.6 3.5 1.4 1.9 3.8-1.7 2.5-4.7 8.8-1.9 8.8s3.9-2.2 4.4-.6c.6 1.7.2 8.5-1.9 10.2-2.4 1.8-6.2 9.2-8 9.2ZM105.2 348.4c-3.3 0-4.1-3.9-6.3-3.3-2.2.6-4.1.6-3-1.1 1.1-1.7 4.6-8.5 6-6 1.3 2.4 5.4 10.4 3.2 10.4Z" class="JP37202"/></g><g fill="#fff" stroke="#000" stroke-miterlimit="10" class="JP37208"><path d="M268.3 657.3c1.7-7.5 1.4-28.5-1.7-36.2-3-7.7.6-13.5-4.1-11.8-4.6 1.7-9.3 6.6-9.1 2.7.2-3.8 7.9-32.2 5.4-35.7s-16.2-16.4-20.3-17.6c-4.1-1.1-26.4 1.1-28.3-1.9-1.9-3-5.2-13.7-7.9-14.3s-7.7-.6-10.2-2.7c-2.5-2.2-11.8-11.8-11.2-14.6s.2-6.3-.8-6.3-3.5 2.7-6.9.2c-1.8-1.3-7.9-6.7-13.4-11.4-3.5 3.3-8.4 7.1-9.7 7.1-2 0-7.3-3.2-8.8-3.2s-.5 4.9-2.5 4.9-3.9-1.4-5.6.7c-1.7 2.1-6.2 12.9-8 12.2-1.9-.7 2.5-8.3 3.4-10.5s2.2-7.1.5-6.6c-1.7.5-7.3 11-7.3 11s-3.4-10.1-1.7-11.9c1.7-2 7.8-6.6 6.6-8.3s-2.5-.9-6.4 2.7c-3.9 3.7-8.5 3.2-10.5 5.3-1.9 2.2-6.4 4.9-9.2 4.9s-14.2-7.1-16.1-6.4c-2 .7-12.7 3-14.4.9-1.7-2-.2-8.3-1.9-10.3s-6.6-5.6-12.2-7.3c-5.6-1.7-15.6-3.2-14.2-5.3 1.4-2.2 3.4-3.2-.5-3.9-3.9-.7-14.2-4.9-19-5.3s-16.1 1.4-11.9 3.9c4.1 2.5 2.7 1.7 7.8 1.4 5.1-.2 10.3 2.7 8.8 4.4-1.4 1.7-.2 6.9 1.7 6.9s4.6.2 3.2 2.5c-1.4 2.2-8.3 6.6-5.1 7.1 3.2.5 3-3 7.8-1.2 4.9 1.7 8.5 6.9 12.4 8.5 3.9 1.7 6.4 4.6 8 3.9 1.7-.7 7.1 4.9 7.1 7.3s-.2 7.1 3.4 8.8c3.7 1.7 3.9 0 5.8 1.2 2 1.2 1.2 3 3 6.4 1.7 3.4.9-.2 6.6 1.7 5.6 2 6.6 4.4 7.6 9s4.1 8 5.9 11.9c1.7 3.9 4.1.9 5.1 3.4s3.4 6.6 1.4 9c-1.9 2.5-5.1 2-3.2 4.9 1.9 3 3.4 4.1 3.2 6.2-.1 1.2-.5 8-1.7 14.3 9.3 3 11.2-2 14-2.4 3.9-.6 2.7 2.2 3.9 5 1.1 2.7.6 16 2.7 18.2 2.2 2.2 18.2 12.2 21.5 11 3.3-1.1 19.9 5.6 22.1 8.9 2.2 3.3 2.2 22.1 1.7 25.4s-3.3 6-1.7 6 3.3 9.3 6 14.9 6-.6 10.5 5.6c2.6 3.5 8.8 25.4 13.5 42.9 6-3.5 12.8-8 14.8-11.7 3.7-6.6 7.8-13.1 14.4-15.3 6.6-2 5.8-6.6 8.6-7.8 2.8-1.2 11.1 0 12.8 3.7 1.7 3.7 3.7 5.3 7.5 5 3.7-.5 21.4.4 22.2-5.8.7-5.6-1.2-14.4 2-18.8-3.8-10.2-8.8-21.9-7.6-27.2ZM131.6 473.6c-2.5-.1-11 1.1-8.5-2.2 2.5-3.3 3.8-3.9 8.3-3.5 4.4.4 5.4 6 .2 5.8ZM104.4 474.4c-5.9-1.2-9.9-1.9-9.3-4.4s1.9-1.4 2.7-5c.8-3.5 3.5-6 4.1-5.2s.8 2.5 2.7 1.4c1.9-1.1 5.8-4.6 4.1-1.4-1.7 3.3-4.1 6-3.3 8.3.8 2.1 1.7 6.9-1.1 6.3Z" class="JP37208"/><path d="M89.6 473.6c-3.2 0-6 1.4-6.3 3.5-.2 2.2-1.7 7.5-4.4 6.9-2.7-.6-1.4 7.5-5 4.4-3.5-3.1-1.4-3.5-1.7-6.6s-3.3-3.1-1.4-5 9.3-5.4 9.3-8.8-.6-5.2 2.2-3.5c2.7 1.7 8.8 5.2 9.6 5.4.8.4.2 3.7-2.5 3.7ZM82.1 460.4c-2.5.1-6.6 4.1-7.5.6-.8-3.5.8-9.1 3.8-9.1s8.9 8.2 3.7 8.5Z" class="JP37208"/></g><path fill="#fff" stroke="#000" stroke-miterlimit="10" d="M169.7 687.1c-2.7-5.6-4.4-14.9-6-14.9s1.1-2.7 1.7-6 .6-22.1-1.7-25.4-18.8-9.9-22.1-8.9c-3.3 1.1-19.4-8.9-21.5-11-2.2-2.2-1.7-15.5-2.7-18.2s0-5.6-3.9-5c-2.8.4-4.7 5.3-14 2.4-.7 3.9-1.8 7.7-3.2 9.8-3.9 5.6-.5 5.6-.7 9.2-.2 3.7-3 24.8-5.3 27.6h-4.6v13.4h3.9v23.2h2.2v12.2H84v14.9h1.7s.5 3-1.2 10.3-7.8 17-10.8 17-12.2 9-17 8.5c-3.3-.4-4-1.3-4.9-1.5 6 7.7 15.1 11 17 11s8.6-2.8 11.9-3.3c3.3-.4 9.5 8.3 13.1 9.5s9.5 0 11.1-.4 17.7 2.5 19.8 5.8c1.1 1.8 4.3 7 7.3 12.3 4.3.1 8 .2 9.9 0 5.3-.4 8.3-3.7 12.3-3.7s15.3-2.8 16.9-5.8c1.7-2.8 9.5-26.4 12.3-28.4 1.3-.9 5.6-3.2 10.3-6-4.6-17.5-10.9-39.4-13.5-42.9-4.6-6-7.9 0-10.6-5.6Z" class="JP37205"/><g fill="#fff" stroke="#000" stroke-miterlimit="10" class="JP37322"><path d="M532 245.3c-3 0-4.7-6.9-10.6-9.2s-11.6-4.5-16.9-5.3c-5.3-.9-6.9-7.5-10.6-7.7-3.9-.2-7.1.4-4.7-2.4s1.8-4.5 4.5-8 17.2.9 19.5-1.8 5.1-8.3 9.8-9.2c4.7-.8 8-2.7 10.1-3.3 2.1-.6 5.3 2.1 4.7 4.1-.6 2.1 1.5 3 4.7 4.1 3.3 1.2 6.3 3.9 8.3 2.4 2.1-1.5 6.3.6 4.5 3.5s1.2 9.2-5.1 12.8-10.4 7.5-10.4 10.4-.8 9.6-7.7 9.6ZM566.4 229.9c-4.7 1.5-8.6-3-6.5-5.3s5.3-1.5 8-3 2.4.6 5.3-.6 4.5-3.9 4.5-1.8-.2 7.5-3 8.3-6.6 1.8-8.4 2.4ZM656.8 207.4c7.6-1.3 21.4-7.6 24.5-12.5 3.2-5.1 6.9-11.4 10.1-11.4s15.1 5.1 15.7 3.2-4.5-2.6-3.2-5.1c1.2-2.5 6.7-7.7 6.7-5.2s-3.7 6.5.6 5.9c4.4-.6 15.1-1.9 16.7-3.7 1.5-1.9 3.1-4.3 6.7-4 3.7.4 26.3-1.2 28.7-5.6s7.5-34.5 12.1-38.9c3.4-3.2 4.3-5.7 4.4-9.3h-.6c-3.3.6-9.8 5.9-14.8 8-5.1 2.1-6.5 4.7-9.8 8.3-3.3 3.5-20.1 3-22.6 3s-7.5 1.2-10.1.6c-2.7-.6-3.5-6.9-6.3-6.9s-5.1 3-8.6 7.7-.2 4.5-4.5 6.5c-4.1 2.1-10.1 8.3-11.8 11.2s-7.5 5.1-9.8 5.3-6.3-2.1-10.1 0c-3.9 2.1-9.5 11-11.2 11.2-1.8.4-7.7 2.1-13.6 1.8-5.9-.2-17.2.6-18.1-2.4s-1.2-4.5-2.7-5.3c-1.5-.9-4.1-3.9-6.9-2.7s-4.7 3.5-7.1 5.1c-2.4 1.4 3.5 1.8 4.7 1.8s.6 2.7.6 6.9-8.6 6.3-8 9.2 2.1-1.2 5.1-2.4 4.1 2.4 3.3 4.1c-.9 1.8-1.8 5.3 1.2 6.5s2.4 2.4 5.1 6.5 5.7 1.4 7.5 5.3-4.5.9-7.7 0c-3.3-.9-3-3.9-5.3-4.5s-1.5 0-4.7 0-8.6.9-9.5 4.5-5.7 4.1-7.7 10.1c-2.1 5.9-3.3 8-3.5 12.4-.4 4.5 2.7 2.4 5.7 2.4s.6 5.6 3.9 8.9c1.5 1.4 5.9-1.8 11.6-3s8-5.1 9.5-6.5c1.5-1.5 1.5-4.5-.6-4.5s1.8-4.1 3.9-5.7 2.7 2.1 4.1 2.1 3.5-3.3 5.7-4.7c2.1-1.5.6 2.1 1.8 1.8 1.2-.2 2.1-4.5 6.3-6.3 2.1-.9 3.8-.2 5.1.7 1.4-4.7 3.9-9.8 7.7-10.5Z" class="JP37322"/></g><path fill="#fff" stroke="#000" stroke-miterlimit="10" d="M807.6 156.9c-1.5-1.4-1.2-6.3-3.9-5.7s-5.3.2-8-3.5c-2.7-3.9.6-8.6 1.4-11.2.9-2.7 3.9-5.1 3.9-5.9s-3.3-.6-4.7-.6-1.8-3.9 0-5.3c1.8-1.5 1.8.6 2.7.6s.6-2.7.6-4.1-7.1 0-10.4.9c-3.1.8-6.2-1.4-9.2-1.2-.1 3.7-1.1 6.3-4.4 9.3-4.6 4.4-9.6 34.5-12.1 38.9-2.5 4.4-25 5.9-28.7 5.6-3.7-.4-5.2 2.1-6.7 4s-12.3 3.1-16.7 3.7c-4.4.6-.6-3.4-.6-5.9s-5.6 2.7-6.7 5.2c-1.3 2.5 3.8 3.2 3.2 5.1s-12.5-3.2-15.7-3.2-7 6.3-10.1 11.4c-3.2 5.1-17 11.4-24.5 12.5-3.8.6-6.4 5.8-7.9 10.6 1.3.9 2.4 2.1 3.2 2.2 1.8.2 1.5-2.1 6.9-2.1s5.7 7.1 6.9 9.2 6.9-3.5 8.9-5.3c2.1-1.8 5.7 0 7.1 2.1 1.5 2.1-.9 5.1-1.2 7.5s3 1.4 5.3 2.1c2.4.6 1.4 6.9 4.1 8.3 2.7 1.5 2.7 2.7.9 5.7s-1.5 6.9-3.3 10.6c-1.8 3.9-3.5 7.1-7.7 8s-5.3 3-6.3 5.1 10.1.6 12.4.6 2.4 5.3 1.5 8.3c-.9 3-2.1-2.7-4.1-.2-2.1 2.4-.8 4.1-5.1 4.5-4.1.4-3.5 1.8-1.8 3.9s2.7 10.4 8.3 10.6c5.7.2 14.6-8.6 15.7-10.1 1.2-1.5-3.5-1.2-3.9-4.7s.6-5.7 3.5-6.9 1.2-8 3.5-10.1c2.4-2.1 6.3-7.1 7.1-10.6.9-3.5-.9-5.1.6-8.3 1.5-3.3 4.5-7.7 5.9-10.1 1.5-2.4 8-2.4 10.4-4.7s7.7-3.9 10.4-4.5 4.5-3.5 7.7-6.9c3.3-3.3 4.1 1.5 6.3 3 2.1 1.5 4.1 0 7.7.4 3.5.2 5.7 9.2 7.5 11.8 1.8 2.7 1.5 3.5-1.4 8s-5.7-2.7-7.7-3.3c-2.1-.6-4.1 2.4-6.5 3.9s-2.1-2.1-4.5-3.9-.9.9-1.8 3.3-5.7-3.5-10.4-1.2-.9 4.7 1.5 11 .2 5.7-2.4 6.3c-2.7.6-5.7-3.9-6.9-.6s4.7 4.7 8.3 3.3c3.5-1.5 8.9-4.7 11.2-7.7s2-6.5 4.1-8c2.1-1.4 9.8 2.1 11.8 2.1s3.9-2.1 5.9-2.1 2.1 2.4 5.1 6.9 5.1 8 5.1 12.8 3 8.3 6.3 8.9 3-6.9.9-12.4c-2.1-5.7-1.8-7.1 1.5-8.6s5.9-5.3 7.1-6.9 3.9-7.1 5.9-11.6c2.1-4.5 0-3.5-.6-5.3s2.1-3.3 2.1-6.5-1.5-3.3-3-2.4c-1.5.9-1.8-4.7-4.5-5.1-2.7-.2-2.4-2.7-2.1-3.9.4-1.2.8-.9.6-2.7-.4-1.8 1.2-1.8 4.5-2.4s3.3-2.4 3.3-4.5-3.3-5.3-3.5-8.6c-.4-3.3 3.5-7.1 5.9-9.5s1.5-12.2.9-14.6 1.5-6.9 3.3-8c1.5-1.4 1.2-5.8-.2-7.3Z" class="JP37324"/><g fill="#fff" stroke="#000" stroke-miterlimit="10" class="JP37203"><path d="M386.3 475.5c2.4-2.4 5.9-7.1 8.8-11.1-2-10.6-6.3-30.9-8.8-34.7-3.3-5-12.7-8.3-7.7-13.8s14.3-8.9 17.6-8.9 9.9.6 9.9-1.1-2.2-10.5-3.9-12.7c-1.7-2.2-12.7-12.7-12.7-18.2s-5-27.7-11-45.5c-2.6 3.2-6.7 16.3-10.1 14.8-3.7-1.7-4.6-8.8-7.1-6.2-2.5 2.7-4.4 7.1-7.6 4.6-3.2-2.5-4.9-7.3-6.6-6.9-1.7.5-8.5 8.8-7.6 12.7.9 3.9 5.9 15.4 4.1 16.8-1.7 1.4 2.5 4.6 1.4 6.2-.9 1.4-1.7 2-1.7 2l-1.2-2.2-1.9 1.2 1.2 3.4-9.2 10.5-2.2-2.7-10.5 8 3.4 4.9-2.5 1.8-3.4-4.4-3.7 3 4.4 6.2-1.7 1.7-5.6-5.1-1.7 1.4.5 4.9-.9.2-2.2-3h-1.4v3H302v-4.9h-3.9c-1.7 0-7.8 4.9-10.8 4.4s-4.6-8.3-3.2-8.8 6.2-.5 6.4-2.2c.2-1.7-1.7-3.9 2.2-4.6 3.9-.7 17.3-7.1 17.7-10.8s-1.9-13.6-6.4-14.2c-4.4-.5-4.1 9-5.8 8.8s-5.6 3.7-8.3 4.9-7.1 6.6-8.5 5.1c-1.4-1.4.5-5.1 3.2-6.9 2.7-1.7 8.5-5.3 8-10.1-.5-4.6-8 1.2-11.2 3.2-3.2 1.9-8 9.2-8 13.1s-.4 4.1-.7 7.1c2 .7 3.9 1.8 5.1 3.2 3.3 4.4 3.3 12.2 5.6 15.5 2.2 3.3 6.6 4.4 12.2 16s-1.7 13.8-1.7 19.9-3.7 5.1-7.7 7.1c3.9 5 9.3 12.1 11.6 14 2.7 2.2 39.3-13.8 43.1-13.8s4.4 9.9 5 14.3 8.3 3.9 8.9 9.3c.1 1.7-.1 4-.6 6.7 12.2-3.7 25-8.2 27.7-9.6 4.3-1.8-.1 7.1 4.3 2.6ZM275 336.3c-3.2 1.1-7.7 0-8.5-2.7s-1.7-8.3 2.7-9.6c4.4-1.4 7.5 2.5 7.7 5 .2 2.4.5 6.5-1.9 7.3ZM282.3 331.8c-3.1.4-3.1-8.3-.8-8.3 2.2.1 3.5 8 .8 8.3ZM258.8 303.9c-4.5 0-5.4-8.3-6.6-10.4-1.1-2.2-6.6-4.1-2.7-5.8 3.8-1.7 7.9-3.1 9.1.2 1.1 3.3 3.3 6.9 1.1 8.3-2.2 1.4.5 7.7-.8 7.7Z" class="JP37203"/></g><g fill="#fff" stroke="#000" stroke-miterlimit="10" class="JP37364"><path d="M455.8 234.3c.9 1.5 3.9 4.7 4.5 8.9s3.9 12.2 0 16c-3.9 3.9-7.1 7.1-9.8 5.3s-3.9-5.1-5.3-3.3c-1.5 1.8.8 8-3.3 4.5s-4.1-6.5-7.1-5.7c-3 .9-1.5 7.7-5.3-.2-3.9-8-3.5-10.6-7.5-14.6s-8-15.1-5.7-18.7 2.1-.4 5.3 1.4c3.3 1.8 3 0 6.9-1.4 3.9-1.5 4.5-1.8 5.1-.4s1.8 5.9 4.5 8.9 7.1 5.7 9.2 5.7 6.3-1.8 6.3-4.5c-.1-2.5-.5-6.3 2.2-1.9ZM449.3 228.9c-1.7 2.1-6.3-2.4-5.1-4.1s6.3 2.7 5.1 4.1ZM443.1 218.9c-4.6-.5-4.5-8.6.2-5.1 4.8 3.5 2.5 5.4-.2 5.1ZM431.8 210.6c-3.7.9-5.9-5.1-2.4-5.3 3.5-.4 5.6 4.4 2.4 5.3ZM415.7 252.9c-4.1-.5-9.5-1.2-9.5-5.3s6.9.6 7.7-1.2c.9-1.8 1.5-4.1 2.1-1.5.6 2.7 2 8.4-.4 8ZM408.4 234.6c-2.8-.2-7.7-7.1-6.3-8.6 1.5-1.5 5.1.6 6.3 3.3 1.2 2.6 4.1 5.6 0 5.3ZM458.4 274.6c-3-2.5-5.3-4.5 1.5-6.5 6.9-2.1 7.5-.9 6.5.2-.8 1.3-3.8 9.8-8 6.3ZM425 202c-2.7 0-4.7-1.8-1.2-4.1s5.9-5.3 6.3-4.1c.2 1.2-3.3 8.3-5.1 8.3ZM423.2 192.1c-1.4.5-3.3-6.5 0-7.5 3.3-.8 3.9 6.3 0 7.5ZM467.9 204.9c.2 1.5 1.5 3.2 2.7 5.4 1.7 3.4 0 7.5 2.2 8.9 2.1 1.4 2.4 6.3 4.5 7.7s1.3 3.9 3.9 3.2c2.7-.7-.4-6.6-.5-9.8 0-3.2 2.6-20 3.4-22.9v-.4c-3.1 3.8-5.7 7.2-6.2 7.9-.5.8-4.4.7-10.2 0Z" class="JP37364"/></g><g fill="#fff" stroke="#000" stroke-miterlimit="10" class="JP37201"><path d="M559.8 578.8c-1.7-2.7-2.2-17.2-3.3-24.3-1.1-7.2 2.7-21.5 6-28.2 3.3-6.6 0-24.8-1.1-31.5-1.1-6.6 9.3-35.4 11.6-40.9s5.6-36 8.9-36 17.7 4.4 27.8 7.5c-.1-1.9-.1-4 .5-6.4.6-2.8 2.8-9.9 4.7-15.6-.9-.5-1.7-1.1-2.2-1.5-2.5-2.5-2.7-4.4-4.4-7.6-1.7-3.2-4.8-6.6-3.4-9 1.4-2.5 2.7-2.7 3.7-6.4s-.9-16.8 0-20.7 5.8-8.8 5.8-13.4-.7-7.8-3.2-12.4c-2.5-4.6-7.6-5.6-13.4-8.5-5.8-3-8-7.1-12.2-6.9s-7.1 5.3-9 4.4c-2-.9-4.1-4.6-5.3-2.5-1.2 2.2-1.2 6.9 1.9 9 3.2 2.2 3.4-.5 4.4 1.4.9 1.9 2 3 0 3.7s-2.7 7.1-4.9 9.5c-2.2 2.5-4.6-1.9-5.3 1.2-.7 3.2.5 12.9 3 16.8 2.5 3.9 1.7 9.5-2.5 4.6s-8-15.1-12.2-17.5c-4.1-2.5-2-6.9-4.9-7.6-3-.7-4.6-7.1-6.6-4.9s-1.2 26.1-4.9 31.7c-3.7 5.6-8 11.7-8 11.7v-16.3h-4.6v12.9h-5.8v-13.6h-6.6v12.2h-15.9v-2.5h-3.9v2.2h-5.6v4.1H482v-6.2h-35.1s-14.2-13.7-14.7-17c-.5-3.4-4.9-3.2-8-3-3.2.2-.2 2.2-2 3.9-1.7 1.7-2 6.9-5.3 4.1-3.4-2.7-5.6-3-3.9-5.6 1.7-2.7 2.5-6.2-.5-8.5-3-2.5-9.5-7.6-13.1-5.6-3.7 2-2.2 8.8-7.1 6.6-4.9-2.2-.7-4.9-2.5-7.8-1.7-3-7.8-11.2-10.3-10.1-.2.1-.5.4-.7.6 5.9 17.9 11 41.9 11 45.5 0 5.6 11 16 12.7 18.2 1.7 2.2 3.9 11 3.9 12.7s-6.6 1.1-9.9 1.1-12.7 3.3-17.6 8.9c-5 5.6 4.4 8.9 7.7 13.8s9.3 37.6 9.9 40.9c.6 3.3 14.9 6 20.9 9.3 6 3.3 11-2.2 13.8-2.7 2.7-.6 1.1 4.4 5 4.4s5.6-6 7.2-.6c1.7 5.6-2.2 7.7-4.4 9.9s0 9.9 0 16 17.2 27.7 22.1 31.5c5 3.9 7.7 19.3 7.2 23.8-.6 4.4 6 1.1 6.6 7.7s2.7 14.9 4.4 20.5c1.7 5.6-10.5 12.2-6 15.5 2.4 1.8 4 14.1 5 24.7 4.7 1.9 9.6 5.3 11.1 9 1.2 3 6.7 10.2 11.6 16.4.1 0 .1-.1.2-.1 3.3-1.2 7 5.3 11.1 5 4.1-.5 17.7-8.6 19.4-8.6s10.3 5 15.3 5 19.8-2.5 25.1-4.5 15.6-11.5 15.6-17.3-.8-8.4-.9-13.5c-6-7.8-11.7-16.9-13.4-20.9-2.6-5.4-11.9-19.3-13.6-22ZM551.4 315.8c-2-1.2 1.4-2.7 3.3-3.8 1.9-1.1 4.4-4.4 1.9-6.6-2.5-2.2-3.1-3.3-1.4-4.1s.8-1.4 2.5 1.7c1.7 3.1 4.1 5.8 3.5 7.9-.5 2.1-6.5 6.9-9.8 5Z" class="JP37201"/><path d="M489.9 341.8c-3.9.9-4.1-5.2-2.5-7.9 1.7-2.7 7.7-9.1 9.6-14 1.9-5 6.3-14 7.9-14.6 1.7-.6.8 6.9 1.1 10.4.2 3.5 1.4 8.3-1.7 10.4-3 2.2-5.8 6.6-7.1 8.5s-5.2 6.5-7.3 7.1ZM505.5 296.5c-3-.8-.8-9.3.2-13.5 1.1-4.1 3.8-7.7 6.3-5.8 2.5 1.9 6.3 4.1 4.4 7.7-1.8 3.7-9 12.2-10.9 11.6Z" class="JP37201"/></g><path fill="#fff" stroke="#000" stroke-miterlimit="10" d="M266.4 584.3c1.4 1.8 7 3.1 8.3 2 1.4-1.2.9-6.3 2.4-6.7s8.3 1.9 9-1.2 1.4-2.4 2.6-4.9c1.2-2.6-3.3-13.4-4-14.6-.7-1.2 2.2-4.9 0-7.2s-8-1.7-9.9-5.9c-1.9-4.3-1.7-8.5-3-10.4-1.4-1.9-4.4-6.7-4.4-6.7-2.2 1.1-4.9 2.4-6 3-2.6 1.4-2.7 6.2-2.4 7.3.5 1.2 6.3 11.6 6.7 14.4.5 2.7 2.6 8.3 2.4 9.2s-3.9.2-4.9.9c-.9.7-9.5 7.1-9.5 7.1l.7.7c2.1 2.1 3.8 3.9 4.5 5 .2.4.5 1.1.5 2s5.7 4.1 7 5.9Z" class="JP37403"/><path fill="#fff" stroke="#000" stroke-miterlimit="10" d="M489.1 639.6c-2.2-5.6-12.2-10.5-17.6-10.5s-11-5.6-16-7.7c-5-2.2-12.7 1.1-15.5-2.2-2.7-3.3-3.9-9.3-9.3-10.5-5.6-1.1-26.5 0-28.7-2.7s-5.6-17.7-8.9-20.5-8.9-10.5-11-15.5c-2.2-5-1.1-5.6-7.2-9.3-6-3.9-13.2-4.4-16.6-8.9-1.2-1.5-2.6-2.6-4.1-3.7-12.3.1-45.3 7.8-48.1 4-2.5-3.2-3.3-9.9-6.5-12.9-.6-.5-1.2-.8-1.9-1.2-1.2-.6-4.3-3.1-5.1-3.4-1.3-.8-3-.7-5.3-2.1-2.4-1.4-2.4 2.6-4 0-1.5-2.6-5.1-1.4-5.9-3.7s-.2-3.5-1.2-5.6l-4 3.2s-2.1.9-4.5 2.1c0 0 3 4.9 4.4 6.7s1.2 6.2 3 10.4c1.9 4.3 7.7 3.5 9.9 5.9s-.7 6 0 7.2 5.1 12.1 4 14.6c-1.2 2.6-1.9 1.9-2.6 4.9-.7 3.1-7.7.7-9 1.2s-.9 5.6-2.4 6.7-7-.2-8.3-2c-1.4-1.8-7-5.9-7-5.9v2.4c-.6 9.1-5.7 28.2-5.9 31.3-.2 3.8 4.4-1.1 9.1-2.7 4.6-1.7 1.1 4.1 4.1 11.8 3.1 7.7 3.3 28.9 1.7 36.2-1.2 5.3 3.8 17 7.7 27.6.4-.5.7-.9 1.3-1.3 5-3.7 5-4.5 9.5-4.5s7.8 4.1 13.6 0 9.5-9.1 12.8-8.6c3.3.4 5 5.8 12.3 2.8 7.5-2.8 16.4-4.1 21.4-3.3s5.8 7.8 11.6 2.8 9.5-11.9 15.6-14 13.6-.8 15.6 3.3 1.7 21.1 8.3 22.7 11.5 7.5 13.1 9.5 5 7 9.9 9.5c5 2.5 11.5 0 14.8.8s11.6 3.7 13.6 1.7 10.3-13.6 15.6-13.6 10.3 6.6 12.3 1.7c2-5-.8-10.3 5.8-14.4 6.5-4 14.1-22 17.5-23.8-5.1-6.3-10.6-13.6-11.8-16.4Z" class="JP37406"/><path fill="#fff" stroke="#000" stroke-miterlimit="10" d="M261.4 531.5c2.6-1.4 10.5-5.2 10.5-5.2l4-3.2c-.9-2-5.1-4.6-4.9-6.9.2-2.4.2-6.9-.7-8.5s-5.3 3.8-7.9 3.9-5.6-9.1-6.3-11.5c-1.8-5.7-3.8-14.3-8.8-14.3s-12.9 2.5-17.5.2c-8.3 6.5-18.8 8.9-22.8 11.1-5 2.8 1.2 12.8 0 14.8s-11.1-9.5-16.1-5.8c-.4.4-.8.7-1.3 1.1-.7.6-1.5 1.3-2.4 2-.4.4-.7.6-1.1.9-1.2 1.1-2.5 2.2-3.8 3.5l-.2.2c-.6.6-1.3 1.2-1.9 1.8-.8.8-1.8 1.7-2.6 2.4-.6.5-1.1.9-1.7 1.4-.1.1-.2.2-.4.2 1.9 0 3.4-1.3 4.1-1.3 1.1 0 1.4 3.5.8 6.3s8.8 12.3 11.2 14.6 7.5 2.2 10.2 2.7c2.7.6 6 11.2 7.9 14.3 1.9 3.1 24.1.8 28.3 1.9 2.8.7 9.9 7 15.1 11.9s8.5-6.4 9.5-7.1 4.6 0 4.9-.9c.2-.9-1.9-6.5-2.4-9.2s-6.3-13.1-6.7-14.4c0-.8.2-5.6 2.7-7Z" class="JP37204"/><g fill="#fff" stroke="#000" stroke-miterlimit="10" class="JP37404"><path d="M132.7 428.8c-3.3 0-9.1.8-10.6-3.3-1.7-4.1-7.5-14-6.6-16.8.8-2.7 5.8 0 8.5 2.5s12.3 7.7 11.6 9.9c-.9 2.1-.6 7.7-2.8 7.7ZM98.3 396.2c-2 3.3-11.2-.2-6.9-2.7 4.4-2.6 10.2-2.8 6.9 2.7ZM78.8 400.6c-3.7-.4-8.3-5.8-6.6-9.3s.6-9.6-.6-14.3c-1.1-4.6 2.5-6 3.8-3.8 1.4 2.2 3.8 12.9 7.5 14 3.5 1.1 1.1 4.4-.6 6-1.5 1.7-.4 7.7-3.4 7.5ZM178 518.4c.8-.8 1.8-1.7 2.6-2.4.6-.6 1.3-1.2 1.9-1.8l.2-.2c1.3-1.3 2.6-2.5 3.8-3.5.4-.4.7-.7 1.1-.9.8-.8 1.7-1.4 2.4-2 .5-.4.9-.7 1.3-1.1 5-3.7 14.8 7.8 16.1 5.8 1.2-2-5-11.9 0-14.8 4-2.4 14.6-4.6 22.8-11.1-.9-.5-1.8-1.1-2.2-2-1.8-3.2-7.8-18-12.4-29.2l-.6.4-2.2-3.7-3.9 3 1.7 2.5-6.6 5.6-5.6-8-4.4 3.9 4.9 7.1-3.9 3.9-7.6-10.8-5.3 4.1.5 7.1 7.1 11s-11.5 9.7-14.9 11.2c-3.4 1.4-9.5 8.8-11.2 11.7-.6.9-1.9 2.4-3.4 3.9 5.3 4.7 11.6 10.1 13.4 11.4.9.7 1.9 1.1 2.7 1.1.1-.1.2-.2.4-.2.6-.7 1.1-1.2 1.7-1.8Z" class="JP37404"/></g></svg>