<svg xmlns="http://www.w3.org/2000/svg" style="transition:transform .15s ease-out;transform-origin:center center;transform:translate(0,0) scale(1)" viewBox="0 0 900 900"><path fill="#fff" stroke="#000" stroke-miterlimit="10" d="M609 362.3c0-1.6-2.5-7.6-2-10.3-3.1-1-6.4-2.1-8-3.5-3.9-3-12.8-6.2-14.7-7.7s-2.7-1.9-3.6-1c-.9.9-2.4 3.7-4 5.2-1.7 1.5-8.4 3.6-12.8 3.7-4.5.2-16.5-2-20.9-2.7-3.4-.5-8.6 1.6-10.2 1.9-3 .4-7.2 1-8.7.2-1.5-.9-1.9 2.7-3.4 4.6s-2.6 5.5-5.1 5.5-6.6-2.4-7.9-2.7c-1.2-.4-3.2 1-4.5 2.5s-.6 3.7-2.4 3.7-7.2.2-10.5 1.6c-3.2 1.5-14.1 3.4-16.2 5s-1.1 4.9-4.9 3.1c-3.6-1.6-7-1.7-8.5-4.6-1.7 2.6-1.1 5-1.5 6.1-.6 1.6-5.7 6.1-7 7s-1.5 5.9-1.9 7.4c-.4 1.5-4 2.1-7.7 3-3.6.9-7.5 4.6-8.4 5.5-.9.9.4 2.4 1.5 4.2 1.1 1.9 2.7.6 3.4 2.7s2.1 11.6 1.1 13.5c-1.1 1.9-1.2 2.5.2 3.4s6.2 3 7.9 5c1.7 2.1 2.4 6.7 2.6 9.2s-4.1 4.4-4.7 5.6-.4 4.6 0 6.5 4 3.1 7.5 4.6c3.4 1.5 13.6-1 16.6-.2 3 .9 3 4.2 4.2 5.5s3.9 3.1 4.9 3c1.1-.2 4.2 6.1 6.4 9.2s.9 2.7-.6 5.2-1.5 8.8-1.5 10.8-1.7 3.4-2.6 6.1c-.9 2.7-6.9 5-7.2 7.1s-.4 5.9-1.1 7.4c-.6 1.5.9 9 1.1 11.1.2 2.1-1.2 1.6-1.9 3-.5.9.5 2.9 1.4 5 6 .4 12.1.7 13.7.5 3-.6 7.7-1.2 9.8-1 2.1.2 2.6 3 8.1 1.6 5.5-1.2 28.5-7.1 28.5-9.2s-1.7-4 .2-6.2 11.1-14.2 11.5-17.8c.4-3.6 2.1-4.9 4.9-5.9 2.7-1 8.4-5.9 8.4-8s-.6-7.7-1.7-10.1-7.2-7.7-7-9c.2-1.2 2.1-9 5.4-11.6 3.2-2.5 12.3-6.5 12.2-8.2-.2-1.6-8.1-7.6-7.2-9.8.9-2.4 4-16.2 5.5-17.4 1.5-1.2 19.4-1.2 20.7-5.9s1.5-15.5 2.6-17.4c1.1-1.9 1.9-4.4 4.5-5.9s6.4-1.2 6.4-3.6-3.2-5.2-1.7-6.5c1.4-1.2 11-8 11-9.8Z" class="JP38386"/><path fill="#fff" stroke="#000" stroke-miterlimit="10" d="M656.2 284.2c-.9-1.7-3.5-5.9-2.9-7.4.6-1.4 2.6-1.4 2.6-3.6s-4.6-15.7-6-17.4 2-5.4 2-7-.9-11-1.7-11-2.2 1.4-3.1 0c-.4-.6-1-4.1-1.6-8.1-.4.2-.6.4-1.1.5-2.1.6-13.6 3.4-15.3 3.7l1.1 5.2-2.4.2-1.7-5.6s-10.2 2.7-11.7 3.7l1.7 5.5-1.5 1-2.7-5.2s-10.8 5-13.5 5.5c-2.6.4-6.9-1-7.2-3.1s-.7-4.6-.7-4.6h-1.4c0 .1-2 2.5-2 2.5l-.9 6.9-3-2.5 2.6-3.4-1.2-1.4 1.7-2.6-5.4-3.6-4.7 4.5-.7-1.2-2 1.4-1-1.1 3-2.5-1.4-1.2-2.2 1.9-1.9-2.1 1-1.5s-1-3.4-1.7-4.2-3.7-2.4-5.4-5.1c-1.7-2.7-2.1-4.5-3.1-5.4s-3.5 1.6-4-.7c-.2-1.5 1-2.4 2-3.1-5.6.5-10 1.5-11.2 2.5-1.9 1.5-1.2 7.4-3.6 9.6s-8.5 0-9.3 1.5-4.1.6-9.2 1.6-7 2.5-10.2 4.6-3.9 24.1-3.9 25.4-1.9 1.5-4.7 1.5-2.6 8.6-3 11.7 1.9 7 3.2 9.2c1.2 2.4 1.7 2.4 4.2 6.7 2.6 4.4 0 5.5-.6 8.2-.6 2.7 6.4 17.8 7.7 19.3 1.2 1.5 3.6-.6 5.7-.4s7.2 0 7.9 1.5 4.7 13.8 4.9 16.8c.2 3-.9 1.5-1.7 3.6-.6 1.5 1 7 2.7 11.3 1.5-.5 3.2-.7 5.4-.5 4.5.6 16.5 3 20.9 2.7 4.5-.2 11.1-2.4 12.8-3.7 1.7-1.5 3.2-4.4 4-5.2.9-.9 1.7-.4 3.6 1 1.9 1.5 10.8 4.9 14.7 7.7 1.6 1.2 4.9 2.5 8 3.5.1-.5.2-.9.5-1.1 1.9-1.9 10.8-5.9 12-9.8 1.1-4 4.7-13.2 6-14.2 1.2-1 6.4.2 7.7 1.6 1.2 1.5 5.5 6.1 7.2 5.6 1.7-.4 12.6-3.7 15-7 2.4-3.1 4.2-5.2 5.5-10.1 1-3.9 4-10 6.6-12.3-1.6-6.7-3.9-15.5-4-16.8-.4-2.5-6.4-2.1-7.2-3.9Z" class="JP38206"/><path fill="#fff" stroke="#000" stroke-miterlimit="10" d="M882 232.9c-.9-4.4-1.1-2.4-.9-4.4.2-2.1 1.5-2.5.4-4s-5.4-1.2-5.1-4.6 2.1-6.5 1.2-8.2c-.9-1.6-3.2-.6-3.2-3s5.4-7 4.1-10.1-6-10.7-7-12.3c-1.1-1.6-9.3-3.1-10.2-3-.9.2-3.9.9-5.7.2s-5.1-5-6.9-4.9c-1.7.2-4.9 1.6-6.2 1.6s-5.7-1.7-8.8-5.6c-.2 0-.4 0-.7.1-1.1.6-1.7 5.4-3.5 5.2-1.7-.1-1.1-1.7-2.2-.4-1.1 1.4-3 7.5-3.7 7.5s-2.5.1-2.5.1v1.9h-4v1h1.4v2.4h-4.2l-.5 1.5 1.1.9-1 1.2-2.5-1.9-1.5 1.7 3 3.4-1.4 1.1-4.2-4.4-2.2 2.9 5.4 5-7.5 7.2-1.6-1.6-3.1 3.2-1.2-.7-1.9 1.2 1.1 2.1s-5 3.4-6.4 3.5-1.1-1.4-3-1.4-2.5 2.5-3.6 2.5-4.6-.2-6.7-1.7c-2-1.5-11.7-1.7-12.7-2.6-1-.9-2.7-5.1-4.1-4.9-1.4.2-3.1 1.9-6.2.4-3-1.5-5.4-2.5-7.5-2.5s-6.5 1.6-7.5.6-.5-3.1-1.9-2.5-2.4.9-3.7.6-2.1-1.1-4.4-1.1-1.9.9-2.6 1.7c.5 2 1 3.7 1 4.2 0 1.4-9.5 16.8-11.2 19.4-1.7 2.5-.2 12.1-.2 19.7s-4.2 11.2-7.1 13.5-1.1 4.5-.2 7.4c.9 2.9 5.1 3.6 8.8 4.2s12.3-6.5 14-6.5 18.1-4 20.9-3.4 6.6 11 6.2 13c-.2 2-1.7 1.4-2.2 2.2-.4.5 2.1 10.6 4.4 19.7 2.9-1 4.5-1.9 6.9-.9 3.2 1.2 7.5 3.1 10.7 3.1s4.7 1.2 6.4.2c1.7-1 3.9-3.1 3.9-5.2s-1.1-4 1.7-4.9c2.7-.9 4.9-1.2 5.7-3.1.9-1.9 1.5-5.6 4.1-7.4 2.6-1.6 2.6-4 3.9-5.6s3.6-3.4 7.2-4.4c3.6-1 6.2 3.4 9 4.4s5.1 3.7 7 2.2 8.7-7.7 10.7-7.7 8.7 5.6 11.7 5 5.1-4.6 7.7-4.6 8.4 2.2 10.2 0 8.1-6.5 8.4-8.4-1.5-4.4-.2-6.7 5.1-7.1 5.1-8.6-5.4-3.6-5.4-5.2 4.7-4.4 5.5-6.1c.6-1.7 2.7-.5 1.9-4.9Z" class="JP38213"/><path fill="#fff" stroke="#000" stroke-miterlimit="10" d="M403.1 649.6c-1.9.4-4.5 1.9-5.6 1.9s-7.5 2.5-8.4 3.4-2.7 7.4-4.1 6.7c-1.2-.6-3-2.2-3.9-1.9s-1.5 3.1-3 2.7c-1.5-.4-3-1.6-4.7-1.5-1.7.2-12.1 2.2-13 3.6-.9 1.2 1.7 2.7-.6 4.4-1.2.9-6.7 6.1-11.3 10.5h.1c1.7 0 3.9 3.6 4.7 4.4.9.9-1.2 1.9-4.2 5.5-1.9 2.2-7.4 6-11.3 8.5 0 .9-.4 2.5.5 4.1 1.5 2.7 6.9 5 7.7 6.7.9 1.6 2.4 5.9 4.5 6.5s9.6 7.4 10.5 9c.9 1.6 4 2.7 5.7 2.1s3.4-3.4 4.5-5.6c1.1-2.4 8.7-12 12.2-13.2 3.4-1.2 8.1-13.2 8.1-16.8s1.7-4.4 6.2-4.4 12.2-1.6 12.2-4.6-1.5-18.4-1.1-20.1c.2-1.1 4.4-8.8 7.5-14.1-2.4-2.1-6.2-5.5-7.1-5.9-1.5-.7-4.2 7.7-6.1 8.1Z" class="JP38484"/><path fill="#fff" stroke="#000" stroke-miterlimit="10" d="M473 599c-1.7-3.6-6-9.2-9.3-10.1s-10.2-3.1-11.1-5.2c-.7-1.7-2.5-6.9-2.7-9.7-4.5 3.1-9.8 6.7-11.3 7.9-2.4 1.6-2.7 5.5-4.2 8s-5.7 5.6-7.9 8.8c-2.1 3.1-6.2.6-9 .6s-3-3.6-4.5-4.9-9.6 4-12.1 5.6c-2.6 1.6-5.7 0-9.3.9s-7-3-8.1-4c-1.1-1-3 .4-5.7 1.6s-22.4-1.9-24.1-1.5c-1.7.4-3.2 5.5-3.6 7.7-.4 2.2 1.7 5 3.4 8s3.9 21.8 4 24.8c.2 3-.6 3.7-2.1 4s-3.4-3.4-4.5-4.2c-1.1-.9-2.1 2.1-3.6 4s-6 .4-9.6.4-5.7-2.7-6.6 0c-.9 2.7-1.5 7-4.7 8.4-3.2 1.5-3.4 1.6-5.4 4.2-1.9 2.5.4 2.4 2.4 5.5 1.9 3.1 3 19.4 3 22.8s1.7 4 4.1 4 5.7-5.5 8.1-5.9 8.6-1.5 10.3-1.5c4.6-4.4 10.1-9.6 11.3-10.5 2.4-1.6-.2-3.1.6-4.4s11.3-3.4 13-3.6c1.7-.2 3.2 1 4.7 1.5 1.5.4 2.1-2.4 3-2.7.9-.4 2.6 1.2 3.9 1.9s3.2-5.9 4.1-6.7c.9-.9 7.2-3.4 8.4-3.4s3.6-1.5 5.6-1.9c1.9-.4 4.7-8.8 6-8.2.9.4 4.7 3.7 7.1 5.9 1.5-2.6 2.9-4.6 3.4-4.9 1.5-.9 7.7-4.9 11.5-4.9s7-.6 10.2-3c3.2-2.2 5.4-1.5 7.9-3.4 2.6-1.9 15.8-10.8 19.4-11.3 3.6-.4 5.5-2.4 5.5-6.2-.2-3.6.4-10.7-1.2-14.3Z" class="JP38488"/><path fill="#fff" stroke="#000" stroke-miterlimit="10" d="M491.7 259.9c-.6-.1-3.4-.2-6.2-.4-.2 1.4-.4 2.5-.4 3.2 0 3-15.3 8-17.1 9.5-1.7 1.5-4.7 9.2-5.7 10.5-1.1 1.2 3 7.6 3.4 9.8.4 2.2-8.5 22.2-9.3 23.7s-9.2 5.2-9.8 6.5-2.7 2.5-5.4 2.5-4.1-1.6-5.7-1.9c-1.7-.2.9 1.6 2.4 3.4 1.5 1.6-2.7 3.6-1.1 5 1.7 1.5 5.5 1.9 5.1 3.4-.4 1.5 3.2 5.5 4.1 8.8.9 3.4 4.5 6.2 7.5 9.8s5.5 9.5 7 12.8c1.5 3.4 4.9 3.4 8.7 5s2.7-1.5 4.9-3.1c2.1-1.6 13-3.6 16.2-5 3.2-1.5 8.7-1.6 10.5-1.6s1.1-2.2 2.4-3.7 3.2-3 4.5-2.5c1.2.4 5.4 2.7 7.9 2.7s3.6-3.6 5.1-5.5 1.9-5.5 3.4-4.6c1.5.9 5.7.2 8.7-.2 1.6-.2 3.1-.9 5-1.5-1.7-4.4-3.4-9.8-2.7-11.3.9-2.1 1.9-.6 1.7-3.6-.2-3-4.2-15.3-4.9-16.8s-5.7-1.2-7.9-1.5c-2.1-.2-4.5 1.9-5.7.4s-8.4-16.6-7.7-19.3 3.2-3.7.6-8.2c-2.6-4.4-3-4.4-4.2-6.7s-3.6-6.1-3.2-9.2c.4-2.4.2-8.1 1.5-10.5-2.1-1.4-4.7-2.7-5.7-2.7-1.7.5-6 3.1-7.5 3Z" class="JP38215"/><path fill="#fff" stroke="#000" stroke-miterlimit="10" d="M440.4 419.4c-1.5-.9-1.2-1.5-.2-3.4 1.1-1.9-.4-11.3-1.1-13.5-.6-2.1-2.4-.9-3.4-2.7-1.1-1.9-2.4-3.4-1.5-4.2s2.7-2.6 5.2-4.1c-1.9-2.6-3.9-6.1-3.9-8.6 0-4.9.6-9.8-.4-12.8-1.1-3-7-6.7-8.1-12.6s-.4-5.5-2.1-6.7c-1.7-1.2-4.5-6.1-3.9-9.8s1.7-6.1 1.1-7.6c-.4-.9-7.7-5.6-15.1-9.3.1 4.7 2.6 7.4 1.7 8.6-1.1 1.6-7.5 12.3-7.7 13.6s-6.9 1-7.7 1.9 1.1 3 1.5 5.2c.4 2.2-3.2 5.2-4.2 6.2-1.1 1 1.7 5.9 2.6 7.7s4.7-1 6.4 1.2c1.7 2.4 4.2 10.8 6.9 13.5 2.6 2.5 5.5 3.6 4.7 4.6-.9 1-1.7 5.5-1.7 8.4s1.1 0 2.6-.6-2.1 3.6-4.9 9c-2.7 5.5-4 10.1-4.9 12.3-.9 2.2-3.4.9-4 2.5-.4 1-2.4 6.2-4.1 10.5.7-.2 1.4-.5 2-.5 1.7 0 7.9 9.6 8.5 10.5.6.9 3.9-1.6 5.4-2.7 1.5-1 3.6-4.6 5.1-5.2s4.1 1 5.4.9c1.2-.2 4.9-3.1 5.7-3.1s2.4 1.2 3.4 1.2.4-1.9 1.1-2.5c.6-.6 9.2-4.2 9.8-4.4.2-.1.7-1.5 1.1-3-.7.1-1.1-.1-1.4-.2Z" class="JP38402"/><path fill="#fff" stroke="#000" stroke-miterlimit="10" d="M371.7 337.9c-.2 1 2.6 2.5 4.5 2.7s1.9-2.1 2.4-3c.4-.9 2.1-.4 3.9-.9 1.7-.4 3.4 3 4.2 1.5.9-1.5 4.9-1.9 7.9-2.4 3-.4 4.9-4.6 6.2-5.6 1-.9 4.7-2 6.9-2.6-.2-1-.5-2.2-.6-3.6-5.4-2.7-10.6-5.1-13.3-5.1-4.1 0-18.7.6-28.5 1 .9 1.4 1 3.1.7 4.4-.2 1.5-1.4 1.6-1 3.5.4 1.9 2.2 3.6 3.7 3.1 1.4-.5 3.1.1 2 .9-1.1.7-2.1 1-1.2 2.5.4.7.7 2.1 1 3.5 1.7-1.2 1.6-.7 1.4.1Z" class="JP38401"/><path fill="#fff" stroke="#000" stroke-miterlimit="10" d="M411.9 394.5c-1.5.6-2.6 3.6-2.6.6s.9-7.4 1.7-8.4c.9-1-2.1-2.1-4.7-4.6-2.6-2.5-5.1-11.1-6.9-13.5s-5.6.6-6.4-1.2c-.9-1.9-3.6-6.7-2.6-7.7 1.1-1 4.7-4 4.2-6.2-.4-2.2-2.4-4.4-1.5-5.2.9-.9 7.5-.6 7.7-1.9s6.6-12 7.7-13.6c.5-.9-.5-2.4-1.2-4.9-2.2.6-5.9 1.7-6.9 2.6-1.2 1-3.2 5.2-6.2 5.6s-7 .9-7.9 2.4c-.9 1.5-2.6-1.9-4.2-1.5-1.7.4-3.4 0-3.9.9-.4.9-.4 3.1-2.4 3-1.9-.2-4.7-1.6-4.5-2.7.1-.9.4-1.2-1.5 0 .2 1.7.4 3.4 0 3.9-.7.9-1.4 1-.7 2.6s2 1.9 1.1 3-3.6 1.5-4.1 3.2c-.6 1.6-2.2 2.2-3.7 3.6-1.4 1.4-3 3.6-4.7 8.4-1.7 4.7-4.9 8.5-6.2 11.6s-2.4 5.7-4.9 9.5c-2.4 3.7-6.9 5-8.4 6.7-1.6 1.6-5.2 5.5-7.9 6.1-2.6.7-5.7 5.6-8 7.2s-9.8 7.2-16.2 9.6c-4.7 1.7-16.5 5.9-23.2 8.5 3.2 5.2 7.6 8.5 8.5 9 1.1.6 3.6 7.6 3.9 9 .2 1.5 1.9 1.9 3 2.1s9-10.5 10-11.6c1.1-1 7.2-.2 9.8 0s6-7.7 7.9-11.3 4.9-5.6 6.6-5.6 6.9-1.9 7.7-1.9 3-.6 4.7.4.6 17.4.6 18.7 4.7 3.4 4.7 3.4 4.9-1.9 6.4-1.9 15.6 7.1 17.4 7.1 7.9-5.2 9-6.7c1.1-1.5 3.2-3.4 4.2-3.7 1.1-.4 1.2.9 2.6 1 .9.1 2.2-.5 3.6-1 1.7-4.2 3.7-9.6 4.1-10.5.6-1.6 3.2-.2 4-2.5.9-2.4 2.1-7 4.9-12.3 3-5.6 6.6-9.7 5.1-9.1Z" class="JP38210"/><path fill="#fff" stroke="#000" stroke-miterlimit="10" d="M452.3 500.9c-1.9-1.2-4.2-2.7-5.1-4.9-.7-1.7-2.6-3.9-6.1-4.4-.1 2.5-2.2 4.9-2.9 6.6-.9 2.4-12 3.1-13.5 5s-2.7 4.6-6.2 7.1c-3.4 2.5-5.7 1.6-8.4 2.5s-2.6-1-4.7-1.5c-2.1-.4-3.4 1.2-5.5 2.7-2.1 1.5-1.9 11.1-3.6 15.7s-7 5.9-8.7 6.1c-1.7.2-1.1-2.2-2.6-3.1s-4.5 0-7.2 0-.2 3.1-.2 5-3 13.5-4.2 15.3-1.7-.4-3-.6-1.7 1-4 1.6c-2.4.6-.6-1.9-.6-3.4s-1.9-.6-4-.4-1.7 2.2-5.5 3.1c-3.9.9-18.6-10.1-20.1-10.8-1.5-.9-10.2 0-12.2 0s-6.4 1-8.5 2.2c-2.1 1.2-7.9-9.5-9.2-10.2-1.2-.9-7.2 5.6-9.3 7-2.1 1.2-7 .9-9 .6-1.9-.2-3.4-4.9-4.7-5.6-1.2-.9-5.7-1.5-8.1-1.5s-10.7 2.7-11.5 3.4c-.9.6-7.2 12.6-7.9 14.1-.6 1.5 2.4 7.4 2.1 8.4-.2 1-11.5 3.6-13.5 4.2-1.9.6-1.7-1-2.6-2.4-.9-1.2-6.4-2.2-8.1-2.2s-3-2.5-4-3.6c-1.1-1-5.7 1.6-7.9 3.6-2.1 1.9-5.1 11.3-6.2 13s-6 .4-7.5.4-1.6.2-2.7.5c.6 1.2 2.6 2.2 2.6 3.4s1.4 2.7 1.7 4.9c.2 2.1-.1 3.9.6 3.1.7-.9 4.4-2.5 6.7-2.2 2.2.2 1.1-2.6 2.4-3.5 1.2-.9 1.7-2.5 2.4-4.2.7-1.6.4.6 2.2.6s2.2 1.5.9 2.1c-1.4.5-2.9 2.5-2.9 4.4s.7 2.7-.2 4.1c-1 1.2-5.4 3.7-3.1 3.6s4.9-2.1 6.5-.4c1.7 1.6.4 3-2 3.9-2.4 1-3.2 1.4-2.1 3.7 1.1 2.4-.1 2.5-2 1.2s-5.9-.7-6.5-.2c-.7.4 0 5-1.6 5.2-1.6.1-2.6-4.2-2.9-3s-1.4 2.7-2 2.7-2.2-.4-2.7.7c-.4 1.1-.6 4.4-2.1 5.7-1.6 1.4-1 6.9.1 6.2 1.1-.5.9-3 3.9-3s4.1 3.2 5.2 3 .7-2.5 2.2-1.4c1.6 1.1 3.9 2.7 3.4 3.9-.4 1.1-.9 1.5.9 2.5s3.1 1.9 4 1.2 1-.4 2.4.9c1.4 1.2 3.6 2.5 4.6 1s.2-6.1 1.6-7.6c1.2-1.4 1-2.2 2.7-2.2s2.1 4.7 4.1 5.5 6 .9 7.7.9 4.5-1.4 5.9-1.6c1.2-.2 0-1.2-.6-2.5s.6-2 2.2-1.9c1.7.1 2.7.4 4.7 1.2s1.7-.1 3.2 0c1.6.1 3.9.1 3.2-1s-2.7-3-1.2-3.5c1.4-.5 4 1 3.6 2-.4 1-.6 3.4 1 4.5.1.1.2.1.5.2 1.9-5.2 4.5-12.5 5.1-12.8 1.1-.6 4.5-2.5 7-1.2 2.6 1.2 16 7.1 18.1 7.6 2.1.4 8.4-2.1 10.2-3 1.9-.9 9.8 1 11.7 1.6s3.6-2.1 4.7-2.2c1.1-.2 3.9.6 4.9.6s3-.9 4-1c1.1-.2 6 1.6 7.9 1.6s5.6-2.2 9.3-4.1v-.9c.4-2.4 1.9-7.4 3.6-7.7 1.7-.4 21.3 2.7 24.1 1.5 2.7-1.2 4.7-2.7 5.7-1.6 1.1 1 4.5 4.9 8.1 4 3.6-.9 6.9.9 9.3-.9 2.6-1.6 10.7-6.9 12.1-5.6 1.5 1.2 1.7 4.9 4.5 4.9s6.9 2.5 9-.6 6.4-6.2 7.9-8.8c1.5-2.5 1.9-6.2 4.2-8 1.5-1.1 6.9-4.7 11.3-7.9 0-.6 0-1.2.1-1.6.9-1.9-.2-4.2-2.1-4.4-1.9-.2-7.2-2.4-7.9-4.2s-2.1-6.7-.9-8.8-3.4-1.6-3.4-4.9 1.1-7.4-1.2-10.8c-2.4-3.6-8.7-7.4-8.4-10.1s4.2-2.4 4.9-3.4c.6-1 1.7-4.9 4-4.9s9-2.7 12-3c3-.2 10 4.6 13.8 4.6s7.1.4 12.5.7c-.9-2.1-1.9-4.1-1.4-5 .6-1.2 2.1-.9 1.9-3-.1-1.5-1-6-1.2-8.8-5.9-.4-12.5-.9-14.2-1.6-2.6-1.2-3.7-2.7-5.6-4Z" class="JP38214"/><path fill="#fff" stroke="#000" stroke-miterlimit="10" d="M485.7 467.8c-2.1-3.1-5.4-9.5-6.4-9.2-1.1.2-3.6-1.6-4.9-3-1.2-1.2-1.2-4.6-4.2-5.5-3-.9-13.2 1.6-16.6.2-3.4-1.5-7-2.7-7.5-4.6-.4-1.9-.6-5.2 0-6.5s4.9-3.1 4.7-5.6c-.2-2.5-.9-7.1-2.6-9.2-1.4-1.7-4.7-3.4-6.7-4.5-.4 1.5-.9 2.9-1.1 3-.6.2-9.2 3.7-9.8 4.4s0 2.5-1.1 2.5-2.6-1.2-3.4-1.2-4.5 3-5.7 3.1c-1.2.2-3.9-1.5-5.4-.9-1.5.6-3.6 4.2-5.1 5.2-1.5 1-4.7 3.6-5.4 2.7-.6-.9-6.9-10.5-8.5-10.5s-4.2 1.6-5.5 1.5c-1.2-.2-1.5-1.5-2.6-1-1.1.4-3.2 2.4-4.2 3.7-1.1 1.5-7 6.7-9 6.7s-16-7.1-17.4-7.1-6.4 1.9-6.4 1.9-4.7-2.1-4.7-3.4 1.1-17.6-.6-18.7c-1.7-1-3.9-.4-4.7-.4s-6 1.9-7.7 1.9-4.7 2.1-6.6 5.6c-1.5 2.9-4 8.5-6.2 10.6 1.7 2.4 3.6 4.7 4.1 5.7 1.2 2.4 1.1 6.5 3.2 9s5.5 8 6.9 10.2c1.2 2.4 2.1 2.5 0 3.7s-1.9 4-1.9 5.5 1.9 0 2.7-.2.9 1.5.9 3.6 1.5 3.1 2.7 6.1-.2 4-1.7 6.5-2.4 9.6-2.4 11.1 5.1 4 6.6 5 .4 4.4.4 6.7 6.2-1.6 7-1.6 2.7 8 3.2 8.6c.4.6 7-4.6 8.1-4.9 1.1-.2 2.1-4.2 2.7-4.6.6-.4 13.2.2 14.7-1.2 1.5-1.5 10-5.9 11.1-6.7 1.1-.9 2.7-4.2 4.5-5.2 1.7-1 1.2.9 2.7 1 1.5.2 4.2-1.5 5.1-1.9s2.7-3.6 3.4-4.4c.6-.9 4-.4 6.2-.2 2.1.2 4.2 5.2 6 5.2s6.2-5.9 7.2-6.9c1.1-1 7.2-4 8.1-4.4s3.9 5.9 4.2 7.6c.4 1.6 1.7 2.7 4 6.1.6.9.7 1.7.7 2.6 3.4.5 5.4 2.5 6.1 4.4.9 2.1 3.2 3.6 5.1 4.9s3 2.7 6.2 4.2c1.7.7 8.4 1.4 14.2 1.6-.1-1 0-1.9.1-2.2.6-1.5.6-5.2 1.1-7.4.4-2.1 6.4-4.4 7.2-7.1.9-2.7 2.6-4 2.6-6.1s0-8.4 1.5-10.8c1.4-2.6 2.6-2.1.5-5.4Z" class="JP38422"/><path fill="#fff" stroke="#000" stroke-miterlimit="10" d="M266 527.9c.4-1.6 2.1-2.7-.6-4.6s-4.5-3.1-5.1-5.5c-.6-2.2-2.6-2.1-4.1-2.1s-6.2 0-7.7-3.4 3-9 6-10.5 3-1.2 3-3.4.9-5.5-.4-6.7-4.9-2.1-5.5-3.6c-.6-1.5-2.7-4.2-2.7-4.2s-6.2 1.5-7.2.9c-1.1-.6-1.1-1.5-2.6-1.2-1.5.2-3.9 1.9-5.7-.2-1.6-1.7-.9-6.1-3.2-10.7-.4 1.4-.7 2.7-1.6 3.4-1.9 1.2-9.5 3.5-10.7 4.4-1.1.9-5.4 4.4-5.7 5.1-.2.9 0 2.4-1.6 2.4s-.9-1.2-2.1-.9-3.2 2.2-4 3.2c-.7 1-3.7 2.4-6.9 4-.9.5-2 1.1-3 1.7 2.6 2.2 5 4.7 4.6 5.1-.4.6 0 0 1.7 3.4s3.2 13.6 3.2 15.1-1.2 2.1-2.6 3.4c.7 1.5 1.1 2.7 1 3.4-.4 1.1.6 3.6 2 4.1 1.4.4.4-3 1-4.1s.9-6.2 3.2-5.9c2.4.4 1.9.1 3.1-.5 1.2-.7 1.1 2 3 1.6 1.9-.2 3.2 0 2.4 1.4-.9 1.4.1 4.9-1.2 3.7s-3.1-3.1-4.2-1.5c-1.1 1.5-2.7 4.7-1.2 4.7s7 1.1 9 .6c2-.6 3.1-1.9 4.2-.9s.6 3.9-1 5.2c-1.6 1.2-1.9 3.4-3.1 3.5-1.2.1-6.4.7-7.7.9-1.2.1-.9 2.2.9 2.1 1.7-.1 6.2-1 8.1-1.1s3.9-.4 2.9 1-6 5-5.4 6.1 2.4 3.1.6 3.7c-1.9.7-3.1-4.1-4.1-3.5-1 .5-5.9 6.2-6.9 6.9-1 .5.2.7 2 1.4 1.7.7 3.7 2.7 3.2 4.2-.4 1.4-2.4 3-1.4 3.7 1 .9 3 3.5 2.7 4.1-.2.5-2.1 3.7-3.4 3.7s-1.1-.9-2-.5c-.9.2-3.1 1.2-3.4 2.7 0 .2 0 .5.1.9 1.1-.2 2.1-.5 2.7-.5 1.5 0 6.4 1.2 7.5-.4s4-11.1 6.2-13c2.1-1.9 6.9-4.6 7.9-3.6 1.1 1 2.4 3.6 4 3.6s7.2 1 8.1 2.2.6 3 2.6 2.4c1.9-.6 13.2-3.1 13.5-4.2.2-1-2.7-7-2.1-8.4.6-1.5 7-13.5 7.9-14.1.5-.4 2.9-1.2 5.5-2-2-3.2-3.9-7.6-3.5-8.8Z" class="JP38204"/><path fill="#fff" stroke="#000" stroke-miterlimit="10" d="M203.9 519.6c0-1.5-1.5-11.7-3.2-15.1-1.7-3.4-2.1-2.7-1.7-3.4.2-.4-2.1-3-4.6-5.1-2.6 1.5-5.5 3.4-6.7 4.5-1.9 1.5-2.2 2.2-3.9 2.2s-4.4 1.9-4.7 2.2c-.2.4-.7 1.4-1.4 1.4s-1.2 0-2 .2-1.6 2.6-3.4 3.1c-1.9.4-3.7 0-4.2 1-.6 1-.2 2.6-1.7 2.6s-6.2 1.1-7.1 1.5c-.9.4.2 1.2-.4 1.6-.7.4-1.7 1.2-2.9.9-1.1-.4-.9.5-1.9 1.6s-1.6 3.4-2.4 2.7c-.9-.5-.6-2.7-1.7-2.4-1.1.4-.7 1.9-2.2 1.9s-4.7-1.2-4.2.2c.4 1.5 3.2 2.2 3 3.5-.2 1.2.6 7-.6 7.7-1.1.7-1.1 2.7-2.4 2.7s-2-3.1-3.2-3.6c-1.2-.6-5.4-1.1-4.5-2.1.9-1 3.4-2.1 1.9-3.1-1.6-1-2.7-2.1-3.6-.9-.9 1.2.4 3.9-1 3.9s-2.1-2.1-3.1-1.5c-1 .5-1.2 2.1-2.6 2.1s-1 3.6-1.4 4.6c-.4 1 .7 3.7-1.7 3.7s-3.6.4-5.7-2-3.9-5.2-6.2-4.6c-2.4.5-2.7 2.1-2.7 3.7s.1 4.1-1.7 2.6c-1.9-1.4-3.9-3.5-5-2.5s-2.9 1.9-3.4 2c-.6.1.6 4.1.6 5.7s1.6 3.7.7 4.7c-.9 1-.4 2-2.9 1-2.4-1-5.5-4.7-6.7-6.1-1.1-1.4-1.7.4-2.6.9-.9.4-4.9 0-1.9 2.4s5.1 2.6 6.7 3.7 3.4 4.4 2.9 5.6c-.6 1.2-1.6 2.6-3.1 2.7-1.6.1-3 3.7-4.1 3.2s-4.1-7.7-5.5-8.4c-1.4-.7-3.1 1-3.1 2.6s-.7 7.9-1.6 7.4c-.9-.4-3-1.6-2.7-3.2.2-1.5.4-3.1-.4-4.2-.9-1.1-1.7-3.2-2.9-2.7-1.1.4-5.4 3.5-6.4 5.4-1 1.9-4.9 4.2-6.9 5.5s-6.2 2.4-7.2 3.9 0 3-1.6 4.4-12 6.9-13.3 8.2c-1.4 1.4-2.4 3.6-5.4 4.7-3 1.1-3.2 5.5-5 6s-1.9 4.5-4.2 5.4c-2.4.9-5.7 3.6-5 3.9 2.2.9 5.9-1.5 8.4-3.4 2.6-1.9 7.7-4.5 9.2-5.5 1.6-1-2.2-3.1-.4-4.4s5.9-2.2 7-4.1c1.1-1.9 2.4-2.6 3.9-2.5 1.4.1 2.6-.2 3.9-1.9 1.2-1.5 4.9-1.9 6.7-3.9 1.9-2.1 3.2-1.4 6-1.9 2.7-.4 7-2.1 8.7-1.6 1.7.4 1.4 4.9.2 5.5-1.1.5-3.4 1.6-3.4 2.4s3.4 2 2.1 2.7c-1.2.9-5.2-1.4-6.5-.1s-1.7 7.2-.6 7c1.1-.2 8-1.6 9.7-1.6s4.2 1.5 4.7.2c.4-1.2 1.6-3.2 3.4-3.6 1.9-.4 2.7-3.2 4.9-3.1 2.1.1 3.1 1.6 3.1.7s-.2-9 1.4-10.3c1.7-1.4 6-4.1 7.1-5.5 1.1-1.4 5-6.5 8.8-7.4 3.9-1 7.1-.4 9.5-2 2.4-1.5 5.7-5 10.5-6.1 4.9-1.1 10.1-3.1 11.8-4.9 1.7-1.9 5-5.5 8-5.7s3.2-2.6 5.7-2.6 4.2-1.4 4.1-2.6c-.1-1.2 2.9-2.5 2.9-4s.4-3.5 2.2-3.7 2.2-3 2.7-4.1c.4-1.1 2.6-2.5 3.7-1.1s3.1 4.4 3 5.4 2.6 4.4 2.6 5.5 1.4-.5 2.9-3.1c1.4-2.5.6-7.6 2.9-7.9 2.2-.2 14.5-.1 14-1-.6-.9-5.5-4.9-5-6.2.6-1.4 6.1-2.4 5.2-1.5-.9.9-2 3.4.1 3.4s4.6.7 6.1 2.6c.9 1 1.9 2.7 2.6 4.4.9-1.1 2.1-2.6 2.1-3.2Z" class="JP38442"/><g fill="#fff" stroke="#000" stroke-miterlimit="10" class="JP38203"><path d="M332.4 608.2c-1.1.2-3 1-4 1s-3.9-.9-4.9-.6c-1.1.2-2.7 3-4.7 2.2-1.9-.6-9.8-2.5-11.7-1.6s-8.1 3.4-10.2 3c-2.1-.4-15.6-6.2-18.1-7.6-2.6-1.2-6 .6-7 1.2-.6.4-3.2 7.5-5.1 12.8 1.6.5 4.2-1.4 5.1-2.1 1-.9 2.6-1.4 3.9-.4 1.2 1 7 4.1 6.2 5.7-.7 1.6-2 2.5-3.9 2.4s-7-1.1-7.5-.1c-.6 1-2 3.1-4.5 4.1-2.6 1-7.4 5.1-7.5 6.1s1.4 3.6 0 4.5-2.1 4.2-3.7 4.2-1 3.4.7 2.2c1.7-1.1 2.2-2.5 4.1-2s2.1 2.7 4.1 2.2c2-.5 4.7-1 5.4 1.4.7 2.4.1 4.4 1.6 4.5 1.4.1 5.4.7 5-.1s-1.7-2.7.2-2.5c2 .2 2.1 2.4 4.1 1.9 2-.6 7.1-2.4 7.1-4.2s2.1-2.5 2.2-.7c.1 1.9-.6 7.2-2.1 7.9-1.6.5-5.4.9-6.7 1.6-1.2.9-4.2 3.4-1.9 4.4s5.9-.1 6.4 2.5c.6 2.6 2.6 4.7 5.5 5 3 .2 2.7-1.9 3.9-1.5 1.1.2 1.6 2.1.2 3-1.2.9-.1 1.4-.1 2.7s-.4 2.6 1.1 3.1c1.6.4 1.9 2-.1 1.2s-2.6-.4-4.5-1.4c-2-1-1.6-2.2-2.4-1.5-.9.7-.7 2.5-.6 3.6s1.2 1.9-.6 1.9-7 2.2-8 2.1c-1-.1-4.2-1.1-5.2 0s-3.2 3.7-4.1 4.5-4.2 1.1-3 1.4c1.2.2 2.6.4 2.6 2.1s.4.4 0 1.6 3.1 1.6 1.7 2.4c-1.4.7-2.1 2.4-1.1 3.2 1 .9 1.6.9 2.1 2.2.6 1.4.2 5 1.6 5.6 1.2.5 1.4 2.7.4 2.6-1-.1-1.6-1.1-2.4-.9-.9.2-2.6 2.2-3.6.7-1-1.5 1.4-3.1 1.1-4.7-.2-1.6-3.7-3.9-4.9-3.2-1.1.7 1.4 3.6.9 4.5-.6.9.1 3.6-1.9 3.6s-1.1 3.7-2.9 3.6c-1.7-.1.4-1.4-.9-1.6s-5.9-1.5-4.5-2.1c1.2-.5 4.5-2.2 3.4-2.6-1.1-.4-3-.2-2-1.2s3.1-3 2.1-4c-1-1.1-3.7-.2-4.1.7s-1.7 3.9-1.9 3.4c-.1-.5-1.1-2.1-1.6-1.4-.4.7-1.1 2.1-2 .7-.9-1.4-.1-2.4-1.1-2.2-1 .1-3.2-.9-3.1-2.2s1.7-2.5.4-3.7c-1.2-1.2-1.1-1.4 0-2.4s1-3.4 0-3.7-1.9-1.2-1-2.1 3.2-2.7 2.1-3c-1.1-.1-3.2 1.5-3.7 3-.4 1.4-1.6 2.6-2.7 2.4-1.1-.2-5.9-5.6-7.4-5.4-1.6.2-1.6.9-2.6.4-1-.4-1.4-1.6-3.4-1.6s-1.4 2.7-3.5 2.7-3.9 2.4-1.9 2.4 3.6-2.4 5-2.6c1.4-.2 1.6 1.5 3.2 2.1 1.7.5 2.2 3 3.4 3.6 1.1.7 3.4 3.1 2.4 3.9-1 .9-.9 4.2.6 4.1 1.4-.1 2-3 3.2-3.6 1.2-.7.9.4 1.2 2.5s1.2 2.7 3.1 4.2c1.9 1.4 1.4 2.4 2.9 3.2 1.4.9 3.4 2.2 2.1 2.6s-2 1.6-3.6.7c-1.6-1-3.2-2.6-4.2-2.1s-1.7 2.7-3.1 2.7-5.2-1.6-4.9-.4.2 6.9-.2 7.9c-.6 1 2.6 3.5 3.9 3.9s2.5 3.7 1.9 5.5c-.7 1.6-1 3.1 2 4.4 3 1.2 4 1 4-.4s-1.6-5.4-.1-4.6c1.4.7 2 2.2 3.1 2.1s2.7-2.6 4.5-1.2c1.9 1.4 1.9 4.5 3.4 3.5 1.6-1-.1-5.1 1.1-4.2 1.2 1 2.9 3.2 4.7 3.2s7-.7 6.4.7c-.6 1.4-1.9 2.5-.6 3.9s.6 4.9-.2 4.9-2.9.4-3.7-.2c-.9-.7-1.6-2-2.7-1.6-1.1.2-1.9 2.4-2.2 2.4s-2.1-1.1-3.6 0c-1.4 1.1-1.4 3.2-2.4 3.6-1 .4-3.1 1.2-.9 3 2.2 1.6 3.6 1.2 2.9 2.6-.7 1.4-2 2.7-1.1 3.7.9 1 1.2 1.4 3.4.9 2.1-.5 1 1.1-.2 2.1s-3.7 2.7-5.2 2.5c-1.6-.2-2.2-2-2.6-1.2-.2.7-1.6 5.5-.6 4.7 1-.7 4-1.1 3.9.1-.1 1.2.2 3.6-1.2 4.2-1.6.6-.6 1.4.7 2.1 1.2.7 2.2 2.6 2.9 2 .6-.7.1-6.1.6-7.1.4-1 2.9-2.1 2.2-1.1s-1.4 4.4.1 4.5c1.6.1 3.2-.2 2.2 1s-2.2 3.6-.2 4.2 3.6 2.4 2 2.6c-1.6.2-1.9 5-3.1 4.4-1.2-.7-.2-6.2-1.9-5.2-1.6 1.1-2.1 3.4-4 3s-3.1-1.4-4.4-.7c-1.2.7-3.1 3.9-5 3.5s-2.6-3-1.7-3.6c.9-.7-.7-2.6-1.1-2.2-.4.4-1.7 5.5-2.9 5.6-1.1.1-3 1-3.9.4-.9-.5-3.4-1.1-3.1-2.4s-.4-4.6-1.1-4.4c-.7.2-4.5 2.5-5.5 2.4-1-.1 0-3.7.4-4.5s-.2-2-2.7-1c-2.4 1-1.9 3-2.2 4.9-.4 2-.2 2.5-2.4 3.4s-1.1 3.5.4 3.6c1.6.1 2.2 5.5.1 6.6-2.1 1.1-2-1.1-2.6.2-.6 1.4.4 2.6.1 3.9s-2 4.2-4 4.5c-1.9.2-5.6 1.4-5.2 3 3.2-.7 6.4-1.6 7.7-2 3.1-1 2.5-5.1 4.9-8.4 2.5-3.2.9-5.4 1-9s5.1-4.1 6.4-4 5.4 3 8.4 4.2c3 1.1 13-.2 16.9-.5 4-.2 19.6 8.7 21.1 9.5 1.4.9 9.7-.2 10.8-.2s.2.9 1.4 2.5c1.1 1.6 7.4-3.9 9.1-4.5 1.7-.5 7.4 1.6 8.8 1.6s2.2-2.7 3.7-1.6c1.4 1.1 3.1-2.2 4-2.7s7.4-3.9 8.8-4.2c1.4-.2 6.2 1.6 8.5 1.6s10.5-7.2 12.8-6.7c1.1.2 6.1 2.5 10.6 4.6-.7-1-1.2-1.7-.9-2 1.2-1 6.4-8.2 6.4-10.1s-3-20.1-4.2-21.4c-1.2-1.2-6-2.7-6.4-3.4-.4-.6-7-9.5-8.1-10.7s-3.4.2-3.4-1 3-8 1.2-10.7c-1.7-2.7-7-9.6-7-12s.4-5.9 1.5-6.5c1.1-.6 4.5-.2 7.2-1.2 1.2-.5 1.5-.1 1.5.5 4-2.6 9.5-6.4 11.3-8.5 3-3.6 5.1-4.6 4.2-5.5s-3-4.4-4.7-4.4-8.1 1-10.5 1.5c-2.4.4-5.7 5.9-8.1 5.9s-4.1-.6-4.1-4-1.1-19.7-3-22.8-4.2-3-2.4-5.5 2.1-2.7 5.4-4.2c3.2-1.5 3.9-5.6 4.7-8.4.9-2.7 3 0 6.6 0s8.1 1.5 9.6-.4 2.6-4.9 3.6-4c1.1.9 3 4.4 4.5 4.2 1.5-.2 2.4-1 2.1-4-.2-3-2.4-21.8-4-24.8-1.5-2.6-3.4-5-3.5-7.1-3.7 2-8.2 4.1-9.3 4.1-1.7-.6-6.6-2.5-7.7-2.4Z" class="JP38203"/><path d="M251.8 653.6c-1.1-1 2.2-5.4 3-6.5.7-1.1 5.1.5 3.7 1.2s-3.2 2.4-3.4 3.6c-.2 1.4-1.7 3.2-3.4 1.6ZM278.1 676.7c-1.9 0-6.1-5.4-5.5-7s3.4-4.7 4-5.9 1.6 1 4.2 2.6c2.7 1.6 5.2 3.5 4.1 5s-1.1 2.2-3 2.2c-1.9.1-3.2 3-3.9 3ZM223 694.2c-.6 0-3.7 1-5.7 2.2s-3.2-.9-3-2.1c.2-1.2.9-4.1-.4-4.5s-4.5.1-3.4-1.1c1.1-1.2 3-.4 2.6-2-.4-1.5-1.2-2 1.4-2s3.1.2 4.2 2.4.4 3.7 2.2 3.4 4-1.6 3.9-.9c-.2.9-.1 4.4-1.9 4.6ZM205.7 682.8c-1.6-.4-3.2.7-4.7 1.5-1.4.9-4.4 2.1-4.4 3.2s.7 3.5-1.4 2.2c-2.1-1.2-1.1-3.5-2.7-4.1-1.6-.5-5-2-2.6-2.1 2.4-.1 5.5 1 7 .1 1.4-.9 1.7-2.7 3.1-3.9 1.4-1.1 3.2-3.9 4.2-3.7 1 .1 4.2 7.2 1.5 6.7ZM166.9 718.8c-2.1 0-1.2-2.2-3.4-2.5s-3.9-.4-4.5-3c-.7-2.5.1-3.9-2.6-5.6-2.7-1.6-3.2-2.2-4.7-1.4-1.4.9-4 1.5-4.7-.4-.7-2-3-4.1-1.6-5 1.4-1 2-1.2.7-2.1s-2.1-2.2-.4-1.5 2 1.5 2 2.6-.9 3.2.6 2.7c1.4-.4 1.6-1.4 2.2-.1.7 1.2.2 2.1 2.2 2 2-.1 1.7-2 2.9-1.6 1.1.2 1.6 1.5 3.1.1 1.6-1.4 3.1-3.5 3.1-1.9s-.6 3-1.4 4.6c-.9 1.6-1.2 5.5 0 6.2 1.2.9 1.2-.5 3.4.1 2.1.7 2.9 1.1 2.9 2.7s1.1 3.6 2.7 3.1c1.6-.6 2.9.2 1.4.9-1.4.6-3.2-.1-4-.1ZM175.5 747.3c-3.4.4-1-3.5 2.1-3.9s7.2 0 5.9 1.4c-1.5 1.4-5.4 2.1-8 2.5ZM223 747c-1.9-.7-3.7-1-1.9-2.4 1.9-1.4 3.7-3.1 3.9-1.9.1 1.4-.6 4.9-2 4.2ZM249.8 738.5c-2.9-1.2-1.4-4.1-3-3.5-1.6.5-1.6.4-1.9-.1-.2-.5 1.4-1.5 2.4-2.1 1-.6 1.4.2 2.9-.1 1.4-.4 2.4-.7 2.4-.1s1.2 2.2.4 3.5c-.6 1.2-.4 3.6-3.1 2.5Z" class="JP38203"/></g><path fill="#fff" stroke="#000" stroke-miterlimit="10" d="M326.6 778.4c-2.2 0-7.1-2-8.5-1.6-1.4.2-8 3.6-8.8 4.2-.9.5-2.6 3.9-4 2.7-1.4-1.1-2.2 1.6-3.7 1.6s-7.1-2.2-8.8-1.6c-1.7.6-8 6.1-9.1 4.5-1.1-1.6-.2-2.5-1.4-2.5s-9.3 1.1-10.8.2c-1.4-.9-17.1-9.7-21.1-9.5s-14 1.6-16.9.5c-3-1.1-7-4.1-8.4-4.2-1.2-.1-6.2.4-6.4 4s1.5 5.7-1 9c-2.5 3.2-1.9 7.4-4.9 8.4-1.4.5-4.5 1.2-7.7 2 0 .1.1.2.1.4 1.1 1.9 1.9 1.1 5 1 3.1-.1 1.7 5.6 3.4 3.6 1.7-2 1.4-3.9 2.1-5.9.7-2 .7-3.9 2.9-2.7 2.1 1.1 3.2 1.4 2.9 0s-5.7-2.4-2.9-4.9 3.9 0 3.4-1.4c-.4-1.4-2.6-4.5-2.4-7.2.1-2.7 1.4-3.6 2.2-3.6s2.4-1.6 3.9-1.1c1.4.5 3.7 1.5 4.7 2.7s.6 6.1 1.9 5-.1-4.5 2-3.7c2.1.7 5.2 2.7 4.1 3.6s-1 2.4.9 2.5 2.6-1.2 3-3c.4-1.6 1.7-2 3.1-1.4 1.4.5 2 1.2 3.7.2s4.7-1.6 3.9-.1-2.4 5.6-.6 5.1c1.9-.4 3.1-3.5 3.9-4.1.7-.5 2.9-2 3.4.1.6 2.1-2 9.7-1.4 11.3.6 1.5 1.4 2.1 1.2 3.5s-1.7 5.9.4 6.7 2.4-.1 2.4-1.5 0-2.6 1.4-2.5 1.1 3.1 2.2 3.9c1.1.9 4.9 2.4 4.9 4.1s-1.6 5.7-1.6 7.7 3.7 6.1 4 7.1.9 2.4 1.6 1.9.9 1.2 2.6 1.2 1.9-.5 2.4.7c.6 1.2 2.2 2.2 2.9 1.4s2.1 1.1 3.4.9.7-2 2-.7 2.6 2.4 3 3.5c.4 1.1 3.4 1.4 3.6 3.1.1 1.6.1 3.1-2 1.9-2.1-1.2-4.9-3.5-6.2-3.6-1.4-.1-2.1-1.9-2.7-1.4-.6.4-.7 4.6-2 4.5-1.2-.1-2.2-3.7-3-3.4-.7.4-1.2 2.2-2.1 1.4s-.7-2.6-2.2-3.1c-1.6-.4-5.5-.2-4.7.2.9.5 1.4 1.9 0 1.9s-5.2-1.9-4.1-2.1 2.9-1.2 2.4-1.9c-.4-.5-2.1-1.1-1-1.2s3.9-.1 2.1-.9c-1.7-.7-4.9-.5-4.1-1.4.7-.9 2.6-2 3.4-2.2.9-.2-1-.5-1.7-2.2-.7-1.6.1-3.1-.7-2.7-.9.2-3.2 3.5-3.9 3.5s-2.2 0-2.2 1.6.1 4.5-1.2 4.5-6.1-.5-6.2.6 6.5 1.2 6.5 3-1.1 3.4.4 3.4 1.2-.9 2.2 0 7.1 1.4 7.1 2.4-1.4 1.6-1.4 2.4.9 2.1.1 2.4c-.7.2-4.1-.7-3 1.1 1.1 1.9 1.6 1.1 1.1 1.9-.4.7-.4 1.9-2 1.9s-2.4-1.5-3-1.1-2.6 4.2-3.9 3.2c-1.2-1-.9-2.1-1.7-2-.9.1-3.7.7-4.2 0-.6-.7-1-1.9-1.9-1.1s-3.4 2.7-1.2 3.2c2.1.4 3.9.5 4.5 2.1.7 1.5 1.4 7.4 2.7 7.4s2.2-1.1 1.9.2c-.4 1.4-1.9 3.2-1.1 4.4s.2 2.2 0 2.6-2.2 2-.4 2.4c1.9.4 6.1 1.6 7.4 2.6s4.2-2.6 6.2-2.2 7.7.9 8.1-.7c.4-1.5.9-4 2.1-4.5 1.2-.4 3.9 0 2.6-1.9s2.1-2.2-.4-2c-2.6.2-14.8 4.4-15.2 1.5-.4-2.7 4-4.2 6.1-5.1 2.1-1 1.7-3.2 4.1-3.2s5.2.2 4.4-.9-3.9-1.9-4-4.2c-.1-2.4-1.6-.4-3.1-.2-1.6.1-3.6-2.5-3.6-3.9s2-1.1 4.6-1.9c2.6-.7 3.4 1.1 4 .6.6-.6 2.6 2.1 3.9 1.6 1.2-.4 4.5-3.1 4.5-.5s-2.1 3.2.2 5.1c2.4 2 3 3.5 5.2 3s5 .7 7.5 1.6c2.6 1 4.9.5 2.4-1.4-2.4-2-3.2-2.4-5.9-3.1-2.6-.7-4-.9-4-3.2s.4-2 2.1-2.1c1.7-.1.4 1.6 3.1 1.4s3.4-1.6 4.1-2.1c.7-.4 2.1.1 3.2 2s2 4.9 3 3.6-.2-2.2 1.7-2.1 3.5-2 4.7-2.2c1.1-.2 6.2.7 4.9 1.2s-5.9 2.5-6.7 3.6c-.9 1.1-1.1 4.6.2 5.4s1.7 1 2 2.6 3.5.7 3.5 1.6-1.7 3-1.2 4c.4 1.1 1.6 2.4 3.7 1s2.7-1.6 4.7-2.5c2-.9 9.3-3.4 11.1-4.1s8.5-2 9.7-1.9h.1c-.1-2.1-.2-4.9.2-6.7.9-3.1 12.8-2.4 14.7-5 1.9-2.7-.4-10.2 1.2-11.1 1.7-.9 3.2-3.6 2.7-6.2-.4-2.7-2.1-2.4-2.6-6.1-.4-3.7-2.1-4.2-1.2-6.9.9-2.7 1.1-.2.9-2.7-.2-2.5-2.7-5.9-3-9.8-.2-4-.9-12.8-2.4-15.3-1-1.7-5.4-5.5-7.2-7.9-4.5-2.1-9.5-4.2-10.6-4.6-1.6-.1-9.8 7.2-12.1 7.2Z" class="JP38506"/><g fill="#fff" stroke="#000" stroke-miterlimit="10" class="JP38205"><path d="M755.5 281.7c.6-.9 2-.2 2.2-2.2s-3.5-12.3-6.2-13c-2.9-.6-19.2 3.4-20.9 3.4s-10.3 7-14 6.5c-3.7-.6-8-1.4-8.8-4.2-.9-2.9-2.6-5.1.2-7.4 2.9-2.2 7.1-5.9 7.1-13.5s-1.5-17.2.2-19.7 11.2-17.9 11.2-19.4-.4-2.2-1-4.2c-1 1.1-2.1 2.4-3.6 2.5-2.9.2-9.6 3.5-11.3 3-1.7-.5-3.9-4.9-5-3.7-1 1.1-1.4 3.4-1.7 2.2-.4-1.1 1-5.6-.6-6s-5.2-1.4-5.2.2 3.4 6.2 2.2 6.2-3.7.6-3.9-2.2-1.4-5.7-3.1-5.7-3.9 1-3.9 2.1-2.1 3.1-4.9 3.9c-2.6.7-10.1 1.6-11.6 1.2s-1.6-3.5-3.2-2.9.4 3.1-1.2 3-3.4-1.1-3.9-.7c-.5.4 7.1 5.4 3.7 5.1s-5.4.2-4.7 2.1.4 2.4-.4 1.6c-.9-.6-.9-2.1-1.7-.9s-2.4 4.2-2.4 1.9-1.7-4.6-.6-6.2 1.5-4.4-.6-2.7-5.7 4.9-4.2 8c1.5 3.1 3.9 3.4 2.7 3.7-1.1.4-4.1 1.2-4.1 2.1s1.2 2.7-.6 2.5-2.6-.6-3.6-.6-1.2 1.1-2.5 2c.6 4 1.2 7.5 1.6 8.1.9 1.4 2.2 0 3.1 0s1.7 9.2 1.7 11-3.5 5.4-2 7c1.4 1.7 6 15.2 6 17.4s-2 2.2-2.6 3.6c-.6 1.4 2 5.6 2.9 7.4s6.9 1.4 7.1 3.6c.1 1.4 2.4 10.1 4 16.8.6-.6 1.4-1 1.9-1 3-.2 8.7 3.6 13.5 7.6 4.7 4 9.3 3.7 12.3 1.9s13.5-10.1 15.8-10.5c2.4-.4 15.8 6.2 16.6 5 .9-1.2 2.6-5.9 5.5-7.1 3-1.2 9.2-2.1 11.1-1.6 1.9.4 7.2 4.9 12.3 3.6 1.2-.4 2.4-.6 3.4-1-2.2-9.1-4.6-19.2-4.2-19.7Z" class="JP38205"/><path d="M711.6 206.7c-1.5.2-.1-2.7-1.9-2.7s-4.5-1.4-4-2.5c.6-1.1.1-2.5 1.6-3.2 1.4-.7 2.1.5 3.7.4 1.6-.1 2.7-2 4.4-1.4 1.7.6-.7 2.5-.2 3.4.4.9 1.6.9.7 2.5-.9 1.6-3.4 3.5-4.4 3.6Z" class="JP38205"/></g><path fill="#fff" stroke="#000" stroke-miterlimit="10" d="M440.4 489.2c-2.4-3.4-3.6-4.4-4-6.1-.4-1.6-3.4-8-4.2-7.6-.9.4-7 3.4-8.1 4.4s-5.5 6.9-7.2 6.9-3.9-5-6-5.2c-2.1-.2-5.5-.6-6.2.2-.6.9-2.6 4-3.4 4.4-.9.4-3.6 2.1-5.1 1.9s-1.1-2.1-2.7-1c-1.7 1-3.4 4.4-4.5 5.2s-9.6 5.2-11.1 6.7-14.1.9-14.7 1.2-1.7 4.4-2.7 4.6c-1.1.2-7.7 5.5-8.1 4.9s-2.4-8.6-3.2-8.6-7 4-7 1.6 1.1-5.6-.4-6.7c-1.5-1-6.6-3.6-6.6-5s.9-8.6 2.4-11.1 3-3.6 1.7-6.5c-1.2-3-2.7-4-2.7-6.1s0-3.7-.9-3.6c-.9.2-2.7 1.6-2.7.2s-.2-4.2 1.9-5.5 1.2-1.5 0-3.7-4.7-7.7-6.9-10.2-1.9-6.7-3.2-9c-.6-1-2.4-3.5-4.1-5.7-.5.5-1.1.7-1.6.7-2.6-.2-8.7-1-9.8 0s-9 11.7-10 11.6c-1.1-.2-2.7-.6-3-2.1-.2-1.5-2.7-8.4-3.9-9-.9-.5-5.2-3.7-8.5-9-2.5 1-4.2 1.7-4.9 2.2-2.1 1.6-7.1 4.4-8.7 5.7s-4.1 1-6.9 2.4-3.4 2.4-4.5 2.2c-1.1-.1-3.2.2-3.2 1.4s.6.5-.2 2.6-1.9 2.2-4.7 4.5c-2.9 2.2-5 3.1-5 5s-1.7 4.9-4.4 7.4-4 4.7-5 5.5-2.4 1.5-2.4 3.9-1 4.2-2.4 4.9c-.7.4-1 1.6-1.4 2.9 2.4 4.6 1.6 9 3.2 10.7 1.9 2.1 4.2.4 5.7.2s1.5.6 2.6 1.2 7.2-.9 7.2-.9 2.1 2.7 2.7 4.2c.6 1.5 4.2 2.2 5.5 3.6 1.2 1.2.4 4.6.4 6.7s0 1.9-3 3.4-7.5 7.1-6 10.5c1.5 3.4 6.2 3.4 7.7 3.4s3.4-.2 4.1 2.1c.6 2.4 2.4 3.6 5.1 5.5 2.7 1.9 1.1 3 .6 4.6-.4 1.2 1.5 5.6 3.1 8.8 2.4-.7 4.9-1.4 6-1.4 2.4 0 6.9.6 8.1 1.5s2.7 5.5 4.7 5.6c1.9.2 6.9.6 9-.6 2.1-1.2 8.1-7.7 9.3-7 1.2.9 7 11.6 9.2 10.2 2.1-1.2 6.6-2.2 8.5-2.2s10.7-.9 12.2 0 16.2 11.7 20.1 10.8c3.9-.9 3.4-3 5.5-3.1 2.1-.2 4-1 4 .4s-1.7 4 .6 3.4 2.7-1.9 4-1.6 1.7 2.5 3 .6 4.2-13.5 4.2-15.3-2.6-5 .2-5 5.7-.9 7.2 0 .9 3.4 2.6 3.1 7-1.5 8.7-6.1c1.7-4.6 1.5-14.2 3.6-15.7s3.4-3.1 5.5-2.7c2.1.4 2.1 2.2 4.7 1.5 2.6-.9 4.9 0 8.4-2.5 3.4-2.5 4.7-5.2 6.2-7.1s12.6-2.7 13.5-5c.7-2.2 4.4-5.9 2-9.2Z" class="JP38207"/><g fill="#fff" stroke="#000" stroke-miterlimit="10" class="JP38201"><path d="M422 333.4c.6 1.5-.4 3.7-1.1 7.6-.6 3.7 2.1 8.6 3.9 9.8s1.1.9 2.1 6.7c1.1 5.9 7 9.6 8.1 12.6s.4 8 .4 12.8 2 6 3.9 8.6c1-.6 2.1-1.1 3.1-1.4 3.6-.9 7.2-1.5 7.7-3 .4-1.5.6-6.5 1.9-7.4 1.2-.9 6.4-5.2 7-7 .4-1.1-.2-3.4 1.5-6.1-.1-.1-.1-.2-.2-.5-1.5-3.4-4.1-9.2-7-12.8-3-3.6-6.6-6.5-7.5-9.8-.9-3.4-4.5-7.4-4.1-8.8.4-1.5-3.4-1.9-5.1-3.4s2.6-3.4 1.1-5-4.1-3.6-2.4-3.4 3.2 1.9 5.7 1.9 4.7-1.2 5.4-2.5 9-5 9.8-6.5c.9-1.5 9.8-21.4 9.3-23.7-.4-2.2-4.5-8.6-3.4-9.8s4.1-9 5.7-10.5c1.7-1.5 17.1-6.5 17.1-9.5s2.7-12.6.9-17.4-5.1-5.6-8.7-8.2c-3.6-2.5-9.6-5.6-10.2-8.8-.6-3.1 1.9-16.9 0-21.2s-12.1-3.1-15.8-4.4c-3.6-1.2-4.1-3.7-6.9-3.6-2.7.2-4.7 2.1-7 .9-1.2-.6-6.1-5.4-11.3-10.2-1.5 1.5-2.4 4.5-4.7 4.6-3 .1-4.9-.5-7.4 1.5-2.6 2.1-4.5 4.5-6.7 4.6-2.1.1-1.4 2 .4 3.5 1.9 1.5 2 3.2.6 5.9-1.4 2.6-1 7.7-1 10.2s-1.1 12.7-2.9 15.2-2 4.4-2.4 6.5-2 3.5-2.1 5.9.6 4.9-.9 7.1c-1.4 2.2-7.7 5.4-11.3 5.1-3.7-.1-9.3-3-10.8-2.7-1.4.1 0 6.5-1.6 9s-4 3-4.1 5.1c-.1 2.2-1.6 3 0 3.7 1.6.9 2.7 1 3.6 2.4.9 1.4.1 2.7 2 3.5s1 1.4-.4 1.4-2.7.5-1 2.4c1.7 1.9 1.1 1.1.7 2.6-.4 1.5 0 2-1.2 2.1-1.2.1-4 1.1-3.7 3.2.2 2.1 1.2 4.2.1 4.7-1.1.5-2.9 1.6-2.9 2.6s-5 .4-4.7 1.4 3.1.4 2.9 2.1c-.2 1.6-1.9 2-.9 3.4 1 1.4 2.4.4 1.4 1.6s-3 2.6-1.7 3c1.2.2 2.7.7 2.7 2.1s-2 2.6-3.2 2c-1.2-.7-2-2.1-2.6-1.4-.6.7.6 3.5 2.1 4.7.4.2.6.6.9 1 10-.4 24.6-1 28.5-1 6.6.5 27.9 13.5 28.5 15ZM283.4 293.8c-1.9 1-3.6-5.5-.6-5.5 3 .1 2.1 4.7.6 5.5ZM341.3 270.4c-1.9-1.2-4.5-4.2-3.2-5.2s4.5-1 4.5 1.2-.6 4.4-1.2 4ZM354.2 278.3c-2.7-1.6-4.1-3-1.7-6.7s2.7-5.5 2.1-8.2c-.6-2.7-2.7-3.7-4-3.6-1.2.2-3.9 3.4-3.6.6s3.6-5.6 4.9-5.6 5.6 1.2 6.9-.2-1.1-4 1.1-5.5c2.1-1.5 5.5-.4 6-1.6.4-1.2 6.2-2.5 5.1-1.2s-2.4 5.9-3.4 5.9-2.7.6-1.9 2.5 2.7 4.6.4 4.6-2.7 1.9-3.9 1.5-1.9-1.5-3.2-.6c-1.2.9-3.9 6.2-2.4 7.6 1.5 1.2 6 2.5 5.1 3.1-.9.6-2.4 2.5.4 3.1 2.7.6 5.5 2.1 3.4 2.5-2.1.4-7.5-.6-8.5.6-1 1.4-1.7 2-2.7 1.4ZM294.8 241.3c-1.5.1-4.4-.1-5.5 1.1s-2.9 3-3.4 3-1.4-1.1-2.2-.5c-.9.5-1.2 1.2-2.2.9s-1.6-1.5-2.6-1.5-3.1-.9-2.2-1.5c.9-.7 2.1-2.7 3.1-3.1 1-.2 2.6 1.6 3.2 1.2.7-.4 1.9 1.5 3.7.6 1.9-1 7-2.2 8.1-2.4 1-.4 1.4 2 0 2.1ZM288.2 224c-.7-.5-3.1-3.5-2.1-4.7s2.9-.9 2.9-3-2.4-3.5-2.2-4.2c.1-.7.9-.7.2-1.5-.6-.9-2-1.4-1.2-2.2s3.7-.2 4.6-1.1.4-1.4 1.7-1c1.2.4 1 1.6 2.1.5s1.7-3.5 4-3c2.2.5 3.6.5 2.7 1.6-.9 1.1.2 3.4-1 3s-2.1-1.4-2.6-.1c-.4 1.2-.1 5.4-1.2 5.7s-2.7 2-2.7 3.2-.6 1.5-2 2.1c-1.5.7-1.5 5.9-3.1 4.7ZM272.7 216.6c-2 .2-1.9 2.4-2.9 2.5s-3 .7-3.7 1.2c-.7.6-2.6.2-.9-.9 1.7-1.1 2.7-1.6 2.7-2.7s-4.1-3.2-2.1-4.5 3.4-2.4 3.4-3.4.1-.4 2.1-.9c2-.4 3.5-.2 5.2-.2s3-.9 2.4.2-.7 2.7-2.1 2.7-2.1.1-2.1 1.4c.1 1.4 1 4.1-2 4.5ZM315.6 185c-1.2.5-4.7.1-3.1-.9s3.6-3.1 3.7-1.9c.1 1.4 1 2.2-.6 2.7ZM339.7 197c-1.1-1.4-2.7-1.1-3.2 1-.6 2.1-1 2.1-2.2 3.4s-2.7 4.7-4.6 4.7-3.6-.4-4.7-1-3.9-.1-2.7 1.4c1.1 1.5.6 3.4-.2 4.5-.9 1.1-5.1 3-5.9 4.2s-.6 3.5-3.5 3.7c-3 .2-5.9 0-4.4 2.1 1.4 2.1 6.1 4.2 7 5.7.9 1.5.2 4.6.9 5.6s2.1 3.2 3.7 2.7c1.6-.4 1.2-3.6 3.1-5s4.4-3 7.4-2.6c3 .2 5.7 1.5 6.4.7.7-.9 2-1.5 3-1.4 1 .1 1.1.1 1.4-1.9s.6-6-.9-6-5.1 1.5-5.1-1.4 0-3.4 1.2-3.1 1.1-.9 2.2-1.4c1.1-.6 4.4.2 4.4-1.5s-3.1-5-3.1-7.2c.1-2.5.7-6.7 0-7.5ZM342.4 196.3c-1.2-.7-1.4-.4-.2-1.2s1.4-1.6.2-3.5-.2-3 1.2-1.6c1.6 1.2 3.1 1.4 2 3.1-1.1 1.6-1.7 4.2-3.2 3.2ZM357.8 228.7c.6-3.9-1.7-6.6-2-8.7s-4.4-3.5-5.1-3.5.4 2.2-1.2 2.5c-1.7.2-4.9 3.4-4.9 5.5s2.2 6.5 4.4 6.2c2.1-.1 2-3.9 4.9-3.6 2.9.4 3.6 4.1 4 1.6ZM369.2 221.3c-1.9.5-5.7.1-6.2-1.2-.6-1.4-2.7-2.5-.7-2.5s3.1.7 3-.5-1.4-3-.1-2.7c1.2.1 1 1.6 2.6 3.5 1.5 1.6 2.6 3.1 1.5 3.5Z" class="JP38201"/></g><g fill="#fff" stroke="#000" stroke-miterlimit="10" class="JP38356"><path d="M712.2 100.7c-2.5.2-3.1-4.9-1.9-5.6s3.4 2 3.5 3.1c.2 1.1-.2 2.4-1.6 2.5ZM685 109.2c-1.4-1.4-.1-3.1-2.1-3.9-2-.9-3.7-2.2-1.7-3s3.4 2.1 5.5 2.1 3.4-1.1 4.4-.1 1.1 3.2-.4 3.7c-1.5.6-4.6 2.1-5.6 1.1ZM664.7 101.9c-1.2.2-3.5 1.6-4.6-.5-1-2.2-2-7.1.1-7.7 2.1-.5 2.9-1.1 3.2 1.2.5 2.4 2.5 6.7 1.2 7ZM608 71.8c-2.4-.5-3.4-.9-4.4-.7-1 .1-2.9 1.2-3.7.2s.9-4.7 1.9-6 1.2-.6 3.4-1 2-.6 3.7 1.1c1.7 1.6 2.6.4 1.7 1.6-1 1.4-1.4 5-2.6 4.7ZM590.9 66.2c-1.5-2-.7-13 0-14s2-3.2 2.9-5.2c.9-2 3.7-4.5 5.1-4.2s1.6 2.7 3.1 4.6c1.6 1.9 5.4 6.9 5.7 8 .2 1.1-.9 2.5-2.4 3.5-1.6 1-2.6 4.1-5.4 4.9-3 1-8.1 3.9-9.1 2.5ZM614.2 75.1c-1.6-1.7 2.9-.2 2.9-2.4s-2.2-3.5-.6-5.9c1.7-2.4.6-4.1 1.1-6 .6-2 1.7-2.5 3.1-3.1 1.4-.5 2.7 1.1 2.7 2.4s0 3.7-1.6 4.1c-1.6.2-2 4.2-1.9 5.1.1 1 .6 2.5 0 3.2-.5.6-4.4 4-5.7 2.5ZM616.2 57.1c-1.1.1-3 2.6-5 .5s-2.2-5.5-1.4-6.1c.9-.7.1-.6-1-2.5-1.1-2-2.2-4.6-1.4-5.7.9-1.1.9-2.1 2-1.9s2 2 2.4 3.5c.4 1.5 2.6 1.5 3.1 3 .6 1.4 3 4.1 2.6 4.4-.4.2-.7 1.1-.2 2.4.2 1.2-.1 2.4-1.1 2.5ZM644.5 43.3s-1.1 6-1.9 7.4c-.7 1.4-6.6 1.9-7.2 3.5s-.1 7-1.4 8.1c-1.2 1.2-7.5 7.6-7.9 5.5-.2-2.1 1.1-9.2 1.2-10.2s-2-1.9-2-2.9-.2-4.5 1.4-5.5c1.7-.9 4-3.7 4.9-6 .9-2.2 2.6-3 5.1-4.7 2.5-1.6 3.7-3.6 4.4-2.1.6 1.5 2.2 6.2 3.4 7Z" class="JP38356"/></g><g fill="#fff" stroke="#000" stroke-miterlimit="10" class="JP38202"><path d="M559.4 210.4c-.7-1.2-3.2-5.5-3-6.9s-6.7-10.2-7.2-13.3c-.6-3.1-4.2-8.8-4.9-10.8-.6-2.1.7-1.1-1.9-4.4-2.6-3.2-4.9-5.6-5.2-8.7-.4-3.1-1.1-2.7-2-3.6-.9-.9-1.4-1.6-3-2.6s-2.7 1.4-3.9-.1-1.2-2.6-3.9-6.1-1.6-3.9-2.4-6.7c-.9-2.7-5.4-4.7-6.2-8.2-.9-3.5-1.4-8.2-3-8.5-1.6-.2-.7 4.6-2.9 3.9-2.1-.7-1.2-4.6-3.2-5.9s-6.5-3.1-8-6.1c-1.4-3.1-1.4-6.9-3.4-7.2s-2.2 7.6-3.4 8.5c-1.1 1-4.4 3.1-4.9 4.2-.4 1.1-.1 2-2.1 2s-3.4-2.6-4.1-2.1c-.7.5-13.1-.4-11.2 1.4 1.9 1.9 3.4 1.4 2.4 2.4s-1 2.6 1.4 2.2c2.4-.4 2.1-2.1 3.6-1.9 1.4.2 3.9 1.5 6 1.5s2.4-.7 3.5 1.1 2.6 4.7 2 6.6 2.1 2.1 1.6 4.1c-.6 2-.7 2.2-3.1 2.1-2.4-.1-5.2.7-3.6 2.4 1.7 1.6 1.9 3.6 1.2 4.6-.6 1 .1 5.4-1.1 6.6s-2.2 2.7-4.1 2.2c-1.9-.6-4.6-3.6-5.7-3.5s-2.9 3.4-5 4.1c-2.1.7-5.1 2.5-7.1 2.6s-5.7-1-6.7-.7c-1 .2-3.4 2.1-3.7 4.4-.2 2.2-.6 3.6-3.5 3.7-3 .1-5.7 3.4-6.4 5.1-.7 1.9-1.2 1.9-3.1 2.1s-4 3.1-6.1 4.6c-2.1 1.5-2.7 3-5 3.6-.5.1-.9.5-1.2.9 5.4 4.9 10.2 9.6 11.3 10.2 2.4 1.2 4.2-.6 7-.9s3.2 2.4 6.9 3.6 13.8.2 15.8 4.4c1.9 4.2-.6 18.1 0 21.2s6.6 6.2 10.2 8.8c3.6 2.5 6.9 3.4 8.7 8.2 1.5 3.6.2 10-.5 14.1 2.9.1 5.6.2 6.2.4 1.5.2 5.7-2.5 7.5-2.7 1-.1 3.6 1.4 5.7 2.7.4-.7.9-1.2 1.5-1.2 2.7 0 4.7-.2 4.7-1.5s.6-23.3 3.9-25.4 5.1-3.6 10.2-4.6 8.4-.2 9.2-1.6c.9-1.5 7 .9 9.3-1.5 2.4-2.2 1.7-8.2 3.6-9.6 1.2-1 5.7-1.9 11.2-2.5.7-.6 1.1-1.1.9-1.6ZM620.9 129.9c-1.7 0-3.6-.4-2.7-1.5.9-1.1 2.4-2.5 3.9-2.5s-.5 4-1.1 4ZM606.9 128.3c-3.4-.7.1-3.9 1-3.5.9.4 1 3.9-1 3.5ZM521.7 132.8c-1.7.2-2.4-6.5-.4-6.5 1.9 0 2.9 6.1.4 6.5ZM512.1 125.7c-1.5-1 1.2-3.4 3.7-3.2 2.4.1-2.4 4-3.7 3.2ZM470.1 100.6c-1.6-.1-2.2-2.6-.7-3.6 1.6-1 5.2-2.2 5.7-1 .5 1.2-3.5 4.7-5 4.6ZM488 102.5c-3.6-.2-2.2-1.4-3.9-1.1-1.6.2-2.2.9-3.1-.1-.9-1-1.1-2.1.2-2.1s2.9-.2 2-1.5c-.9-1.2-3.2-5-1.7-6 1.6-1 3.6.5 4.5 3.5 1.1 3 3.7 7.6 2 7.4ZM488.2 92.6c-1.4 0-1.9-.5-.1-1.6 1.7-1.1 1.4-2 2.2-1 .9.9-.5 2.6-2.1 2.6ZM492.9 98.1c.1-1.2-4.6-.1-3.2.7 1.2.7 3.1.7 3.2-.7ZM500.8 65.2c-.1-1.7-2.4-4.1-3.9-3.5-1.4.5-1.2 2.7-2 3-.7.1-2.9 1.1-1.6 1.4 1.4.2 7.6.6 7.5-.9ZM527 127c-1.5-.9.2-2.4-3-3-3.2-.5-6.5-.7-6.7-2.6-.1-2 2.6-2.6 3.4-3.5.9-.9 1.9.9 3.5 1.6 1.7.9 4.1.7 3.6 2.4-.5 1.7 1.6 6.5-.7 5.1Z" class="JP38202"/><path d="M551.5 79.2c-1.1-1-3.6-4.1-2.7-6.1.9-2.1-.1-6.2 1-8.5s-.6-5 .4-6.1 2-.9-1.6-1.5c-3.6-.7-4.1-2.2-4.7-5.5s-4.1-7.4-4.2-10.1c-.1-2.6-2.4-5.1-3.4-6.1s-6.1-4.4-7.1-3.7c-1 .6-1.1 1.4-3.2 1.4s-3.1 4.5-5 4.5-5.9-1.9-6.9-.9-2.6 3.5-1.2 5c1.2 1.5 2.4 2.5 2.4 4.2s-.7 3.9-1.6 3.9-5-.9-6.4-.2c-1.4.5-3.9 3.9-3.4 5 .4 1.1 3.5 3 4.5 2.2 1-.7 4.2-2.6 5.5-3 1.2-.2 2.2-1.1 3.1 0s2 3.5 1.2 4.2-2.1 1.5-.7 2c1.4.4 2.1 1.2 1.7 2.4-.4 1.1-3.7.7-3.2 1.6.4 1 3.4 1.2 3.1 2s-2.1 4.6-1.9 5.6.1 6.9-1 6.6-1.4-2.2-2.1-1.5-.7 2.2-1.7 1.1-.4-3.4-1.2-2.7c-.9.5-3.2 1.4-4.2 1.1-1-.2-2.4-1-2.7 0-.2 1 0 3.7-1.7 3-1.7-.9-4-1-4.4-.2s-1.6 3.6-2.7 5.6c-1.1 2-3.1 3.2-3 4.2.1 1 .7 3.2 1.6 2.1.9-1.1 2.2-3 2.6-1.6.2 1.2.9 3.9.4 4.6-.4.7-1.2 1.5-.9 2.1.4.5 1.2 1.2 2.2.5s1.6.9 3 .9 4.7-1.1 6.4-1.9c1.7-.7 5.2-3.4 8.1-3.5s2.9-2.4 5.2-3.6c2.4-1.2 8.2-2.5 11-2.5s4.6 1.1 6.7.7c2.1-.4 4.4-1.6 6.4-2.7s2.4.7 4-.4c1.9-1.7 4.1-2.9 2.6-4.2ZM561.9 101c-1.2-1.2-2-3.7-4.9-3.7s-15.1-3.1-17.8-2c-2.7 1.1-2.1 4.9-3.7 5.7s-2.9 1.4-2.2 3.4 2.6 5 4.2 4.9c1.7-.1 3 .4 3 1.6s-.2 2.7 1 3.6c1.2.9 2.4 4.4 1.9 5.6-.6 1.2-2 2.6-3.1 2.6s-2-2-1.4-2.6c.6-.7-.1-1.6-1.6-2-1.4-.2-2.7 1.1-2.7 2.2s-.6 4.2-2.4 5c-1.9.9-1.6 2.2-1 3.2.6 1 1.7.9 1 2.5s-2.4 5.2-1.1 5.2 3.4-.4 2.6.7c-.9 1.1-.6 3.5-2.7 4.9s-2.7 3.6-1.2 4.5c1.4.9 5 .5 7.5.4 2.6-.1 2.4 2.2 3.7.7 1.2-1.5 0-2.4 1.6-2.7 1.6-.4 1.6 0 2.7-1.9s.7-2.5 2.9-3.5c2.1-1 2.7-1.5 3.4-3.4.7-1.9 3.2-5.5 5.5-6.1 2.2-.7 4.1-1.5 5.9-4.5 1.7-3 2-5.5 3.6-6.6s7-.5 8.5-2.5c1.6-2 2.4-4.5 3.4-5.2 1-.7 2.7-5.6 1.1-4.9-1.6.7-2.4 1.4-6.2 1.4s-3.1 2-4.9 2.2c-1.7.2-5.4-.1-6.1-1.9-.6-1.5.6-6.1-.2-7Z" class="JP38202"/><path d="M567 102.4c-1.4 0-3.2-1.6-1.6-3 1.7-1.2.6-3.1 3-3s3 1.4 2.1 2.7c-.7 1.6-2 3.2-3.5 3.2Z" class="JP38202"/><path d="M579.3 97.5c-1.6-.7-2.9-3-4-4.7-1.1-1.9-2.6-4.2-4.7-3.6-2.1.5-1.7 3-3.7 4.7-2 1.9-2.6 2.5-3.6 2s-3.1-9.7-5-9.3-3.2 3.1-5 1.5c-1.7-1.5-3.4-4.1-2.6-4.6.9-.5 5.9-1.1 6-3 .1-1.9-6-4.4-4.1-6.9s2.9-4.5 5.1-3.2c2.2 1.2 2.6 5.2 5.1 3.9 2.6-1.2 3.6-3.4 5.5-4.4 2-1 4.7.9 6.2-.2 1.6-1.1 1.2-4.5 3-3.2s2.1 3.4.9 4.5c-1.2 1.1-2 1.4-1 3 1 1.5 0 5.1 1.2 5.7 1.2.5 3.7 2.5 5.1 2.4s4.1 1.2 6 1 2.9-3.2 4-3.1c1.1.1-1 1.5-.7 2.7.2 1.2 1.6 1.6.1 2.1-1.4.4-3-.9-4.1 0s-2.1 2.5-3.4 2.5-2.9.1-2.2 1.2.2 2.5 2.6 3.1c2.2.5 2.9 3.5.7 3.5s-5.2-.2-6 .2c-.5.7 0 2.9-1.4 2.2ZM460.7 105.9c-3.4-1-4-2.2-5.5-5-1.6-2.7-3.2-2.2-3.4-4.1s2.1 0 3.1-.9 1.6-1.5 3.2-.5c1.7 1 2.4 2.6 4 2.2 1.6-.4 5.1-1.5 5.1-.4s1 4.5 0 4.5-3.4-1.5-4.4-.6c-1.1 1-.7 5.2-2.2 4.7Z" class="JP38202"/></g></svg>