<svg xmlns="http://www.w3.org/2000/svg" style="transition:transform .15s ease-out;transform-origin:center center;transform:translate(0,0) scale(1)" viewBox="0 0 900 900"><path fill="#fff" stroke="#000" stroke-miterlimit="10" d="M304.7 528.5c.8-.2.2-5.4-2.2-7.1-2.6-1.8-7.5 2.2-11.5 6-4 3.7-8.5 7.5-11.5 6.6-2.8-.8-6.3 4.3-8.3 4.9s-5.1-1.2-7.7-2.2c-2.6-1.2-4 1.8-5.4 3.2-1.4 1.4 1.4 7.1 1.2 8.3s-7.7-2.6-8.3-1.7c-.6.8-3.2 10.3-4.3 14.6-1.2 4.3-4.9 4-6.3 4s-1.5-1.2-2.7-2.8c-1.3 2.6-3.1 5.1-4.7 6.3-3.4 2.2-7.7 0-13.1 0s-4.6 2.6-7.1 4.9c-2.6 2.2-5.4 2-7.5 5.1-2 3.2-2.6 5.1-6.3 6.3s-2.2 3.2-2.8 7.1c-.6 4-1.7 9.1-4 14-2.2 4.9-.2 8.1-.6 11.1-.2 3.2-5.7 6.9-4.6 10.1 1.2 3.2 1.4 4.9 1.7 6.6.2 1.7 3.2 2 6 2.8 2.8.8 3.4 4.6 5.1 7.5 1.7 2.8-6.3 3.2-2 5.1 2.6 1.2 8.6 1.1 12.9.7-.1-1.9.2-5.8 2.1-7.2 2-1.5 1.2-5.8 2-8.1.8-2.2 2.4-8.9 4.1-10.1 1.7-1.2 8.8-9.2 12.2-9.9 3.4-.7 7.2 1.1 8.5.4 1.4-.7 2 1.7 4.3 1.1 2.2-.7 3.8-.7 5.7.8 1.9 1.5 1.7 2 2.4 4.1.7 2 1.4.7 3.9 1.5 2.6.8 2.6 3 4.1 1.4s-.1-3.3-.7-5.8c-.5-2.6 2-12.7 3.3-14.9 1.2-2.2 4.5-3.3 4.3-5.3-.1-2-3.6-3.6-1.7-5.1s5.4-6.5 7.2-7.7c1.7-1.2 4.3-2.4 7.9-3.4 3.6-1.1 3.3-3.1 4.5-5s3-9.9 4.9-12.7c1.9-2.7 3.8-8.3 5.7-9.2.1 0 .2-.1.2-.2-2.7-2.7-5.1-5.8-5.1-6.6-.1-1.8 13.4-18.9 14.2-19.3Z" class="JP39428"/><path fill="#fff" stroke="#000" stroke-miterlimit="10" d="M316.7 347.2c4.6 2.2 19.2 5.7 21.2 7.7s2.8 3.7 3.7 6c.8 2.2 3.4 2.6 9.5 3.2 3.6.4 12-5.2 18.1-9.8-.6-3.2-.6-5.9.5-6.9 3.2-2.6 10.3-6.6 10.1-8.9s-2.6-5.1-1.4-6.3 10.9-11.1 10.9-13.1-8.5-5.1-8.5-7.1-1.4-6.6-2.6-10.9c-1.2-4.3-5.4-10.5-6.6-9.7s-5.1 1.8-8.5 1.2c-3.4-.6-7.5-1.8-9.1-.8-1.7.8-7.1 4-7.7 6.3-.6 2.2 3.4 14.9 2.2 14.9s-4.9 2.2-6.9 4.6c-2 2.2-2.6 10.3-3.4 9.5-.8-.8-18.6-9.1-19.4-8.9-.8.2-4.9 1.7-4.6 3.4.2 1.7 4.6 4.9 3.4 5.4s-5.1 7.5-5.1 9.1.1 4.5-.4 6.4c1.4 2 3.2 3.8 4.7 4.6Z" class="JP39402"/><path fill="#fff" stroke="#000" stroke-miterlimit="10" d="M327.3 489.4c-2.6-2-4.6-6.3-8.1-8.1-3.4-1.7-9.7-2.8-9.5-4.9s4-17.2 3.2-19.4c-.8-2.2-8.3-7.7-8.1-10.5s2.2-5.1.6-6.6c-1.8-1.4-6.6-1.2-7.1-.2-.6.8-3.7 6.6-6.3 7.1-2.6.6-11.5 4.3-15.4 2.2-4-2-7.7-7.5-9.7-7.5s-1.2 2.2-3.2 3.2c-2 .8-2.6 1.2-4.3-.8-1.7-2-10.5-10.5-10.5-13.5s0-2.8-2.2-2c-2.2.8-6.3 3.7-6.3 1.2s-1.4-3.7 2-4.3 4.3-1.2 4.3-2.8-5.1-5.4-6.9-5.4-2.8.8-5.4 2.6c-1.8 1.2-6 3.8-9.6 5.6 2.1 1.8 3 10.4 3 12.2s-2.6 8.3-4.3 9.1c-1.7.8-10.3-.6-11.5-.6s-10.9 14.3-12.6 16.3c-1.7 2-7.7-5.1-8.9-7.1s-2-5.7-4.3-9.5c-2.2-3.7-10.3-6.3-13.7-7.1-1.8-.5-7.8-2-13.5-3.6 0 1.2-.1 2.4-.1 3.3 0 4-1.9 6-5.6 6.4-3.7.5-16.9 9.7-19.5 11.6-2.6 1.9-4.7 1.1-7.9 3.4s-6.4 3-10.3 3-10.1 4-11.6 5c-.6.4-2.5 3.3-4.5 6.9 1.8 1.8 3.6 3.9 4.5 5.4 2 3.4 4.3 9.5 5.2 10.3.8.8 10.9.2 10.9.2s-1.8 7.7-3.4 9.7c-1.8 2 2.2 9.5 2.6 11.5.2 2-1.2 5.1-1.4 6.9-.2 1.7 4.6 2.6 9.1 3.2 4.6.6 9.5 4.6 10.3 5.4s2.2 0 4.3-.2 4-.2 5.4 1.8 1.2 8.1 0 9.7c-1.2 1.7 2 3.2 3.7 4 1.7.8 3.2 3.4 4.3 4.9 1.2 1.4 6.9 1.4 10.5 2.2 3.7.8 7.7 4 9.7 4s4.9-5.1 6.3-5.7 5.7-.2 6.6-.2 6.9-7.5 8.3-7.7 9.7.8 12.3.8 1.7 1.4 1.7 2.8 2 2.8 3.7 3.7c1.7.8 5.7-1.7 6.9-1.7s4.6 3.2 6.9 4.9c2.2 1.8 11.5 2.8 11.7 5.1.1 1.2-.7 3.9-2.1 6.6 1.2 1.5 2.2 2.8 2.7 2.8 1.4 0 5.1.2 6.3-4s3.7-13.7 4.3-14.6c.6-.8 8.1 2.8 8.3 1.7s-2.6-6.9-1.2-8.3 2.8-4.3 5.4-3.2c2.6 1.2 5.7 2.8 7.7 2.2s5.4-5.7 8.3-4.9c2.8.8 7.5-2.8 11.5-6.6 4-3.7 8.9-7.7 11.5-6 2.6 1.7 3.2 6.9 2.2 7.1-.8.2-14.3 17.4-14.3 18.8s2.4 3.8 5.1 6.6c1.5-1.5 1.3-7.9 4.4-10.5 3.3-2.7 5.3-7 8.3-8.3 3-1.2 9.5-1.4 9.6.4.1 1.7-1.5 4.1.7 5.7s2 2 1.5 3c-.5.8-.8 2.2.4 2 1.2-.1 1.4-2.4 3.4-2.7 2-.4 4.3.4 2.7-1.7-1.5-2-2-1.5-2-3.1s.5-5.7 1.4-6.5c.8-.8-1.5-1.7-3-3.4s-2.7-5.8-1.9-7.2c.8-1.4 3.9-4.1 6.5-4.6s5-1.9 6.9-1.9-2.4-2.4-1.7-3.9 2-3.4 2-6 .8-1.1 3-3.1c2-2 1.4-2.7 4.1-3.4s1.5-1.7.4-3.1-3.3-2-1.9-3.1c1.3-.9 4-1.7 2.6-2.8-1.8 1.2-4 2.2-5.9 2.2-3.8-.2-7-.6-9.5-2.5Z" class="JP39412"/><path fill="#fff" stroke="#000" stroke-miterlimit="10" d="M364.7 284.3c.6-3.4.2-5.4 1.4-6s2.6-.4 4.9-.5c-.5-.6-.8-1.2-1.2-1.8-1.4-3.2-2.2-6.3-3.7-6s-2 4.9-4.3 2.8c-2.2-2-6.3-4-6.3-6.3s-1.2-5.1-5.4-7.7-4-2.2-7.5-1.4-4.3 5.7-7.7 5.7-4.4-.9-7-1.8c-.6.8-1.8.7-3.6 2.1-2.8 2.2-3.4.8-2.6 4.9.8 4-.2 14-1.7 16-1.4 2-4.3-2.6-5.7-3.4-1.4-.8-2 1.7-3.2 3.4-1.2 1.7-2.8 1.4-4.6 2-1.7.6-.6 2.8-.6 4.6s-2.8 3.4-4.6 4.9c-1.7 1.4.2 3.7.2 5.4s-10.1 11.1-13.5 13.1c-3.4 2 .6 4.9.6 8.1s-2.2 2.8-1.4 5.1 0 5.1 0 7.7 1.8 4.3 3.2 6c.9 1.1 2 3.9 2.8 7.2 3 .2 6.9 1.1 8.3 1.1 2.2 0 4-4.9 5.7-5.7 1.7-.8 2 1.2 3.4 0s1.2-6 1.2-7.7 4-8.5 5.1-9.1c1.2-.6-3.2-3.7-3.4-5.4-.2-1.7 3.7-3.2 4.6-3.4.8-.2 18.6 8.1 19.4 8.9.8.8 1.4-7.1 3.4-9.5 2-2.2 5.7-4.6 6.9-4.6s-2.8-12.6-2.2-14.9c.6-2.2 6-5.4 7.7-6.3s5.7.2 9.1.8c1.2.2 2.5.2 3.7.1-.8-3.1-1.8-6.6-1.5-8.4Z" class="JP39403"/><path fill="#fff" stroke="#000" stroke-miterlimit="10" d="M418.5 302c-1.4-4.9-8.3-8.5-10.5-10.5s-8.1-3.2-8.1-5.1-.6-6-.6-8.1-2.2-2-2.2-.2 0 11.1-2.2 11.5c-2.2.2-3.4 1.2-4.6-1.2-1.2-2.2-.8 0-3.7.8s-2.8 1.4-4-.8-2.2-3.2-5.1-5.4c-2.2-1.8-4.6-3.1-6.3-5.1-2.2.1-4.4.2-4.9.5-1.2.6-.8 2.6-1.4 6-.4 1.8.7 5.4 1.7 8.4 2.2-.1 4.1-.7 5-1.3 1.2-.8 5.4 5.4 6.6 9.7 1.2 4.3 2.6 8.9 2.6 10.9s8.5 5.1 8.5 7.1-2.5 4-5.1 7c.6.7 1.2 1.3 1.9 1.3 2 .2 17.4-4 20.2-5.4 2.8-1.4 5.7-.8 7.5-1.2 1.4-.2.7-3.1 1.1-4.5-.2-1.3-.1-2.6.7-3.8 2.1-3.3 4.4-5.6 3-10.5Z" class="JP39410"/><path fill="#fff" stroke="#000" stroke-miterlimit="10" d="M566.6 297.1c-.8-4.6-3.7-9.7-2.6-12.9 1.2-3.2 3.2-7.5 1.2-6.3s-4 3.7-3.4 1.4c.6-2.2 3.4-8.1 2-7.5-1.4.6-3.4 6.9-3.7 2s-4-10.1-5.1-15.4c-1.2-5.4 4-29.5 2-29.7-2-.2-11.1 3.2-12.3.8-1.2-2.2 2.2-3.2-2-3.4s-9.7 2-10.9-.6-8.1-20.8-11.1-23.7c-2.2-2-5.3-2.2-7-3.1-6.5 7.8-12.7 8.6-12.2 11.1.6 2.8 2.8 10.5 1.7 13.1-1.2 2.6 7.5 7.7 8.9 10.1 1.4 2.2 0 8.1 0 9.1s-3.2 2.6-3.7 5.4c-.6 2.8 7.5 19.2 8.5 22.3 1.2 3.2 3.4 1.2 5.4 1.7 2 .6 2.8-.6 5.1-1.4s-.8 2.2-1.2 4.3c-.2 2 1.7 2 4 2.8 2.2.8 4 1.4 4 3.2s-1.4.6-4 .6-1.7.6-1.2 2.2c.6 1.8 2.8.8 4.3.8s.6 2.6.6 5.1-6 8.1-8.3 13.5c-1.3 3.1-2.6 8.1-3.8 12.6 7.1-2.1 21.9-5.9 25.6-7 2.2-.6 9.6-1.8 17.1-2.8 0-1.9.2-3.4.6-3.9 1.1-1.1 2.5.1 1.5-4.5Z" class="JP39204"/><path fill="#fff" stroke="#000" stroke-miterlimit="10" d="M287.5 335.2c0-2.6.8-5.4 0-7.7s1.4-2 1.4-5.1-4-6-.6-8.1 13.5-11.5 13.5-13.1-2-4-.2-5.4c1.7-1.4 4.6-3.2 4.6-4.9s-1.2-4 .6-4.6c1.7-.6 3.4-.2 4.6-2 1.2-1.7 1.7-4.3 3.2-3.4 1.4.8 4.3 5.4 5.7 3.4 1.4-2 2.6-12 1.7-16-.8-4-.2-2.6 2.6-4.9 2.8-2.2 4.3-.6 4-5.4s-2.8-11.7-1.4-13.7 5.4-3.4 5.1-5.1c-.2-1.7-2.8-11.5-2.8-16.3s-1.7-8.3-2.2-9.5-9.1-6.3-11.5-7.7c-2.2-1.4-10.1-3.2-13.1-7.7-3.2-4.6-4.6-7.1-4.3-9.7.1-1.5-1.8-3.8-4.1-5.7-2.4 2.7-9.1 7.6-10.3 8.6-1.5 1.3 1.8 4.3 1.8 6.6s-3.9 2.1-6.4 3.7c-2.6 1.5-3.4 4-4.5 6-1.1 1.9-1.3 13.1-2.6 17.8-1.3 4.7-19.3 4.7-20.8 6s-4.7 15.4-5.6 17.8 7.1 8.4 7.3 10.1c.2 1.8-9 5.8-12.2 8.4-3.2 2.6-5.1 10.5-5.3 11.8s6 6.9 7.1 9.2 1.8 8.2 1.8 10.3-5.6 7.1-8.4 8.2c-2.8 1.1-4.5 2.4-5 6s-9.6 15.9-11.6 18.2c-1.9 2.4-.2 4.3-.2 6.4s0 .1-.1.2c5.6 1.9 11.7 3.9 12.7 3.9 1.7 0 7.5-1.2 9.1-1.4s.2 6 2 6.6c1.7.6 3.4 4 5.1 6.9 1.7 2.8 6.3 3.4 8.3 3.4s4.9 5.4 7.5 5.4 6.6-5.1 9.5-6.6c2.8-1.4 8.5-2.2 10.5-2.6 2-.2 4.3-3.7 6.3-4.9.7-.4 2.1-.4 3.7-.2-.8-3.2-1.9-6-2.8-7.2-1.7-1.9-3.3-3.7-3.3-6.2Z" class="JP39387"/><path fill="#fff" stroke="#000" stroke-miterlimit="10" d="M578.1 267.7c2-1.4 8.9-3.2 8.9-1.7s.8 4.3 4 2.2c3.2-2 12.6-5.2 14.9-6.3 2.2-1.2 8.3-7.1 10.1-6.9 1.7.2 3.7 3.2 6 2.8 2.2-.2-1.7 7.7 2.6 4.9s14.3-14.3 16-16.3c1.8-2 2-.8 3.7-4.3 1.7-3.4-.2-6.3 2.8-8.1 3.2-1.7 16-8.1 17.8-8.1s1.7 6.6 4.9 5.4c3.2-1.2 4.9-4 7.1-1.4s2 6.6 4.3 6c2.2-.6 3.7 1.8 6.3.6s8.9-3.7 12.9-7.7 13.1-12 14.6-14.6 7.5-4.6 8.9-7.5c1.4-2.8 1.4-9.5 6.3-11.5s8.3-.2 9.7-1.4 2.2-1.7 4.6-1.7 3.4 1.7 6 1.4c2.6-.2 4.6-3.7 9.7-3.4.8 0 1.9.1 3 .1-.1-.6 0-1.1.1-1.7.2-1.5.8-1.3.2-5.1-.6-3.9-5-12.7-5-18.5s2.8-12 .8-14.3c-1.9-2.4-3.9-.8-5-5.2-1.1-4.3-6.6-9.2-7.1-11.1s2.6-4.7 1.7-5.3c-.8-.6-2.4-6.6-3.2-6.6s-16.3 5-17.8 3.9-5.3-11.6-6.3-11.4c-.8.2-14.3 4.5-15.4 6-1.1 1.5-2.6 18.7-7.3 18.8-4.7.2-4.7-1.3-7.3.2-2.6 1.5-5.6 4.7-7.9 4.3s-4-1.3-5.3-3.2-2.4-4-4.3-3.7c-1.5.4-7.6-.1-10.1-1.2-4.4 1.5-.9 2.8-2.1 4.5-1.4 2-5.7 6.6-7.7 10.3s-1.2 4-4.3 5.1c-3.2 1.2-5.7 5.1-6.6 8.1-.8 2.8-1.4 4-4.3 5.4-2.8 1.4-3.4 2.6-4.6 4.3-1.2 1.8-.6 1.2-3.7-.6-3.2-1.7-4 2.8-8.1 6-4 3.2-2.6 5.4-5.4 7.1-2.8 1.7-5.4-3.2-7.7-5.1-2.2-2-6.3 1.2-8.1 2s-8.1 5.7-9.1 8.9c-1.2 3.2-3.4 7.7-8.5 10.1-5.1 2.2-12 6.6-14 8.9-2 2.2-3.4-.8-7.7-4-4.3-3.2-12.9-12.6-16-14.9-3.2-2.2-4.3-2.6-6.3-2-1.3.4-13 6.5-20.5 10.4.5.2.9.6 1.3.9 3.2 2.8 10.1 21.2 11.1 23.7 1.2 2.6 6.6.2 10.9.6 4.3.2.8 1.2 2 3.4s10.3-1.2 12.3-.8c2 .2-3.2 24.3-2 29.7s4.9 10.5 5.1 15.4c.2 4.9 2.2-1.4 3.7-2s-1.4 5.1-2 7.5c-.6 2.2 1.4-.2 3.4-1.4h.1c4.4-5.2 9.7-11.7 10.2-12.8.8-2.1.6 3.9 2.6 2.5Z" class="JP39212"/><path fill="#fff" stroke="#000" stroke-miterlimit="10" d="M186.3 445.6c2.2 3.7 3.2 7.5 4.3 9.5 1.2 2 7.1 9.1 8.9 7.1 1.7-2 11.5-16.3 12.6-16.3s9.7 1.4 11.5.6c1.7-.8 4.3-7.5 4.3-9.1s-.8-10.9-3.2-12.3c-2.2-1.4-8.1-4.6-9.5-6.6s-6.3-2.6-7.5-5.4 0-12.3-.8-13.5-4-5.4-5.4-4.9c-1.4.6-6.9 6.3-8.9 3.7-2-2.6-4.9-6.6-4-8.5.8-2 2.2-8.3 3.7-9.5 1.4-1.2 10.1 1.2 10.5-1.2.6-2.2-2-3.7 1.2-6 3.2-2.2 4.6-2.6 3.7-3.7-.8-1.2-3.7-2-2.2-3.7 1.4-1.7 2.8-8.5 2-12.3-.4-1.7-1.8-5.9-3.3-10.2-5.8 1.7-11.6 3.1-14.1 3.7-5.6 1.3-6-1.5-8.2-1.7-2.1-.2-6.9.5-9.8 1.1s-22.5-1.3-26.4-1.3-10.9-5-14-4.7c-3 .2-9.7 3-12 3s-3.4 3.9-4 5c-.6 1.1-4.5.6-5 3.4s6 6.6 8.4 10.3 1.3 7.9 1.3 11.1 4.7 2.8 3.4 5c-1.3 2.1.2 7.1.8 9s6 4 7.9 4.3 3 2.6 2.1 4.5c-.8 1.9 1.8 9.5 2.6 11.6s7.7 4.5 11.1 5.3c3.4.8 7.7 6.6 9.5 10.3 1.3 2.8 1.3 7.7 1.2 11.7 5.6 1.5 11.7 3.1 13.5 3.6 3.6 1.1 11.6 3.7 13.9 7.3Z" class="JP39405"/><g fill="#fff" stroke="#000" stroke-miterlimit="10" class="JP39205"><path d="M446.2 331.8c-2.2-1.2-7.1-4-7.5-6-.2-2-3.7-12.6-6.6-12.6s-16 2-17.2 2.6.2 4.9-1.4 5.1c-1.7.2-4.6-.2-7.5 1.2-2.8 1.4-18.4 5.7-20.2 5.4-.7-.1-1.3-.7-1.9-1.3-2.6 2.8-5.2 5.7-5.8 6.3-1.2 1.2 1.2 4 1.4 6.3s-6.9 6.3-10.1 8.9 3.4 21.2 4 22 4.3-2.8 5.7-4c1.4-1.2 9.1-1.2 11.1-2s5.7-5.4 8.1-6.6c2.2-1.2 4.6 3.2 6 3.2s10.1-6.9 12-8.9c2-2 3.7-4 4.9-4s11.7 1.4 12.3 4c.5 2-.5 9.7-.2 14.3h.7c2.6 0 4.5-.4 4.6-2.6.1-2.2-.7-3.6 1.4-4.6 2-1.1 2.7-1.8 4.3-.7 1.5 1.1 2.6 2.6 3.6 1.9 1.1-.7 3.3-3.8 6-4.9.7-.2 2.1-.7 3.7-1.4-2.6-4.5-5.6-9.6-6.9-11.1-2.5-3.1-2.1-9.4-4.5-10.4ZM441.4 376.6c.7-.4 4.1 1.7 5.8.4 1.7-1.4 1.5-3.4 2-4.6.5-1.2.4-3.1-.5-3.1s-1.7 1.1-2.6.1c-.8-.8-.8-1.5-1.7-1.4-.8.1-1.5 1.2-1.5-.4s-1.5-3.9-2.7-3.3c-1.2.7.4 3.4-1.2 4.3-1.3.7-2 2.6-3.1 2.5 1.4 1.7 3.4 3.8 5.3 5.6q0 .1.1 0Z" class="JP39205"/></g><path fill="#fff" stroke="#000" stroke-miterlimit="10" d="M205.1 690.1c-3.2-1.4-8.1 0-11.5.8s-2.2 2.8-3.4 4.3c-1.2 1.4-2.6-.6-3.4-1.4s-2.2-.8-3.2-.6c-.8.2-8.1-12.9-9.1-14.3-1.2-1.4-3.4-1.7-4.9-.6-1.4 1.2-4.6 10.9-5.4 13.1-.8 2.2 0 2 0 3.2s-2 2.8-2.8 4 2 5.4 2.6 6.9.8 6.3.6 7.7-.8-.2-3.2 0c-2.2.2-4 3.2-6 4.6-2 1.4-4.9.6-7.5.6s-3.2 1.2-5.1 2.2c-2 1.2-4.9 1.4-7.5 1.4s-4 3.2-4.9 4.3c-.8 1.2-7.7-2-11.1-2.2s-10.3-8.9-11.7-9.5c-1.4-.6-2.2-.6-4 .2s-2.8 0-4.3 1.4-1.8 8.1-2.2 10.9c-.6 2.8 1.4 7.5 1.4 9.5s-4.3 3.4-7.5 4.6c-1.5.6-3 2.6-4 4.6 1.4 2.4 3 5.4 3.8 7.1 1.2 2.6-.8 4.6-1.4 6.3-.6 1.8-1.7 4.3-.6 6 1.2 1.7 3.4-.6 4.9 3.4s1.7 2 3.2 5.4c1.1 2.5 1.9 11.4 2.4 16 .2-.1.6 0 1.1.5 1.2 1.2-.1 3.8 1.7 4.1 1.9.4 5.3.5 6.6-1.4 1.4-1.9 2.4-2 4.9-2.2 2.4-.1 2.7-1.4 2-2.6-.7-1.2-.4-2.6.8-1.9 1.2.7 3.3 1.1 4.3-.1 1.1-1.2 1.2-2.2 3.1-2.7 1.9-.5 1.9-2 1.9-3.9s.5-4.5 2-5 3 1.8 3.6 1.2c.7-.5 1.5-3.6 3.1-4.3 1.5-.7 3.3-2.6 4.9-2.4 1.5.1 4.6 1.5 4.9 3.1.1 1.5 1.1 3.4-1.1 5.1-2 1.7-3 3-2 3.6.8.7.8 3.4 2 2.7 1.2-.7 6.9-.5 5.3-2-1.5-1.5-3.3-2.4-2-3.6 1.2-1.2 2.7-3.9 1.7-5.3-1.1-1.4-1.7-2-.7-2.4 1.1-.4 3.8-.5 5.4-1.2s5.4 1.2 7.6 1.2 8.5.5 8.9 1.9c.4 1.4-1.4 3.3.7 3 2-.4 3.1-1.2 4.3-.7s2.2 1.9 2.2.7-.4-3.4.8-3.4 4.5 1.7 3.4 2.7c-1.1 1.1-2 2.7-1.1 4.9 1.1 2 1.2 4.3 2.7 4.1s4.3-4.9 5-6.4c.7-1.5 1.7-.4 3.8.8 2 1.2 1.9 1.1.1 1.5-1.8.5-2.4 2.2-3.6 3.8s-3.1 5.7-.7 6 5-.4 4.5.5-3.4 3.3-1.1 3.6c2.4.4 4.5-1.2 4.3 1.4-.1 2.6-2 4.9-2.2 7.2-.1 2.4-.1 4.9 1.7 4.1 1.9-.7 4.6-.1 6.9-.4 2.2-.1 2.6-.7 3.8-.1 1.2.5 2.4 1.1 4.1 2.7 1.7 1.7.8 2.4 4.6 2.4s7.7.5 8.5-1.7c.8-2.2-1.4-4.3-1.5-6.7-.1-2.4-3.3-9.6-2.4-11 .8-1.4 1.5-3.1.1-5.4s-7.2-10.8-7.2-12.7 1.1-1.8-.4-2c-1.4-.4-5-3.4-6.9-3.6s-6.5-4.1-8.4-4.1-2.7-.5-3.8-1.9c-1.1-1.4-6.7-6.9-6.7-9.2s.1-4.9 2.2-4.9 4.1-1.7 2.6-3.8c-1.5-2-4.1-1.9-2.6-3.9s-.4-4.5-.4-6.4-3.3-4.6-1.8-6.9c1.5-2.2.8.4 3.1-.1 2.2-.5 1.7-3.1 3.4-3.6s6 .4 8.1 0 2.7-2.4 4.6-1.4c1.9 1.1 1.8 2.7 3.4 1.5 1.8-1.2-.7-2.4.8-4.3s2-4.1 4.3-5.1c2.2-1.1 2.6-2 2.6-3.8s-1.4-5.8-1.4-8.8-.8-5.3.1-6.9c.2-.4.4-.7.4-1.1-2 0-3.8-.1-4.5-.2-1.2-.5-1.2-1.7-4.4-3.1Z" class="JP39209"/><path fill="#fff" stroke="#000" stroke-miterlimit="10" d="M155.1 673.8c-2 0-7.5 1.4-10.3 1.4s-6-2.8-8.1-1.8c-2 1.2-.8 2-4 2.2-1.9.1-7.5.2-11.6.2 0 3.9-2.2 8.9-3.3 10.7-1.2 2-1.4.6-2.8.6s-2 .8-2.6 2-2.8-2.2-4.9-.8 1.8 8.9 2 10.3-3.4 3.2-4.6 3.4-7.1-4.9-8.3-6-2 2.6-4.3 4-2.2-.8-2.2 3.4S97 713.9 97 716s.5 2.2 1.1 3.8c.2-1.5.7-3 1.2-3.4 1.4-1.4 2.6-.6 4.3-1.4s2.6-.8 4-.2c1.4.6 8.3 9.1 11.7 9.5 3.4.2 10.3 3.4 11.1 2.2.8-1.2 2.2-4.3 4.9-4.3s5.4-.2 7.5-1.4c2-1.2 2.6-2.2 5.1-2.2s5.4.8 7.5-.6 3.7-4.3 6-4.6c2.2-.2 2.8 1.4 3.2 0 .2-1.4 0-6.3-.6-7.7s-3.4-5.7-2.6-6.9 2.8-2.8 2.8-4-.8-.8 0-3.2c.7-2 3.3-9.9 4.9-12.4-2.1-.4-4.5-.8-4.9-1.3-.7-.8-7-4-9-4Z" class="JP39427"/><path fill="#fff" stroke="#000" stroke-miterlimit="10" d="M239.8 555.4c-.2-2.2-9.5-3.4-11.7-5.1-2.2-1.8-5.7-4.9-6.9-4.9s-5.1 2.6-6.9 1.7c-1.7-.8-3.7-2.2-3.7-3.7s.8-2.8-1.7-2.8-10.9-1.2-12.3-.8c-1.4.2-7.5 7.7-8.3 7.7s-5.1-.2-6.6.2c-1.4.6-4.3 5.7-6.3 5.7s-6-3.2-9.7-4c-3.7-.8-9.5-.8-10.5-2.2-1.2-1.4-2.6-4-4.3-4.9-1.7-.8-4.9-2.2-3.7-4 1.2-1.8 1.4-7.7 0-9.7-1.4-2-3.4-2-5.4-1.8s-3.4 1.2-4.3.2c-.8-.8-5.7-4.9-10.3-5.4-4.6-.6-9.5-1.4-9.1-3.2.2-1.8 1.8-4.9 1.4-6.9-.2-2-4.3-9.5-2.6-11.5s3.4-9.7 3.4-9.7-10.1.6-10.9-.2-3.2-6.9-5.2-10.3c-.9-1.7-2.8-3.7-4.5-5.4-3 5.1-6.3 11.5-6.5 12.4-.5 1.7 1.1 17.6 1.1 20.6s-7.7 4.7-12.2 4.7-6.3.8-6.3 4.5-4.7 15.9-8.2 17.2-11.1 11.1-12.2 13.5c-1.1 2.4-2.8 5.1-4.5 5.8-1.7.6-5-.5-5.8-2.1-.8-1.8-8.4-8.5-10.5-9.2-2.1-.6-3.7-5-4.5-6.6-.8-1.7-6.3-4-7.7-6.9-1.5-2.8.8-5.8-1.9-4.7-2.8 1.1-6.3.6-7.3 1.3-1.1.6-1.5 4.3-1.5 6.6s5.3 9.5 7.1 12.2c1.7 2.8-1.3 9.7-1.3 10.9s2.4-.2 3.4 1.1 7.7 10.3 8.2 10.9 5.1 2.1 6.4 3.4c0 0 10.7 6.7 16.1 9.8 5.4 3.2 10.3 3.7 11.1 3.7s1.7 3.7 3.2 6.3c1.4 2.6 15.2 6.6 15.7 8.1.6 1.4-2.2 8.5-3.4 10.9-1.2 2.2 3.7 4.9 6.9 6 3.2 1.2 5.1-2.8 6.9-2.8s6.6 1.2 7.7 1.2 3.2-1.4 4.6-1.7c1.4-.2 3.2 3.4 4.9 5.4s1.4 5.1 3.7 7.1 5.7 3.2 8.5 4.3c2.8 1.2 1.2 1.4-.6 2.6-1.7 1.2-2.2-.8-2.2 1.2s-3.4 2.8-2 4.9c1.4 2 2 16.8 2.2 20 .2 3.2-.2 4.6-.6 6.3-.2 1.7 2 7.1 2.8 11.1.1.5.1 1.1.1 1.7 4.1 0 9.7-.1 11.6-.2 3.2-.2 2-1.2 4-2.2 2-1.2 5.1 1.8 8.1 1.8s8.3-1.4 10.3-1.4 8.3 3.2 9.1 4c.5.5 2.8.9 4.9 1.3.2-.4.4-.6.6-.7 1.4-1.2 3.7-.8 4.9.6s8.3 14.6 9.1 14.3 2.2-.2 3.2.6c.8.8 2.2 2.8 3.4 1.4s0-3.4 3.4-4.3c3.4-.8 8.3-2.2 11.5-.8s3.2 2.6 5.1 2.8c.7.1 2.5.1 4.5.2 0-1.1-.9-2.1-1.9-3.3-1.4-1.8-3.8-2.4-3.8-4.9s1.9-3.4 1.1-3.9c-.8-.5-2.4-1.1-1.7-2.7.7-1.7 2.7-2.6 2-4.6s-4.1-4.5-3.8-5.8c.4-1.4 2.7-5.1 3.8-7.9 1.1-2.7-.7-4.6 1.2-5.3s-.8-3-1.1-4.5v-.5c-4.3.4-10.3.5-12.9-.7-4.3-2 3.7-2.2 2-5.1-1.7-2.8-2.2-6.6-5.1-7.5-2.8-.8-5.7-1.2-6-2.8-.2-1.7-.6-3.4-1.7-6.6-1.2-3.2 4.3-6.9 4.6-10.1.2-3.2-1.7-6.3.6-11.1s3.4-10.1 4-14c.6-4-.8-6 2.8-7.1 3.7-1.2 4.3-3.2 6.3-6.3 2-3.2 4.9-2.8 7.5-5.1s1.7-4.9 7.1-4.9 9.7 2.2 13.1 0c3.3-2.5 7-10.8 6.7-13.1Z" class="JP39210"/><path fill="#fff" stroke="#000" stroke-miterlimit="10" d="M341.1 419.5c-2-1.4-2.2-6.3-6-8.5-3.7-2.2-5.7-5.7-6-7.1-.2-1.4-6.9-2-8.5-2.8-1.7-.8-4 .8-8.9 1.4s-7.7 1.2-9.1 1.2-.2-2.8-.2-5.1-4-18.4-5.1-19.8c-1.2-1.4-4.6.2-8.1.6-3.4.2-6-2.6-10.1-2.6s-8.9-.8-11.5.8c-2.6 1.7-2 18.6-3.2 20.2s-2.8 7.1-3.2 9.1c-.2 2-3.2-2-4.9-4.6-1.7-2.6-5.4-7.1-7.7-5.7s-10.5 11.5-11.5 16.6c-.2 1.4-.4 3.1-.5 4.7 1.1-.7 1.9-.9 3-.9 1.8 0 6.9 3.7 6.9 5.4s-.8 2.2-4.3 2.8c-3.4.6-2 1.7-2 4.3s4-.2 6.3-1.2q2.2-.8 2.2 2c0 2.8 8.9 11.5 10.5 13.5 1.8 2 2.2 1.7 4.3.8 2-.8 1.2-3.2 3.2-3.2s5.7 5.4 9.7 7.5c4 2 12.9-1.7 15.4-2.2 2.6-.6 5.7-6.3 6.3-7.1s5.4-1.2 7.1.2-.2 3.7-.6 6.6c-.2 2.8 7.1 8.3 8.1 10.5.8 2.2-2.8 17.4-3.2 19.4-.2 2 6 3.2 9.5 4.9s5.4 6 8.1 8.1c2.6 2 5.7 2.2 9.7 2.2s4-1.1 5.9-2.2l-.2-.2c-1.9-1.4-4.3-2.7-4.1-4.1s1.1-2.2 2.2-2.2 2.2-.8 3.1-2.2c.8-1.4 2.7-1.7 2.4-3.3-.4-1.5-2.6-4.5-2.6-6.4s1.5-5 1.5-6.2-3.1-1.5-4.3.1-2.4 2.6-3.3 2.2c-.8-.4-3.1-2.2-2.2-3.6.8-1.4 2-.5 2-3s1.9-4.3-.1-5.3-4.5-.1-3.1-2 2.4-2.2 4.1-1.9 2.7.7 2.2-1.1c-.5-1.7-.5-3.3.5-3.6 1.1-.4 4.3 0 3.9-2-.4-2-2.4-1.5-4.3-2.2s-3.4-2-6-3.4-6.2-2.2-4.1-4.1 2.6-1.9 3.9-3.1c1.4-1.2 2.7-.8 4.1-.1s.7-1.2 3.3-1.2.8-2.7 2.7-3.6c.7-.4 1.4-.5 2-.6-2.2-3-3.6-5.6-5.2-6.7Z" class="JP39401"/><path fill="#fff" stroke="#000" stroke-miterlimit="10" d="M317 389c2.6-.8-1.2-17.8 2.6-17.8s11.7-2 14.9-2.2c3.2-.2 2.2 1.2 4.3 1.2s3.7-3.8 5.7-7c-1.5-.5-2.4-1.1-2.8-2.2-.8-2.2-1.7-4-3.7-6s-16.6-5.4-21.2-7.7c-1.7-.8-3.4-2.7-5-4.7-.1.6-.4 1.1-.7 1.3-1.4 1.2-1.7-.8-3.4 0s-3.4 5.7-5.7 5.7-10.1-2-12-.8c-2 1.2-4.3 4.6-6.3 4.9s-7.7 1.2-10.5 2.6-6.9 6.6-9.5 6.6-5.4-5.4-7.5-5.4-6.6-.6-8.3-3.4-3.4-6.3-5.1-6.9c-1.8-.6-.2-6.9-2-6.6-1.7.2-7.5 1.4-9.1 1.4s-7.2-2-12.7-3.9c-.9 1.3-7.7 3.6-14.6 5.4 1.4 4.1 2.8 8.4 3.3 10.2.8 3.7-.6 10.5-2 12.3-1.4 1.7 1.4 2.6 2.2 3.7.8 1.2-.6 1.4-3.7 3.7-3.2 2.2-.6 3.7-1.2 6-.6 2.2-9.1 0-10.5 1.2s-2.8 7.5-3.7 9.5c-.8 2 2 6 4 8.5 2 2.6 7.5-3.2 8.9-3.7 1.4-.6 4.6 3.7 5.4 4.9.8 1.2-.2 10.5.8 13.5 1.2 2.8 6 3.4 7.5 5.4s7.1 5.1 9.5 6.6c.1 0 .1.1.2.1 3.6-1.9 7.7-4.4 9.6-5.6.9-.7 1.8-1.2 2.5-1.5.1-1.7.2-3.3.5-4.7.8-5.1 9.1-15.2 11.5-16.6 2.2-1.4 6 3.2 7.7 5.7 1.7 2.6 4.6 6.6 4.9 4.6.2-2 2-7.5 3.2-9.1 1.2-1.8.6-18.6 3.2-20.2s7.5-.8 11.5-.8 6.6 2.8 10.1 2.6c3.4-.2 6.9-2 8.1-.6.6.8 2 5.8 3.3 10.7 4.1.2 8.2.6 9.4.8 1.5.2 3.8-.6 6.4-1.4Z" class="JP39411"/><path fill="#fff" stroke="#000" stroke-miterlimit="10" d="M447.8 306.9c2.2-1.2 2.6-1.7 3.4-4 .8-2.2 4.9-12.9 4.3-14.9-.6-2-3.2-8.1-5.7-7.5-2.6.6-6.6 4-8.1 3.7-1.4-.2-2.6-2.6-6.3-3.4-3.7-.8-6.6-.6-7.7-2-1.2-1.4-1.4-4.9-3.2-6.3-1.7-1.4-4.9-2.6-4.6-3.7.2-1.2 2.2-5.1 3.7-6.3s3.4-4 1.7-6.3c-1.7-2.2-8.3-3.2-8.5-5.4-.2-2.2-3.7-10.1-.8-12.6 2.8-2.6 4.3-7.1 5.7-8.3 1.4-1.2 20.4-10.3 21.2-12 .8-1.7.8-2.6-.6-4.9-1.4-2.2-5.1-6.3-6.6-6-1.4.2-19.8 9.1-19.2 7.7s1.2-9.1.8-10.3c-.2-1.2-6.9-1.4-7.1-5.2-.2-3.7-4-6.3-5.4-8.1-1.4-1.7-1.2-4.9-3.4-6s-3.7-.6-3.4-2 2.6-3.7 1.4-6c-1.2-2.2-3.7-2.6-2.2-4.9 1.4-2.2 3.4-2 3.7-6.9.2-4.9-1.7-6.3-2-8.1-.2-1.7-6.6-6.9-5.4-8.5 1.2-1.7 4-1.7 1.4-4.3-1.8-1.8-9.7-6.6-14.8-13.4-3 1.2-7 .8-10.9-2.7-4.7-4-10.5-7.9-13.5-7.7s-7.3 8.8-8.5 13.7c-1.3 5-3.2 7.1-5.6 10.3s-13.3 6.6-15 7.1c-1.7.5-6-4.3-7.3-5.8s-6.4-2.8-7.7-1.7c-1.3 1.1-5 10.5-6 14.6s-10.1 8.2-12 10.1 1.5 9.8 1.5 11.8-.4.8-.8 1.4c2.2 1.9 4.3 4.1 4.1 5.7-.2 2.6 1.2 5.1 4.3 9.7 3.2 4.6 10.9 6.3 13.1 7.7s10.9 6.6 11.5 7.7c.6 1.2 2.2 4.6 2.2 9.5s2.6 14.6 2.8 16.3c.2 1.7-3.7 3.2-5.1 5.1-1.4 2 1.2 8.9 1.4 13.7.1 1.9 0 2.8-.5 3.3 2.6.8 5.1 1.8 7 1.8 3.4 0 4.3-4.9 7.7-5.7s3.2-1.2 7.5 1.4c4.3 2.6 5.4 5.4 5.4 7.7s4 4.3 6.3 6.3 2.8-2.6 4.3-2.8 2.2 2.8 3.7 6c1.4 3.2 4.6 4.6 7.5 6.9 2.8 2.2 4 3.2 5.1 5.4 1.2 2.2 1.2 1.8 4 .8 2.8-.8 2.6-3.2 3.7-.8 1.2 2.2 2.2 1.4 4.6 1.2 2.2-.2 2.2-9.7 2.2-11.5s2.2-1.7 2.2.2.6 6 .6 8.1 5.7 3.2 8.1 5.1c2.2 2 9.1 5.7 10.5 10.5 1.4 4.9-.8 7.1-3.2 10.5-.8 1.2-.9 2.5-.7 3.8.1-.4.2-.6.4-.7 1.2-.6 14.3-2.6 17.2-2.6s3.6 3.7 4.9 7c3.9-2 8.8-5.6 10.1-7.3.2-.4.6-.7.9-.9-.6-1.8-1.2-4 0-4.5Z" class="JP39386"/><path fill="#fff" stroke="#000" stroke-miterlimit="10" d="M533.5 284.3c-1.4 0-3.7.8-4.3-.8s-1.4-2.2 1.2-2.2 4 1.2 4-.6-1.8-2.2-4-3.2c-2.2-.8-4.3-.8-4-2.8s3.4-5.1 1.2-4.3-3.2 2-5.1 1.4c-2-.6-4.3 1.4-5.4-1.7-1.2-3.2-9.1-19.4-8.5-22.3.6-2.8 3.7-4.3 3.7-5.4s1.4-6.9 0-9.1c-1.3-2-8.3-6.4-8.9-9.1-4.3.6-9.7 1.2-11.4.6-2.8-1.2-3.2-7.7-6.3-8.3-3.2-.6-3.4-1.2-6-1.2s-5.1 6.3-8.3 6.3-14.3-.2-15.4.6c-1.2.8-3.2 6-5.1 4.3-.9-.8-5.3-4-9.5-6.9-4.9 3.1-18.2 9.7-19.4 10.7-1.4 1.2-2.8 5.7-5.7 8.3s.6 10.3.8 12.6c.2 2.2 6.9 3.2 8.5 5.4 1.8 2.2-.2 5.1-1.7 6.3-1.4 1.2-3.4 5.1-3.7 6.3s2.8 2.2 4.6 3.7c1.7 1.4 2 4.9 3.2 6.3s4 1.2 7.7 2 4.9 3.2 6.3 3.4c1.4.2 5.4-3.2 8.1-3.7 2.6-.6 5.2 5.4 5.7 7.5.6 2-3.4 12.6-4.3 14.9-.8 2.2-1.2 2.8-3.4 4-1.1.6-.5 2.8.4 5-.4.2-.7.6-.9.9-1.3 1.7-6.2 5.3-10.1 7.3.9 2.4 1.5 4.7 1.7 5.6.2 2 5.1 4.9 7.5 6 2.2 1.2 2 7.5 4.6 10.5 1.3 1.5 4.3 6.5 6.9 11.1 4.4-1.7 10.9-4.3 12.9-5.8 2.7-2.2 10.2-7.2 16-9.5.9-.4 2.1-.8 3.3-1.3 6.4-2.4 15.4-5.6 17.4-7.3 2.4-2 1.9-2-1.9-1.7-3.8.4-4.1.4-5-1.4-.8-1.7-2-2.2-1.1-3.6 1.1-1.4 2.4-1.7.5-2s-4.1-1.1-4.3-3.4-3.1-3.9-1.4-5.4 6-1.8 6.7-3.1c.7-1.4 2.6-3.6.4-3.9-2.2-.4-5.3-2-3.6-2.6 1.7-.5 2.6.7 3.3-.4.7-1.1-1.9-6-1.1-6.7.8-.7 2.2-1.7 2.2-.7s-.1 4.1 1.2 4.6c1.4.5 3.9 1.5 3 2.6-1.1 1.1-3 14.4-3 15.7s4.6-1.7 3.8 0c-.8 1.7-4.3 4.5-4.6 6.2s1.7 3.3 3.8 1.5c2-1.7 8.9-7.6 12-8.8.6-.2 1.9-.6 3.6-1.2 1.2-4.5 2.5-9.5 3.8-12.6 2.2-5.4 8.3-10.9 8.3-13.5-.2-2.7.6-5.2-.8-5.2Z" class="JP39201"/><path fill="#fff" stroke="#000" stroke-miterlimit="10" d="M413.1 167.9c1.7-.6 10.3-6.9 13.5-6.9s11.5-.2 13.7-.2 12.9-5.4 15.7-7.5c2.8-2 3.4-4.6 4.6-6s3.4-1.4 5.1-2-.2-2.6-2.2-5.4c-2-2.8-2.8-7.1-2.8-11.1s1.8-5.2 3.4-7.7c-3.2-.1-7.3-1.9-10.4-3.2-3.2-1.3-5.1.6-10.3 1.9-5.1 1.3-10.5-3.2-12.4-3.7s-8.2.5-11.1 1.8-4.7 6-5.6 7.3-14.3-5.6-16.7-5.1c-2.4.5-12.9 8.8-15.9 10.8-.5.4-.9.6-1.5.7 5 6.7 13 11.5 14.8 13.4 2.6 2.6-.2 2.6-1.4 4.3s5.1 6.9 5.4 8.5c.2 1.7 2.2 3.2 2 8.1 0 .9-.1 1.7-.4 2.4 5.3-.1 11.6 0 12.4-.2Z" class="JP39364"/><path fill="#fff" stroke="#000" stroke-miterlimit="10" d="M455.7 221.9c1.2-.8 12.3-.6 15.4-.6s5.7-6.3 8.3-6.3 2.8.6 6 1.2 3.4 7.1 6.3 8.3c1.7.7 7.1.1 11.4-.6-.1-.4-.1-.6 0-.9 1.2-2.6-1.2-10.3-1.7-13.1-.5-2.5 5.7-3.2 12.2-11.1-.7-.4-1.2-.8-1.3-1.5-.6-2.6-2.2-10.5-4.3-12-2-1.4-.2-2.8-.6-5.4-.2-2.6-1.4-7.1-5.4-9.7s-7.7-2.2-7.1-6c.6-3.7 1.7-2.6.2-7.1-1.2-3.7-12.6-27.6-20.7-40.3-.5 1.8-2.2 3.6-3.8 4.5-1.7 1.1-3.2-.2-6.4-.2h-.2c-1.7 2.6-3.4 5.7-3.4 7.7 0 4 .8 8.3 2.8 11.1 2 2.8 4 4.9 2.2 5.4-1.7.6-4 .6-5.1 2-1.2 1.4-1.7 4-4.6 6-2.8 2-13.5 7.5-15.7 7.5s-10.5.2-13.7.2-11.7 6.3-13.5 6.9c-.9.4-7.1.2-12.7 0-.7 2.5-2.2 2.7-3.3 4.5-1.4 2.2 1.2 2.6 2.2 4.9 1.2 2.2-1.2 4.6-1.4 6-.2 1.4 1.2.8 3.4 2s2 4.3 3.4 6c1.4 1.7 5.2 4.3 5.4 8.1.2 3.7 6.9 4 7.1 5.2s-.2 8.9-.8 10.3 17.8-7.5 19.2-7.7 5.1 3.7 6.6 6c1.4 2.2 1.4 3.2.6 4.9-.1.2-.7.7-1.8 1.4 4.1 3 8.4 6 9.5 6.9 2.1 1.7 4.1-3.6 5.2-4.4Z" class="JP39363"/><path fill="#fff" stroke="#000" stroke-miterlimit="10" d="M758.6 304.3c-1.7.6-2.8 3.7-4 2.2-1.2-1.4-.8-3.2-2.6-3.2s-4.6-.2-5.1-1.2c-.4-.6-2.1-3.7-4.7-6.2-1.4 2.8-4.1 5.8-4.7 7.1-.8 1.7-2 3.7-2.2 6.6-.2 2.8-.8.2-3.2 3.2-2.2 2.8-4.9 3.4-6.9 8.9-2 5.4-1.7 9.5-4 12.6-2.2 3.2-2.6 6.9-3.2 8.5-.6 1.7-2.6 2.6-4 4-.8.8-4.7 7.6-7.8 13.1 1.7 1.1 4.6 2.6 7.9 4.4 4.3 2.2 5.8 3 8.5 5.1.6.5 1.4 1.1 2.4 1.5.1-1.8.6-3.3 1.7-3.9 2.6-1.7 2.6-.2 4.3-2.8 1.7-2.6 4.3-7.1 7.1-11.1s5.1-8.9 5.1-13.1-1.4-13.7.8-15.2c2.2-1.4 6.3-1.2 7.5-2.2 1.2-1.2 8.1-7.1 10.9-9.1.8-.6 1.9-2.1 3-3.9-2.6-3-5.6-5.7-6.5-5.3Z" class="JP39304"/><path fill="#fff" stroke="#000" stroke-miterlimit="10" d="M806.9 247.2c1.5-.8 17.6-10.8 16.9-12.2-.6-1.5-5.2-4.5-4.5-7.1.6-2.6-4-6.6-1.7-8.4 2.4-1.7 4.5-4.3 1.9-6.3-2.6-1.9-8.2-3-10.8-2.8-2.6.2-14.8-5.8-17.8-5.1-3 .6-21.1 4.3-24.5 3.9-3.4-.5-7.3-1.5-6.4-2.4 0 0-5.8 6-5.8 9.2s3.4 2.6 7.5 4.3c4 1.7 5.1 2.8 3.2 4.9-2 2-5.4 8.1-6.9 9.5s-1.2.8-4.6 2.2-2.8 2.6-5.4 3.7c-2.6 1.2-1.7-2.8-2.8-.2s-7.1 15.7-9.1 17.8 1.2.8 2.8 2.6c1.7 1.7.8 5.4.8 8.3s-1.7 3.4-4.3 5.1c-2.6 1.7-2 7.1-.2 9.5 1.7 2.2 4.9 0 6 .8s2 4.9 2 8.3-.4 2.1-.9 3.2c2.6 2.6 4.4 5.7 4.7 6.2.6.8 3.4 1.2 5.1 1.2s1.4 1.8 2.6 3.2 2.2-1.7 4-2.2c.9-.4 3.9 2.4 6.7 5.3 2.4-3.9 4.9-9.5 5.9-10.4 1.4-1.4 2.8-.2 2.8-3.2s-3.7-8.1-1.4-10.1c2.2-2 6.3-9.5 6.3-11.7s1.7-7.5 3.7-7.5 9.1.8 12.9 2c3.7 1.2 5.7 3.4 8.1 1.4 1.4-1.3 5.1-8.2 7.5-13.1-.9-.6-1.5-1.3-1.5-2.1-.2-3 1.5-2.1-.5-4.3-2.2-2-3.9-2.4-2.4-3.3Z" class="JP39306"/><path fill="#fff" stroke="#000" stroke-miterlimit="10" d="M740.8 354.1c0 2.6 1.4 7.5 3.2 9.7 1.7 2.2 4.3 6.6 10.5 4.9 6.3-1.7 8.3-3.4 12-4.9s8.5-4.9 14-4.6 6-4.9 10.1-8.1c4-3.2 6-7.7 7.5-6.9s0 2.2 4.3 1.2c4.3-1.2 28.7-10.1 28.9-11.7s-1.2-6.3.2-6.9 4.3 3.7 5.4 1.2c1.2-2.6 4.6-4.3 3.7-8.1-.8-3.7-9.7-15.2-9.7-18s.1-7.6.2-13.4c-.4 0-.6-.2-.6-.6 0-2.4-4.5-14.6-6-16.1s-5.3-4.3-5.6-6c-.2-1.7 1.7-3.9.8-4.7-.6-.6-6.2-2.1-9-4.1-2.5 5-6 11.8-7.5 13.1-2.2 2-4.3-.2-8.1-1.4-3.7-1.2-10.9-2-12.9-2s-3.7 5.1-3.7 7.5-4 9.7-6.3 11.7c-2.2 2 1.4 7.1 1.4 10.1s-1.4 1.7-2.8 3.2c-1.4 1.4-6 12.3-8.9 14.3-2.8 2-9.7 8.1-10.9 9.1-1.2 1.2-5.1.8-7.5 2.2-2.2 1.4-.8 10.9-.8 15.2s-1.7 7.8-4 11.5c1.3.7 2 1.4 2 2.6Z" class="JP39305"/><path fill="#fff" stroke="#000" stroke-miterlimit="10" d="M744 363.8c-1.7-2.2-3.2-7.1-3.2-9.7s-.7-1.9-1.8-2.5c-.4.6-.7 1.2-1.2 1.7-2.8 4-5.4 8.5-7.1 11.1-1.7 2.6-1.7 1.2-4.3 2.8-.9.7-1.4 2.1-1.7 3.9 2.7 1.5 6.6 3.4 10.2 4.9l10.5-9.9c-.5-.7-1.1-1.5-1.5-2.2Z" class="JP39303"/><path fill="#fff" stroke="#000" stroke-miterlimit="10" d="M763.4 388.6c1.7-3.4 3.2-2.5 6-5.4 4.6-4.7 8.3-12.9 8.3-14.3 0-2-2.2-2 1.2-4 2.7-1.5 5.3-1.8 7.1-8.2-1.3 1.5-2.7 2.6-5.3 2.5-5.4-.2-10.3 3.2-14 4.6-3.7 1.4-5.7 3.2-12 4.9-4.5 1.2-7.1-.6-8.9-2.6l-10.5 9.9c.9.4 1.9.8 2.8 1.1 5.4 2 7.7 5.3 7.9 6.9.1 1.5 3.9 8.4 3.1 9.9s-1.9 4.3-1.5 5.3c.1.2.1.5.1.7 3.2-2 7.1-4.4 9-5.2 3.6-1.7 5.2-3.2 6.6-6Z" class="JP39302"/><path fill="#fff" stroke="#000" stroke-miterlimit="10" d="M830.1 334.6c-4.9 2.8-24 9.8-27.8 10.8-4.3 1.2-2.8-.2-4.3-1.2-1.4-.8-3.4 3.7-7.5 6.9-2.1 1.7-3.2 3.8-4.6 5.6-1.8 6.5-4.4 6.6-7.1 8.2-3.4 2-1.2 2-1.2 4s-3.7 9.6-8.3 14.3c-2.8 3-4.3 2-6 5.4-1.4 2.8-3.2 4.3-6.9 6-1.9.8-5.7 3.2-9 5.2 0 .8-.4 1.8-.5 2.7-.1 1.2 1.1 4.3 3.8 4.3s7.3 2 7.9 3.3c.5 1.2 4.1 3.3 4.1 3.9s3.6 7.9 5.7 10.4c2 2.6 2 3.8 6 5.1 3.9 1.4 9.2 5.8 9.9 8.3.7 2.4 2.2 9.5 1.5 11.8s-1.2 4.6 1.9 4.9c3.1.1 3.3-2.2 5.1-2.4 1.9-.1 9.1 2 9.8 3.9.7 1.9 1.4 4.1 3.6 5.3 2.2 1.2 3.6 6.5 5.7 8.4 2 1.9 3.8 4.6 4.1 7.2s1.9 8.9 4.3 8.5 3.4-2.2 3.4-6.4 1.2-13.6 3.1-26.8c1.9-13.3 6.2-23.2 5.8-28.2-.4-5 1.7-13.9 4.6-17.6 3-3.8 2.6-6.7 2.6-9.6s-2-4.1-1.5-6.2 5-9.6 6-13.5c1.1-3.9 6.7-9.1 6.7-12.9-1.8-4.6-4.4-10.5-5.4-12-1.4-1.8-10.3-11.5-15.7-17.9Z" class="JP39202"/><path fill="#fff" stroke="#000" stroke-miterlimit="10" d="M886.5 294.5c-2.6-1.7-11.8-5-13.3-4.7-1.5.2-1.5 2.6-4.5 2.6s-8.8 1.3-9.7 1.3-.8-1.9-2.8-1.5c-1.9.5-2.8 2.1-4 .8-1.3-1.3-7.9-7.3-9.5-7.9-1.3-.6-9.2 3.8-11.5 3.6-.1 5.8-.2 12-.2 13.4 0 2.8 8.9 14.3 9.7 18 .8 3.7-2.6 5.4-3.7 8.1-1.2 2.6-4-1.8-5.4-1.2-1.4.6 0 5.1-.2 6.9 0 .2-.5.5-1.1.9 5.4 6.4 14.3 16.1 15.7 18 1.1 1.4 3.7 7.5 5.4 11.8.1-3.7 3.2-5.9 3.2-8.3s1.7-9.5 3.9-12.7c2.2-3.3 7.9-12.7 10.3-16.1s9.6-7.7 9.5-9.8c-.1-2-.8-2.4-1.5-4.3s-1.2-3.1.7-5.3 2.2-3.3 3.6-5c1.4-1.7.7 1.4 2.2.7 1.5-.7 3.3-3.3 3.3-4.6s.9-1.7 1.7-2.1c-.5-1.1-1.1-2-1.8-2.5Z" class="JP39301"/><path fill="#fff" stroke="#000" stroke-miterlimit="10" d="M646.5 278.3c-2 0-5.2-2.6-6.6-2.2-1.4.2-5.1 3.4-5.1 6s-.8 7.1-2.6 9.1c-1.7 2-10.3 4.6-14.9 11.7-2.4 3.7-5.1 9.2-7.3 14 3 .7 7.8.7 10.9.6 2-.1 8.8-.2 14.4.2 2-3 4.9-6.7 6.6-7.6 2.8-1.4 1.4 2.8 3.7 1.7 2.2-1.2 5.7-3.4 6.6-4.6.8-1.2 8.9-19.2 9.1-23.4.2-3.6.2-9.8-2-14.1-1.7.7-3.3 1.5-3.9 2-1.4 1.2-6.9 6.6-8.9 6.6Z" class="JP39307"/><path fill="#fff" stroke="#000" stroke-miterlimit="10" d="M669.7 231.6c-3.2 1.2-3.2-5.4-4.9-5.4s-14.6 6.3-17.8 8.1c-3.2 1.7-1.2 4.6-2.8 8.1-1.7 3.4-2 2.2-3.7 4.3-1.7 2-11.7 13.5-16 16.3-4.3 2.8-.2-5.1-2.6-4.9-2.2.2-4.3-2.6-6-2.8-1.7-.2-7.7 5.7-10.1 6.9-2.2 1.2-11.7 4.3-14.9 6.3s-4-.8-4-2.2-6.9.2-8.9 1.7-1.7-4.6-2.6-2.6c-.5 1.2-5.8 7.6-10.2 12.8 1.8-.9-.1 3.2-1.2 6.4-1.2 3.2 1.7 8.3 2.6 12.9.8 4.6-.6 3.4-1.4 4.6-.4.5-.6 2-.6 3.9 7.7-1.1 15.6-2 19.1-2 6.9 0 18.8 1.4 18.6 3.9-.4 2.6-2 6-.4 7 1.8 1.1 3.9.5 6.5 1.7.4.2.9.4 1.4.5 2.2-4.7 5.1-10.4 7.3-14 4.6-7.1 13.1-9.7 14.9-11.7 1.7-2 2.6-6.6 2.6-9.1s3.7-5.7 5.1-6c1.4-.2 4.6 2.2 6.6 2.2s7.5-5.4 8.9-6.6c.6-.5 2.2-1.3 3.9-2-.5-.8-.9-1.7-1.7-2.2-4-4-2.6-4.6-1.2-5.2s7.7-3.2 7.7-4.9-2.8-1.7-1.2-4.6c1.7-2.8 2.6-1.2 2.8-5.4s.6-8.3 1.2-10.1c.2-.8 2.6-3.9 5.1-7-.6.7-1.4 1.2-2.4 1.5Z" class="JP39211"/><path fill="#fff" stroke="#000" stroke-miterlimit="10" d="M764.2 196.4c1.3-1.1 3 .5.6-2.6-1.3-1.7-1.8-2.5-1.9-3.2-1.1-.1-2.1-.1-3-.1-5.2-.2-7.1 3.2-9.7 3.4s-3.7-1.4-6-1.4-3.2.6-4.6 1.7c-1.4 1.2-4.9-.6-9.7 1.4-4.9 2-4.9 8.5-6.3 11.5-1.4 2.8-7.5 4.9-8.9 7.5s-10.5 10.5-14.6 14.6c-4 4-10.3 6.6-12.9 7.7-2.6 1.2-4-1.2-6.3-.6-2.2.6-2-3.4-4.3-6-1.7-1.8-3-.9-4.6.1-2.5 3.1-4.9 6.3-5.1 7-.6 1.7-.8 5.7-1.2 10.1-.2 4.3-1.2 2.6-2.8 5.4-1.7 2.8 1.2 2.8 1.2 4.6s-6.3 4.3-7.7 4.9-2.8 1.2 1.2 5.2 4 12 3.7 16.3c-.2 4.3-8.3 22.3-9.1 23.4s-4.3 3.4-6.6 4.6c-2.2 1.2-.8-3.2-3.7-1.7-1.8.8-4.6 4.6-6.6 7.6 4.3.4 8.1.9 8.8 2 1.7 2.6 4.9 4.6 9.5 4.9 4.6.1 17.9 1.7 24.4 4.1 6.5 2.4 15.6 4.3 17.9 7.2 2.2 3 5 8.9 4.3 10.8-.7 1.9-.5 4.6.1 5.1.7.5 3.6 6.7 4.9 7.6.2.2.7.5 1.2.8 3.1-5.6 7-12.3 7.8-13.1 1.4-1.4 3.4-2.2 4-4 .6-1.7.8-5.4 3.2-8.5 2.2-3.2 2-7.1 4-12.6s4.6-6 6.9-8.9c2.2-2.8 2.8-.2 3.2-3.2.2-2.8 1.4-4.9 2.2-6.6s5.7-6.9 5.7-10.3-.8-7.5-2-8.3-4.3 1.4-6-.8-2.2-7.7.2-9.5c2.6-1.7 4.3-2.2 4.3-5.1s.8-6.6-.8-8.3c-1.7-1.8-4.9-.6-2.8-2.6 2-2 8.1-15.2 9.1-17.8 1.2-2.6.2 1.4 2.8.2s2-2.2 5.4-3.7c3.4-1.4 3.2-.8 4.6-2.2s4.9-7.5 6.9-9.5.8-3.2-3.2-4.9c-4-1.8-7.5-1.2-7.5-4.3s5.8-9.2 5.8-9.2c.9-1.1 2.8-9.7 4.1-10.8Z" class="JP39203"/><path fill="#fff" stroke="#000" stroke-miterlimit="10" d="M664 136.5c-.7-.2-1.1-.6-1.1-.9 0-1.7-5.6-14.3-10.8-16.5-5.1-2.1-1.1-4.5-6.4-5.8-5.3-1.3-9.8 4.5-15.3 4.5s-9 0-10.3-1.1c-1.3-1.1-.5-2.6-3.7-2.6s-15.6 4.3-18 3-3.2-6.6-5.8-7.3c-2.6-.6-18-1.1-19.5-1.9s-5-3-8.5-4c-3.7-1.1-6.6-4-7.7-5.1-.6-.6-1.8-5.3-2.8-9.7l-.2.2c-1.9 2.4-7.7 0-10.3 0s-4.7 4-7.7 4.7c-3 .6-9.8-5.1-11.8-5.1s-8.8 6.4-10.8 7.9c-.2.1-.4.2-.6.4 0 5.8.1 12.2.4 14.8.6 5.4 8.5 9.5 12.3 10.3 3.7.8 7.1 2.2 8.1 4.6.8 2.2 3.4 2 5.4 5.1 2 3.2-1.7 11.1-2.2 14.9-.6 3.7 2.8 7.7 4.3 10.3s3.4 7.7 2.8 11.5c-.6 3.7-4.6 2-1.2 6 3.4 4 1.7 2.6-.2 5.4-1.2 1.7-1.2 6.3-1.1 10.3 1.3 0 2.5.6 4.7 2.2 3.2 2.2 11.7 11.7 16 14.9 4.3 3.2 5.7 6.3 7.7 4 2-2.2 8.9-6.6 14-8.9s7.5-6.9 8.5-10.1c1.2-3.2 7.5-8.1 9.1-8.9 1.7-.8 5.7-4 8.1-2 2.2 2 4.9 6.9 7.7 5.1 2.8-1.7 1.4-4 5.4-7.1 4-3.2 4.9-7.7 8.1-6s2.6 2.2 3.7.6c1.2-1.7 1.7-2.8 4.6-4.3 2.8-1.4 3.4-2.6 4.3-5.4.8-2.8 3.4-6.9 6.6-8.1 3.2-1.2 2.2-1.4 4.3-5.1 2-3.7 6.3-8.3 7.7-10.3 1.4-1.9-2-3.2 2.4-4.7Z" class="JP39344"/><path fill="#fff" stroke="#000" stroke-miterlimit="10" d="M542.4 179.9c2-2.8 3.7-1.4.2-5.4-3.4-4 .6-2.2 1.2-6 .6-3.7-1.4-8.9-2.8-11.5-1.4-2.6-4.9-6.6-4.3-10.3s4.3-11.7 2.2-14.9-4.6-2.8-5.4-5.1-4.3-3.7-8.1-4.6c-3.7-.8-11.7-4.9-12.3-10.3-.2-2.6-.4-8.9-.4-14.8-1.8.7-4-1.7-6.5-2.7-2.8-1.1-5.3-5.6-9-4.5s-6 2.8-7.3 4.5c-1.3 1.7-1.3 4-3.9 5.8-2.6 1.7-3.2 5.6-4 7.5-.8 1.9-3 2.4-5.8 3.2s-1.7 2.8-1.7 5 0 .6-.1.8c8.2 12.7 19.5 36.6 20.7 40.3 1.4 4.6.2 3.4-.2 7.1-.6 3.7 3.2 3.4 7.1 6 4 2.6 5.2 7.1 5.4 9.7.2 2.6-1.4 4 .6 5.4 2 1.4 3.7 9.5 4.3 12 .5 2.2 4 1.9 7 3.7 7.5-3.9 19.2-10.1 20.5-10.4.6-.1 1.1-.2 1.5-.2-.1-3.8-.1-8.4 1.1-10.1Z" class="JP39341"/><path fill="#fff" stroke="#000" stroke-miterlimit="10" d="M90.1 703.6c0-4.3 0-2 2.2-3.4s3.2-5.2 4.3-4c1.2 1.2 7.1 6.3 8.3 6s4.9-2 4.6-3.4-4-8.9-2-10.3c2-1.4 4.3 2 4.9.8s1.2-2 2.6-2 1.8 1.4 2.8-.6c1.2-2 4-8.3 3.2-12.3-.8-4-3.2-9.5-2.8-11.1.2-1.8.8-3.2.6-6.3-.2-3.2-.8-18-2.2-20-1.4-2 2-2.8 2-4.9s.6 0 2.2-1.2 3.4-1.4.6-2.6-6.3-2.2-8.5-4.3c-2.2-2-2-5.1-3.7-7.1-1.8-2-3.4-5.7-4.9-5.4-1.4.2-3.4 1.7-4.6 1.7s-6-1.2-7.7-1.2-3.7 4-6.9 2.8c-3.2-1.2-8.1-3.7-6.9-6 1.2-2.2 4-9.5 3.4-10.9s-14.3-5.4-15.7-8.1c-1.4-2.6-2.2-6.3-3.2-6.3s-5.7-.6-11.1-3.7c-5.4-3.2-16.1-9.8-16.1-9.8 1.3 1.3 4.3 20 4.3 21.9s-5.1 9.2-6.4 10.3c-1.3 1.1 6.6 7.5 8.2 10.1s2.1 11.6 2.4 15.6 2.8 7.5 3 10.1c.2 2.6 0 0-.8 2.8s.8 3.2 1.3 7.1c.5 3.9 2.1 3.4 2.6 6.3.5 2.8-1.1 5.6-2.8 6.4-1.7.8.6 8.5-1.3 11.4-1.9 2.8-14 1.9-14.8 5.1-.5 1.9-.5 4.6-.2 6.9 1.1.4 1.4 2.5 2.7 2.7 1.3.1 3.4-.9 3.6.1.1 1.2-.7 2.2 0 2.5.7.1 2.7-.1 3.3-.8.6-.7 2.6-2.7 3.3-2.5s.7 1.4 1.9 1.3c1.2-.1 3.4 1.9 4.3.9.8-.8-.7-2 .5-3s4-3.2 3-1.7c-.9 1.4-3.2 3-.9 4 2.1.9 2.5.9 3.9 0s1.9-3.6 3-2.8c1.2.7 2.2 2.1 2 4.7s2.7 4.7 1.7 5.6c-.9.8-2 3.2-.7 4.9 1.3 1.8 3.9.1 4.4 1.2.6.9-1.4 4.7-3.4 4.3s-4.7-3.3-5.1-2.2c-.5.9 1.9 3.6 2.8 4.7.9 1.2-.1 2.2 1.2 2.5 1.3.1 3.6 2.5 3.2 3-.5.6 1.8 2.7.8 2.7s-.7-.9-1.5-.5c-.8.6-3.4 2.6-2.2.7 1.2-1.9.7-4.4-.2-3.4s-4.4 4.3-3.7 2.8c.7-1.4 3-3.3 1.7-4.6-1.3-1.3-.8-3.4-2.2-2.7-.5.2-.8.5-1.3.7-.4 2.7-2.1 7.1-2.6 7.9-.6 1.2 3.4 2.2 3.4 2.2s2.8 2.6 4 3.2 4.6-2.6 5.7-2.8c1.2-.2 3.4 6 4.6 8.1 1.2 2 2.6 2 3.7 3.4 1.2 1.4 1.2 6.6 2.2 7.7 1.2 1.2 2-.2 2.8-.2s3.4 3.2 4.9 4.6c.5.5 1.2 1.5 2 2.8 1.1-1.9 2.5-4 4-4.6 3.2-1.2 7.5-2.6 7.5-4.6s-2-6.6-1.4-9.5c.4-1.8.6-4.9 1.1-7.3-.6-1.5-1.1-3-1.1-3.8-.4-2-7.2-8.3-7.2-12.6Z" class="JP39208"/><path fill="#fff" stroke="#000" stroke-miterlimit="10" d="M93.6 768.8c-1.4-4-3.7-1.8-4.9-3.4-1.2-1.8 0-4.3.6-6 .6-1.7 2.6-3.7 1.4-6.3s-4.3-8.5-5.7-10.1c-1.4-1.4-4-4.6-4.9-4.6s-1.7 1.4-2.8.2-1.2-6.3-2.2-7.7c-1.2-1.4-2.6-1.4-3.7-3.4-1.2-2-3.4-8.3-4.6-8.1s-4.6 3.4-5.7 2.8c-1.2-.6-4-3.2-4-3.2s-4-1.2-3.4-2.2c.5-.9 2.1-5.2 2.6-7.9-.8.5-1.7.8-3.2.8-2.2 0-5.7 4.3-4 4.4 1.7.1 2.5.8 1.3 1.7s-8.9 6-10.2 7.3c-1.3 1.3-3.6 4.3-4.7 4.7s-4 2-2.6 2.6c1.4.6 2 3.6 3.6 4.4s5.3 2.2 4.3 2.6c-.9.2-5.9-.2-6.3.6-.5.8 1.2 3.2 1.3 4.4s-1.4.4-1.7 1.5c-.4 1.2-1.1 4.6-2.2 3.8s-.1-4.5-1.2-3.4c-1.1 1.1-1.2 5.8-2.2 6.7-1.1.8-2.7-1.2-3 0-.1 1.2-.5 1.2.5 3.3 1.1 2-2.4 3.4-1.1 3.9 1.4.5 7.7.7 6.5 2.4s-3.8-.1-3.4 1.1c.4 1.2-.4 1.1-2 .8-1.7-.1-8.5-.7-7.9.5.7 1.2-.8 2.4 1.4 4.3s2.2 3.3 3.9 3.1c1.7-.1 3.8 2.7 1.9 3-1.9.1-4.3-1.1-3.9-.1.4.8 3.8 7.6 2 8.4-1.7.8-5.3 2-5.4 3-.1.8-2.2 1.7.7 1.5 3-.1 3.1-1.5 5-1.5s5.4 1.1 5.4-.5-1.1-5.8-.1-7c.8-1.2 3.4-.8 4.5-1.7s4.3-2 7.6-1.9c3.3.1 3.8 1.5 5.3.4s3.9-1.9 2.7-3.3-1.9-2-1.2-2.7 5.8-1.5 8.1-1.5 5-2.7 5.4-2.4c.5.4.7 2.4 1.5 2.4s1.4-2 2-1.1c.7 1.1 1.7 1.9 1.5 3.8s-1.5 5 0 4.5 1.7-1.1 2.2.4c.5 1.4.5 4.5 1.9 3.8 1.4-.7.7.1 2.4 1.2 1.8 1.1 4.5 2.4 4.9 3 .4.5 1.4 1.4 2 3.9.7 2.6 1.4 6.2 4.6 6.2s5-.8 4.9-2.4.8-2.6 2.2-1.9c1.4.7 4.1 4.6 5.7 3.9.9-.5 1.4-1.1 1.9-1.2-.4-4.6-1.3-13.5-2.4-16-1.3-3.6-1.7-1.5-3.1-5.6Z" class="JP39424"/><path fill="#fff" stroke="#000" stroke-miterlimit="10" d="M435.9 371.2c-.1 0-.4-.1-.6-.2-1.4-1.1-3 0-4.3.4-1.4.4-1.9-5.4-3.3-5.3-1.4.1-2.7.7-3.3 2.4-.5 1.7-.4 3.1-1.4 3.3-1.1.1.8 3-.5 2.7-1.4-.1-2.4-1.7-2.6-.5-.1 1.2.4 5.7-.8 4.3-1.2-1.4-2.4-4.1-3.4-3.3s.1 3.4-1.2 2.7c-1.4-.7-3.6-2.2-4.1-.7-.5 1.5-.8 5.3-2 3.9s-2.6-5-3.6-5.4c-1.1-.5-2.4-2.6-2.7-.7s.8 8.5-1.2 8.9-5.3.8-3.8-.4 3.8-2.4 2.6-3.3c-1.2-.8-5.7 2.7-6.2.5s0-3.6 1.9-4.3 3.9-2.6 4.6-3.6c.7-1.1 5-1.2 7.6-1.4 2.6-.1 6.4 1.5 7.6.5s4.9-2.4 5.8-3.6c1.1-1.2 1.1-3.6-.4-3.6s-2.4-1.7-1.5-2.4 1.5-1.7 2.6-1.5c1.1.1 1.5 1.5 3.4 1.2s3.8-3 3.8-3 1.7 0 1.4 2.2c-.4 2 1.1 4 3.3 4.4-.2-4.6.7-12.3.2-14.3-.6-2.6-11.1-4-12.3-4s-2.8 2-4.9 4c-2 2-10.5 8.9-12 8.9s-3.7-4.3-6-3.2c-2.2 1.2-6 5.7-8.1 6.6-2 .8-9.7.8-11.1 2-1.4 1.2-5.1 4.9-5.7 4-.4-.6-3.4-8.9-4.5-15.2-6.2 4.5-14.6 10.1-18.1 9.8-3-.2-5.1-.5-6.6-.9-2 3.2-4.5 7-5.7 7-2 0-1.2-1.4-4.3-1.2-3.2.2-11.1 2.2-14.9 2.2s0 16.9-2.6 17.8-4.9 1.8-7.5 1.2c-1.2-.2-5.2-.6-9.4-.8 1.1 4.1 1.9 8.1 1.9 9.1 0 2.2-1.2 5.1.2 5.1s4.3-.6 9.1-1.2 7.1-2.2 8.9-1.4c1.7.8 8.3 1.4 8.5 2.8.2 1.4 2.2 4.9 6 7.1 3.7 2.2 4 7.1 6 8.5 1.7 1.2 3 3.8 5.7 6.9.8-.1 1.2-.2.9-1.2-.5-1.5-1.9-3.4-1.1-4.6s1.7-3.3 1.1-5.4c-.7-2.2-4.1-3.1-2.7-4.5 1.4-1.4 2.6-2.6 4.3-2.4 1.8.1 1.5-.4 3.3-2.2 1.7-1.9 4.9-.7 4.5-2.4-.4-1.8-2.7-3.3-1.5-3.9 1.2-.7 5.4-1.7 6.5-2.6 1.1-.8 4.3-1.2 3.6-.1s-2.7 2.4-3.6 2.7-1.4 1.7.1 1.7 2.7.1 3 1.2c.1 1.1 2.2 2.4 3 1.5s0-3.8 1.7-2.4 3 3 3.6 1.7c.7-1.2 3.3-3.6 4.1-3 .8.7 2.6 2 1.7 2.7-.8.7-1.4 1.8-.7 2 .7.4.5 1.5-.4 2-.8.5-2 1.4-1.1 1.9 1.1.5.1 2.4 1.5 2.7 1.4.4 3.3 1.4 2.4-1.1-.8-2.4-1.4-3.4.1-3.9s3.1-.8 2.2-3.3c-.8-2.4-1.4-7.6.4-8.4s4.1-.8 4.1-2.4.1-3.3 3-3.6c2.7-.4 4.5.7 6.4-.5s3.4 1.2 5.1.1 2.6 3.8 3.6 2.6c1.1-1.2.1-3.6 1.5-3.8 1.4-.1 3 .7 4.1-.4s1.4-.8 3.1.1c1.7 1.1 1.2-1.1 3.8-.1 2.6.8 2 3.4 3.4 3 1.4-.5.5-3.3 1.4-3.9.8-.7 1.1-3.3 2-3.3s2 2 3 1.4c.8-.7 1.5-3 2.6-3s1.7 2.4 3 1.5c1.2-.8.1-2.6 1.9-3 1.7-.4 3 1.5 3.8.5.8-.9 1.3-3.3 1.9-3.9-1.9-1.7-3.9-3.7-5.3-5.3Z" class="JP39206"/></svg>